<?xml version="1.0" encoding="utf-8"?>
<!-- Generator: Adobe Illustrator 16.0.0, SVG Export Plug-In . SVG Version: 6.00 Build 0)  -->
<!DOCTYPE svg PUBLIC "-//W3C//DTD SVG 1.1//EN" "http://www.w3.org/Graphics/SVG/1.1/DTD/svg11.dtd">
<svg version="1.1" id="Layer_1" xmlns="http://www.w3.org/2000/svg" xmlns:xlink="http://www.w3.org/1999/xlink" x="0px" y="0px"
	 width="512px" height="512px" viewBox="0 0 512 512" enable-background="new 0 0 512 512" xml:space="preserve">
<g>
	<g>
		<path fill="#0098D0" d="M482.722,103.198c13.854,0,25.126,11.271,25.126,25.126v257.9c0,13.854-11.271,25.125-25.126,25.125H30.99
			c-13.854,0-25.126-11.271-25.126-25.125v-257.9c0-13.854,11.271-25.126,25.126-25.126H482.722 M482.722,98.198H30.99
			c-16.638,0-30.126,13.488-30.126,30.126v257.9c0,16.639,13.488,30.125,30.126,30.125h451.731c16.64,0,30.126-13.486,30.126-30.125
			v-257.9C512.848,111.686,499.36,98.198,482.722,98.198L482.722,98.198z"/>
	</g>
	<g>
		<g>
			<g>
				<g>
					
						<radialGradient id="SVGID_2_" cx="387.1836" cy="77.2217" r="512.0785" gradientTransform="matrix(1 0 0 -1 -286 167)" gradientUnits="userSpaceOnUse">
						<stop  offset="0" style="stop-color:#00B1E7"/>
						<stop  offset="0.427" style="stop-color:#0098CD"/>
						<stop  offset="0.5244" style="stop-color:#008DBE"/>
						<stop  offset="0.8403" style="stop-color:#006C91"/>
						<stop  offset="1" style="stop-color:#005F80"/>
					</radialGradient>
					<path id="SVGID_1_" fill="url(#SVGID_2_)" d="M263.488,241.026v-10.115c0,0-0.535-7.92-8.802-7.92h-12.852v18.035h-13.193
						v-51.994h32.03c0,0,16.718-2.024,16.718,15.218c0,8.975-7.391,12.139-7.391,12.139s6.416,2.997,6.416,11.795v12.841
						L263.488,241.026 M241.835,210.762h13.643c3.961,0,7.219-2.201,7.219-4.926c0-2.73-3.258-4.93-7.219-4.93h-13.643V210.762
						L241.835,210.762"/>
				</g>
			</g>
			<g>
				<g>
					
						<radialGradient id="SVGID_3_" cx="387.2021" cy="77.2222" r="512.044" gradientTransform="matrix(1 0 0 -1 -286 167)" gradientUnits="userSpaceOnUse">
						<stop  offset="0" style="stop-color:#00B1E7"/>
						<stop  offset="0.427" style="stop-color:#0098CD"/>
						<stop  offset="0.5244" style="stop-color:#008DBE"/>
						<stop  offset="0.8403" style="stop-color:#006C91"/>
						<stop  offset="1" style="stop-color:#005F80"/>
					</radialGradient>
					<path id="SVGID_4_" fill="url(#SVGID_3_)" d="M419.223,241.026l-20.938-34.752v34.752h-11.352h-2.119h-12.394l-4.668-10.908
						h-24.105l-4.583,10.908H326.92h-2.196h-6.339c0,0-17.768-2.549-17.768-24.545c0-28.862,20.154-27.716,20.851-27.893
						l16.278,0.444v11.7l-13.367,0.172c0,0-8.715,0-9.775,11.355c-0.124,1.303-0.181,2.501-0.172,3.614
						c0.048,17.577,15.258,12.12,15.754,11.958l16.364-38.799h18.473l19.792,47.159v-47.159h18.654l20.68,34.227v-34.227h13.29
						v51.994H419.223 M349.279,216.834h12.84l-6.329-15.486L349.279,216.834L349.279,216.834"/>
				</g>
			</g>
			<g>
				<g>
					
						<radialGradient id="SVGID_5_" cx="387.2021" cy="77.2144" r="512.0485" gradientTransform="matrix(1 0 0 -1 -286 167)" gradientUnits="userSpaceOnUse">
						<stop  offset="0" style="stop-color:#00B1E7"/>
						<stop  offset="0.427" style="stop-color:#0098CD"/>
						<stop  offset="0.5244" style="stop-color:#008DBE"/>
						<stop  offset="0.8403" style="stop-color:#006C91"/>
						<stop  offset="1" style="stop-color:#005F80"/>
					</radialGradient>
					<path id="SVGID_7_" fill="url(#SVGID_5_)" d="M159.92,241.026v-35.893l-16.536,35.893h-10.821l-16.631-35.72v35.72h-11.524
						h-1.762H89.888l-4.573-10.908H61.208l-4.664,10.908h-14.43l21.906-51.994h18.569l20.058,47.774v-47.774h20.852l14.521,32.289
						l14.436-32.289h20.851v51.994H159.92 M66.836,216.834h12.845l-6.42-15.486L66.836,216.834L66.836,216.834"/>
				</g>
			</g>
			<g>
				<g>
					
						<radialGradient id="SVGID_6_" cx="387.1738" cy="77.2144" r="512.0867" gradientTransform="matrix(1 0 0 -1 -286 167)" gradientUnits="userSpaceOnUse">
						<stop  offset="0" style="stop-color:#00B1E7"/>
						<stop  offset="0.427" style="stop-color:#0098CD"/>
						<stop  offset="0.5244" style="stop-color:#008DBE"/>
						<stop  offset="0.8403" style="stop-color:#006C91"/>
						<stop  offset="1" style="stop-color:#005F80"/>
					</radialGradient>
					<polyline id="SVGID_10_" fill="url(#SVGID_6_)" points="180.6,241.026 180.6,189.033 221.786,189.033 221.786,201.172 
						193.89,201.172 193.89,209.177 221.08,209.177 221.08,220.968 193.89,220.968 193.89,229.77 221.786,229.77 221.786,241.026 
						180.6,241.026 					"/>
				</g>
			</g>
			<g>
				<g>
					
						<radialGradient id="SVGID_8_" cx="387.1943" cy="77.2119" r="512.0569" gradientTransform="matrix(1 0 0 -1 -286 167)" gradientUnits="userSpaceOnUse">
						<stop  offset="0" style="stop-color:#00B1E7"/>
						<stop  offset="0.427" style="stop-color:#0098CD"/>
						<stop  offset="0.5244" style="stop-color:#008DBE"/>
						<stop  offset="0.8403" style="stop-color:#006C91"/>
						<stop  offset="1" style="stop-color:#005F80"/>
					</radialGradient>
					<polyline id="SVGID_13_" fill="url(#SVGID_8_)" points="282.85,241.203 282.85,189.033 296.13,189.033 296.13,241.203 
						282.85,241.203 					"/>
				</g>
			</g>
		</g>
		<g>
			<g>
				<g>
					
						<radialGradient id="SVGID_9_" cx="387.1943" cy="77.2104" r="512.0392" gradientTransform="matrix(1 0 0 -1 -286 167)" gradientUnits="userSpaceOnUse">
						<stop  offset="0" style="stop-color:#00B1E7"/>
						<stop  offset="0.427" style="stop-color:#0098CD"/>
						<stop  offset="0.5244" style="stop-color:#008DBE"/>
						<stop  offset="0.8403" style="stop-color:#006C91"/>
						<stop  offset="1" style="stop-color:#005F80"/>
					</radialGradient>
					<path id="SVGID_16_" fill="url(#SVGID_9_)" d="M314.432,329.189v-10.121c0,0-0.533-7.914-8.802-7.914h-12.842v18.035h-13.204
						v-51.998h32.03c0,0,16.718-2.023,16.718,15.223c0,8.975-7.389,12.145-7.389,12.145s6.34,2.988,6.34,11.78v12.851H314.432
						 M292.788,298.925h13.644c3.952,0,7.208-2.194,7.208-4.926c0-2.729-3.256-4.927-7.208-4.927h-13.644V298.925L292.788,298.925"
						/>
				</g>
			</g>
			<g>
				<g>
					
						<radialGradient id="SVGID_11_" cx="387.2002" cy="77.23" r="512.0739" gradientTransform="matrix(1 0 0 -1 -286 167)" gradientUnits="userSpaceOnUse">
						<stop  offset="0" style="stop-color:#00B1E7"/>
						<stop  offset="0.427" style="stop-color:#0098CD"/>
						<stop  offset="0.5244" style="stop-color:#008DBE"/>
						<stop  offset="0.8403" style="stop-color:#006C91"/>
						<stop  offset="1" style="stop-color:#005F80"/>
					</radialGradient>
					<path id="SVGID_19_" fill="url(#SVGID_11_)" d="M226.445,329.104h-11.533l-13.977-15.4l-14.091,15.4h-8.001h-41.091v-52.086
						h41.091h6.951l15.142,16.543l15.219-16.457h10.119v-0.086h32.022c0,0,16.718-1.851,16.718,15.301
						c0,15.313-5.548,20.067-22.619,20.067h-12.926v16.718H226.445 M209.909,303.508l16.363,18.12v-36.165L209.909,303.508
						L209.909,303.508 M151.042,317.85h27.801l13.023-14.342l-13.023-14.264h-27.801v8.001h27.095v11.801h-27.095V317.85
						L151.042,317.85 M239.468,298.83h13.633c3.961,0,7.217-2.196,7.217-4.926c0-2.721-3.256-4.928-7.217-4.928h-13.633V298.83
						L239.468,298.83"/>
				</g>
			</g>
			<g>
				<g>
					
						<radialGradient id="SVGID_12_" cx="387.2031" cy="77.207" r="512.0391" gradientTransform="matrix(1 0 0 -1 -286 167)" gradientUnits="userSpaceOnUse">
						<stop  offset="0" style="stop-color:#00B1E7"/>
						<stop  offset="0.427" style="stop-color:#0098CD"/>
						<stop  offset="0.5244" style="stop-color:#008DBE"/>
						<stop  offset="0.8403" style="stop-color:#006C91"/>
						<stop  offset="1" style="stop-color:#005F80"/>
					</radialGradient>
					<path id="SVGID_22_" fill="url(#SVGID_12_)" d="M404.441,329.018h-23.496v-11.973h20.595c0,0,7.39,0.88,7.39-4.123
						c0-4.679-11.17-4.316-11.17-4.316s-18.216,1.586-18.216-15.484c0-16.984,16.449-16.016,16.449-16.016h25.347v12.14h-20.41
						c0,0-7.046-1.412-7.046,3.705c0,4.296,9.585,3.685,9.585,3.685s20.153-1.488,20.153,14.168
						c0,16.793-12.984,18.282-17.585,18.282C405.044,329.084,404.441,329.018,404.441,329.018"/>
				</g>
			</g>
			<g>
				<g>
					
						<radialGradient id="SVGID_14_" cx="387.1934" cy="77.2139" r="512.063" gradientTransform="matrix(1 0 0 -1 -286 167)" gradientUnits="userSpaceOnUse">
						<stop  offset="0" style="stop-color:#00B1E7"/>
						<stop  offset="0.427" style="stop-color:#0098CD"/>
						<stop  offset="0.5244" style="stop-color:#008DBE"/>
						<stop  offset="0.8403" style="stop-color:#006C91"/>
						<stop  offset="1" style="stop-color:#005F80"/>
					</radialGradient>
					<polyline id="SVGID_25_" fill="url(#SVGID_14_)" points="333.794,329.104 333.794,277.191 374.962,277.191 374.962,289.244 
						347.073,289.244 347.073,297.245 374.264,297.245 374.264,309.046 347.073,309.046 347.073,317.85 374.962,317.85 
						374.962,329.104 333.794,329.104 					"/>
				</g>
			</g>
			<g>
				<g>
					
						<radialGradient id="SVGID_15_" cx="387.2041" cy="77.207" r="512.0264" gradientTransform="matrix(1 0 0 -1 -286 167)" gradientUnits="userSpaceOnUse">
						<stop  offset="0" style="stop-color:#00B1E7"/>
						<stop  offset="0.427" style="stop-color:#0098CD"/>
						<stop  offset="0.5244" style="stop-color:#008DBE"/>
						<stop  offset="0.8403" style="stop-color:#006C91"/>
						<stop  offset="1" style="stop-color:#005F80"/>
					</radialGradient>
					<path id="SVGID_28_" fill="url(#SVGID_15_)" d="M450.984,329.018h-23.495v-11.973h20.507c0,0,7.477,0.88,7.477-4.123
						c0-4.679-11.169-4.316-11.169-4.316s-18.218,1.586-18.218-15.484c0-16.984,16.449-16.016,16.449-16.016h25.262v12.14h-20.334
						c0,0-7.038-1.412-7.038,3.705c0,4.296,9.597,3.685,9.597,3.685s20.144-1.488,20.144,14.168
						c0,16.793-12.983,18.282-17.584,18.282C451.586,329.084,450.984,329.018,450.984,329.018"/>
				</g>
			</g>
		</g>
	</g>
</g>
</svg>
