<?xml version="1.0" encoding="utf-8"?>
<!-- Generator: Adobe Illustrator 16.0.0, SVG Export Plug-In . SVG Version: 6.00 Build 0)  -->
<!DOCTYPE svg PUBLIC "-//W3C//DTD SVG 1.1//EN" "http://www.w3.org/Graphics/SVG/1.1/DTD/svg11.dtd">
<svg version="1.1" id="Layer_1" xmlns="http://www.w3.org/2000/svg" xmlns:xlink="http://www.w3.org/1999/xlink" x="0px" y="0px"
	 width="612px" height="407.6px" viewBox="0 0 612 407.6" enable-background="new 0 0 612 407.6" xml:space="preserve">
<g>
	<title>Layer 1</title>
	<g id="svg_2331">
		<g id="svg_2332">
			<g id="svg_2333">
				<g>
					<defs>
						<rect id="SVGID_1_" x="0" y="-1" width="612" height="407.6"/>
					</defs>
					<clipPath id="SVGID_2_">
						<use xlink:href="#SVGID_1_"  overflow="visible"/>
					</clipPath>
					<rect id="svg_2335" x="0" y="-1" clip-path="url(#SVGID_2_)" fill="#2C2A7C" width="612" height="407.6"/>
				</g>
			</g>
			<g id="svg_2336">
				<g>
					<defs>
						<rect id="SVGID_3_" x="0" y="-1" width="612" height="407.6"/>
					</defs>
					<clipPath id="SVGID_4_">
						<use xlink:href="#SVGID_3_"  overflow="visible"/>
					</clipPath>
					<polygon id="svg_2338" clip-path="url(#SVGID_4_)" fill="#FFFFFF" points="161.1,248.9 170.4,282 198.9,269.7 181.9,298.6 
						208.3,315.999 177.6,319.499 181.9,353.499 161.1,328.4 140.3,353.499 144.1,319.499 113.9,315.999 140.3,298.6 123.3,269.7 
						151.7,282 					"/>
				</g>
			</g>
			<g id="svg_2339">
				<g>
					<defs>
						<rect id="SVGID_5_" x="0" y="-1" width="612" height="407.6"/>
					</defs>
					<clipPath id="SVGID_6_">
						<use xlink:href="#SVGID_5_"  overflow="visible"/>
					</clipPath>
					<polygon id="svg_2341" clip-path="url(#SVGID_6_)" fill="#FFFFFF" points="482.801,308.4 487.5,324.1 501.1,318.199 
						493,332.199 505.301,340.3 490.9,341.999 493,358.1 482.801,346.199 473,358.1 475.2,341.999 460.7,340.3 473,332.199 
						465,318.199 478.5,324.1 					"/>
				</g>
			</g>
			<g id="svg_2342">
				<g>
					<defs>
						<rect id="SVGID_7_" x="0" y="-1" width="612" height="407.6"/>
					</defs>
					<clipPath id="SVGID_8_">
						<use xlink:href="#SVGID_7_"  overflow="visible"/>
					</clipPath>
					<polygon id="svg_2344" clip-path="url(#SVGID_8_)" fill="#FFFFFF" points="402.5,162.6 407.2,178.4 420.3,172.8 412.7,186.4 
						425,194.9 410.5,196.2 412.7,212.8 402.5,200.9 392.7,212.8 394.4,196.2 380,194.9 392.7,186.4 384.6,172.8 398.2,178.4 					
						"/>
				</g>
			</g>
			<g id="svg_2345">
				<g>
					<defs>
						<rect id="SVGID_9_" x="0" y="-1" width="612" height="407.6"/>
					</defs>
					<clipPath id="SVGID_10_">
						<use xlink:href="#SVGID_9_"  overflow="visible"/>
					</clipPath>
					<polygon id="svg_2347" clip-path="url(#SVGID_10_)" fill="#FFFFFF" points="482.801,63.2 487.5,78.9 501.1,73 493,87 
						505.301,95.5 490.9,96.8 493,112.9 482.801,101 473,112.9 475.2,96.8 460.7,95.5 473,87 465,73 478.5,78.9 					"/>
				</g>
			</g>
			<g id="svg_2348">
				<g>
					<defs>
						<rect id="SVGID_11_" x="0" y="-1" width="612" height="407.6"/>
					</defs>
					<clipPath id="SVGID_12_">
						<use xlink:href="#SVGID_11_"  overflow="visible"/>
					</clipPath>
					<polygon id="svg_2350" clip-path="url(#SVGID_12_)" fill="#FFFFFF" points="554.6,138.4 558.9,154.1 572.5,148.2 564.4,161.8 
						577.2,170.3 562.7,172 564.4,188.1 554.6,176.2 544.4,188.1 546.6,172 532.1,170.3 544.4,161.8 536.801,148.2 549.9,154.1 
											"/>
				</g>
			</g>
			<g id="svg_2351">
				<g>
					<defs>
						<rect id="SVGID_13_" x="0" y="-1" width="612" height="407.6"/>
					</defs>
					<clipPath id="SVGID_14_">
						<use xlink:href="#SVGID_13_"  overflow="visible"/>
					</clipPath>
					<polygon id="svg_2353" clip-path="url(#SVGID_14_)" fill="#FFFFFF" points="515.1,211.9 518.9,221.7 527.801,222.5 521,229.4 
						523.2,239.5 515.1,234 507.5,239.5 509.6,229.4 502.301,222.5 511.7,221.7 					"/>
				</g>
			</g>
			<g id="svg_2354">
				<g>
					<defs>
						<rect id="SVGID_15_" x="0" y="-1" width="612" height="407.6"/>
					</defs>
					<clipPath id="SVGID_16_">
						<use xlink:href="#SVGID_15_"  overflow="visible"/>
					</clipPath>
					<polygon id="svg_2356" clip-path="url(#SVGID_16_)" fill="#FFFFFF" points="134.3,-1 134.3,60.2 0,60.2 0,121.4 134.3,121.4 
						134.3,183 187.9,183 187.9,121.4 322.2,121.4 322.2,60.2 187.9,60.2 187.9,-1 					"/>
				</g>
			</g>
			<g id="svg_2357">
				<g>
					<defs>
						<rect id="SVGID_17_" x="0" y="-1" width="612" height="407.6"/>
					</defs>
					<clipPath id="SVGID_18_">
						<use xlink:href="#SVGID_17_"  overflow="visible"/>
					</clipPath>
					<polygon id="svg_2359" clip-path="url(#SVGID_18_)" fill="#FFFFFF" points="0,-1 0,19.4 286,183 322.2,183 322.2,162.2 
						36.1,-1 					"/>
				</g>
			</g>
			<g id="svg_2360">
				<g>
					<defs>
						<rect id="SVGID_19_" x="0" y="-1" width="612" height="407.6"/>
					</defs>
					<clipPath id="SVGID_20_">
						<use xlink:href="#SVGID_19_"  overflow="visible"/>
					</clipPath>
					<polygon id="svg_2362" clip-path="url(#SVGID_20_)" fill="#FFFFFF" points="286,-1 0,162.2 0,183 36.1,183 322.2,19.4 
						322.2,-1 					"/>
				</g>
			</g>
			<g id="svg_2363">
				<g>
					<defs>
						<rect id="SVGID_21_" x="0" y="-1" width="612" height="407.6"/>
					</defs>
					<clipPath id="SVGID_22_">
						<use xlink:href="#SVGID_21_"  overflow="visible"/>
					</clipPath>
					<polygon id="svg_2365" clip-path="url(#SVGID_22_)" fill="#E91E26" points="144.9,-1 144.9,72.5 0,72.5 0,109.5 144.9,109.5 
						144.9,183 177.2,183 177.2,109.5 322.2,109.5 322.2,72.5 177.2,72.5 177.2,-1 					"/>
				</g>
			</g>
			<g id="svg_2366">
				<g>
					<defs>
						<rect id="SVGID_23_" x="0" y="-1" width="612" height="407.6"/>
					</defs>
					<clipPath id="SVGID_24_">
						<use xlink:href="#SVGID_23_"  overflow="visible"/>
					</clipPath>
					<path id="svg_2368" clip-path="url(#SVGID_24_)" fill="#E91E26" d="M0-1v13.6L83.3,60.2H107.1L0-1z M297.9-1L190.8,60.2H214.6
						L322.2-1H297.9L297.9-1z"/>
				</g>
			</g>
			<g id="svg_2369">
				<g>
					<defs>
						<rect id="SVGID_25_" x="0" y="-1" width="612" height="407.6"/>
					</defs>
					<clipPath id="SVGID_26_">
						<use xlink:href="#SVGID_25_"  overflow="visible"/>
					</clipPath>
					<path id="svg_2371" clip-path="url(#SVGID_26_)" fill="#E91E26" d="M107.5,121.4L0,183h23.8l107.5-61.2h-23.8V121.4
						L107.5,121.4z M214.6,121.4l107.5,61.2V169L238.8,121.4H214.6L214.6,121.4z"/>
				</g>
			</g>
		</g>
	</g>
</g>
</svg>
