<?xml version="1.0" encoding="utf-8"?>
<!-- Generator: Adobe Illustrator 16.0.0, SVG Export Plug-In . SVG Version: 6.00 Build 0)  -->
<!DOCTYPE svg PUBLIC "-//W3C//DTD SVG 1.1//EN" "http://www.w3.org/Graphics/SVG/1.1/DTD/svg11.dtd">
<svg version="1.1" id="Layer_1" xmlns="http://www.w3.org/2000/svg" xmlns:xlink="http://www.w3.org/1999/xlink" x="0px" y="0px"
	 width="38px" height="172px" viewBox="0 0 38 172" enable-background="new 0 0 38 172" xml:space="preserve">
<g>
	<g>
		<path fill="#FBAF41" d="M19,41.058c-9.958,0-18.031,8.072-18.031,18.031S9.042,77.12,19,77.12c9.958,0,18.03-8.072,18.03-18.031
			S28.958,41.058,19,41.058z M19,73.638c-8.036,0-14.549-6.514-14.549-14.548c0-8.035,6.514-14.548,14.549-14.548
			c8.034,0,14.547,6.513,14.547,14.548C33.548,67.124,27.034,73.638,19,73.638z"/>
	</g>
</g>
<g>
	<g>
		<path fill="#FBAF41" d="M19,108.088c-6.012,0-10.886,4.872-10.886,10.886c0,6.013,4.874,10.886,10.886,10.886
			c6.013,0,10.885-4.873,10.885-10.886C29.885,112.96,25.013,108.088,19,108.088z M19,127.758c-4.851,0-8.784-3.933-8.784-8.784
			c0-4.851,3.933-8.782,8.784-8.782c4.851,0,8.783,3.932,8.783,8.782S23.851,127.758,19,127.758z"/>
	</g>
</g>
<g>
	<g>
		<path fill="#2F323B" d="M19,1.233C9.042,1.233,0.97,9.306,0.97,19.264c0,9.958,8.072,18.03,18.031,18.03
			c9.958,0,18.03-8.072,18.03-18.03C37.03,9.306,28.958,1.233,19,1.233z M19,33.814c-8.036,0-14.549-6.514-14.549-14.549
			S10.965,4.717,19,4.717c8.034,0,14.547,6.513,14.547,14.548C33.548,27.299,27.034,33.814,19,33.814z"/>
	</g>
</g>
<g>
	<g>
		<path fill="#53565F" d="M19,133.477c-9.958,0-18.031,8.072-18.031,18.03c0,9.959,8.072,18.031,18.031,18.031
			c9.958,0,18.03-8.072,18.03-18.031C37.03,141.549,28.958,133.477,19,133.477z M19,166.058c-8.036,0-14.549-6.514-14.549-14.549
			S10.965,136.96,19,136.96c8.034,0,14.547,6.514,14.547,14.549C33.548,159.542,27.034,166.058,19,166.058z"/>
	</g>
</g>
<g>
	<g>
		<path fill="#53565F" d="M19,83.795c-5.883,0-10.652,4.769-10.652,10.652S13.117,105.1,19,105.1
			c5.883,0,10.652-4.769,10.652-10.652S24.883,83.795,19,83.795z M19,103.043c-4.748,0-8.596-3.848-8.596-8.596
			c0-4.747,3.848-8.595,8.596-8.595c4.746,0,8.594,3.848,8.594,8.595S23.746,103.043,19,103.043z"/>
	</g>
</g>
</svg>
