<?xml version="1.0" encoding="UTF-8"?>
<svg width="40px" height="40px" viewBox="0 0 40 40" version="1.1" xmlns="http://www.w3.org/2000/svg" xmlns:xlink="http://www.w3.org/1999/xlink">
    <!-- Generator: Sketch 52.6 (67491) - http://www.bohemiancoding.com/sketch -->
    <title>Group 14</title>
    <desc>Created with Sketch.</desc>
    <g id="Page-1" stroke="none" stroke-width="1" fill="none" fill-rule="evenodd">
        <g id="DC_Designer-user-cabinet---Notifications" transform="translate(-1345.000000, -685.000000)">
            <g id="Group-14" transform="translate(1345.000000, 685.000000)">
                <path d="M20,0 C31.0463534,0 40,8.95684893 40,20.0016012 C40,31.0463534 31.0463534,40 20,40 C8.95364663,40 0,31.0463534 0,20.0016012 C0,8.95684893 8.95204547,0 20,0 Z" id="Path" fill="#6AF0AD"></path>
                <g id="Layer-1" transform="translate(12.000000, 12.000000)" fill="#FFFFFF" fill-rule="nonzero">
                    <path d="M5.83657143,9.776 L2.72914286,8.48 L2.72914286,9.57485714 L5.83657143,10.8708571 L5.83657143,9.776 Z M5.83657143,6.41485714 L2.72914286,5.12 L2.72914286,6.21485714 L5.83657143,7.50971429 L5.83657143,6.41485714 Z M14.872,0.794285714 C14.648,0.643428571 14.3657143,0.613714286 14.1165714,0.712 L7.94285714,3.18285714 L1.768,0.712 C1.51771429,0.613714286 1.23542857,0.643428571 1.01371429,0.794285714 C0.790857143,0.944 0.658285714,1.19542857 0.658285714,1.464 L0.658285714,11.824 C0.658285714,12.1542857 0.859428571,12.4525714 1.16685714,12.5748571 L7.62857143,15.1588571 C7.62857143,15.1588571 7.76114286,15.2011429 7.78514286,15.208 C7.83771429,15.216 7.89028571,15.2228571 7.94285714,15.2228571 C7.99428571,15.2228571 8.04685714,15.216 8.09942857,15.208 C8.12457143,15.2011429 8.25714286,15.1588571 8.25714286,15.1588571 L14.7177143,12.5748571 C15.024,12.4525714 15.2262857,12.1542857 15.2262857,11.824 L15.2262857,1.464 C15.2262857,1.19428571 15.0925714,0.944 14.872,0.794285714 Z M6.90514286,13.2411429 L1.69257143,11.1691429 L1.69257143,2.42285714 L6.90514286,4.49485714 L6.90514286,13.2411429 Z M14.16,11.1382857 L8.97942857,13.2102857 L8.97942857,4.49714286 L14.16,2.42514286 L14.16,11.1382857 Z M13.1222857,8.48 L10.0137143,9.776 L10.0137143,10.8708571 L13.1222857,9.57485714 L13.1222857,8.48 Z M13.1222857,5.05257143 L10.0137143,6.41371429 L10.0137143,7.50857143 L13.1222857,6.14857143 L13.1222857,5.05257143 Z" id="svg_1_1_"></path>
                </g>
            </g>
        </g>
    </g>
</svg>