<?xml version="1.0" encoding="utf-8"?>
<!-- Generator: Adobe Illustrator 16.0.0, SVG Export Plug-In . SVG Version: 6.00 Build 0)  -->
<!DOCTYPE svg PUBLIC "-//W3C//DTD SVG 1.1//EN" "http://www.w3.org/Graphics/SVG/1.1/DTD/svg11.dtd">
<svg version="1.1" id="Layer_1" xmlns="http://www.w3.org/2000/svg" xmlns:xlink="http://www.w3.org/1999/xlink" x="0px" y="0px"
	 width="612.446px" height="408.301px" viewBox="-284.96 -19.314 612.446 408.301"
	 enable-background="new -284.96 -19.314 612.446 408.301" xml:space="preserve">
<g>
	<g>
		<g>
			<defs>
				<rect id="SVGID_1_" x="-284.96" y="-19.314" width="612.446" height="408.301"/>
			</defs>
			<clipPath id="SVGID_2_">
				<use xlink:href="#SVGID_1_"  overflow="visible"/>
			</clipPath>
			<rect x="-284.96" y="-19.314" clip-path="url(#SVGID_2_)" fill="#E91E26" width="144.181" height="408.301"/>
		</g>
		<g>
			<defs>
				<rect id="SVGID_3_" x="-284.96" y="-19.314" width="612.446" height="408.301"/>
			</defs>
			<clipPath id="SVGID_4_">
				<use xlink:href="#SVGID_3_"  overflow="visible"/>
			</clipPath>
			<rect x="183.307" y="-19.314" clip-path="url(#SVGID_4_)" fill="#E91E26" width="144.179" height="408.301"/>
		</g>
		<g>
			<defs>
				<rect id="SVGID_5_" x="-284.96" y="-19.314" width="612.446" height="408.301"/>
			</defs>
			<clipPath id="SVGID_6_">
				<use xlink:href="#SVGID_5_"  overflow="visible"/>
			</clipPath>
			<rect x="-140.78" y="-19.314" clip-path="url(#SVGID_6_)" fill="#FFFFFF" width="324.512" height="408.301"/>
		</g>
		<g>
			<defs>
				<rect id="SVGID_7_" x="-284.96" y="-19.314" width="612.446" height="408.301"/>
			</defs>
			<clipPath id="SVGID_8_">
				<use xlink:href="#SVGID_7_"  overflow="visible"/>
			</clipPath>
			<g clip-path="url(#SVGID_8_)">
				<g>
					<defs>
						<rect id="SVGID_9_" x="-284.96" y="-19.314" width="612.446" height="408.301"/>
					</defs>
					<clipPath id="SVGID_10_">
						<use xlink:href="#SVGID_9_"  overflow="visible"/>
					</clipPath>
					<path clip-path="url(#SVGID_10_)" fill="#E91E26" d="M21.263,80.211l-21.267,35.3c-2.551,3.83-6.805,3.401-11.057,1.275
						l-15.312-7.23l11.483,54.44c2.552,9.781-5.529,9.781-8.932,5.531l-27.221-26.369l-4.253,13.608
						c-0.426,1.701-2.551,3.828-5.953,3.403l-34.025-6.381l8.932,28.921c1.7,6.381,3.401,9.356-2.127,11.06l-11.908,5.104
						l58.268,42.531c2.127,1.699,3.403,4.679,2.552,7.229l-5.104,14.885c19.988-2.126,38.278-3.828,58.268-5.952
						c1.701,0,4.679,1.275,4.679,3.401l-2.553,54.865h9.782l-1.701-54.865c0-1.702,2.552-3.401,4.679-3.401
						c19.991,2.124,38.278,3.826,58.269,5.952l-5.104-14.885c-0.853-2.551,0.423-5.53,2.549-7.229l58.27-42.531l-11.908-5.529
						c-5.528-1.702-3.83-4.253-2.127-11.058l8.932-28.921l-34.023,6.377c-3.404,0.428-5.531-1.274-5.957-3.401l-4.253-13.61
						l-26.794,26.797c-3.829,4.25-11.484,4.25-8.932-5.531l11.483-54.44l-15.31,7.23c-4.254,2.126-8.508,2.555-11.06-1.275
						L21.263,80.211z"/>
				</g>
			</g>
		</g>
	</g>
</g>
</svg>
