<?xml version="1.0" encoding="utf-8"?>
<!-- Generator: Adobe Illustrator 15.0.2, SVG Export Plug-In . SVG Version: 6.00 Build 0)  -->
<!DOCTYPE svg PUBLIC "-//W3C//DTD SVG 1.1//EN" "http://www.w3.org/Graphics/SVG/1.1/DTD/svg11.dtd">
<svg version="1.1" id="Слой_1" xmlns="http://www.w3.org/2000/svg" xmlns:xlink="http://www.w3.org/1999/xlink" x="0px" y="0px"
	 width="386.893px" height="366.93px" viewBox="0 0 386.893 366.93" enable-background="new 0 0 386.893 366.93"
	 xml:space="preserve">
<g>
	<title>Layer 1</title>
	<g id="svg_1">
		<g id="svg_2">
			<g id="svg_3">
				<g id="svg_4">
					<path id="svg_5" fill="#3A215A" d="M355.872,182.909c-6.902,0-12.5,5.597-12.5,12.5v146.447H36.447V34.928h246.569
						c6.905,0,12.5-5.597,12.5-12.5c0-6.901-5.596-12.5-12.5-12.5H23.947c-6.9,0-12.5,5.599-12.5,12.5v331.93
						c0,6.9,5.6,12.5,12.5,12.5h331.927c6.9,0,12.5-5.6,12.5-12.5V195.409C368.372,188.506,362.776,182.909,355.872,182.909z"/>
				</g>
			</g>
			<g id="svg_6">
				<g id="svg_7">
					<path id="svg_8" fill="#3A215A" d="M384.677,52.15c-4.881-4.882-12.795-4.882-17.678,0L163.404,255.747l-50.584-50.584
						c-4.882-4.881-12.796-4.881-17.679,0c-4.881,4.882-4.881,12.796,0,17.679l59.424,59.422c2.44,2.44,5.642,3.662,8.839,3.662
						c3.199,0,6.397-1.222,8.841-3.662L384.678,69.828C389.561,64.946,389.561,57.032,384.677,52.15z"/>
				</g>
			</g>
		</g>
		<g id="svg_9">
			<g id="svg_10">
				<g id="svg_11">
					<path id="svg_12" fill="#FFFFFF" d="M345.873,172.908c-6.903,0-12.5,5.598-12.5,12.5v146.447H26.447V24.928h246.569
						c6.904,0,12.5-5.598,12.5-12.5c0-6.902-5.596-12.5-12.5-12.5H13.947c-6.9,0-12.5,5.598-12.5,12.5v331.929
						c0,6.9,5.6,12.5,12.5,12.5h331.928c6.9,0,12.5-5.6,12.5-12.5V185.408C358.373,178.506,352.777,172.908,345.873,172.908z"/>
				</g>
			</g>
			<g id="svg_13">
				<g id="svg_14">
					<path id="svg_15" fill="#599A43" d="M374.677,42.149c-4.881-4.882-12.795-4.882-17.679,0L153.404,245.746l-50.584-50.584
						c-4.882-4.881-12.796-4.881-17.679,0c-4.881,4.883-4.881,12.797,0,17.679l59.424,59.423c2.44,2.439,5.642,3.661,8.839,3.661
						c3.199,0,6.397-1.222,8.841-3.661L374.679,59.827C379.561,54.945,379.561,47.031,374.677,42.149z"/>
				</g>
			</g>
		</g>
	</g>
</g>
</svg>
