<svg xmlns="http://www.w3.org/2000/svg" width="46" height="30" viewBox="0 0 46 30">
    <path fill="#EDFCFF" fill-rule="evenodd" d="M35.614 30C41.485 30 46 25.168 46 19.207V19.2C46 8.614 37.763.001 27.338 0c-1.469 0-2.414 1.21-2.414 2.7 0 1.49 1.182 2.7 2.651 2.7 3.193 0 6.11 1.132 8.431 3.01-.058-.002-.147-.01-.206-.01-5.873 0-10.696 4.836-10.696 10.8S29.74 30 35.614 30zm-24.91 0c5.872 0 10.402-4.832 10.402-10.793V19.2C21.106 8.614 12.854.001 2.429 0 .959 0 0 1.21 0 2.7c0 1.49 1.183 2.7 2.652 2.7 3.192 0 6.11 1.132 8.432 3.01-.059-.002-.145-.01-.204-.01C5.006 8.4.186 13.236.186 19.2S4.832 30 10.705 30z"/>
</svg>
