<svg xmlns="http://www.w3.org/2000/svg" width="200" height="171" viewBox="0 0 200 171">
    <g fill="none" stroke="#00C1F1" opacity=".16">
        <path d="M134.993 159.262c-48.207 20.33-118.147 9.91-131.018-41.506C-8.896 66.34 9.606 66.448 57.814 46.118 78.32 37.469 89.136 15.162 111.72 6.155 142.226-6.01 182.772-.95 190.168 28.594c12.87 51.416-6.968 110.338-55.175 130.668z" transform="translate(1 1)"/>
        <path d="M130.651 163.807c-49.756 13.692-118.716-6.18-127.407-59.113-8.69-52.932 29.258-61.6 79.014-75.293 49.756-13.692 105.33-41.115 114.02 11.818 8.69 52.932-15.871 108.896-65.627 122.588z" transform="translate(1 1)"/>
    </g>
</svg>
