<?xml version="1.0" encoding="UTF-8"?>
<svg width="221px" height="132px" viewBox="0 0 221 132" version="1.1" xmlns="http://www.w3.org/2000/svg" xmlns:xlink="http://www.w3.org/1999/xlink">
    <!-- Generator: sketchtool 52.6 (67491) - http://www.bohemiancoding.com/sketch -->
    <title>7226CF5E-792E-47F7-BC9E-24B00DA16B03</title>
    <desc>Created with sketchtool.</desc>
    <g id="Homepage" stroke="none" stroke-width="1" fill="none" fill-rule="evenodd" opacity="0.16">
        <g id="DC_Home-Page" transform="translate(-1029.000000, -6598.000000)" fill-rule="nonzero" stroke="#00C1F1">
            <g id="Group-6" transform="translate(182.000000, 6461.000000)">
                <g id="Group-3-Copy-2" transform="translate(958.836566, 199.686198) scale(-1, 1) rotate(8.000000) translate(-958.836566, -199.686198) translate(848.836566, 135.686198)">
                    <path d="M137.243855,127.974207 C190.159638,127.974207 219.368855,79.7253518 219.368855,48.0242071 C219.368855,16.3230625 149.097138,4.97420714 96.1813551,4.97420714 C43.2655725,4.97420714 0.36885508,30.6730625 0.36885508,62.3742071 C0.36885508,94.0753518 84.3280725,127.974207 137.243855,127.974207 Z" id="Oval"></path>
                    <path d="M109.228474,125.377124 C56.6365546,125.377124 12.9075421,89.935614 12.9075421,58.4411811 C12.9075421,26.9467482 77.4756227,0.37712398 130.067542,0.37712398 C182.659461,0.37712398 214.907542,31.3826911 214.907542,62.877124 C214.907542,94.3715569 161.820393,125.377124 109.228474,125.377124 Z" id="Oval-Copy-11"></path>
                </g>
            </g>
        </g>
    </g>
</svg>