<?xml version="1.0" encoding="UTF-8"?>
<svg width="40px" height="40px" viewBox="0 0 40 40" version="1.1" xmlns="http://www.w3.org/2000/svg" xmlns:xlink="http://www.w3.org/1999/xlink">
    <!-- Generator: Sketch 52.6 (67491) - http://www.bohemiancoding.com/sketch -->
    <title>Group</title>
    <desc>Created with Sketch.</desc>
    <g id="Page-1" stroke="none" stroke-width="1" fill="none" fill-rule="evenodd">
        <g id="DC_Designer-user-cabinet---Notifications" transform="translate(-1355.000000, -851.000000)">
            <g id="Group" transform="translate(1355.000000, 851.000000)">
                <g id="Group-17">
                    <path d="M20,0 C31.0463534,0 40,8.95684893 40,20.0016012 C40,31.0463534 31.0463534,40 20,40 C8.95364663,40 0,31.0479545 0,20.0032023 C0,8.95845008 8.95364663,0 20,0 Z" id="Path" fill="#6AF0AD"></path>
                    <g id="Layer-1" transform="translate(12.000000, 12.000000)" fill="#FFFFFF" fill-rule="nonzero">
                        <path d="M14.5629091,14.5643636 C14.1032727,15.024 13.3556364,15.024 12.896,14.5629091 L7.98981818,9.65672727 L3.08363636,14.5629091 C2.624,15.024 1.87636364,15.0225455 1.41672727,14.5629091 C0.957090909,14.1047273 0.957090909,13.3585455 1.41672727,12.896 L6.32436364,7.98981818 L1.41381818,3.08072727 C0.954181818,2.62109091 0.954181818,1.87345455 1.41381818,1.41381818 C1.87345455,0.955636364 2.61818182,0.955636364 3.08072727,1.41381818 L7.98981818,6.32436364 L12.896,1.41672727 C13.3556364,0.958545455 14.1018182,0.958545455 14.5629091,1.41672727 C15.0225455,1.87636364 15.0225455,2.62254545 14.5629091,3.08363636 L9.65527273,7.99127273 L14.5629091,12.8974545 C15.0225455,13.3585455 15.0225455,14.1047273 14.5629091,14.5643636" id="svg_3-path"></path>
                    </g>
                </g>
            </g>
        </g>
    </g>
</svg>