<?xml version="1.0" encoding="UTF-8"?>
<svg width="40px" height="40px" viewBox="0 0 40 40" version="1.1" xmlns="http://www.w3.org/2000/svg" xmlns:xlink="http://www.w3.org/1999/xlink">
    <!-- Generator: Sketch 52.6 (67491) - http://www.bohemiancoding.com/sketch -->
    <title>Group 10</title>
    <desc>Created with Sketch.</desc>
    <g id="Page-1" stroke="none" stroke-width="1" fill="none" fill-rule="evenodd">
        <g id="DC_Designer-user-cabinet---Notifications" transform="translate(-1353.000000, -572.000000)">
            <g id="Group-10" transform="translate(1353.000000, 572.000000)">
                <path d="M20,0 C31.0463534,0 40,8.95364663 40,19.9983988 C40,31.0463534 31.0463534,40 20,40 C8.95364663,40 0,31.0479545 0,20 C0,8.95364663 8.95364663,0 20,0 Z" id="Path" fill="#6AF0AD"></path>
                <path d="M26.1070968,15.7754052 L23.309436,15.7754052 L23.309436,13.9006975 C23.309436,13.9006975 23.2505241,13 22.3432808,13 L17.7272058,13.0013092 C17.7272058,13.0013092 16.7191577,12.9895268 16.7492682,13.9255715 L16.7505774,15.7740961 L13.8089097,15.7740961 C12.8977389,15.7740961 13.0037803,16.4875847 13.0037803,16.754652 C13.0037803,17.0217193 12.9854522,17.6789143 13.8089097,17.6789143 L14.9360908,17.6789143 L14.8640873,26.1425911 C14.8640873,26.1425911 14.9360908,27.9871882 16.7505774,27.9871882 L23.309436,27.9871882 C23.309436,27.9871882 25.0833389,27.925658 25.0833389,26.1386636 L25.0964304,17.6789143 L26.1057877,17.6789143 C26.9580465,17.6789143 26.9999395,17.0230284 26.9999395,16.754652 C27.0012486,16.4888938 26.9894662,15.7754052 26.1070968,15.7754052 Z M17.6591299,25.7014064 C17.6591299,25.9449089 17.4339555,26.1399728 17.1917621,26.1399728 C16.9482596,26.1399728 16.7531957,25.9449089 16.7531957,25.7014064 L16.7531957,18.1475912 C16.7531957,17.9040887 16.9495687,17.7090248 17.1917621,17.7090248 C17.4339555,17.7090248 17.6591299,17.9053978 17.6591299,18.1475912 L17.6591299,25.7014064 Z M20.4999928,25.6438036 C20.4999928,25.9017069 20.2905282,26.1124806 20.0313159,26.1124806 C19.7721035,26.1124806 19.5626389,25.9017069 19.5626389,25.6438036 L19.5626389,18.1475912 C19.5626389,17.8883788 19.7721035,17.6789143 20.0313159,17.6789143 C20.2905282,17.6789143 20.4999928,17.8883788 20.4999928,18.1475912 L20.4999928,25.6438036 Z M17.6591299,15.7754052 C17.6591299,14.8380514 18.6396858,14.8354331 18.6396858,14.8354331 L21.4674571,14.8380514 C21.4674571,14.8380514 22.3458991,14.8668528 22.3458991,15.7754052 L17.6591299,15.7754052 Z M23.2819438,25.6870057 C23.2819438,25.9383632 23.0777158,26.1412819 22.8263584,26.1412819 C22.5750009,26.1412819 22.3733913,25.9396723 22.3733913,25.6870057 L22.3733913,18.1921024 C22.3733913,17.940745 22.5750009,17.736517 22.8263584,17.736517 C23.0777158,17.736517 23.2819438,17.9394358 23.2819438,18.1921024 L23.2819438,25.6870057 Z" id="Shape" fill="#FFFFFF"></path>
            </g>
        </g>
    </g>
</svg>