<svg xmlns="http://www.w3.org/2000/svg" width="247" height="31" viewBox="0 0 247 31">
    <g fill="none" fill-rule="evenodd">
        <path fill="#00C2F2" d="M4.218 21.427l-.124-.104C-.922 16.85-1.361 9.158 3.112 4.143c4.473-5.016 12.165-5.456 17.18-.983.827.726 1.329 1.753 1.395 2.85.066 1.099-.309 2.178-1.041 2.998-1.218 1.348-3.162 1.762-4.823 1.026-.309-.165-.982-.65-1.269-.86l-.143-.1c-1.679-1.124-3.94-.769-5.194.816-1.253 1.586-1.077 3.868.405 5.242l.094.088 4.01 3.543L26.782 4.274c.802-.963 1.99-1.521 3.244-1.522 1.571-.009 3.01.876 3.713 2.281.703 1.405.547 3.088-.403 4.34-.077.088-.143.176-.232.264-.145.17-.304.329-.474.475L14.422 30.437l-10.204-9.01z"/>
        <path fill="#787878" fill-rule="nonzero" d="M42.052 5.764h8.376c1.834-.048 3.655.33 5.318 1.104 1.475.715 2.715 1.837 3.575 3.233.877 1.46 1.321 3.14 1.28 4.844.042 1.707-.402 3.39-1.28 4.855-.857 1.395-2.098 2.514-3.575 3.222-1.662.78-3.484 1.157-5.318 1.104h-8.376V5.764zm8.166 14.94c1.617.084 3.202-.47 4.414-1.544 1.126-1.091 1.726-2.616 1.644-4.182.077-1.564-.527-3.085-1.655-4.171-1.212-1.073-2.797-1.628-4.414-1.545h-3.862v11.443h3.873zM77.33 18.277H66.604c.167.847.658 1.596 1.368 2.086.792.53 1.73.796 2.682.761.67.013 1.336-.1 1.964-.33.597-.236 1.141-.589 1.6-1.038l2.207 2.372c-1.523 1.59-3.676 2.415-5.87 2.251-1.47.029-2.925-.289-4.249-.927-1.175-.578-2.16-1.482-2.836-2.604-.68-1.136-1.027-2.44-1.004-3.762-.015-1.313.324-2.605.982-3.741.662-1.103 1.617-2 2.759-2.593 1.189-.63 2.517-.953 3.862-.938 1.314-.02 2.612.29 3.774.905 1.11.58 2.03 1.469 2.648 2.56.658 1.19.989 2.535.96 3.895 0 0-.077.42-.121 1.103zm-9.622-4.557c-.632.571-1.025 1.359-1.104 2.207h6.985c-.082-.847-.475-1.634-1.103-2.207-.649-.542-1.473-.829-2.318-.806-.893-.053-1.772.235-2.46.806z"/>
        <path fill="#787878" d="M81.401 23.982c-.948-.217-1.854-.59-2.681-1.103l1.368-2.913c.71.444 1.485.78 2.295.993.857.25 1.745.38 2.638.386 1.732 0 2.604-.43 2.604-1.291-.01-.421-.306-.78-.717-.872-.717-.23-1.457-.383-2.207-.452-.97-.134-1.929-.337-2.87-.607-.752-.219-1.431-.639-1.963-1.214-.58-.684-.869-1.567-.806-2.46-.014-.859.258-1.697.772-2.384.59-.745 1.378-1.307 2.274-1.622 1.123-.41 2.313-.61 3.509-.585 1.005 0 2.008.11 2.99.331.867.174 1.7.483 2.472.916l-1.369 2.88c-1.243-.722-2.656-1.102-4.093-1.104-.687-.014-1.367.145-1.976.464-.377.169-.629.535-.65.949-.004.431.288.81.706.916.74.236 1.501.406 2.273.507.957.145 1.905.351 2.836.618.736.222 1.402.633 1.93 1.192.59.671.895 1.546.85 2.439.01.847-.27 1.673-.794 2.339-.599.744-1.4 1.3-2.306 1.6-1.173.373-2.402.534-3.63.474-1.164.012-2.324-.121-3.455-.397z"/>
        <path fill="#787878" fill-rule="nonzero" d="M94.168 7.397c-.465-.414-.727-1.01-.717-1.633-.011-.623.25-1.22.717-1.633.502-.45 1.159-.687 1.832-.662.671-.029 1.329.196 1.843.629.463.392.726.971.717 1.578.02.644-.242 1.265-.717 1.7-.5.46-1.164.702-1.843.672-.671.023-1.326-.21-1.832-.65zm-.21 2.637h4.105v14.169H93.96V10.034zM116.204 10.034v11.807c0 2.605-.677 4.54-2.03 5.805-1.66 1.366-3.78 2.045-5.926 1.897-1.318.003-2.632-.167-3.906-.507-1.104-.276-2.143-.767-3.056-1.446l1.633-2.957c.677.532 1.448.932 2.273 1.18.885.283 1.807.428 2.736.431 1.133.097 2.26-.247 3.145-.96.734-.784 1.103-1.842 1.015-2.913v-.607c-1.161 1.218-2.8 1.864-4.48 1.766-1.24.012-2.465-.283-3.564-.861-1.05-.556-1.924-1.393-2.527-2.417-.661-1.082-1.005-2.328-.993-3.597-.008-1.257.336-2.492.993-3.564.62-1.026 1.509-1.862 2.571-2.417 1.099-.577 2.323-.873 3.564-.86 1.801-.11 3.546.644 4.701 2.03v-1.81h3.851zm-5.098 9.16c.69-.652 1.068-1.568 1.037-2.517.031-.948-.346-1.864-1.037-2.516-1.558-1.279-3.804-1.279-5.363 0-.723.633-1.127 1.555-1.103 2.516-.024.961.38 1.883 1.103 2.516 1.56 1.28 3.805 1.28 5.363 0z"/>
        <path fill="#787878" d="M132.568 11.403c1.164 1.273 1.751 2.97 1.622 4.69v8.11h-4.116V16.72c.07-.899-.188-1.793-.728-2.515-.557-.578-1.34-.88-2.14-.828-.924-.047-1.823.302-2.472.96-.672.794-1.005 1.82-.927 2.858v7.007h-4.105V10.034h3.884v1.656c.565-.607 1.259-1.078 2.03-1.38.846-.337 1.75-.505 2.66-.496 1.588-.08 3.139.495 4.292 1.589z"/>
        <path fill="#49494A" d="M141.738 23.276c-1.484-.784-2.724-1.96-3.586-3.399-.883-1.48-1.342-3.175-1.324-4.9-.028-1.738.43-3.45 1.324-4.943.874-1.407 2.113-2.55 3.586-3.31 1.577-.832 3.337-1.253 5.12-1.225 1.477-.038 2.945.229 4.314.784 1.28.538 2.413 1.37 3.31 2.427l-2.747 2.527c-1.138-1.383-2.843-2.175-4.634-2.151-1.067-.022-2.121.236-3.057.75-.88.485-1.607 1.207-2.096 2.085-.507.938-.766 1.99-.75 3.057-.019 1.066.24 2.12.75 3.056.486.884 1.213 1.611 2.096 2.097.936.514 1.99.772 3.057.75 1.802.017 3.51-.797 4.634-2.207l2.748 2.55c-.887 1.074-2.024 1.915-3.31 2.45-1.376.577-2.856.867-4.348.849-1.774.018-3.523-.41-5.087-1.247z"/>
        <path fill="#49494A" fill-rule="nonzero" d="M159.36 23.486c-1.149-.596-2.111-1.497-2.78-2.605-.675-1.137-1.023-2.44-1.005-3.762-.017-1.326.33-2.632 1.004-3.774.674-1.102 1.635-1.998 2.781-2.593 2.528-1.25 5.494-1.25 8.022 0 1.143.595 2.1 1.492 2.77 2.593.673 1.142 1.02 2.448 1.004 3.774.018 1.322-.33 2.625-1.004 3.762-.665 1.107-1.624 2.009-2.77 2.605-2.531 1.235-5.49 1.235-8.022 0zm6.62-3.51c.705-.78 1.07-1.808 1.016-2.857.056-1.05-.31-2.08-1.015-2.858-.663-.727-1.61-1.13-2.593-1.104-.986-.022-1.935.38-2.605 1.104-.71.777-1.08 1.806-1.026 2.858-.05 1.045.314 2.069 1.015 2.847.674.719 1.62 1.12 2.605 1.103.982.02 1.926-.381 2.593-1.103l.01.01z"/>
        <path fill="#49494A" d="M186.538 11.403c1.164 1.273 1.75 2.97 1.622 4.69v8.11h-4.116V16.72c.07-.899-.188-1.793-.728-2.515-.558-.577-1.34-.88-2.14-.828-.924-.047-1.823.302-2.473.96-.672.794-1.005 1.82-.926 2.858v7.007h-4.105V10.034h3.917v1.656c.565-.607 1.259-1.078 2.03-1.38.846-.337 1.75-.506 2.66-.496 1.576-.07 3.114.503 4.259 1.589zM200.629 23.519c-.448.319-.954.548-1.49.673-.606.153-1.229.227-1.853.22-1.424.093-2.828-.37-3.918-1.29-.974-1.014-1.471-2.394-1.368-3.796V13.51h-2.207v-3.167H192V6.89h4.105v3.453h3.53v3.167h-3.53v5.771c-.034.503.133 1 .463 1.38.344.342.819.52 1.302.485.6.018 1.188-.169 1.667-.53l1.092 2.903z"/>
        <path fill="#49494A" fill-rule="nonzero" d="M216.353 18.277h-10.725c.169.849.664 1.598 1.379 2.086.791.53 1.73.796 2.681.761.67.012 1.336-.1 1.964-.33.598-.236 1.142-.589 1.6-1.038l2.207 2.372c-1.511 1.595-3.656 2.433-5.848 2.284-1.47.029-2.924-.289-4.248-.926-1.177-.582-2.164-1.485-2.847-2.605-.671-1.139-1.015-2.44-.993-3.762-.023-1.317.317-2.615.982-3.752.653-1.108 1.6-2.013 2.736-2.615 1.189-.631 2.517-.954 3.862-.938 1.311-.023 2.606.289 3.763.905 1.111.58 2.031 1.469 2.648 2.56.662 1.19.997 2.534.972 3.895 0 0-.078.42-.133 1.103zm-9.61-4.557c-.66.557-1.076 1.348-1.16 2.207h6.974c-.07-.85-.465-1.641-1.103-2.207-.647-.545-1.472-.832-2.317-.806-.87-.038-1.724.25-2.395.806z"/>
        <path fill="#49494A" d="M220.436 23.982c-.952-.219-1.861-.591-2.693-1.103l1.38-2.913c.707.442 1.477.777 2.284.993.857.249 1.744.379 2.637.386 1.744 0 2.615-.43 2.615-1.291-.01-.421-.306-.78-.717-.872-.717-.23-1.457-.383-2.207-.452-.97-.134-1.928-.337-2.869-.607-.753-.219-1.432-.639-1.964-1.214-.59-.683-.887-1.571-.828-2.472-.013-.858.258-1.696.773-2.383.584-.745 1.369-1.308 2.262-1.622 1.127-.41 2.32-.609 3.52-.585 1.006 0 2.009.111 2.99.33.864.173 1.695.482 2.461.917l-1.368 2.924c-1.24-.722-2.649-1.102-4.083-1.104-.68-.042-1.359.087-1.975.376-.382.166-.638.533-.662.949.002.433.297.81.717.915.737.237 1.494.407 2.262.508.961.146 1.912.352 2.847.618.735.218 1.398.63 1.92 1.192.62.677.939 1.577.883 2.494.014.846-.262 1.672-.784 2.339-.6.742-1.4 1.297-2.306 1.6-1.156.399-2.374.589-3.597.563-1.182-.013-2.358-.176-3.498-.486zM242.361 23.519c-.447.319-.954.548-1.49.673-.605.153-1.228.227-1.853.22-1.424.093-2.828-.37-3.917-1.29-.978-1.013-1.48-2.393-1.38-3.796V13.51h-2.207v-3.167h2.207V6.89h4.116v3.453h3.531v3.167h-3.53v5.771c-.032.501.13.995.452 1.38.348.341.826.518 1.313.485.596.017 1.18-.17 1.655-.53l1.103 2.903z"/>
        <path fill="#49494A" fill-rule="nonzero" d="M244.855 2.575c.483.256.887.637 1.17 1.104.28.502.425 1.069.42 1.644.032.59-.098 1.178-.376 1.7-.582 1.007-1.661 1.622-2.825 1.61-.576.006-1.144-.143-1.644-.43-.485-.279-.885-.683-1.159-1.17-.287-.5-.436-1.067-.43-1.644-.005-.573.143-1.137.43-1.633.278-.491.682-.899 1.17-1.18.503-.29 1.075-.438 1.655-.431.558.001 1.107.15 1.59.43zm-.287 5.186c.413-.234.753-.577.982-.993.244-.422.37-.902.364-1.39.004-.486-.117-.965-.353-1.39-.225-.406-.557-.742-.96-.971-.867-.486-1.924-.486-2.791 0-.41.237-.75.58-.982.993-.237.42-.359.896-.354 1.379-.003.486.118.965.354 1.39.364.628.963 1.085 1.666 1.27.702.184 1.449.08 2.074-.288zm.11-2.207c-.126.196-.311.347-.529.43l.817 1.215h-.795l-.717-1.104h-.817V7.2h-.783v-3.62h1.5c.397-.018.787.103 1.104.342.275.223.427.563.408.916.012.246-.053.49-.187.695v.022zm-1.379 0c.214.015.425-.048.596-.176.145-.113.223-.291.21-.475.01-.179-.069-.352-.21-.463-.175-.12-.384-.178-.596-.166h-.684v1.214l.684.066z"/>
    </g>
</svg>
