<?xml version="1.0" encoding="UTF-8"?>
<svg width="40px" height="40px" viewBox="0 0 40 40" version="1.1" xmlns="http://www.w3.org/2000/svg" xmlns:xlink="http://www.w3.org/1999/xlink">
    <!-- Generator: Sketch 52.6 (67491) - http://www.bohemiancoding.com/sketch -->
    <title>Group 8</title>
    <desc>Created with Sketch.</desc>
    <defs>
        <path d="M23.6894531,20.4160156 C24.5332073,20.4160156 25.2539033,20.7148408 25.8515625,21.3125 C26.4492217,21.9101592 26.7480469,22.6308552 26.7480469,23.4746094 C26.7480469,24.3183636 26.4492217,25.0390595 25.8515625,25.6367188 C25.2539033,26.234378 24.5332073,26.5332031 23.6894531,26.5332031 C22.8398395,26.5332031 22.1162139,26.234378 21.5185547,25.6367188 C20.9208954,25.0390595 20.6220703,24.3183636 20.6220703,23.4746094 C20.6220703,22.6308552 20.9208954,21.9101592 21.5185547,21.3125 C22.1162139,20.7148408 22.8398395,20.4160156 23.6894531,20.4160156 Z M22.4150391,14 L23.390625,14 L16.3505859,26.8671875 L15.375,26.8671875 L22.4150391,14 Z M15.0585938,19.203125 C15.5625025,19.203125 15.9916974,19.0258807 16.3461914,18.6713867 C16.7006854,18.3168928 16.8779297,17.8906275 16.8779297,17.3925781 C16.8779297,16.8945288 16.7006854,16.4682635 16.3461914,16.1137695 C15.9916974,15.7592756 15.5625025,15.5820312 15.0585938,15.5820312 C14.5605444,15.5820312 14.1342791,15.7578107 13.7797852,16.109375 C13.4252912,16.4609393 13.2480469,16.8886694 13.2480469,17.3925781 C13.2480469,17.8906275 13.4252912,18.3168928 13.7797852,18.6713867 C14.1342791,19.0258807 14.5605444,19.203125 15.0585938,19.203125 Z M15.0585938,14.3251953 C15.9082074,14.3251953 16.6318329,14.6254853 17.2294922,15.2260742 C17.8271514,15.8266632 18.1259766,16.5488239 18.1259766,17.3925781 C18.1259766,18.2363323 17.8271514,18.9570283 17.2294922,19.5546875 C16.6318329,20.1523467 15.9082074,20.4511719 15.0585938,20.4511719 C14.2148395,20.4511719 13.4941436,20.1523467 12.8964844,19.5546875 C12.2988251,18.9570283 12,18.2363323 12,17.3925781 C12,16.5488239 12.2988251,15.8266632 12.8964844,15.2260742 C13.4941436,14.6254853 14.2148395,14.3251953 15.0585938,14.3251953 Z M23.6894531,25.2851562 C24.1875025,25.2851562 24.6137678,25.1079119 24.9682617,24.753418 C25.3227557,24.398924 25.5,23.9726587 25.5,23.4746094 C25.5,22.97656 25.3227557,22.5502947 24.9682617,22.1958008 C24.6137678,21.8413068 24.1875025,21.6640625 23.6894531,21.6640625 C23.1855444,21.6640625 22.7563494,21.8413068 22.4018555,22.1958008 C22.0473615,22.5502947 21.8701172,22.97656 21.8701172,23.4746094 C21.8701172,23.9726587 22.0473615,24.398924 22.4018555,24.753418 C22.7563494,25.1079119 23.1855444,25.2851562 23.6894531,25.2851562 Z" id="path-1"></path>
    </defs>
    <g id="Page-1" stroke="none" stroke-width="1" fill="none" fill-rule="evenodd">
        <g id="DC_Designer-user-cabinet---Notifications" transform="translate(-1354.000000, -520.000000)">
            <g id="Group-8" transform="translate(1354.000000, 520.000000)">
                <polygon id="Path" fill="#6AF0AD" points="40 15.5561545 38.58463 20.0069303 39.995261 24.4577061 36.7411737 27.8674008 36.031909 32.4737227 31.5820235 34.1708697 28.8934523 38.0210218 24.127636 37.6683479 19.9921017 40 15.8581471 37.6652678 11.0923308 38.0164016 8.40691888 34.1647095 3.95861306 32.4644823 3.2525077 27.8566203 0 24.4438455 1.41379038 19.9946098 0.00315930811 15.5422939 3.25724666 12.1310592 3.96651133 7.52627729 8.41639681 5.82913025 11.1065477 1.97897817 15.8707843 2.3316521 20.0078983 0 24.1434326 2.33473222 28.9076692 1.98359835 31.5946608 5.83529049 36.0429666 7.53551765 36.7474923 12.1433797"></polygon>
                <g id="%">
                    <use fill="#000000" xlink:href="#path-1"></use>
                    <use fill="#FFFFFF" xlink:href="#path-1"></use>
                </g>
            </g>
        </g>
    </g>
</svg>