<svg xmlns="http://www.w3.org/2000/svg" width="17" height="16" viewBox="0 0 17 16">
    <path d="M16.322 1.931l-1.48-1.48c-.543-.543-1.422-.574-2.001-.072C1.443 10.257 3.549 8.376 2.422 9.503c-.553.553-.572 1.433-.065 2.008-.13.274-.576.713-.764 1.129-.097.214-.116.397-.096.548L.184 14.441c-.206.197-.201.526.01.717l.762.693c.09.081.207.127.33.127H2.67c.194 0 .298-.095.404-.201l.502-.502c.19.028.379-.014.557-.095.416-.188.856-.633 1.13-.763.574.506 1.454.488 2.007-.066 1.153-1.152-.67.882 9.124-10.418.502-.58.471-1.46-.072-2.002zM2.468 14.998h-.994l-.233-.212.827-.79.7.701-.3.301zm4.11-1.34c-.192.192-.501.192-.693 0-.124-.123-.47-.385-1.018-.136-.416.188-.85.628-1.127.762L2.49 13.033c.134-.278.574-.711.762-1.127.249-.547-.012-.894-.136-1.018-.192-.191-.192-.501 0-.693l.346-.346 3.463 3.463-.346.347zm9.076-10.367L7.59 12.594 4.18 9.182l9.303-8.063c.193-.167.486-.157.667.024l1.48 1.481c.182.18.192.474.025.667z"/>
</svg>
