<?xml version="1.0" encoding="UTF-8"?>
<svg width="40px" height="40px" viewBox="0 0 40 40" version="1.1" xmlns="http://www.w3.org/2000/svg" xmlns:xlink="http://www.w3.org/1999/xlink">
    <!-- Generator: Sketch 52.6 (67491) - http://www.bohemiancoding.com/sketch -->
    <title>Group 9</title>
    <desc>Created with Sketch.</desc>
    <g id="Page-1" stroke="none" stroke-width="1" fill="none" fill-rule="evenodd">
        <g id="DC_Designer-user-cabinet---Notifications" transform="translate(-1394.000000, -548.000000)">
            <g id="Group-9" transform="translate(1394.000000, 548.000000)">
                <path d="M20,0 C31.0463534,0 40,8.95524778 40,20 C40,31.0463534 31.0463534,40 20,40 C8.95364663,40 0,31.0463534 0,20 C-0.00160115283,8.95364663 8.95204547,0 20,0 Z" id="Path" fill="#6AF0AD"></path>
                <path d="M21.8194282,15.4255091 L25.3886202,18.7397588 L16.8201879,26.6939581 L13.2509959,23.3808942 L21.8194282,15.4255091 Z M26.0668853,18.075723 L22.5332666,14.7958609 L24.0463195,13.3895281 C24.6060067,12.8701573 25.5083838,12.8701573 26.0668853,13.3895281 L27.5811239,14.7958609 C28.1396254,15.3140459 28.1396254,16.152391 27.5811239,16.670576 L26.0668853,18.075723 Z M12.3569192,27.8524633 L12,27.5216312 L12.9379505,24.7457247 L15.3486373,26.9821022 L12.3569192,27.8524633 Z" id="Shape" fill="#FFFFFF" fill-rule="nonzero"></path>
            </g>
        </g>
    </g>
</svg>