<?xml version="1.0" encoding="UTF-8"?>
<svg width="40px" height="40px" viewBox="0 0 40 40" version="1.1" xmlns="http://www.w3.org/2000/svg" xmlns:xlink="http://www.w3.org/1999/xlink">
    <!-- Generator: Sketch 52.6 (67491) - http://www.bohemiancoding.com/sketch -->
    <title>Group 4</title>
    <desc>Created with Sketch.</desc>
    <g id="Page-1" stroke="none" stroke-width="1" fill="none" fill-rule="evenodd">
        <g id="DC_Designer-user-cabinet---Notifications" transform="translate(-1372.000000, -244.000000)">
            <g id="Group-4" transform="translate(1372.000000, 244.000000)">
                <path d="M20.0008005,0 C31.0467118,0 40,8.95524778 40,20 C40,31.0463534 31.0467118,40 20.0008005,40 C8.95488932,40 0,31.0479545 0,20 C0,8.95524778 8.95328824,0 20.0008005,0 Z" id="Path" fill="#6AF0AD"></path>
                <path d="M27.580746,14 L11.8161715,14 C11.36587,14 11,14.3792718 11,14.8483359 L11,25.1516641 C11,25.619388 11.36587,26 11.8161715,26 L27.580746,26 C28.0310476,26 28.3969176,25.619388 28.3969176,25.1516641 L28.3969176,14.8483359 C28.3982578,14.3792718 28.0310476,14 27.580746,14 Z M25.7286129,23.3343757 L13.6213983,23.3343757 L13.6213983,22.1027474 L15.5164172,17.5581863 L18.4835828,21.1941032 L21.6423945,17.9052937 L24.0104981,16.5436676 L25.7286129,21.2651329 L25.7286129,23.3343757 Z" id="Shape-Copy" fill="#FFFFFF" fill-rule="nonzero"></path>
            </g>
        </g>
    </g>
</svg>