<?xml version="1.0" encoding="UTF-8"?>
<svg width="40px" height="40px" viewBox="0 0 40 40" version="1.1" xmlns="http://www.w3.org/2000/svg" xmlns:xlink="http://www.w3.org/1999/xlink">
    <!-- Generator: Sketch 52.6 (67491) - http://www.bohemiancoding.com/sketch -->
    <title>Group 2</title>
    <desc>Created with Sketch.</desc>
    <g id="Page-1" stroke="none" stroke-width="1" fill="none" fill-rule="evenodd">
        <g id="DC_Designer-user-cabinet---Notifications" transform="translate(-1354.000000, -378.000000)">
            <g id="Group-2" transform="translate(1354.000000, 378.000000)">
                <path d="M20.0008005,0 C31.0467118,0 40,8.95524778 40,20 C40,31.0463534 31.0467118,40 20.0008005,40 C8.95488932,40 0,31.0463534 0,20 C0,8.95364663 8.95328824,0 20.0008005,0 Z" id="Path" fill="#6AF0AD"></path>
                <path d="M16.6791136,14.1980457 C17.0476357,14.1980457 17.3477578,13.9104868 17.3477578,13.5587158 L17.3477578,11.63933 C17.3477578,11.2875589 17.0476357,11 16.6791136,11 C16.3105915,11 16.0104694,11.2875589 16.0104694,11.63933 L16.0104694,13.5587158 C16.0118653,13.9104868 16.3105915,14.1980457 16.6791136,14.1980457 Z M23.3627639,14.1980457 C23.731286,14.1980457 24.0314081,13.9104868 24.0314081,13.5587158 L24.0314081,11.63933 C24.0314081,11.2875589 23.731286,11 23.3627639,11 C22.9942418,11 22.6941197,11.2875589 22.6941197,11.63933 L22.6941197,13.5587158 C22.6941197,13.9104868 22.9942418,14.1980457 23.3627639,14.1980457 Z M26.0373408,12.277264 L24.7014483,12.277264 L24.7014483,13.5573198 C24.7014483,14.2636538 24.101204,14.8359798 23.3627639,14.8359798 C22.6271157,14.8359798 22.0268714,14.2636538 22.0268714,13.5573198 L22.0268714,12.277264 L18.016402,12.277264 L18.016402,13.5573198 C18.016402,14.2636538 17.4175537,14.8359798 16.6791136,14.8359798 C15.9420694,14.8359798 15.3418252,14.2636538 15.3418252,13.5573198 L15.3418252,12.277264 L14.0059326,12.277264 C12.8989705,12.277264 12,13.1385448 12,14.1966498 L12,26.4081312 C12,27.4676322 12.8975746,28.327517 14.0059326,28.327517 L26.0373408,28.327517 C27.1443029,28.327517 28,27.4676322 28,26.4081312 L28,14.1966498 C28,13.1385448 27.1443029,12.277264 26.0373408,12.277264 Z M26.6641075,16.9228756 L26.6641075,26.4081312 C26.6641075,26.7585064 26.3625894,27.0474612 25.9954633,27.0474612 L14.0059326,27.0474612 C13.6374106,27.0474612 13.3372884,26.7599023 13.3372884,26.4081312 L13.3344966,16.3296109 L26.6236259,16.3296109 L26.7031932,16.8893736 L26.6641075,16.9228756 Z" id="Shape" fill="#FDFFFF" fill-rule="nonzero"></path>
            </g>
        </g>
    </g>
</svg>