<svg xmlns="http://www.w3.org/2000/svg" width="18" height="16" viewBox="0 0 18 16">
    <path fill="#252737" fill-rule="evenodd" d="M10.031 12.688l.688.906c-.563.104-1.136.156-1.719.156-1.854 0-3.563-.458-5.125-1.375-1.542-.896-2.76-2.104-3.656-3.625C.073 8.52 0 8.27 0 8s.073-.52.219-.75C1.03 5.854 2.125 4.719 3.5 3.844l.594.812C2.823 5.448 1.812 6.48 1.062 7.75c-.104.167-.104.333 0 .5.813 1.396 1.928 2.495 3.344 3.297C5.823 12.349 7.354 12.75 9 12.75c.354 0 .698-.02 1.031-.062zM4.437 5.125l.72.969C5.051 6.427 5 6.77 5 7.125c0 .688.167 1.318.5 1.89.333.574.792 1.037 1.375 1.391.583.354 1.219.552 1.906.594l.719.969c-.167.02-.333.031-.5.031-.917 0-1.755-.219-2.516-.656-.76-.438-1.364-1.031-1.812-1.781C4.224 8.813 4 8 4 7.125c0-.687.146-1.354.437-2zM17.781 8.75c-.52.896-1.172 1.693-1.953 2.39-.781.699-1.651 1.266-2.61 1.704L15 15.25c.062.083.089.177.078.281-.01.104-.057.188-.14.25l-.22.156c-.083.063-.176.084-.28.063-.105-.02-.188-.073-.25-.156L3 .75C2.937.667 2.911.573 2.922.469c.01-.104.057-.188.14-.25l.22-.156c.083-.063.176-.084.28-.063.105.02.188.073.25.156L5.75 2.781C6.792 2.427 7.875 2.25 9 2.25c1.854 0 3.562.458 5.125 1.375 1.542.896 2.76 2.104 3.656 3.625.146.23.219.48.219.75s-.073.52-.219.75zM13 7.125c0-.708-.177-1.36-.531-1.953-.354-.594-.839-1.063-1.453-1.406C10.4 3.422 9.729 3.25 9 3.25c-.875 0-1.656.25-2.344.75L7.75 5.438c.312-.25.667-.391 1.062-.422.396-.032.771.047 1.125.234-.229 0-.421.078-.578.234-.156.157-.234.35-.234.579 0 .229.078.421.234.578.157.156.35.234.578.234.23 0 .422-.078.579-.234.156-.157.234-.35.234-.578.25.437.312.906.187 1.406-.125.5-.395.896-.812 1.187l1.187 1.625c.521-.354.933-.807 1.235-1.36.302-.551.453-1.15.453-1.796zm3.937.625c-.458-.77-1.03-1.469-1.718-2.094-.688-.625-1.448-1.135-2.282-1.531.563.708.902 1.5 1.016 2.375.115.875-.005 1.724-.36 2.547-.353.823-.916 1.505-1.687 2.047l.719.937c.896-.396 1.714-.911 2.453-1.547.74-.635 1.36-1.38 1.86-2.234.104-.167.104-.333 0-.5z"/>
</svg>
