<?xml version="1.0" encoding="UTF-8"?>
<svg width="40px" height="40px" viewBox="0 0 40 40" version="1.1" xmlns="http://www.w3.org/2000/svg" xmlns:xlink="http://www.w3.org/1999/xlink">
    <!-- Generator: Sketch 52.6 (67491) - http://www.bohemiancoding.com/sketch -->
    <title>Group 7</title>
    <desc>Created with Sketch.</desc>
    <g id="Page-1" stroke="none" stroke-width="1" fill="none" fill-rule="evenodd">
        <g id="DC_Designer-user-cabinet---Notifications" transform="translate(-1347.000000, -472.000000)">
            <g id="Group-7" transform="translate(1347.000000, 472.000000)">
                <path d="M20,0 C31.0463534,0 40,8.95524778 40,20 C40,31.0463534 31.0463534,40 20,40 C8.95364663,40 0,31.0463534 0,20 C-0.00160115283,8.95524778 8.95364663,0 20,0 Z" id="Path" fill="#6AF0AD"></path>
                <path d="M26.1479075,13.9426106 C26.0408943,13.9773899 25.8683356,14.0536368 25.6275559,14.1700136 C25.3867762,14.2850528 25.1018536,14.4094556 24.7741257,14.5432221 C24.4450602,14.6769886 24.0798777,14.7920278 23.6812536,14.8896773 C23.2826295,14.9873268 22.8639404,15.0314698 22.426524,15.0234438 C21.9917829,15.0140801 21.5570418,14.9298072 21.1196255,14.7706251 C20.6848844,14.611443 20.2702083,14.3345464 19.8796102,13.9439483 C19.489012,13.5533501 19.0449073,13.2911678 18.5459583,13.1574014 C18.048347,13.0236349 17.5453851,12.9754789 17.0397478,13.0115959 C16.5341105,13.0477128 16.0351615,13.1453624 15.5469138,13.3045445 C15.0573285,13.4650643 14.6266004,13.6429737 14.2533919,13.8382727 C13.8801835,14.0335718 13.5778712,14.2248579 13.3464552,14.4107933 C13.1150392,14.5980664 13,14.7264822 13,14.7973784 L13,18.0773326 L13,21.1981046 L13,26.9299983 C13,27.1961936 13.0976495,27.4276096 13.2929486,27.6242464 C13.4882477,27.8208831 13.7196637,27.9185326 13.985859,27.9185326 C14.2707816,27.9185326 14.5062106,27.8208831 14.692146,27.6242464 C14.8794191,27.4289473 14.9717179,27.1975313 14.9717179,26.9299983 L14.9717179,21.4107933 C15.2740302,21.2690008 15.6204854,21.144598 16.0110835,21.0375848 C16.4016816,20.9305716 16.8110071,20.8824157 17.2377221,20.8917793 C17.6644372,20.901143 18.104529,20.9894289 18.5579973,21.1579746 C19.0114657,21.3265204 19.4502198,21.6248197 19.8782725,22.0515347 C20.4120008,22.5839253 21.0032486,22.9089779 21.6506784,23.0253547 C22.3007835,23.1403939 22.9361743,23.1363809 23.5581884,23.0119781 C24.1802026,22.8862376 24.7580738,22.6922762 25.291802,22.4260809 C25.8241926,22.1585479 26.2522454,21.9191059 26.5719473,21.7050796 C26.7498567,21.5806767 26.8662335,21.4442349 26.9184024,21.2917411 C26.971909,21.140585 27,20.8784027 27,20.5051942 L27,14.7973784 C27,14.5485728 26.9371298,14.3225074 26.8113893,14.1178447 C26.6909994,13.9105066 26.4676094,13.8543247 26.1479075,13.9426106 Z" id="Path" fill="#FFFFFF"></path>
            </g>
        </g>
    </g>
</svg>