<?xml version="1.0" encoding="utf-8"?>
<!-- Generator: Adobe Illustrator 16.0.0, SVG Export Plug-In . SVG Version: 6.00 Build 0)  -->
<!DOCTYPE svg PUBLIC "-//W3C//DTD SVG 1.1//EN" "http://www.w3.org/Graphics/SVG/1.1/DTD/svg11.dtd">
<svg version="1.1" id="Layer_1" xmlns="http://www.w3.org/2000/svg" xmlns:xlink="http://www.w3.org/1999/xlink" x="0px" y="0px"
	 width="231.008px" height="167.583px" viewBox="0 0 231.008 167.583" enable-background="new 0 0 231.008 167.583"
	 xml:space="preserve">
<path fill="#D8D2C4" d="M231.009,152.446c0,8.359-6.776,15.137-15.137,15.137H15.136c-8.36,0-15.137-6.777-15.137-15.137V15.138
	c0-8.36,6.777-15.137,15.137-15.137h200.736c8.36,0,15.137,6.777,15.137,15.137V152.446z"/>
<path fill="#ABA89E" d="M231.008,19.807v132.638c0,8.363-6.773,15.137-15.137,15.137h-18.385l-84.407-61.648L231.008,19.807z"/>
<polygon fill="#ADABA1" points="36.588,167.583 231.009,25.587 231.009,19.804 28.669,167.583 "/>
<path fill="#A03123" d="M231.008,15.136v137.308c0,1.481-0.211,2.914-0.616,4.271c-1.838,6.282-7.639,10.866-14.521,10.866h-11.174
	V7.66l0.725-0.53L215.185,0h0.687C224.234,0,231.008,6.779,231.008,15.136z"/>
<path fill="#E94F3D" d="M215.871,0h-0.687l-9.763,7.13l-0.725,0.53l-88.407,64.567L26.31,6.509L17.396,0h-2.26
	C6.773,0,0,6.779,0,15.136v8.211v129.097c0,1.481,0.21,2.914,0.616,4.271c1.838,6.282,7.639,10.866,14.52,10.866H26.31V42.56
	l65.303,47.696l21.466,15.677l3.957,2.893l24.684-18.023l62.978-45.998l0.725-0.53l25.586-18.682V15.136
	C231.008,6.779,224.234,0,215.871,0z"/>
</svg>
