<?xml version="1.0" encoding="utf-8"?>
<!-- Generator: Adobe Illustrator 16.0.0, SVG Export Plug-In . SVG Version: 6.00 Build 0)  -->
<!DOCTYPE svg PUBLIC "-//W3C//DTD SVG 1.1//EN" "http://www.w3.org/Graphics/SVG/1.1/DTD/svg11.dtd">
<svg version="1.1" id="Layer_1" xmlns="http://www.w3.org/2000/svg" xmlns:xlink="http://www.w3.org/1999/xlink" x="0px" y="0px"
	 width="144.166px" height="227.765px" viewBox="0 0 144.166 227.765" enable-background="new 0 0 144.166 227.765"
	 xml:space="preserve">
<path opacity="0.2" fill-rule="evenodd" clip-rule="evenodd" fill="#5D6161" d="M40.11,0.694l89,0.205v224.559l-40.707-40.2
	L40.569,225L40.11,0.694z"/>
<path fill-rule="evenodd" clip-rule="evenodd" fill="#33ABC9" d="M26.119,1l96,0.205v226.558L74.41,187.564l-47.833,39.742L26.119,1
	z"/>
<g>
	<g>
		<line fill="none" stroke="#1C535C" stroke-width="2" stroke-miterlimit="10" x1="40.11" y1="0.694" x2="40.11" y2="3.694"/>
		
			<line fill="none" stroke="#1C535C" stroke-width="2" stroke-miterlimit="10" stroke-dasharray="5.9691,5.9691" x1="40.11" y1="9.663" x2="40.11" y2="209.627"/>
		<line fill="none" stroke="#1C535C" stroke-width="2" stroke-miterlimit="10" x1="40.11" y1="212.611" x2="40.11" y2="215.611"/>
	</g>
</g>
<g>
	<g>
		<line fill="none" stroke="#1C535C" stroke-width="2" stroke-miterlimit="10" x1="105.801" y1="0" x2="105.801" y2="3"/>
		
			<line fill="none" stroke="#1C535C" stroke-width="2" stroke-miterlimit="10" stroke-dasharray="5.9691,5.9691" x1="105.801" y1="8.969" x2="105.801" y2="208.934"/>
		
			<line fill="none" stroke="#1C535C" stroke-width="2" stroke-miterlimit="10" x1="105.801" y1="211.918" x2="105.801" y2="214.918"/>
	</g>
</g>
<linearGradient id="SVGID_1_" gradientUnits="userSpaceOnUse" x1="199.7051" y1="158.3682" x2="199.7051" y2="317.4193" gradientTransform="matrix(0.7071 0.7071 -0.7071 0.7071 104.9424 -227.303)">
	<stop  offset="0" style="stop-color:#F7EE79"/>
	<stop  offset="0" style="stop-color:#F0E26F"/>
	<stop  offset="0.2634" style="stop-color:#AC812D"/>
	<stop  offset="0.3602" style="stop-color:#AD842E"/>
	<stop  offset="0.4165" style="stop-color:#B48E32"/>
	<stop  offset="0.8201" style="stop-color:#EFE16D"/>
	<stop  offset="1" style="stop-color:#AC812D"/>
</linearGradient>
<circle fill="url(#SVGID_1_)" cx="72.083" cy="87.978" r="72.082"/>
<g>
	<g>
		<linearGradient id="SVGID_2_" gradientUnits="userSpaceOnUse" x1="30.9834" y1="90.5498" x2="107.9395" y2="90.5498">
			<stop  offset="0" style="stop-color:#F7EE79"/>
			<stop  offset="0" style="stop-color:#F0E26F"/>
			<stop  offset="0.172" style="stop-color:#AC812D"/>
			<stop  offset="0.5" style="stop-color:#AD842E"/>
			<stop  offset="0.5392" style="stop-color:#B48E32"/>
			<stop  offset="0.8201" style="stop-color:#EFE16D"/>
			<stop  offset="1" style="stop-color:#AC812D"/>
		</linearGradient>
		<path fill-rule="evenodd" clip-rule="evenodd" fill="url(#SVGID_2_)" d="M63.067,75.329l20.605,20.605l20.607-20.605
			c4.881-4.881,4.881-12.788,0-17.665c-4.873-4.877-12.783-4.877-17.666,0l-2.941,2.941l-2.939-2.941
			c-11.384-11.384-29.837-11.384-41.21,0c-11.385,11.383-11.385,29.832,0,41.211l29.438,29.438c4.871,4.881,12.783,4.881,17.654,0
			c4.883-4.872,4.883-12.783,0-17.66l-8.822-8.832L57.176,81.215c-1.621-1.625-1.621-4.265,0-5.886
			C58.807,73.698,61.438,73.698,63.067,75.329z M51.268,85.375l29.464,29.46c1.621,1.63,1.621,4.261,0,5.891
			c-1.631,1.621-4.262,1.621-5.893,0L45.403,91.288c-8.123-8.132-8.123-21.314,0-29.442c8.133-8.128,21.314-8.128,29.437,0
			l11.773,11.778c1.631,1.621,1.631,4.261,0,5.886c-1.621,1.626-4.26,1.626-5.881,0l-11.8-11.795
			c-4.881-4.881-12.783-4.881-17.664,0C46.395,72.587,46.395,80.498,51.268,85.375z"/>
	</g>
</g>
<g>
	<g>
		<linearGradient id="SVGID_3_" gradientUnits="userSpaceOnUse" x1="9.1665" y1="87.6523" x2="134.998" y2="87.6523">
			<stop  offset="0" style="stop-color:#F7EE79"/>
			<stop  offset="0" style="stop-color:#F0E26F"/>
			<stop  offset="0.172" style="stop-color:#AC812D"/>
			<stop  offset="0.5" style="stop-color:#AD842E"/>
			<stop  offset="0.5392" style="stop-color:#B48E32"/>
			<stop  offset="0.8201" style="stop-color:#EFE16D"/>
			<stop  offset="1" style="stop-color:#AC812D"/>
		</linearGradient>
		<path fill="url(#SVGID_3_)" d="M11.819,72.317c-0.33,0.783-0.57,1.721-0.703,2.81c-0.182,1.488-0.137,2.889,0.115,4.155
			c0.256,1.271,0.705,2.234,1.316,2.879c0.617,0.645,1.313,0.965,2.086,0.979c0.799,0.019,1.504-0.301,2.129-0.909
			c0.629-0.612,1.141-1.465,1.553-2.531c0.412-1.065,0.693-2.216,0.85-3.468c0.24-1.92,0.125-3.39-0.438-4.535
			c0.32,0.074,0.637,0.148,0.957,0.223c0.156-0.779,0.328-1.549,0.514-2.309c-3.453-0.993-6.91-1.986-10.357-2.977
			c-0.24,0.981-0.465,1.975-0.658,2.986c1.246,0.296,2.502,0.592,3.754,0.89C12.528,70.935,12.155,71.53,11.819,72.317z
			 M16.016,70.996c0.947,0.228,1.557,0.802,1.873,1.712c0.316,0.908,0.389,1.928,0.236,3.105c-0.154,1.169-0.496,2.171-1.057,3.023
			c-0.561,0.854-1.326,1.266-2.32,1.192c-1.02-0.079-1.746-0.59-2.154-1.554c-0.402-0.955-0.535-2.134-0.363-3.469
			c0.172-1.363,0.604-2.448,1.248-3.23C14.129,70.992,14.981,70.746,16.016,70.996z M17.391,65.349
			c1.203,0.423,2.32,0.106,3.387-0.816c1.066-0.927,1.965-2.318,2.811-4.158c0.672-1.461,1.084-2.709,1.199-3.83
			c0.121-1.123-0.037-2.055-0.514-2.824c-0.479,0.662-0.941,1.35-1.395,2.045c0.309,0.607,0.428,1.242,0.375,1.909
			c-0.063,0.678-0.273,1.401-0.641,2.198c-0.49,1.071-1.08,1.893-1.799,2.467c-0.715,0.58-1.48,0.775-2.314,0.538
			c1.289-3.56,2.898-6.862,4.777-9.886c-0.131-0.092-0.229-0.162-0.293-0.203c-1.09-0.709-2.271-0.742-3.533,0.009
			c-1.256,0.755-2.389,2.096-3.279,4.043c-0.918,2.008-1.232,3.886-1.014,5.476C15.377,63.915,16.151,64.917,17.391,65.349z
			 M17.167,57.294c0.559-1.224,1.283-2.078,2.113-2.545c0.543-0.311,1.127-0.338,1.752-0.102c-1.336,2.406-2.502,4.966-3.494,7.683
			c-0.604-0.335-0.951-0.979-1.021-1.929C16.446,59.46,16.657,58.407,17.167,57.294z M22.803,49.719
			c0.316,0.222,0.705,0.272,1.174,0.167c0.465-0.104,0.969-0.381,1.521-0.813c0.553-0.43,1.455-1.266,2.771-2.406
			c0.979-0.839,1.639-1.304,1.939-1.451c0.439-0.208,0.768-0.199,0.986,0.009c0.246,0.237,0.273,0.617,0.111,1.149
			c-0.162,0.535-0.588,1.174-1.266,1.953c-0.672,0.77-1.279,1.307-1.859,1.586c-0.578,0.283-1.111,0.324-1.613,0.102
			c-0.408,0.664-0.801,1.336-1.178,2.013c0.83,0.269,1.68,0.14,2.555-0.334c0.875-0.483,1.832-1.382,2.936-2.652
			c0.666-0.77,1.205-1.512,1.613-2.235c0.408-0.728,0.639-1.373,0.676-1.955c0.043-0.576-0.088-1.03-0.393-1.355
			c-0.313-0.334-0.709-0.481-1.193-0.454c-0.48,0.037-1.02,0.222-1.598,0.579c-0.58,0.357-1.549,1.044-2.857,2.166
			c-0.902,0.771-1.441,1.262-1.631,1.419c-0.34,0.273-0.623,0.445-0.857,0.52c-0.232,0.075-0.414,0.056-0.553-0.047
			c-0.213-0.167-0.258-0.511-0.115-1.021c0.143-0.514,0.574-1.225,1.32-2.096c0.635-0.741,1.229-1.215,1.754-1.446
			c0.527-0.222,0.979-0.231,1.344-0.028c0.506-0.613,1.025-1.206,1.557-1.79c-0.461-0.26-0.953-0.361-1.463-0.288
			c-0.506,0.07-1.143,0.353-1.879,0.863c-0.736,0.514-1.498,1.215-2.264,2.11c-0.51,0.593-0.932,1.2-1.27,1.803
			c-0.344,0.607-0.561,1.123-0.676,1.529c-0.154,0.548-0.197,1.03-0.127,1.457C22.336,49.198,22.516,49.515,22.803,49.719z
			 M36.329,43.464C36.885,43,37.45,42.55,38.03,42.113c-1.637-2.054-3.268-4.107-4.9-6.166c-0.664,0.501-1.313,1.012-1.947,1.543
			C32.897,39.48,34.614,41.474,36.329,43.464z M32.219,34.802c-0.318-0.404-0.639-0.802-0.953-1.201
			c-0.689,0.519-1.373,1.062-2.045,1.618c0.334,0.385,0.672,0.774,1.006,1.164C30.881,35.841,31.545,35.315,32.219,34.802z
			 M40.573,38.915c1.264,0.116,2.625-0.264,4.164-1.084c1.236-0.668,2.133-1.47,2.707-2.477c0.391,0.771,0.588,1.299,0.613,1.586
			c0.021,0.479-0.148,0.937-0.512,1.382c-0.361,0.445-0.965,0.881-1.807,1.335c-0.789,0.417-1.457,0.663-2.037,0.719
			c-0.432,0.041-0.793-0.079-1.086-0.367c-0.621,0.306-1.238,0.625-1.85,0.956c0.469,0.714,1.197,0.982,2.184,0.853
			c0.994-0.126,2.088-0.542,3.348-1.215c1.057-0.566,1.896-1.141,2.523-1.749c0.621-0.612,1.016-1.209,1.164-1.826
			c0.152-0.612-0.008-1.475-0.5-2.592c-0.914-2.058-1.826-4.117-2.736-6.175c-0.705,0.282-1.404,0.583-2.102,0.89
			c0.141,0.289,0.277,0.565,0.412,0.848c-1.328-0.222-2.801,0.061-4.32,0.872c-1.145,0.607-2.031,1.332-2.652,2.11
			c-0.625,0.788-0.949,1.585-0.998,2.374c-0.041,0.793,0.174,1.489,0.609,2.096C38.342,38.34,39.305,38.803,40.573,38.915z
			 M39.422,33.703c0.385-0.788,1.064-1.455,2.021-1.962c0.973-0.514,1.934-0.717,2.855-0.611c0.918,0.106,1.582,0.602,1.998,1.461
			c0.441,0.903,0.436,1.706,0.025,2.419c-0.414,0.714-1.064,1.289-1.953,1.763c-0.898,0.482-1.758,0.695-2.6,0.648
			c-0.842-0.051-1.557-0.491-2.125-1.354C39.122,35.279,39.036,34.491,39.422,33.703z M60.915,32.229
			c0.709-0.13,1.418-0.242,2.137-0.348c-0.26-1.571-0.51-3.144-0.766-4.715c-0.096-0.604-0.215-1.017-0.34-1.243
			c-0.203-0.353-0.504-0.63-0.914-0.843c-0.406-0.214-0.99-0.343-1.75-0.372c-0.762-0.028-1.582,0.046-2.443,0.241
			c-1.99,0.441-3.377,1.279-4.113,2.394c-0.115-0.354-0.232-0.706-0.348-1.054c-0.715,0.209-1.42,0.436-2.125,0.672
			c0.904,2.439,1.814,4.878,2.719,7.316c0.68-0.232,1.367-0.444,2.057-0.648c-0.436-1.35-0.875-2.699-1.316-4.048
			c-0.309-0.951-0.17-1.702,0.447-2.239c0.615-0.539,1.443-0.938,2.451-1.174c0.635-0.144,1.211-0.19,1.715-0.125
			c0.512,0.056,0.883,0.203,1.123,0.427c0.236,0.227,0.408,0.602,0.516,1.13C60.278,29.141,60.592,30.689,60.915,32.229z
			 M84.203,29.888c-0.715-0.209-1.438-0.404-2.164-0.581c-0.283,0.622-0.742,1.039-1.375,1.261
			c-0.629,0.223-1.367,0.283-2.229,0.185c-1.066-0.12-1.91-0.431-2.557-0.951c-0.635-0.514-0.939-1.288-0.875-2.332
			c0.061-1.021,0.477-1.753,1.275-2.175c0.797-0.422,1.822-0.57,3.051-0.431c0.811,0.093,1.479,0.32,2.004,0.664
			c0.521,0.346,0.844,0.793,0.963,1.344c0.775,0.06,1.549,0.139,2.318,0.227c-0.092-0.816-0.578-1.539-1.488-2.133
			c-0.91-0.583-2.164-1.001-3.756-1.187c-1.256-0.139-2.443-0.083-3.529,0.164c-1.09,0.245-1.895,0.69-2.428,1.303
			c-0.531,0.611-0.789,1.343-0.803,2.178c-0.021,1.298,0.52,2.296,1.566,3.033c1.049,0.742,2.412,1.173,4.146,1.372
			c1.381,0.158,2.578,0.088,3.629-0.24C83.008,31.264,83.764,30.708,84.203,29.888z M97.725,32.979
			c0.566-1.104,0.463-2.235-0.391-3.375c-0.848-1.131-2.244-2.077-4.148-2.727c-1.717-0.583-3.293-0.741-4.656-0.5
			c-1.637,0.288-2.605,1.178-2.953,2.569c-0.322,1.278,0,2.373,0.891,3.323c0.893,0.951,2.164,1.67,3.842,2.241
			c1.055,0.361,2.064,0.569,3.07,0.629c1.002,0.066,1.859-0.046,2.578-0.355C96.672,34.473,97.264,33.879,97.725,32.979z
			 M95.516,32.081c-0.426,0.927-1.088,1.473-1.969,1.665c-0.881,0.19-1.822,0.097-2.852-0.255c-1.039-0.353-1.826-0.849-2.385-1.526
			c-0.551-0.676-0.705-1.488-0.422-2.444c0.283-0.954,0.871-1.572,1.791-1.826c0.908-0.251,1.965-0.187,3.119,0.204
			c1.137,0.389,1.984,0.978,2.527,1.729S95.92,31.199,95.516,32.081z M102.318,35.103c0.535-0.853,1.211-1.252,2.045-1.164
			c0.836,0.088,1.697,0.417,2.561,0.997c0.537,0.367,0.953,0.756,1.248,1.169c0.291,0.407,0.428,0.778,0.41,1.103
			c-0.018,0.325-0.193,0.696-0.533,1.123c-0.992,1.252-1.984,2.504-2.975,3.756c0.574,0.436,1.139,0.881,1.695,1.346
			c1.057-1.225,2.111-2.448,3.166-3.673c0.406-0.473,0.65-0.826,0.742-1.072c0.141-0.385,0.154-0.792,0.049-1.233
			c-0.104-0.44-0.396-0.955-0.877-1.534c-0.488-0.575-1.094-1.124-1.824-1.624c-1.678-1.159-3.258-1.596-4.623-1.391
			c0.201-0.314,0.396-0.63,0.59-0.946c-0.641-0.37-1.287-0.732-1.947-1.075c-1.293,2.272-2.588,4.544-3.885,6.816
			c0.635,0.334,1.264,0.681,1.887,1.043C100.803,37.533,101.563,36.318,102.318,35.103z M110.268,45.597
			c-0.049,0.301,0.031,0.662,0.225,1.08c0.201,0.421,0.57,0.918,1.109,1.506c0.328,0.367,0.723,0.752,1.188,1.174
			c0.23-0.334,0.459-0.673,0.689-1.011c-0.295-0.288-0.523-0.524-0.689-0.714c-0.223-0.246-0.371-0.455-0.443-0.631
			c-0.082-0.177-0.104-0.329-0.076-0.464c0.023-0.13,0.176-0.323,0.453-0.585c1.127-1.051,2.25-2.099,3.377-3.152
			c0.57,0.604,1.127,1.225,1.674,1.855c0.26-0.223,0.523-0.45,0.789-0.678c-0.559-0.641-1.123-1.27-1.697-1.887
			c0.67-0.626,1.346-1.257,2.016-1.878c-0.797-0.454-1.594-0.881-2.396-1.289c-0.459,0.464-0.918,0.927-1.379,1.391
			c-0.439-0.426-0.883-0.844-1.338-1.251c-0.238,0.25-0.475,0.504-0.707,0.759c0.443,0.399,0.883,0.812,1.313,1.23
			c-1.059,1.079-2.127,2.155-3.193,3.231C110.619,44.854,110.313,45.294,110.268,45.597z M116.494,47.771
			c-0.996,0.815-1.393,1.901-1.266,3.246c0.117,1.354,0.717,2.8,1.734,4.474c0.811,1.332,1.607,2.366,2.465,3.084
			c0.854,0.714,1.711,1.099,2.602,1.113c-0.297-0.799-0.611-1.586-0.941-2.366c-0.664-0.055-1.246-0.295-1.762-0.704
			c-0.518-0.407-0.988-0.973-1.428-1.706c-0.594-0.974-0.922-1.887-0.984-2.782c-0.059-0.899,0.219-1.642,0.863-2.23
			c2.064,2.833,3.877,5.94,5.383,9.315c0.145-0.064,0.256-0.111,0.326-0.148c1.164-0.561,1.816-1.596,1.873-3.125
			c0.051-1.511-0.439-3.227-1.518-4.994c-1.113-1.822-2.408-3.018-3.764-3.603C118.719,46.755,117.523,46.937,116.494,47.771z
			 M120.82,49.431c0.777,0.412,1.496,1.122,2.109,2.133c0.682,1.113,0.982,2.193,0.922,3.172c-0.037,0.639-0.328,1.164-0.857,1.58
			c-1.262-2.479-2.686-4.799-4.256-6.968C119.34,49.005,120.031,49.022,120.82,49.431z M125.258,63.499
			c0.072,0.765,0.301,2.096,0.574,4.057c0.199,1.456,0.246,2.397,0.209,2.787c-0.051,0.561-0.232,0.881-0.52,0.945
			c-0.326,0.084-0.666-0.148-1.025-0.649c-0.365-0.509-0.682-1.335-0.982-2.466c-0.301-1.122-0.438-2.018-0.367-2.722
			c0.07-0.706,0.316-1.22,0.76-1.544c-0.338-0.77-0.693-1.521-1.064-2.258c-0.658,0.598-0.998,1.428-1.057,2.508
			c-0.066,1.086,0.193,2.504,0.689,4.35c0.301,1.116,0.639,2.113,1.039,2.985c0.398,0.881,0.82,1.539,1.289,1.976
			c0.469,0.436,0.914,0.626,1.344,0.543c0.441-0.08,0.779-0.372,1.006-0.867c0.223-0.502,0.344-1.16,0.348-1.957
			c0-0.803-0.068-2.199-0.33-4.141c-0.178-1.341-0.313-2.134-0.346-2.406c-0.055-0.482-0.053-0.849,0.014-1.108
			c0.059-0.255,0.166-0.413,0.33-0.478c0.25-0.098,0.559,0.069,0.916,0.514c0.354,0.451,0.729,1.285,1.072,2.532
			c0.287,1.063,0.381,1.935,0.297,2.583c-0.078,0.658-0.305,1.095-0.672,1.316c0.25,0.891,0.482,1.799,0.689,2.723
			c0.463-0.279,0.803-0.691,1.01-1.238c0.205-0.552,0.299-1.354,0.252-2.401c-0.051-1.048-0.242-2.227-0.594-3.511
			c-0.234-0.848-0.523-1.619-0.857-2.305c-0.328-0.682-0.643-1.191-0.926-1.539c-0.377-0.473-0.762-0.798-1.152-0.982
			c-0.395-0.191-0.746-0.21-1.07-0.07c-0.354,0.153-0.602,0.474-0.76,0.955C125.221,62.112,125.184,62.728,125.258,63.499z
			 M126.615,77.826c-0.783,0.092-1.287,0.265-1.512,0.521c-0.227,0.248-0.389,0.656-0.5,1.223c-0.111,0.57-0.141,1.354-0.104,2.373
			c0.025,0.632,0.074,1.346,0.158,2.156c0.385-0.139,0.775-0.281,1.16-0.431c-0.043-0.528-0.068-0.954-0.08-1.279
			c-0.008-0.427,0.012-0.761,0.064-0.993c0.053-0.23,0.131-0.397,0.232-0.51c0.104-0.106,0.34-0.176,0.717-0.198
			c1.504-0.098,3.016-0.2,4.523-0.302c0.057,1.057,0.086,2.128,0.096,3.218c0.344-0.009,0.684-0.009,1.025-0.019
			c-0.014-1.104-0.045-2.189-0.102-3.265c0.904-0.061,1.803-0.12,2.703-0.176c-0.316-1.095-0.658-2.16-1.021-3.19
			c-0.633,0.074-1.273,0.149-1.91,0.223c-0.066-0.76-0.15-1.512-0.248-2.257c-0.334,0.05-0.674,0.106-1.012,0.156
			c0.094,0.733,0.176,1.471,0.246,2.222C129.574,77.474,128.094,77.649,126.615,77.826z M132.346,102.985
			c0.328-0.779,0.572-1.717,0.705-2.81c0.186-1.485,0.141-2.885-0.115-4.155c-0.256-1.27-0.705-2.235-1.318-2.875
			c-0.611-0.648-1.311-0.964-2.086-0.982c-0.793-0.015-1.498,0.307-2.127,0.914c-0.633,0.611-1.137,1.46-1.555,2.525
			c-0.414,1.071-0.689,2.217-0.842,3.469c-0.242,1.92-0.127,3.395,0.436,4.54c-0.322-0.079-0.641-0.153-0.961-0.228
			c-0.158,0.779-0.33,1.554-0.514,2.314c3.453,0.991,6.908,1.979,10.361,2.972c0.244-0.979,0.459-1.976,0.658-2.987
			c-1.252-0.295-2.502-0.588-3.756-0.884C131.643,104.37,132.018,103.773,132.346,102.985z M128.15,104.307
			c-0.939-0.228-1.557-0.802-1.873-1.71c-0.316-0.904-0.387-1.926-0.234-3.107c0.15-1.17,0.494-2.17,1.061-3.023
			c0.555-0.849,1.32-1.262,2.313-1.187c1.023,0.073,1.752,0.584,2.156,1.548c0.402,0.96,0.533,2.134,0.365,3.469
			c-0.178,1.367-0.602,2.448-1.252,3.236C130.037,104.315,129.189,104.558,128.15,104.307z M126.777,109.959
			c-1.205-0.422-2.322-0.112-3.385,0.815c-1.072,0.928-1.967,2.318-2.811,4.154c-0.672,1.467-1.084,2.713-1.205,3.836
			c-0.115,1.117,0.041,2.054,0.514,2.823c0.479-0.668,0.947-1.351,1.396-2.049c-0.305-0.604-0.432-1.239-0.371-1.911
			c0.055-0.672,0.273-1.4,0.641-2.198c0.494-1.065,1.076-1.892,1.795-2.467c0.719-0.574,1.482-0.77,2.313-0.537
			c-1.283,3.565-2.893,6.861-4.775,9.885c0.129,0.093,0.229,0.167,0.297,0.205c1.086,0.714,2.271,0.741,3.533-0.01
			c1.258-0.751,2.389-2.096,3.277-4.038c0.916-2.009,1.234-3.892,1.016-5.477C128.789,111.392,128.016,110.385,126.777,109.959z
			 M127,118.009c-0.561,1.224-1.279,2.077-2.115,2.549c-0.537,0.307-1.121,0.335-1.746,0.098c1.33-2.406,2.504-4.965,3.492-7.683
			c0.602,0.339,0.953,0.983,1.023,1.929C127.719,115.847,127.51,116.896,127,118.009z M121.363,125.589
			c-0.316-0.223-0.705-0.273-1.17-0.172c-0.465,0.103-0.969,0.381-1.521,0.816c-0.557,0.427-1.455,1.267-2.771,2.402
			c-0.979,0.843-1.637,1.307-1.945,1.455c-0.439,0.204-0.768,0.2-0.986-0.009c-0.24-0.236-0.271-0.622-0.111-1.149
			c0.162-0.538,0.594-1.178,1.271-1.957c0.666-0.77,1.279-1.308,1.854-1.586c0.58-0.278,1.119-0.319,1.619-0.103
			c0.402-0.657,0.799-1.33,1.178-2.012c-0.834-0.265-1.684-0.14-2.559,0.339c-0.877,0.478-1.828,1.376-2.936,2.652
			c-0.67,0.769-1.207,1.507-1.615,2.234c-0.406,0.728-0.633,1.368-0.676,1.952c-0.037,0.58,0.088,1.033,0.395,1.358
			c0.316,0.329,0.713,0.481,1.197,0.45c0.482-0.038,1.014-0.224,1.594-0.576c0.584-0.361,1.553-1.048,2.861-2.159
			c0.904-0.78,1.438-1.271,1.629-1.428c0.336-0.271,0.619-0.446,0.855-0.517c0.232-0.073,0.418-0.06,0.553,0.047
			c0.217,0.167,0.26,0.506,0.115,1.02c-0.145,0.516-0.574,1.226-1.32,2.096c-0.635,0.738-1.225,1.212-1.752,1.443
			c-0.525,0.228-0.977,0.231-1.346,0.033c-0.506,0.606-1.025,1.199-1.559,1.784c0.467,0.264,0.955,0.361,1.465,0.293
			c0.51-0.07,1.141-0.353,1.879-0.868c0.736-0.511,1.502-1.209,2.268-2.105c0.504-0.593,0.926-1.2,1.27-1.808
			c0.34-0.603,0.561-1.117,0.672-1.53c0.158-0.542,0.195-1.029,0.129-1.456C121.83,126.104,121.648,125.793,121.363,125.589z
			 M111.947,140.506c0.316,0.398,0.639,0.797,0.957,1.2c0.691-0.523,1.373-1.062,2.041-1.617c-0.334-0.39-0.668-0.779-1.002-1.168
			C113.289,139.467,112.623,139.99,111.947,140.506z M107.838,131.844c-0.559,0.464-1.125,0.908-1.697,1.346
			c1.631,2.059,3.264,4.112,4.9,6.171c0.658-0.501,1.307-1.016,1.945-1.545C111.273,135.822,109.551,133.833,107.838,131.844z
			 M103.598,136.388c-1.27-0.111-2.625,0.265-4.162,1.09c-1.244,0.663-2.135,1.471-2.709,2.477
			c-0.389-0.774-0.594-1.304-0.613-1.591c-0.021-0.473,0.148-0.932,0.508-1.377c0.361-0.45,0.963-0.882,1.813-1.331
			c0.783-0.426,1.455-0.668,2.035-0.723c0.426-0.047,0.787,0.073,1.082,0.361c0.625-0.307,1.242-0.622,1.852-0.955
			c-0.467-0.715-1.199-0.979-2.186-0.854c-0.988,0.13-2.088,0.548-3.344,1.22c-1.061,0.565-1.902,1.136-2.521,1.748
			c-0.623,0.607-1.018,1.21-1.17,1.822c-0.148,0.616,0.012,1.479,0.504,2.592c0.91,2.06,1.822,4.117,2.736,6.182
			c0.705-0.284,1.404-0.585,2.098-0.896c-0.135-0.278-0.273-0.565-0.414-0.845c1.33,0.223,2.801-0.06,4.324-0.871
			c1.143-0.612,2.029-1.331,2.652-2.115c0.629-0.787,0.951-1.585,0.994-2.373c0.041-0.788-0.168-1.483-0.607-2.096
			C105.83,136.968,104.861,136.504,103.598,136.388z M104.742,141.604c-0.383,0.788-1.059,1.451-2.016,1.96
			c-0.973,0.517-1.938,0.716-2.855,0.613c-0.924-0.106-1.58-0.604-2.002-1.465c-0.438-0.9-0.438-1.706-0.025-2.421
			c0.414-0.714,1.063-1.289,1.957-1.762c0.898-0.479,1.752-0.695,2.598-0.646c0.844,0.052,1.553,0.488,2.123,1.351
			C105.045,140.023,105.133,140.812,104.742,141.604z M89.137,141.679c0.441,1.349,0.881,2.694,1.32,4.049
			c0.311,0.944,0.168,1.696-0.447,2.234c-0.617,0.542-1.438,0.939-2.455,1.173c-0.635,0.147-1.203,0.189-1.713,0.13
			c-0.508-0.062-0.881-0.205-1.119-0.432c-0.242-0.224-0.412-0.603-0.52-1.127c-0.314-1.544-0.631-3.088-0.947-4.632
			c-0.707,0.13-1.42,0.25-2.135,0.353c0.252,1.567,0.51,3.144,0.764,4.711c0.1,0.603,0.207,1.02,0.34,1.242
			c0.199,0.353,0.504,0.631,0.91,0.844c0.404,0.215,0.99,0.344,1.756,0.371c0.76,0.032,1.576-0.047,2.438-0.235
			c1.988-0.44,3.375-1.284,4.113-2.394c0.119,0.348,0.236,0.7,0.348,1.053c0.713-0.214,1.424-0.436,2.127-0.676
			c-0.906-2.439-1.813-4.878-2.717-7.313C90.514,141.257,89.826,141.475,89.137,141.679z M69.987,144.846
			c-1.047-0.742-2.408-1.169-4.146-1.368c-1.379-0.161-2.576-0.089-3.629,0.236c-1.053,0.324-1.803,0.881-2.248,1.707
			c0.717,0.203,1.441,0.397,2.168,0.574c0.279-0.616,0.738-1.033,1.369-1.262c0.631-0.222,1.367-0.277,2.23-0.18
			c1.072,0.126,1.916,0.431,2.555,0.945c0.641,0.52,0.941,1.294,0.881,2.333c-0.061,1.024-0.479,1.757-1.279,2.179
			c-0.793,0.417-1.822,0.57-3.047,0.428c-0.811-0.095-1.484-0.316-2.008-0.665c-0.52-0.342-0.844-0.793-0.965-1.34
			c-0.773-0.064-1.543-0.139-2.318-0.23c0.092,0.82,0.584,1.539,1.494,2.132c0.902,0.59,2.166,1.002,3.752,1.188
			c1.256,0.144,2.443,0.083,3.533-0.157c1.084-0.251,1.895-0.696,2.424-1.308c0.527-0.612,0.789-1.345,0.807-2.18
			C71.577,146.58,71.034,145.588,69.987,144.846z M53.858,140.793c-1.051-0.357-2.064-0.566-3.066-0.631
			c-1.006-0.064-1.863,0.047-2.58,0.356c-0.717,0.313-1.309,0.904-1.768,1.804c-0.568,1.104-0.465,2.24,0.389,3.376
			c0.848,1.132,2.242,2.077,4.154,2.731c1.715,0.584,3.287,0.737,4.654,0.496c1.637-0.288,2.605-1.178,2.955-2.569
			c0.32-1.279-0.006-2.373-0.896-3.319C56.811,142.082,55.54,141.368,53.858,140.793z M56.276,145.782
			c-0.281,0.955-0.871,1.576-1.783,1.827c-0.914,0.25-1.967,0.185-3.121-0.205c-1.137-0.389-1.986-0.973-2.529-1.725
			c-0.545-0.751-0.598-1.576-0.193-2.452c0.426-0.933,1.094-1.479,1.971-1.664c0.885-0.191,1.822-0.104,2.852,0.249
			c1.043,0.353,1.826,0.854,2.383,1.53C56.413,144.016,56.565,144.827,56.276,145.782z M41.848,140.199
			c-0.529,0.854-1.211,1.252-2.045,1.164s-1.697-0.413-2.557-0.997c-0.537-0.361-0.955-0.75-1.252-1.163
			c-0.291-0.413-0.424-0.78-0.412-1.104c0.018-0.324,0.199-0.701,0.539-1.128c0.992-1.252,1.984-2.504,2.975-3.756
			c-0.574-0.435-1.145-0.88-1.701-1.345c-1.053,1.225-2.109,2.448-3.162,3.678c-0.404,0.469-0.652,0.825-0.746,1.071
			c-0.135,0.381-0.152,0.788-0.047,1.233c0.107,0.436,0.396,0.955,0.881,1.529c0.484,0.58,1.092,1.127,1.82,1.628
			c1.676,1.154,3.258,1.595,4.619,1.387c-0.193,0.315-0.393,0.63-0.588,0.95c0.646,0.372,1.293,0.728,1.949,1.076
			c1.297-2.271,2.592-4.544,3.885-6.815c-0.635-0.335-1.266-0.683-1.887-1.045C43.364,137.775,42.606,138.984,41.848,140.199z
			 M33.899,129.711c0.053-0.307-0.027-0.668-0.227-1.085c-0.195-0.418-0.564-0.918-1.104-1.502c-0.33-0.362-0.729-0.751-1.191-1.178
			c-0.227,0.333-0.459,0.677-0.686,1.011c0.291,0.291,0.521,0.528,0.689,0.714c0.223,0.251,0.371,0.459,0.445,0.631
			c0.074,0.176,0.098,0.334,0.074,0.463c-0.027,0.13-0.18,0.33-0.459,0.59c-1.123,1.052-2.248,2.101-3.375,3.147
			c-0.57-0.602-1.127-1.224-1.67-1.854c-0.264,0.223-0.527,0.455-0.793,0.677c0.557,0.646,1.121,1.275,1.701,1.888
			c-0.672,0.626-1.344,1.256-2.016,1.882c0.791,0.45,1.59,0.881,2.396,1.284c0.459-0.463,0.914-0.927,1.371-1.391
			c0.443,0.427,0.887,0.844,1.342,1.257c0.234-0.255,0.473-0.505,0.709-0.76c-0.443-0.403-0.885-0.813-1.318-1.233
			c1.068-1.076,2.131-2.152,3.195-3.232C33.551,130.453,33.854,130.013,33.899,129.711z M27.672,127.532
			c0.996-0.815,1.393-1.901,1.27-3.245c-0.125-1.355-0.719-2.802-1.736-4.472c-0.809-1.334-1.609-2.363-2.465-3.082
			c-0.857-0.719-1.715-1.1-2.6-1.119c0.297,0.803,0.607,1.592,0.941,2.367c0.664,0.059,1.246,0.295,1.762,0.704
			c0.514,0.407,0.988,0.979,1.428,1.705c0.59,0.979,0.924,1.893,0.979,2.787c0.061,0.896-0.219,1.637-0.859,2.23
			c-2.064-2.833-3.875-5.936-5.385-9.315c-0.146,0.06-0.252,0.107-0.322,0.145c-1.168,0.565-1.82,1.6-1.871,3.125
			c-0.059,1.517,0.436,3.227,1.51,4.997c1.117,1.823,2.418,3.015,3.771,3.599C25.452,128.552,26.649,128.366,27.672,127.532z
			 M23.35,125.872c-0.783-0.408-1.496-1.122-2.113-2.133c-0.682-1.113-0.982-2.189-0.918-3.172c0.037-0.635,0.324-1.159,0.857-1.576
			c1.258,2.477,2.678,4.794,4.252,6.964C24.831,126.299,24.135,126.285,23.35,125.872z M18.909,111.809
			c-0.07-0.766-0.303-2.101-0.57-4.058c-0.199-1.455-0.246-2.4-0.213-2.791c0.055-0.557,0.232-0.875,0.523-0.945
			c0.322-0.075,0.662,0.148,1.025,0.658c0.365,0.501,0.676,1.335,0.982,2.462c0.303,1.122,0.432,2.017,0.361,2.722
			c-0.064,0.705-0.316,1.215-0.756,1.539c0.34,0.77,0.697,1.521,1.063,2.264c0.658-0.599,1.002-1.428,1.063-2.514
			c0.059-1.085-0.201-2.499-0.695-4.349c-0.297-1.114-0.641-2.11-1.039-2.987c-0.398-0.876-0.82-1.538-1.289-1.975
			c-0.463-0.436-0.914-0.62-1.346-0.538c-0.438,0.085-0.777,0.37-1,0.868c-0.223,0.496-0.35,1.154-0.35,1.956
			c-0.004,0.802,0.07,2.198,0.33,4.14c0.176,1.336,0.316,2.133,0.348,2.408c0.051,0.477,0.045,0.848-0.014,1.106
			c-0.059,0.255-0.172,0.413-0.334,0.474c-0.25,0.103-0.557-0.064-0.912-0.51c-0.357-0.449-0.729-1.285-1.072-2.531
			c-0.293-1.066-0.381-1.938-0.303-2.588c0.086-0.654,0.313-1.094,0.672-1.311c-0.244-0.896-0.477-1.805-0.689-2.724
			c-0.463,0.278-0.801,0.691-1.006,1.237c-0.209,0.547-0.301,1.355-0.25,2.403c0.047,1.043,0.236,2.226,0.594,3.509
			c0.236,0.85,0.523,1.614,0.854,2.301c0.328,0.687,0.643,1.195,0.932,1.544c0.371,0.468,0.76,0.793,1.15,0.983
			c0.389,0.189,0.746,0.209,1.064,0.068c0.352-0.156,0.604-0.472,0.762-0.955C18.952,113.194,18.983,112.574,18.909,111.809z
			 M17.555,97.481c0.783-0.094,1.283-0.264,1.512-0.52c0.223-0.255,0.389-0.664,0.502-1.229c0.109-0.565,0.133-1.349,0.102-2.373
			c-0.025-0.631-0.08-1.345-0.158-2.151c-0.389,0.139-0.775,0.277-1.158,0.426c0.037,0.533,0.063,0.961,0.072,1.279
			c0.01,0.432-0.01,0.762-0.061,0.994c-0.055,0.23-0.131,0.402-0.23,0.51c-0.104,0.111-0.344,0.176-0.715,0.203
			c-1.512,0.098-3.018,0.195-4.529,0.297c-0.051-1.057-0.084-2.128-0.1-3.213c-0.336,0.004-0.68,0.01-1.018,0.014
			c0.01,1.104,0.041,2.193,0.098,3.264c-0.9,0.066-1.807,0.121-2.705,0.182c0.322,1.094,0.664,2.156,1.02,3.189
			c0.641-0.074,1.277-0.152,1.91-0.227c0.076,0.761,0.158,1.516,0.252,2.263c0.338-0.056,0.676-0.106,1.01-0.157
			c-0.092-0.732-0.17-1.475-0.24-2.227C14.596,97.828,16.077,97.657,17.555,97.481z"/>
	</g>
</g>
</svg>
