<svg xmlns="http://www.w3.org/2000/svg" width="32" height="35" viewBox="0 0 32 35">
    <g fill="none" fill-rule="evenodd">
        <circle cx="15.959" cy="13.782" r="13.782" fill="#FFD15C"/>
        <g fill="#00C1F1">
            <path d="M4.793.048L.051 8.268l5.535-.294 2.515 4.94 4.386-7.605C9.344 4.496 6.645 2.603 4.793.048zM27.151.007c-1.838 2.562-4.537 4.462-7.673 5.289l4.4 7.618 2.515-4.94 5.534.294L27.151.007z" transform="translate(0 21.797)"/>
        </g>
        <circle cx="15.959" cy="13.782" r="9.99" fill="#F8B64C"/>
        <path fill="#FFF" d="M22.805 12.703c.308-.301.137-.827-.287-.889l-3.942-.574c-.171-.027-.315-.13-.39-.287L16.423 7.38c-.191-.39-.745-.39-.936 0l-1.756 3.573c-.075.15-.225.26-.39.287l-3.942.574c-.424.062-.595.588-.287.889l2.85 2.78c.122.124.177.294.15.458l-.67 3.923c-.075.423.376.751.758.546l3.526-1.851c.15-.082.335-.082.485 0l3.526 1.851c.383.198.827-.123.759-.546l-.677-3.923c-.027-.17.028-.341.15-.457l2.836-2.781z"/>
    </g>
</svg>
