<svg xmlns="http://www.w3.org/2000/svg" width="27" height="22" viewBox="0 0 27 22">
    <path fill="#00C1F1" fill-rule="evenodd" d="M19.453.125c2.125 0 3.79.586 4.992 1.758 1.203 1.172 1.805 2.789 1.805 4.851 0 1.407-.5 2.844-1.5 4.313-.5.75-1.078 1.437-1.734 2.062l-8.766 8.485c-.219.187-.469.281-.75.281s-.531-.094-.75-.281l-8.766-8.485c-.53-.468-1.078-1.109-1.64-1.921C1.28 9.656.75 8.172.75 6.734c0-2.062.602-3.68 1.805-4.851C3.758.71 5.422.125 7.547.125c1.094 0 2.25.375 3.469 1.125.843.5 1.671 1.14 2.484 1.922.812-.781 1.64-1.422 2.484-1.922C17.204.5 18.36.125 19.454.125z"/>
</svg>
