<svg xmlns="http://www.w3.org/2000/svg" width="18" height="16" viewBox="0 0 18 16">
    <path fill="#1342BF" fill-rule="evenodd" d="M8.094.563c.125-.25.307-.417.547-.5.24-.084.479-.084.718 0 .24.083.422.25.547.5l2.031 4.125 4.563.656c.27.041.484.166.64.375.157.208.23.437.22.687-.011.25-.11.469-.298.657L13.75 10.28l.781 4.563c.042.25-.005.484-.14.703-.136.219-.329.36-.579.422-.25.062-.49.031-.718-.094L9 13.75l-4.094 2.125c-.229.125-.469.156-.719.094-.25-.063-.442-.203-.578-.422-.135-.219-.182-.453-.14-.703l.781-4.563L.937 7.063C.75 6.875.651 6.656.641 6.406c-.01-.25.062-.479.218-.687.157-.209.37-.334.641-.375l4.562-.656L8.094.563z"/>
</svg>
