<?xml version="1.0" encoding="UTF-8"?>
<svg width="40px" height="40px" viewBox="0 0 40 40" version="1.1" xmlns="http://www.w3.org/2000/svg" xmlns:xlink="http://www.w3.org/1999/xlink">
    <!-- Generator: Sketch 52.6 (67491) - http://www.bohemiancoding.com/sketch -->
    <title>Group 18</title>
    <desc>Created with Sketch.</desc>
    <g id="Page-1" stroke="none" stroke-width="1" fill="none" fill-rule="evenodd">
        <g id="DC_Designer-user-cabinet---Notifications" transform="translate(-1354.000000, -911.000000)">
            <g id="Group-18" transform="translate(1354.000000, 911.000000)">
                <path d="M20,0 C31.0463534,0 40,8.95684893 40,20.0016012 C40,31.0463534 31.0463534,40 20,40 C8.95364663,40 0,31.0463534 0,20.0016012 C0,8.95684893 8.95204547,0 20,0 Z" id="Path" fill="#6AF0AD"></path>
                <path d="M27.8257156,15.738133 L22.8803944,15.738133 L22.8803944,14.5109758 L27.8270746,14.5109758 L27.8257156,15.738133 Z M19.5875904,20.7772237 C19.9069503,21.2718918 20.0659507,21.8712011 20.0659507,22.5751518 C20.0659507,23.304923 19.8852066,23.9585915 19.5210005,24.5347982 C19.2886153,24.91803 18.9991529,25.2414668 18.6512545,25.4996726 C18.2612278,25.8000068 17.7978163,26.0065714 17.2650969,26.1166487 C16.7310185,26.2267259 16.1534528,26.282444 15.5310408,26.282444 L10,26.282444 L10,14 L15.9319394,14 C17.4281743,14.0244616 18.4868182,14.4579756 19.1133071,15.3086959 C19.489744,15.8305435 19.675924,16.4570324 19.675924,17.1840857 C19.675924,17.9356006 19.4870261,18.5362689 19.1078712,18.9915265 C18.8972296,19.2470144 18.5860236,19.4793997 18.1728942,19.6914003 C18.7966652,19.9224265 19.2695896,20.2811967 19.5875904,20.7772237 Z M12.8321103,18.8447569 L15.4304765,18.8447569 C15.9645548,18.8447569 16.3967099,18.7428335 16.7296595,18.5389868 C17.0626091,18.3364991 17.2284045,17.9763699 17.2284045,17.4599582 C17.2284045,16.8891874 17.00825,16.5086736 16.5693001,16.3265705 C16.1901452,16.1988266 15.706349,16.1335956 15.1192705,16.1335956 L12.8321103,16.1335956 L12.8321103,18.8447569 Z M17.4784564,22.4025615 C17.4784564,21.7638418 17.2175326,21.3235329 16.697044,21.0857118 C16.4062227,20.9511729 15.9944524,20.8818651 15.4685278,20.8777881 L12.8321103,20.8777881 L12.8321103,24.1515664 L15.4277585,24.1515664 C15.9604779,24.1515664 16.3736073,24.0795405 16.6712235,23.9354888 C17.2080198,23.6664112 17.4784564,23.1567944 17.4784564,22.4025615 Z M29.6603361,20.4035048 C29.7201311,20.8044033 29.7473107,21.3887639 29.7377978,22.1497916 L23.3302161,22.1497916 C23.3655495,23.0331274 23.6726786,23.6514624 24.2516033,24.0047967 C24.5995016,24.2276691 25.0235028,24.3350284 25.5195298,24.3350284 C26.0427364,24.3350284 26.4680965,24.2032075 26.7956102,23.9327709 C26.9749954,23.7887192 27.1312778,23.5848725 27.2671756,23.3293846 L29.6168488,23.3293846 C29.5556948,23.8512322 29.2716683,24.3812336 28.7647695,24.919389 C27.9779212,25.7741862 26.873072,26.2022643 25.4542989,26.2022643 C24.2842187,26.2022643 23.2513954,25.8407761 22.3571878,25.1205177 C21.4629802,24.3975414 21.0145174,23.2233843 21.0145174,21.5953286 C21.0145174,20.0691962 21.4181339,18.900475 22.2267259,18.0878061 C23.0380358,17.2737782 24.08309,16.8688028 25.3727602,16.8688028 C26.1378648,16.8688028 26.8268667,17.0060595 27.4411248,17.2805731 C28.054024,17.5550867 28.5609228,17.9886007 28.9604623,18.5838331 C29.3205915,19.1070397 29.5516178,19.7117849 29.6603361,20.4035048 Z M27.3487143,20.6318131 C27.306586,20.0202729 27.1013803,19.5582204 26.7358152,19.2429375 C26.3702501,18.9262956 25.9149924,18.7659362 25.3714012,18.7659362 C24.7788868,18.7659362 24.3236291,18.9358084 23.9988333,19.270117 C23.6726786,19.6044257 23.4674729,20.0569654 23.3859342,20.6318131 L27.3487143,20.6318131 Z" id="Behance" fill="#FFFFFF" fill-rule="nonzero"></path>
            </g>
        </g>
    </g>
</svg>