<?xml version="1.0" encoding="UTF-8"?>
<svg width="40px" height="40px" viewBox="0 0 40 40" version="1.1" xmlns="http://www.w3.org/2000/svg" xmlns:xlink="http://www.w3.org/1999/xlink">
    <!-- Generator: Sketch 52.6 (67491) - http://www.bohemiancoding.com/sketch -->
    <title>Group 13</title>
    <desc>Created with Sketch.</desc>
    <g id="Page-1" stroke="none" stroke-width="1" fill="none" fill-rule="evenodd">
        <g id="DC_Designer-user-cabinet---Notifications" transform="translate(-1394.000000, -648.000000)">
            <g id="Group-13" transform="translate(1394.000000, 648.000000)">
                <path d="M20,0 C31.0463534,0 40,8.95684893 40,20.0016012 C40,31.0463534 31.0463534,40 20,40 C8.95364663,40 0,31.0479545 0,20.0032023 C0,8.95845008 8.95364663,0 20,0 Z" id="Path" fill="#6AF0AD"></path>
                <g id="Group-12" transform="translate(15.000000, 11.000000)" fill="#FFFFFF" fill-rule="nonzero">
                    <path d="M3.9497631,17.2512264 C3.02833453,17.2512264 2.35547738,16.6912264 2.99833453,14.2355121 L4.05547738,9.87694071 C4.23833453,9.17979785 4.26833453,8.89979785 4.05547738,8.89979785 C3.77833453,8.89979785 2.58404881,9.38122643 1.87833453,9.85836928 L1.41833453,9.102655 C3.65833453,7.232655 6.23404881,6.13551214 7.3397631,6.13551214 C8.25833453,6.13551214 8.41119167,7.22551214 7.95119167,8.90122643 L6.74404881,13.482655 C6.52833453,14.2912264 6.61833453,14.5712264 6.83404881,14.5712264 C7.11119167,14.5712264 8.01547738,14.2369407 8.90547738,13.5369407 L9.42690596,14.2355121 C7.24547738,16.412655 4.86833453,17.2512264 3.9497631,17.2512264 Z" id="svg_3_1_-path"></path>
                    <path d="M7.40404881,0.132654997 C8.75119167,0.132654997 9.1497631,0.912654997 9.1497631,1.80836928 C9.1497631,2.92408357 8.25404881,3.95694071 6.7297631,3.95694071 C5.45404881,3.95694071 4.84833453,3.31408357 4.88262024,2.25408357 C4.88119167,1.35836928 5.6297631,0.132654997 7.40404881,0.132654997 Z" id="svg_3_1_-path"></path>
                </g>
            </g>
        </g>
    </g>
</svg>