<svg xmlns="http://www.w3.org/2000/svg" width="12" height="16" viewBox="0 0 12 16">
    <g fill-rule="evenodd">
        <path fill-rule="nonzero" d="M10.5 16h-9C.673 16 0 15.327 0 14.5v-7C0 6.673.673 6 1.5 6h9c.827 0 1.5.673 1.5 1.5v7c0 .827-.673 1.5-1.5 1.5zm-9-9c-.275 0-.5.224-.5.5v7c0 .276.225.5.5.5h9c.275 0 .5-.224.5-.5v-7c0-.276-.225-.5-.5-.5h-9z"/>
        <path d="M9.5 7c-.276 0-.5-.224-.5-.5V4c0-1.654-1.346-3-3-3S3 2.346 3 4v2.5c0 .276-.224.5-.5.5S2 6.776 2 6.5V4c0-2.206 1.794-4 4-4s4 1.794 4 4v2.5c0 .276-.224.5-.5.5z"/>
    </g>
</svg>
