<?xml version="1.0" encoding="utf-8"?>
<!-- Generator: Adobe Illustrator 16.0.1, SVG Export Plug-In . SVG Version: 6.00 Build 0)  -->
<!DOCTYPE svg PUBLIC "-//W3C//DTD SVG 1.1//EN" "http://www.w3.org/Graphics/SVG/1.1/DTD/svg11.dtd">
<svg version="1.1" id="Layer_1" xmlns="http://www.w3.org/2000/svg" xmlns:xlink="http://www.w3.org/1999/xlink" x="0px" y="0px"
	 width="337.695px" height="61.842px" viewBox="0 0 337.695 61.842" enable-background="new 0 0 337.695 61.842"
	 xml:space="preserve">
<path fill="#555B69" d="M87.279,28.328c6.537,0,10.036,4.879,10.036,10.911c0,0.598-0.138,1.84-0.138,1.84H80.189
	c0.276,4.973,3.867,7.781,8.01,7.781c4.005,0,6.814-2.715,6.814-2.715l1.933,3.176c0,0-3.452,3.406-8.977,3.406
	c-7.366,0-12.384-5.295-12.384-12.199C75.585,33.115,80.649,28.328,87.279,28.328z M92.711,37.811
	c-0.138-3.865-2.578-5.939-5.479-5.939c-3.406,0-6.168,2.074-6.859,5.939H92.711z"/>
<path fill="#555B69" d="M102.425,45.637c0,0,2.762,3.453,7.044,3.453c2.164,0,4.051-0.967,4.051-2.992
	c0-4.189-12.706-3.729-12.706-11.232c0-4.466,3.913-6.538,8.655-6.538c2.808,0,7.642,0.967,7.642,4.51v2.211h-4.005v-1.152
	c0-1.381-2.072-1.979-3.499-1.979c-2.624,0-4.327,0.92-4.327,2.762c0,4.42,12.707,3.453,12.707,11.234
	c0,4.145-3.684,6.813-8.563,6.813c-6.215,0-9.299-4.098-9.299-4.098L102.425,45.637z"/>
<path fill="#555B69" d="M123.465,33.715c0-0.691-0.368-1.014-1.013-1.014h-1.888V28.88h4.374c2.071,0,2.947,0.874,2.947,2.946V47.34
	c0,0.691,0.367,1.014,1.012,1.014h1.888v3.82h-4.374c-2.072,0-2.947-0.875-2.947-2.945V33.715z"/>
<path fill="#555B69" d="M142.144,28.328c5.801,0,7.458,3.637,7.458,3.637h0.093c0,0,0-0.369,0-0.738c0-1.38,0.736-2.347,2.578-2.347
	h4.327v3.821h-1.841c-0.599,0-1.013,0.322-1.013,0.92v17.588c0,7.688-5.847,10.633-11.74,10.633c-2.809,0-5.663-0.781-7.964-1.932
	l1.519-3.592c0,0,2.854,1.566,6.353,1.566c4.052,0,7.366-1.797,7.366-6.49v-1.566c0-0.738,0.092-1.475,0.092-1.475h-0.092
	c-1.381,2.256-3.544,3.547-6.951,3.547c-6.445,0-10.405-5.205-10.405-11.926C131.924,33.299,135.653,28.328,142.144,28.328z
	 M149.418,40.02c0-6.074-2.992-7.826-6.583-7.826c-4.051,0-6.353,2.947-6.353,7.689c0,4.834,2.532,8.148,6.722,8.148
	C146.426,48.031,149.418,46.098,149.418,40.02z"/>
<path fill="#555B69" d="M158.462,33.715c0-0.691-0.369-1.014-1.013-1.014h-1.888V28.88h4.282c1.979,0,2.946,0.874,2.946,2.577v0.875
	c0,0.736-0.092,1.334-0.092,1.334h0.092c0.921-2.023,3.684-5.338,8.747-5.338c5.523,0,8.012,2.992,8.012,8.93V47.34
	c0,0.691,0.367,1.014,1.014,1.014h1.885v3.82h-4.418c-2.072,0-2.947-0.875-2.947-2.945V38.271c0-3.27-0.643-5.848-4.373-5.848
	c-3.592,0-6.445,2.348-7.366,5.709c-0.322,0.922-0.415,1.98-0.415,3.131v10.91h-4.465V33.715z"/>
<path fill="#19B2DA" d="M222.078,28.144c-7.135,0-12.843,5.11-12.843,12.292c0,0.922,0.096,1.811,0.273,2.656
	c-0.98,0.982-4.428,4.018-9.602,4.018c-5.941,0-10.637-5.156-10.637-11.555c0-6.813,4.605-11.002,10.453-11.002
	c2.852,0,6.768,1.104,6.768,3.499v1.841h5.477v-3.637c0-5.571-8.195-7.32-12.385-7.32c-9.482,0-16.572,7.182-16.572,16.62
	c0,9.668,6.813,17.172,16.803,17.172c6.121,0,10.287-2.959,12.113-4.58c2.343,2.857,6.001,4.58,10.151,4.58
	c7.184,0,12.891-5.064,12.891-12.291C234.969,33.254,229.262,28.144,222.078,28.144z M222.078,47.754
	c-3.773,0-6.951-2.945-6.951-7.318c0-4.328,3.178-7.32,6.951-7.32c3.822,0,6.998,2.992,6.998,7.32
	C229.076,44.809,225.9,47.754,222.078,47.754z M260.342,46.236v-9.164c0-6.213-2.992-8.928-8.193-8.928
	c-4.744,0-7.275,2.899-8.287,4.879h-0.092c0,0,0.092-0.508,0.092-1.014v-0.69c0-1.657-1.014-2.624-3.084-2.624h-5.387v4.97h1.84
	c0.645,0,1.014,0.322,1.014,1.014v17.494h5.801V41.4c0-1.104,0.139-2.162,0.461-3.129c0.828-2.809,3.178-4.787,6.307-4.787
	c2.945,0,3.684,1.932,3.684,4.787v10.771c0,2.211,0.92,3.131,3.129,3.131h5.57v-4.926h-1.84
	C260.711,47.248,260.342,46.881,260.342,46.236z M290.83,28.144c-7.045,0-11.924,5.063-11.924,12.292
	c0,6.674,4.834,12.291,12.613,12.291c5.848,0,9.438-3.545,9.438-3.545l-2.439-4.051c0,0-2.807,2.623-6.582,2.623
	c-3.547,0-6.584-2.162-7.045-6.307h16.205c0,0,0.139-1.473,0.139-2.164C301.234,33.068,297.551,28.144,290.83,28.144z
	 M285.074,37.396c0.646-2.947,2.764-4.742,5.756-4.742c2.395,0,4.326,1.934,4.42,4.742H285.074z M310.596,34.771
	c0-1.381,1.426-2.117,3.498-2.117c1.291,0,2.947,0.553,2.947,1.656v1.152h5.156v-2.439c0-3.821-5.064-4.879-8.24-4.879
	c-4.881,0-9.115,2.162-9.115,6.858c0,7.598,12.383,7.551,12.383,10.865c0,1.564-1.381,2.303-3.178,2.303
	c-4.004,0-6.996-3.453-6.996-3.453l-2.762,3.82c0,0,3.314,4.189,9.758,4.189c5.111,0,9.025-2.762,9.025-7.182
	C323.072,37.717,310.596,38.453,310.596,34.771z M337.006,47.248c-1.613,0-4.65-0.553-4.65-4.418v-9.484h5.34v-4.65h-5.34v-5.015
	h-5.709v5.015l-0.139,4.65v10.221c0,7.873,6.492,8.838,9.76,8.838c1.059,0,1.795-0.139,1.795-0.139v-5.109
	C338.063,47.156,337.648,47.248,337.006,47.248z M271.504,42.83v-9.484h5.34v-4.65h-5.34v-5.015h-5.711v5.015l-0.137,4.65v10.221
	c0,7.873,6.49,8.838,9.76,8.838c1.059,0,1.795-0.139,1.795-0.139v-5.109c0,0-0.414,0.092-1.059,0.092
	C274.541,47.248,271.504,46.695,271.504,42.83z"/>
<path fill="#555B69" d="M129.66,23.194c0,1.54-1.248,2.789-2.787,2.789h-0.041c-1.54,0-2.788-1.249-2.788-2.789l0,0
	c0-1.538,1.248-2.786,2.788-2.786h0.041C128.412,20.408,129.66,21.656,129.66,23.194L129.66,23.194z"/>
<path fill="#555B69" d="M72.619,47.953c-0.727,0-1.142-0.363-1.142-1.143V21.694c0-2.337-0.988-3.325-3.324-3.325h-1.714v5.453
	v1.706v2.117c0,0.988,0.104,1.769,0.104,1.769h-0.104c0,0-2.027-4.054-8.101-4.054c-6.961,0-11.894,5.401-11.894,13.765
	c0,8.15,4.466,13.764,11.581,13.764c6.441,0,8.623-4.779,8.623-4.779h0.104c0,0-0.053,0.568-0.053,1.348
	c0,1.77,0.935,2.809,3.221,2.809h4.83v-4.313H72.619z M59.013,48.523c-4.363,0-7.429-3.682-7.429-9.398
	c0-5.975,3.43-9.402,7.532-9.402c5.039,0,7.479,4.675,7.479,9.349C66.595,45.77,62.907,48.523,59.013,48.523z"/>
<path fill="#4CC5F2" d="M20.358,16.785c1.46,0.035,3.559,0.542,6.266,3.496l0.159,0.182l11.759,11.756l15.088-14.68
	c3.322-3.23,3.395-8.543,0.163-11.865c-3.235-3.322-8.548-3.393-11.867-0.16L38.72,8.63C33.511,2.976,26.807-0.032,20.358,0
	C14.98,0,9.922,2.007,6.171,5.516C2.415,8.998-0.021,14.144,0,19.734c-0.014,6.158,2.884,12.331,8.004,17.409
	c4.13,4.123,20.254,19.77,20.279,19.793c1.63,1.58,3.738,2.367,5.843,2.367c2.19,0,4.378-0.85,6.024-2.549
	c3.228-3.324,3.147-8.637-0.177-11.863c-0.021-0.021-16.222-15.743-20.102-19.618c-2.731-2.776-3.072-4.619-3.086-5.539
	c0.021-0.861,0.276-1.384,0.856-1.961C18.226,17.226,19.148,16.788,20.358,16.785z M16.27,28.875
	c3.955,3.95,20.135,19.653,20.155,19.674c1.307,1.266,1.338,3.357,0.07,4.662c-0.648,0.662-1.507,0.998-2.366,0.998
	c-0.828,0-1.657-0.311-2.297-0.934c-0.01-0.006-16.171-15.689-20.221-19.738c-4.401-4.378-6.521-9.235-6.514-13.802
	C5.111,11.335,12.151,5.11,20.36,5.095c5.026-0.014,10.436,2.328,14.911,7.32l5.687,5.683c1.289,1.289,1.285,3.379,0,4.665
	c-1.29,1.289-3.378,1.285-4.664,0l-5.817-5.818l-0.056-0.063c-3.482-3.865-7.038-5.177-10.06-5.191
	c-4.966,0.049-8.667,3.54-8.671,8.044C11.696,22.244,12.812,25.4,16.27,28.875z"/>
<path fill="#555B69" d="M20.358,0C14.98,0,9.922,2.007,6.171,5.516C2.415,8.998-0.021,14.144,0,19.734
	c-0.014,6.158,2.884,12.331,8.004,17.409c4.13,4.123,20.254,19.77,20.279,19.793c1.63,1.58,3.738,2.367,5.843,2.367
	c1.039,0,2.074-0.197,3.054-0.58c5.143-5.328-0.391-9.857-0.391-9.857l-0.364-0.316c1.307,1.266,1.338,3.357,0.07,4.662
	c-0.648,0.662-1.507,0.998-2.366,0.998c-0.828,0-1.657-0.311-2.297-0.934c-0.01-0.006-16.171-15.689-20.221-19.738
	c-4.401-4.378-6.521-9.235-6.514-13.802C5.111,11.335,12.151,5.11,20.36,5.095"/>
<linearGradient id="SVGID_1_" gradientUnits="userSpaceOnUse" x1="24.6318" y1="2.9243" x2="35.2116" y2="11.8623">
	<stop  offset="0" style="stop-color:#555B69"/>
	<stop  offset="0.299" style="stop-color:#528098"/>
	<stop  offset="0.8846" style="stop-color:#4CC5F2"/>
</linearGradient>
<path fill="url(#SVGID_1_)" d="M18.986,0.044l0.563,5.072c0.035,0,0.776-0.021,0.811-0.021c4.805,0.019,10.046,2.213,14.386,6.786
	l3.795-3.428C33.385,2.951,26.787,0,20.358,0C20.324,0,19.021,0.044,18.986,0.044z"/>
</svg>
