<?xml version="1.0" encoding="utf-8"?>
<!-- Generator: Adobe Illustrator 16.0.0, SVG Export Plug-In . SVG Version: 6.00 Build 0)  -->
<!DOCTYPE svg PUBLIC "-//W3C//DTD SVG 1.1//EN" "http://www.w3.org/Graphics/SVG/1.1/DTD/svg11.dtd">
<svg version="1.1" id="Layer_1" xmlns="http://www.w3.org/2000/svg" xmlns:xlink="http://www.w3.org/1999/xlink" x="0px" y="0px"
	 width="378.729px" height="61.842px" viewBox="0 0 378.729 61.842" enable-background="new 0 0 378.729 61.842"
	 xml:space="preserve">
<path fill="#5E5E5E" d="M97.279,28.328c6.536,0,10.035,4.879,10.035,10.91c0,0.598-0.139,1.84-0.139,1.84H90.189
	c0.275,4.973,3.867,7.781,8.01,7.781c4.006,0,6.814-2.715,6.814-2.715l1.933,3.176c0,0-3.452,3.406-8.978,3.406
	c-7.365,0-12.383-5.295-12.383-12.199C85.586,33.115,90.648,28.328,97.279,28.328z M102.711,37.811
	c-0.138-3.865-2.578-5.939-5.479-5.939c-3.406,0-6.169,2.074-6.859,5.939H102.711z"/>
<path fill="#5E5E5E" d="M112.426,45.637c0,0,2.762,3.453,7.043,3.453c2.164,0,4.051-0.967,4.051-2.992
	c0-4.189-12.705-3.729-12.705-11.232c0-4.467,3.912-6.537,8.654-6.537c2.809,0,7.643,0.967,7.643,4.51v2.211h-4.006v-1.152
	c0-1.381-2.071-1.979-3.498-1.979c-2.624,0-4.328,0.92-4.328,2.762c0,4.42,12.707,3.453,12.707,11.234
	c0,4.145-3.684,6.813-8.563,6.813c-6.216,0-9.3-4.098-9.3-4.098L112.426,45.637z"/>
<path fill="#5E5E5E" d="M133.465,33.715c0-0.691-0.367-1.014-1.012-1.014h-1.889v-3.82h4.375c2.07,0,2.946,0.873,2.946,2.945V47.34
	c0,0.691,0.367,1.014,1.012,1.014h1.888v3.82h-4.373c-2.072,0-2.947-0.875-2.947-2.945V33.715z"/>
<path fill="#5E5E5E" d="M152.145,28.328c5.801,0,7.457,3.637,7.457,3.637h0.094c0,0,0-0.369,0-0.738
	c0-1.379,0.735-2.346,2.578-2.346h4.326v3.82h-1.841c-0.599,0-1.013,0.322-1.013,0.92v17.588c0,7.688-5.848,10.633-11.74,10.633
	c-2.809,0-5.662-0.781-7.964-1.932l1.519-3.592c0,0,2.854,1.566,6.354,1.566c4.052,0,7.365-1.797,7.365-6.49v-1.566
	c0-0.738,0.092-1.475,0.092-1.475h-0.092c-1.381,2.256-3.544,3.547-6.951,3.547c-6.445,0-10.404-5.205-10.404-11.926
	C141.924,33.299,145.652,28.328,152.145,28.328z M159.418,40.02c0-6.074-2.992-7.826-6.584-7.826c-4.051,0-6.353,2.947-6.353,7.689
	c0,4.834,2.532,8.148,6.722,8.148C156.426,48.031,159.418,46.098,159.418,40.02z"/>
<path fill="#5E5E5E" d="M168.463,33.715c0-0.691-0.369-1.014-1.014-1.014h-1.888v-3.82h4.282c1.979,0,2.945,0.873,2.945,2.576v0.875
	c0,0.736-0.092,1.334-0.092,1.334h0.092c0.922-2.023,3.684-5.338,8.748-5.338c5.522,0,8.011,2.992,8.011,8.93V47.34
	c0,0.691,0.367,1.014,1.014,1.014h1.885v3.82h-4.418c-2.072,0-2.947-0.875-2.947-2.945V38.271c0-3.27-0.643-5.848-4.374-5.848
	c-3.591,0-6.443,2.348-7.365,5.709c-0.322,0.922-0.414,1.98-0.414,3.131v10.91h-4.465V33.715z"/>
<path fill="#5E5E5E" d="M232.078,28.145c-7.135,0-12.843,5.109-12.843,12.291c0,0.922,0.096,1.811,0.273,2.656
	c-0.98,0.982-4.428,4.018-9.602,4.018c-5.941,0-10.637-5.156-10.637-11.555c0-6.813,4.605-11.002,10.453-11.002
	c2.852,0,6.768,1.104,6.768,3.498v1.842h5.477v-3.637c0-5.572-8.195-7.32-12.385-7.32c-9.482,0-16.572,7.182-16.572,16.619
	c0,9.668,6.813,17.172,16.803,17.172c6.121,0,10.287-2.959,12.113-4.58c2.343,2.857,6.001,4.58,10.151,4.58
	c7.184,0,12.891-5.064,12.891-12.291C244.969,33.254,239.262,28.145,232.078,28.145z M232.078,47.754
	c-3.773,0-6.951-2.945-6.951-7.318c0-4.328,3.178-7.32,6.951-7.32c3.822,0,6.998,2.992,6.998,7.32
	C239.076,44.809,235.9,47.754,232.078,47.754z M270.342,46.236v-9.164c0-6.213-2.992-8.928-8.193-8.928
	c-4.744,0-7.275,2.898-8.287,4.879h-0.092c0,0,0.092-0.508,0.092-1.014V31.32c0-1.658-1.014-2.625-3.084-2.625h-5.387v4.971h1.84
	c0.645,0,1.014,0.322,1.014,1.014v17.494h5.801V41.4c0-1.104,0.139-2.162,0.461-3.129c0.828-2.809,3.178-4.787,6.307-4.787
	c2.945,0,3.684,1.932,3.684,4.787v10.771c0,2.211,0.92,3.131,3.129,3.131h5.57v-4.926h-1.84
	C270.711,47.248,270.342,46.881,270.342,46.236z M300.83,28.145c-7.045,0-11.924,5.063-11.924,12.291
	c0,6.674,4.834,12.291,12.613,12.291c5.848,0,9.438-3.545,9.438-3.545l-2.439-4.051c0,0-2.807,2.623-6.582,2.623
	c-3.547,0-6.584-2.162-7.045-6.307h16.205c0,0,0.139-1.473,0.139-2.164C311.234,33.068,307.551,28.145,300.83,28.145z
	 M295.074,37.396c0.646-2.947,2.764-4.742,5.756-4.742c2.395,0,4.326,1.934,4.42,4.742H295.074z M320.596,34.771
	c0-1.381,1.426-2.117,3.498-2.117c1.291,0,2.947,0.553,2.947,1.656v1.152h5.156v-2.439c0-3.82-5.064-4.879-8.24-4.879
	c-4.881,0-9.115,2.162-9.115,6.857c0,7.598,12.383,7.551,12.383,10.865c0,1.564-1.381,2.303-3.178,2.303
	c-4.004,0-6.996-3.453-6.996-3.453l-2.762,3.82c0,0,3.314,4.189,9.758,4.189c5.111,0,9.025-2.762,9.025-7.182
	C333.072,37.717,320.596,38.453,320.596,34.771z M347.006,47.248c-1.613,0-4.65-0.553-4.65-4.418v-9.484h5.34v-4.65h-5.34v-5.014
	h-5.709v5.014l-0.139,4.65v10.221c0,7.873,6.492,8.838,9.76,8.838c1.059,0,1.795-0.139,1.795-0.139v-5.109
	C348.063,47.156,347.648,47.248,347.006,47.248z M281.504,42.83v-9.484h5.34v-4.65h-5.34v-5.014h-5.711v5.014l-0.137,4.65v10.221
	c0,7.873,6.49,8.838,9.76,8.838c1.059,0,1.795-0.139,1.795-0.139v-5.109c0,0-0.414,0.092-1.059,0.092
	C284.541,47.248,281.504,46.695,281.504,42.83z"/>
<path fill="#5E5E5E" d="M139.66,23.193c0,1.541-1.248,2.789-2.787,2.789h-0.041c-1.539,0-2.787-1.248-2.787-2.789l0,0
	c0-1.537,1.248-2.785,2.787-2.785h0.041C138.412,20.408,139.66,21.656,139.66,23.193L139.66,23.193z"/>
<path fill="#5E5E5E" d="M82.619,47.953c-0.727,0-1.143-0.363-1.143-1.143V21.693c0-2.336-0.987-3.324-3.323-3.324h-1.714v5.453
	v1.705v2.117c0,0.988,0.104,1.77,0.104,1.77h-0.104c0,0-2.027-4.055-8.102-4.055c-6.961,0-11.895,5.402-11.895,13.766
	c0,8.15,4.467,13.764,11.582,13.764c6.44,0,8.623-4.779,8.623-4.779h0.104c0,0-0.054,0.568-0.054,1.348
	c0,1.77,0.935,2.809,3.221,2.809h4.829v-4.313H82.619z M69.013,48.523c-4.362,0-7.429-3.682-7.429-9.398
	c0-5.975,3.43-9.402,7.532-9.402c5.038,0,7.479,4.676,7.479,9.35C76.595,45.77,72.907,48.523,69.013,48.523z"/>
<path fill="#5E5E5E" d="M20.358,16.785c1.46,0.035,3.559,0.541,6.266,3.496l0.159,0.182l11.76,11.756l15.088-14.68
	c3.322-3.23,3.395-8.543,0.162-11.865c-3.234-3.322-8.547-3.393-11.866-0.16L38.72,8.631C33.511,2.977,26.807-0.031,20.358,0
	C14.98,0,9.922,2.008,6.172,5.516C2.414,8.998-0.021,14.145,0,19.734c-0.014,6.158,2.885,12.33,8.004,17.408
	c4.131,4.123,20.255,19.77,20.279,19.793c1.63,1.58,3.738,2.367,5.843,2.367c2.19,0,4.378-0.85,6.024-2.549
	c3.227-3.324,3.146-8.637-0.178-11.863c-0.021-0.021-16.223-15.742-20.102-19.617c-2.73-2.777-3.072-4.619-3.086-5.539
	c0.021-0.861,0.276-1.385,0.856-1.961C18.226,17.227,19.148,16.787,20.358,16.785z M16.27,28.875
	c3.955,3.949,20.135,19.652,20.155,19.674c1.307,1.266,1.339,3.357,0.069,4.662c-0.648,0.662-1.506,0.998-2.365,0.998
	c-0.828,0-1.657-0.311-2.297-0.934C31.821,53.27,15.66,37.586,11.61,33.537c-4.401-4.379-6.521-9.234-6.515-13.803
	C5.111,11.336,12.15,5.109,20.359,5.096c5.026-0.014,10.437,2.328,14.912,7.32l5.686,5.682c1.289,1.289,1.285,3.379,0,4.666
	c-1.289,1.289-3.378,1.285-4.664,0l-5.816-5.818l-0.057-0.063c-3.482-3.865-7.037-5.178-10.061-5.191
	c-4.966,0.049-8.667,3.539-8.67,8.043C11.696,22.244,12.813,25.4,16.27,28.875z"/>
<path fill="#5E5E5E" d="M20.358,0C14.98,0,9.922,2.008,6.172,5.516C2.414,8.998-0.021,14.145,0,19.734
	c-0.014,6.158,2.885,12.33,8.004,17.408c4.131,4.123,20.255,19.77,20.279,19.793c1.63,1.58,3.738,2.367,5.843,2.367
	c1.038,0,2.074-0.197,3.054-0.58c5.143-5.328-0.391-9.857-0.391-9.857l-0.364-0.316c1.307,1.266,1.339,3.357,0.069,4.662
	c-0.648,0.662-1.506,0.998-2.365,0.998c-0.828,0-1.657-0.311-2.297-0.934C31.821,53.27,15.66,37.586,11.61,33.537
	c-4.401-4.379-6.521-9.234-6.515-13.803C5.111,11.336,12.15,5.109,20.359,5.096"/>
<path fill="#5E5E5E" d="M18.986,0.045l0.563,5.072c0.035,0,0.776-0.021,0.811-0.021c4.806,0.018,10.047,2.213,14.387,6.785
	l3.795-3.428C33.385,2.951,26.787,0,20.358,0C20.324,0,19.021,0.045,18.986,0.045z"/>
<text transform="matrix(1 0 0 1 357.3555 33.6289)" fill="#5E5E5E" font-family="'OpenSans-Light'" font-size="26">®</text>
</svg>
