<?xml version="1.0" encoding="utf-8"?>
<!-- Generator: Adobe Illustrator 16.0.0, SVG Export Plug-In . SVG Version: 6.00 Build 0)  -->
<!DOCTYPE svg PUBLIC "-//W3C//DTD SVG 1.1//EN" "http://www.w3.org/Graphics/SVG/1.1/DTD/svg11.dtd">
<svg version="1.1" id="Layer_1" xmlns="http://www.w3.org/2000/svg" xmlns:xlink="http://www.w3.org/1999/xlink" x="0px" y="0px"
	 width="512px" height="512px" viewBox="0 0 512 512" enable-background="new 0 0 512 512" xml:space="preserve">
<g>
	<g>
		<path fill="#0095DB" d="M481.874,102.698c13.854,0,25.126,11.271,25.126,25.126v257.898c0,13.854-11.271,25.125-25.126,25.125
			H30.143c-13.854,0-25.126-11.271-25.126-25.125V127.824c0-13.854,11.271-25.126,25.126-25.126H481.874 M481.874,97.698H30.143
			c-16.638,0-30.126,13.488-30.126,30.126v257.898c0,16.641,13.488,30.125,30.126,30.125h451.731
			c16.64,0,30.126-13.484,30.126-30.125V127.824C512,111.186,498.513,97.698,481.874,97.698L481.874,97.698z"/>
	</g>
</g>
<g id="XMLID_328_">
	<rect x="194.424" y="155.072" fill="#6C6BBD" width="128.223" height="209.438"/>
	<path id="XMLID_330_" fill="#E40520" d="M207.66,259.788c0-42.487,19.894-80.326,50.875-104.716
		c-22.661-17.838-51.242-28.475-82.314-28.475c-73.552,0-133.183,59.631-133.183,133.19c0,73.559,59.631,133.189,133.183,133.189
		c31.073,0,59.654-10.638,82.314-28.468C227.554,340.111,207.66,302.273,207.66,259.788z"/>
	<path fill="#0097D9" d="M474.032,259.788c0,73.56-59.631,133.19-133.19,133.19c-31.058,0-59.646-10.639-82.307-28.469
		c30.98-24.398,50.869-62.236,50.869-104.723c0-42.487-19.889-80.326-50.869-104.716c22.66-17.838,51.233-28.475,82.307-28.475
		C414.401,126.598,474.032,186.229,474.032,259.788z"/>
</g>
</svg>
