<?xml version="1.0" encoding="utf-8"?>
<!-- Generator: Adobe Illustrator 16.0.0, SVG Export Plug-In . SVG Version: 6.00 Build 0)  -->
<!DOCTYPE svg PUBLIC "-//W3C//DTD SVG 1.1//EN" "http://www.w3.org/Graphics/SVG/1.1/DTD/svg11.dtd">
<svg version="1.1" id="Layer_1" xmlns="http://www.w3.org/2000/svg" xmlns:xlink="http://www.w3.org/1999/xlink" x="0px" y="0px"
	 width="512px" height="512px" viewBox="0 0 512 512" enable-background="new 0 0 512 512" xml:space="preserve">
<g>
	<g>
		<path fill="#E30613" d="M482.722,103.198c13.854,0,25.126,11.271,25.126,25.126v257.9c0,13.854-11.271,25.125-25.126,25.125H30.99
			c-13.854,0-25.126-11.271-25.126-25.125v-257.9c0-13.854,11.271-25.126,25.126-25.126H482.722 M482.722,98.198H30.99
			c-16.638,0-30.126,13.488-30.126,30.126v257.9c0,16.639,13.488,30.125,30.126,30.125h451.731c16.64,0,30.126-13.486,30.126-30.125
			v-257.9C512.848,111.686,499.36,98.198,482.722,98.198L482.722,98.198z"/>
	</g>
	<g id="XMLID_328_">
		<rect x="197.709" y="156.041" fill="#F16122" width="123.523" height="201.773"/>
		<path id="XMLID_330_" fill="#E91D25" d="M210.459,256.926c0-40.929,19.166-77.382,49.012-100.885
			c-21.831-17.177-49.365-27.424-79.298-27.424c-70.857,0-128.303,57.446-128.303,128.309c0,70.864,57.446,128.311,128.303,128.311
			c29.934,0,57.467-10.247,79.298-27.423C229.625,334.308,210.459,297.855,210.459,256.926z"/>
		<path fill="#F79E1D" d="M454.828,336.438v-4.141h1.675v-0.821h-4.259v0.821h1.673v4.141H454.828L454.828,336.438z
			 M463.064,336.438v-4.991h-1.307l-1.498,3.435l-1.497-3.435h-1.293v4.991h0.911v-3.758l1.408,3.23h0.955l1.396-3.23v3.758H463.064
			z"/>
		<path fill="#F79E1D" d="M467.071,256.926c0,70.864-57.445,128.311-128.309,128.311c-29.92,0-57.46-10.247-79.291-27.423
			c29.846-23.506,49.004-59.958,49.004-100.888c0-40.929-19.158-77.382-49.004-100.885c21.831-17.177,49.356-27.424,79.291-27.424
			C409.626,128.617,467.071,186.062,467.071,256.926z"/>
	</g>
</g>
</svg>
