<?xml version="1.0" encoding="UTF-8"?>
<svg width="40px" height="40px" viewBox="0 0 40 40" version="1.1" xmlns="http://www.w3.org/2000/svg" xmlns:xlink="http://www.w3.org/1999/xlink">
    <!-- Generator: Sketch 52.6 (67491) - http://www.bohemiancoding.com/sketch -->
    <title>Group 3</title>
    <desc>Created with Sketch.</desc>
    <g id="Page-1" stroke="none" stroke-width="1" fill="none" fill-rule="evenodd">
        <g id="DC_Designer-user-cabinet---Notifications" transform="translate(-1354.000000, -330.000000)">
            <g id="Group-3" transform="translate(1354.000000, 330.000000)">
                <path d="M20,0 C31.0463534,0 40,8.95524778 40,20 C40,31.0463534 31.0463534,40 20,40 C8.95364663,40 0,31.0479545 0,20 C0,8.95524778 8.95204547,0 20,0 Z" id="Path" fill="#6AF0AD"></path>
                <path d="M28,14.8814126 L28,22.4083912 C28,23.4465031 27.1580352,24.2898023 26.1212576,24.2898023 C26.1212576,24.2898023 21.7272955,24.1577032 21.5471604,24.2898023 C17.6469018,27.1119189 21.4110583,24.2898023 17.6469018,27.1119189 C17.6469018,26.1712133 17.6469018,25.2305078 17.6375615,24.2898023 C16.6861813,24.2898023 13.8827454,24.2898023 13.8827454,24.2898023 C12.8432991,24.2898023 12,23.4465031 12,22.4083912 L12,14.8814126 C12,13.8419664 12.8432991,13.0000016 13.8827454,13.0000016 L26.1212576,13.0000016 C27.1580352,12.9986672 28,13.8419664 28,14.8814126 Z" id="Path" fill="#FFFFFF"></path>
            </g>
        </g>
    </g>
</svg>