<?xml version="1.0" encoding="utf-8"?>
<!-- Generator: Adobe Illustrator 16.0.0, SVG Export Plug-In . SVG Version: 6.00 Build 0)  -->
<!DOCTYPE svg PUBLIC "-//W3C//DTD SVG 1.1//EN" "http://www.w3.org/Graphics/SVG/1.1/DTD/svg11.dtd">
<svg version="1.1" id="Layer_1" xmlns="http://www.w3.org/2000/svg" xmlns:xlink="http://www.w3.org/1999/xlink" x="0px" y="0px"
	 width="612px" height="408px" viewBox="0 0 612 408" enable-background="new 0 0 612 408" xml:space="preserve">
<g>
	<title>Layer 1</title>
	<g id="svg_18773">
		<g id="svg_18774">
			<g>
				<defs>
					<rect id="SVGID_1_" x="0" y="-2" width="612" height="408"/>
				</defs>
				<clipPath id="SVGID_2_">
					<use xlink:href="#SVGID_1_"  overflow="visible"/>
				</clipPath>
				<polygon id="svg_18776" clip-path="url(#SVGID_2_)" fill="#1A237B" points="306.1,-2 306.1,11 306.1,15.4 306.1,17.5 
					238.2,56.3 306.1,56.3 306.1,67.9 306.1,85.4 306.1,102.9 306.1,114.6 238.2,114.6 306.1,153.4 306.1,159.9 306.1,172.9 
					306.1,174 285.2,174 277.4,174 273.8,174 178.5,119.6 178.5,174 168.3,174 153,174 137.7,174 127.5,174 127.5,119.6 32.2,174 
					20.8,174 0,174 0,406 612,406 612,-2 				"/>
			</g>
			<g>
				<defs>
					<rect id="SVGID_3_" x="0" y="-2" width="612" height="408"/>
				</defs>
				<clipPath id="SVGID_4_">
					<use xlink:href="#SVGID_3_"  overflow="visible"/>
				</clipPath>
				<polygon id="svg_18777" clip-path="url(#SVGID_4_)" fill="#1A237B" points="0,114.6 0,153.3 67.8,114.6 				"/>
			</g>
			<g>
				<defs>
					<rect id="SVGID_5_" x="0" y="-2" width="612" height="408"/>
				</defs>
				<clipPath id="SVGID_6_">
					<use xlink:href="#SVGID_5_"  overflow="visible"/>
				</clipPath>
				<polygon id="svg_18778" clip-path="url(#SVGID_6_)" fill="#1A237B" points="178.5,-2 178.5,51.3 271.8,-2 				"/>
			</g>
			<g>
				<defs>
					<rect id="SVGID_7_" x="0" y="-2" width="612" height="408"/>
				</defs>
				<clipPath id="SVGID_8_">
					<use xlink:href="#SVGID_7_"  overflow="visible"/>
				</clipPath>
				<polygon id="svg_18779" clip-path="url(#SVGID_8_)" fill="#1A237B" points="127.5,-2 34.2,-2 127.5,51.3 				"/>
			</g>
			<g>
				<defs>
					<rect id="SVGID_9_" x="0" y="-2" width="612" height="408"/>
				</defs>
				<clipPath id="SVGID_10_">
					<use xlink:href="#SVGID_9_"  overflow="visible"/>
				</clipPath>
				<polygon id="svg_18780" clip-path="url(#SVGID_10_)" fill="#1A237B" points="0,56.3 67.8,56.3 0,17.6 				"/>
			</g>
			<g>
				<defs>
					<rect id="SVGID_11_" x="0" y="-2" width="612" height="408"/>
				</defs>
				<clipPath id="SVGID_12_">
					<use xlink:href="#SVGID_11_"  overflow="visible"/>
				</clipPath>
				<polygon id="svg_18781" clip-path="url(#SVGID_12_)" fill="#FFFFFF" points="306,-2 204,56.3 181.2,56.3 283.2,-2 271.8,-2 
					178.5,51.3 178.5,-2 168.3,-2 168.3,57.1 168.3,63.7 168.3,67.9 183.6,67.9 206.4,67.9 214.2,67.9 217.8,67.9 306.1,67.9 
					306.1,56.3 238.2,56.3 306.1,17.5 306.1,15.4 306.1,11 306.1,-2 				"/>
			</g>
			<g>
				<defs>
					<rect id="SVGID_13_" x="0" y="-2" width="612" height="408"/>
				</defs>
				<clipPath id="SVGID_14_">
					<use xlink:href="#SVGID_13_"  overflow="visible"/>
				</clipPath>
				<polygon id="svg_18782" clip-path="url(#SVGID_14_)" fill="#FFFFFF" points="127.5,-2 127.5,51.3 34.2,-2 0,-2 102,56.3 
					79.2,56.3 0,11.1 0,17.6 67.8,56.3 0,56.3 0,67.9 88.2,67.9 99.6,67.9 122.4,67.9 137.7,67.9 137.7,63.7 137.7,59.2 137.7,57.1 
					137.7,-2 				"/>
			</g>
			<g>
				<defs>
					<rect id="SVGID_15_" x="0" y="-2" width="612" height="408"/>
				</defs>
				<clipPath id="SVGID_16_">
					<use xlink:href="#SVGID_15_"  overflow="visible"/>
				</clipPath>
				<polygon id="svg_18783" clip-path="url(#SVGID_16_)" fill="#FFFFFF" points="206.4,102.9 183.6,102.9 168.3,102.9 168.3,107.2 
					168.3,111.7 168.3,113.7 168.3,174 178.5,174 178.5,119.6 273.8,174 277.4,174 285.2,174 306.1,174 306.1,172.9 204,114.6 
					226.8,114.6 306.1,159.9 306.1,153.4 238.2,114.6 306.1,114.6 306.1,102.9 217.8,102.9 				"/>
			</g>
			<g>
				<defs>
					<rect id="SVGID_17_" x="0" y="-2" width="612" height="408"/>
				</defs>
				<clipPath id="SVGID_18_">
					<use xlink:href="#SVGID_17_"  overflow="visible"/>
				</clipPath>
				<polygon id="svg_18784" clip-path="url(#SVGID_18_)" fill="#FFFFFF" points="122.4,102.9 99.6,102.9 91.8,102.9 88.2,102.9 
					0,102.9 0,114.6 67.8,114.6 0,153.3 0,172.9 102,114.6 124.8,114.6 20.8,174 32.2,174 127.5,119.6 127.5,174 137.7,174 
					137.7,113.7 137.7,107.2 137.7,102.9 				"/>
			</g>
			<g>
				<defs>
					<rect id="SVGID_19_" x="0" y="-2" width="612" height="408"/>
				</defs>
				<clipPath id="SVGID_20_">
					<use xlink:href="#SVGID_19_"  overflow="visible"/>
				</clipPath>
				<polygon id="svg_18785" clip-path="url(#SVGID_20_)" fill="#BD0034" points="102,114.6 0,172.9 0,174 20.8,174 124.8,114.6 				
					"/>
			</g>
			<g>
				<defs>
					<rect id="SVGID_21_" x="0" y="-2" width="612" height="408"/>
				</defs>
				<clipPath id="SVGID_22_">
					<use xlink:href="#SVGID_21_"  overflow="visible"/>
				</clipPath>
				<polygon id="svg_18786" clip-path="url(#SVGID_22_)" fill="#BD0034" points="0,11.1 79.2,56.3 102,56.3 0,-2 				"/>
			</g>
			<g>
				<defs>
					<rect id="SVGID_23_" x="0" y="-2" width="612" height="408"/>
				</defs>
				<clipPath id="SVGID_24_">
					<use xlink:href="#SVGID_23_"  overflow="visible"/>
				</clipPath>
				<polygon id="svg_18787" clip-path="url(#SVGID_24_)" fill="#BD0034" points="306,-2 283.2,-2 181.2,56.3 204,56.3 				"/>
			</g>
			<g>
				<defs>
					<rect id="SVGID_25_" x="0" y="-2" width="612" height="408"/>
				</defs>
				<clipPath id="SVGID_26_">
					<use xlink:href="#SVGID_25_"  overflow="visible"/>
				</clipPath>
				<polygon id="svg_18788" clip-path="url(#SVGID_26_)" fill="#BD0034" points="204,114.6 306.1,172.9 306.1,159.9 226.8,114.6 
									"/>
			</g>
			<g>
				<defs>
					<rect id="SVGID_27_" x="0" y="-2" width="612" height="408"/>
				</defs>
				<clipPath id="SVGID_28_">
					<use xlink:href="#SVGID_27_"  overflow="visible"/>
				</clipPath>
				<polygon id="svg_18789" clip-path="url(#SVGID_28_)" fill="#BD0034" points="137.7,-2 137.7,57.1 137.7,59.2 137.7,63.7 
					137.7,67.9 122.4,67.9 99.6,67.9 88.2,67.9 0,67.9 0,102.9 88.2,102.9 91.8,102.9 99.6,102.9 122.4,102.9 137.7,102.9 
					137.7,107.2 137.7,113.7 137.7,174 153,174 168.3,174 168.3,113.7 168.3,111.7 168.3,107.2 168.3,102.9 183.6,102.9 
					206.4,102.9 217.8,102.9 306.1,102.9 306.1,85.4 306.1,67.9 217.8,67.9 214.2,67.9 206.4,67.9 183.6,67.9 168.3,67.9 
					168.3,63.7 168.3,57.1 168.3,-2 				"/>
			</g>
			<g>
				<defs>
					<rect id="SVGID_29_" x="0" y="-2" width="612" height="408"/>
				</defs>
				<clipPath id="SVGID_30_">
					<use xlink:href="#SVGID_29_"  overflow="visible"/>
				</clipPath>
				<polygon id="svg_18790" clip-path="url(#SVGID_30_)" fill="#FFFFFF" points="424.801,117.1 441.4,117.1 446.6,99 451.7,117.1 
					468.4,117.1 454.9,128.2 460,146.3 446.6,135.2 433.1,146.3 438.301,128.2 				"/>
			</g>
			<g>
				<defs>
					<rect id="SVGID_31_" x="0" y="-2" width="612" height="408"/>
				</defs>
				<clipPath id="SVGID_32_">
					<use xlink:href="#SVGID_31_"  overflow="visible"/>
				</clipPath>
				<polygon id="svg_18791" clip-path="url(#SVGID_32_)" fill="#BD0034" points="432.2,119.8 443.2,119.8 446.6,107.9 450,119.8 
					461,119.8 452.1,127.2 455.5,139.2 446.6,131.8 437.7,139.2 441.1,127.2 				"/>
			</g>
			<g>
				<defs>
					<rect id="SVGID_33_" x="0" y="-2" width="612" height="408"/>
				</defs>
				<clipPath id="SVGID_34_">
					<use xlink:href="#SVGID_33_"  overflow="visible"/>
				</clipPath>
				<polygon id="svg_18792" clip-path="url(#SVGID_34_)" fill="#FFFFFF" points="358.3,193.5 374.9,193.5 380.1,175.5 385.2,193.5 
					401.8,193.5 388.4,204.7 393.5,222.8 380.1,211.6 366.6,222.8 371.7,204.7 				"/>
			</g>
			<g>
				<defs>
					<rect id="SVGID_35_" x="0" y="-2" width="612" height="408"/>
				</defs>
				<clipPath id="SVGID_36_">
					<use xlink:href="#SVGID_35_"  overflow="visible"/>
				</clipPath>
				<polygon id="svg_18793" clip-path="url(#SVGID_36_)" fill="#BD0034" points="365.7,196.3 376.7,196.3 380.1,184.3 383.5,196.3 
					394.5,196.3 385.6,203.7 389,215.6 380.1,208.2 371.2,215.6 374.6,203.7 				"/>
			</g>
			<g>
				<defs>
					<rect id="SVGID_37_" x="0" y="-2" width="612" height="408"/>
				</defs>
				<clipPath id="SVGID_38_">
					<use xlink:href="#SVGID_37_"  overflow="visible"/>
				</clipPath>
				<polygon id="svg_18794" clip-path="url(#SVGID_38_)" fill="#FFFFFF" points="484.2,174.6 499,174.6 503.6,158.5 508.2,174.6 
					523,174.6 511,184.5 515.6,200.6 503.6,190.7 491.6,200.6 496.2,184.5 				"/>
			</g>
			<g>
				<defs>
					<rect id="SVGID_39_" x="0" y="-2" width="612" height="408"/>
				</defs>
				<clipPath id="SVGID_40_">
					<use xlink:href="#SVGID_39_"  overflow="visible"/>
				</clipPath>
				<polygon id="svg_18795" clip-path="url(#SVGID_40_)" fill="#BD0034" points="490.801,177 500.6,177 503.6,166.4 506.6,177 
					516.4,177 508.5,183.6 511.5,194.2 503.6,187.7 495.7,194.2 498.7,183.6 				"/>
			</g>
			<g>
				<defs>
					<rect id="SVGID_41_" x="0" y="-2" width="612" height="408"/>
				</defs>
				<clipPath id="SVGID_42_">
					<use xlink:href="#SVGID_41_"  overflow="visible"/>
				</clipPath>
				<polygon id="svg_18796" clip-path="url(#SVGID_42_)" fill="#FFFFFF" points="422.4,313.6 440.9,313.6 446.6,293.5 
					452.301,313.6 470.801,313.6 455.801,326 461.5,346.1 446.6,333.7 431.7,346.1 437.4,326 				"/>
			</g>
			<g>
				<defs>
					<rect id="SVGID_43_" x="0" y="-2" width="612" height="408"/>
				</defs>
				<clipPath id="SVGID_44_">
					<use xlink:href="#SVGID_43_"  overflow="visible"/>
				</clipPath>
				<polygon id="svg_18797" clip-path="url(#SVGID_44_)" fill="#BD0034" points="430.6,316.7 442.801,316.7 446.6,303.4 
					450.4,316.7 462.6,316.7 452.7,324.9 456.5,338.2 446.6,329.9 436.7,338.2 440.5,324.9 				"/>
			</g>
		</g>
	</g>
</g>
</svg>
