<?xml version="1.0" encoding="utf-8"?>
<!-- Generator: Adobe Illustrator 16.0.0, SVG Export Plug-In . SVG Version: 6.00 Build 0)  -->
<!DOCTYPE svg PUBLIC "-//W3C//DTD SVG 1.1//EN" "http://www.w3.org/Graphics/SVG/1.1/DTD/svg11.dtd">
<svg version="1.1" id="Layer_1" xmlns="http://www.w3.org/2000/svg" xmlns:xlink="http://www.w3.org/1999/xlink" x="0px" y="0px"
	 width="26.061px" height="609.816px" viewBox="0 0 26.061 609.816" enable-background="new 0 0 26.061 609.816"
	 xml:space="preserve">
<path fill-rule="evenodd" clip-rule="evenodd" fill="#434753" d="M12.949,478.714c6.899,0,12.491,5.594,12.491,12.492
	s-5.592,12.49-12.491,12.49s-12.491-5.592-12.491-12.49S6.05,478.714,12.949,478.714z"/>
<g>
	<g>
		<path fill="#FFFFFF" d="M16.964,487.293c-0.536,0-8.146,0-8.146,0c-0.536,0-1.357,0.437-1.357,0.965v0.191
			c0,0,4.589,3.838,5.431,3.838c0.84,0,5.429-3.825,5.429-3.825v-0.204C18.32,487.73,17.499,487.293,16.964,487.293z M7.46,489.999
			v5.44c0,0,0.504,0.679,1.357,0.679h8.146c0.811,0,1.356-0.679,1.356-0.679v-5.458c0,0-3.862,3.447-5.429,3.447
			C11.339,493.428,7.46,489.999,7.46,489.999z"/>
	</g>
</g>
<path fill-rule="evenodd" clip-rule="evenodd" fill="#434753" d="M12.891,584.833c6.899,0,12.491,5.594,12.491,12.492
	s-5.592,12.49-12.491,12.49s-12.491-5.592-12.491-12.49S5.991,584.833,12.891,584.833z"/>
<path fill-rule="evenodd" clip-rule="evenodd" fill="#54A545" d="M12.891,445.294c6.899,0,12.491,5.594,12.491,12.492
	s-5.592,12.49-12.491,12.49s-12.491-5.592-12.491-12.49S5.991,445.294,12.891,445.294z"/>
<path fill-rule="evenodd" clip-rule="evenodd" fill="#434753" d="M12.491,411.898c6.899,0,12.491,5.594,12.491,12.492
	s-5.592,12.49-12.491,12.49S0,431.289,0,424.39S5.592,411.898,12.491,411.898z"/>
<g>
	<title>Layer 1</title>
	<path id="svg_1_2_" fill="#FFFFFF" d="M13.212,427.646c0-1.085,0.932-1.685,2.231-2.574c1.589-1.088,3.567-1.649,3.567-4.861
		c0-0.289-0.229-0.523-0.512-0.523h-2.485c-0.012-1.237-1.397-2.18-3.522-2.18c-2.124,0-3.419,0.942-3.522,2.18H6.484
		c-0.283,0-0.513,0.234-0.513,0.523c0,3.212,1.979,3.773,3.568,4.861c1.3,0.89,2.232,1.489,2.232,2.574v0.709
		c-1.365,0.157-2.504,0.792-2.504,1.411c0,0.743,1.443,1.505,3.223,1.505c1.781,0,3.225-0.762,3.225-1.505
		c0-0.619-1.14-1.254-2.506-1.411v-0.709H13.212z M15.358,424.069c0.411-0.898,0.735-1.865,0.788-3.675h2.135
		C18.154,422.482,16.798,423.184,15.358,424.069z M12.491,418.194c1.979-0.001,2.752,0.803,2.752,1.451
		c0.002,0.583-0.771,1.479-2.752,1.48c-1.979-0.002-2.754-0.739-2.751-1.48C9.74,419.018,10.512,418.193,12.491,418.194z
		 M6.747,420.394h2.089c0.053,1.81,0.378,2.755,0.789,3.651C8.141,423.116,6.92,422.414,6.747,420.394z"/>
</g>
<path fill-rule="evenodd" clip-rule="evenodd" fill="#434753" d="M12.891,377.456c6.899,0,12.491,5.594,12.491,12.492
	s-5.592,12.49-12.491,12.49s-12.491-5.592-12.491-12.49S5.991,377.456,12.891,377.456z"/>
<path fill-rule="evenodd" clip-rule="evenodd" fill="#434753" d="M12.891,310.365c6.899,0,12.491,5.592,12.491,12.49
	c0,6.9-5.592,12.492-12.491,12.492s-12.491-5.592-12.491-12.492C0.399,315.957,5.991,310.365,12.891,310.365z"/>
<path fill-rule="evenodd" clip-rule="evenodd" fill="#434753" d="M13.283,276.799c6.899,0,12.491,5.592,12.491,12.49
	c0,6.9-5.592,12.492-12.491,12.492S0.792,296.19,0.792,289.29C0.792,282.391,6.384,276.799,13.283,276.799z"/>
<path fill-rule="evenodd" clip-rule="evenodd" fill="#434753" d="M12.891,244.124c6.899,0,12.491,5.593,12.491,12.491
	c0,6.899-5.592,12.491-12.491,12.491s-12.491-5.592-12.491-12.491C0.399,249.716,5.991,244.124,12.891,244.124z"/>
<path fill-rule="evenodd" clip-rule="evenodd" fill="#434753" d="M12.891,0c6.899,0,12.491,5.593,12.491,12.491
	c0,6.899-5.592,12.491-12.491,12.491S0.399,19.391,0.399,12.491C0.399,5.593,5.991,0,12.891,0z"/>
<path fill-rule="evenodd" clip-rule="evenodd" fill="#434753" d="M12.677,34.781c6.899,0,12.491,5.593,12.491,12.491
	c0,6.899-5.592,12.491-12.491,12.491S0.186,54.172,0.186,47.272C0.186,40.374,5.777,34.781,12.677,34.781z"/>
<path fill-rule="evenodd" clip-rule="evenodd" fill="#434753" d="M12.891,70.329c6.899,0,12.491,5.593,12.491,12.491
	c0,6.899-5.592,12.491-12.491,12.491S0.399,89.719,0.399,82.82C0.399,75.921,5.991,70.329,12.891,70.329z"/>
<g>
	<g>
		<path fill="#FDFFFF" d="M10.561,78.447c0.264,0,0.479-0.206,0.479-0.458v-1.375c0-0.252-0.215-0.458-0.479-0.458
			s-0.479,0.206-0.479,0.458v1.375C10.083,78.241,10.297,78.447,10.561,78.447z M15.349,78.447c0.264,0,0.479-0.206,0.479-0.458
			v-1.375c0-0.252-0.215-0.458-0.479-0.458s-0.479,0.206-0.479,0.458v1.375C14.87,78.241,15.085,78.447,15.349,78.447z
			 M17.265,77.071h-0.957v0.917c0,0.506-0.43,0.916-0.959,0.916c-0.527,0-0.957-0.41-0.957-0.916v-0.917h-2.873v0.917
			c0,0.506-0.429,0.916-0.958,0.916c-0.528,0-0.958-0.41-0.958-0.916v-0.917H8.646c-0.793,0-1.437,0.617-1.437,1.375v8.748
			c0,0.759,0.643,1.375,1.437,1.375h8.619c0.793,0,1.406-0.616,1.406-1.375v-8.748C18.671,77.688,18.058,77.071,17.265,77.071z
			 M17.714,80.399v6.795c0,0.251-0.216,0.458-0.479,0.458H8.646c-0.264,0-0.479-0.206-0.479-0.458l-0.002-7.22h9.52l0.057,0.401
			L17.714,80.399z"/>
	</g>
</g>
<path fill-rule="evenodd" clip-rule="evenodd" fill="#FFFFFF" d="M18.823,44.645v5.641c0,0.778-0.631,1.41-1.408,1.41
	c0,0-3.293-0.099-3.428,0c-2.923,2.115-0.102,0-2.923,2.115c0-0.705,0-1.41-0.007-2.115c-0.713,0-2.814,0-2.814,0
	c-0.779,0-1.411-0.632-1.411-1.41v-5.641c0-0.779,0.632-1.41,1.411-1.41h9.172C18.192,43.234,18.823,43.866,18.823,44.645z"/>
<g>
	<path id="Behance" fill="#FFFFFF" d="M19.254,594.084h-3.639v-0.903h3.64L19.254,594.084L19.254,594.084z M13.192,597.792
		c0.235,0.364,0.352,0.805,0.352,1.323c0,0.537-0.133,1.018-0.401,1.442c-0.171,0.282-0.384,0.52-0.64,0.71
		c-0.287,0.221-0.628,0.373-1.02,0.454c-0.393,0.081-0.818,0.122-1.276,0.122h-4.07v-9.038h4.365
		c1.101,0.018,1.88,0.337,2.341,0.963c0.277,0.384,0.414,0.845,0.414,1.38c0,0.553-0.139,0.995-0.418,1.33
		c-0.155,0.188-0.384,0.359-0.688,0.515C12.61,597.163,12.958,597.427,13.192,597.792z M8.221,596.37h1.912
		c0.393,0,0.711-0.075,0.956-0.225c0.245-0.149,0.367-0.414,0.367-0.794c0-0.42-0.162-0.7-0.485-0.834
		c-0.279-0.094-0.635-0.142-1.067-0.142H8.221V596.37z M11.64,598.988c0-0.47-0.192-0.794-0.575-0.969
		c-0.214-0.099-0.517-0.15-0.904-0.153h-1.94v2.409h1.91c0.392,0,0.696-0.053,0.915-0.159
		C11.441,599.918,11.64,599.543,11.64,598.988z M20.604,597.517c0.044,0.295,0.064,0.725,0.057,1.285h-4.715
		c0.026,0.65,0.252,1.105,0.678,1.365c0.256,0.164,0.568,0.243,0.933,0.243c0.385,0,0.698-0.097,0.939-0.296
		c0.132-0.106,0.247-0.256,0.347-0.444h1.729c-0.045,0.384-0.254,0.774-0.627,1.17c-0.579,0.629-1.392,0.944-2.436,0.944
		c-0.861,0-1.621-0.266-2.279-0.796c-0.658-0.532-0.988-1.396-0.988-2.594c0-1.123,0.297-1.983,0.892-2.581
		c0.597-0.599,1.366-0.897,2.315-0.897c0.563,0,1.07,0.101,1.522,0.303c0.451,0.202,0.824,0.521,1.118,0.959
		C20.354,596.563,20.524,597.008,20.604,597.517z M18.903,597.685c-0.031-0.45-0.182-0.79-0.451-1.022
		c-0.269-0.233-0.604-0.351-1.004-0.351c-0.436,0-0.771,0.125-1.01,0.371c-0.24,0.246-0.391,0.579-0.451,1.002H18.903
		L18.903,597.685z"/>
</g>
<g>
	<g>
		<path fill-rule="evenodd" clip-rule="evenodd" fill="#FFFFFF" d="M17.948,285.616h-2.137v-1.432c0,0-0.045-0.688-0.738-0.688
			l-3.526,0.001c0,0-0.77-0.009-0.747,0.706l0.001,1.412H8.554c-0.696,0-0.615,0.545-0.615,0.749c0,0.204-0.014,0.706,0.615,0.706
			h0.861l-0.055,6.465c0,0,0.055,1.409,1.441,1.409h5.01c0,0,1.355-0.047,1.355-1.412l0.01-6.462h0.771
			c0.651,0,0.683-0.501,0.683-0.706C18.631,286.161,18.622,285.616,17.948,285.616z M11.495,293.198
			c0,0.186-0.172,0.335-0.357,0.335c-0.186,0-0.335-0.149-0.335-0.335v-5.77c0-0.186,0.15-0.335,0.335-0.335
			c0.185,0,0.357,0.15,0.357,0.335V293.198z M13.665,293.154c0,0.197-0.16,0.358-0.358,0.358c-0.198,0-0.358-0.161-0.358-0.358
			v-5.726c0-0.198,0.16-0.358,0.358-0.358c0.198,0,0.358,0.16,0.358,0.358V293.154z M11.495,285.616
			c0-0.716,0.749-0.718,0.749-0.718l2.16,0.002c0,0,0.671,0.022,0.671,0.716H11.495z M15.79,293.187
			c0,0.192-0.156,0.347-0.348,0.347s-0.346-0.154-0.346-0.347v-5.725c0-0.192,0.154-0.348,0.346-0.348s0.348,0.155,0.348,0.348
			V293.187z"/>
	</g>
</g>
<g>
	<title>Layer 1</title>
	<path id="svg_1" fill="#FFFFFF" d="M7.101,322.573l0.79,0.2l0.594-0.949l-1.13-0.285c-0.282-0.071-0.568,0.103-0.638,0.389
		C6.647,322.212,6.819,322.502,7.101,322.573z M17.402,322.727l-2.585,2.366l-3.037-2.392c-0.058-0.046-0.125-0.079-0.196-0.097
		l-0.405-0.102l-0.594,0.949l0.636,0.159l3.299,2.599c0.096,0.074,0.21,0.111,0.324,0.111c0.125,0,0.253-0.046,0.353-0.138
		l2.911-2.665c0.216-0.198,0.231-0.536,0.036-0.754C17.951,322.546,17.618,322.53,17.402,322.727z M11.729,320.128l2.829,1.844
		c0.239,0.154,0.558,0.09,0.719-0.146l2.911-4.267c0.164-0.241,0.104-0.573-0.135-0.741c-0.238-0.168-0.566-0.107-0.731,0.135
		l-2.622,3.843l-2.847-1.854c-0.118-0.078-0.262-0.104-0.398-0.073c-0.137,0.031-0.256,0.115-0.331,0.235l-4.34,6.932
		c-0.156,0.249-0.083,0.579,0.162,0.737c0.087,0.055,0.185,0.082,0.281,0.082c0.174,0,0.345-0.087,0.445-0.248L11.729,320.128z"/>
</g>
<g>
	<title>Layer 1</title>
	<path id="svg_1_1_" fill="#FFFFFF" d="M11.107,391.554l-2.719-1.134v0.958l2.719,1.134V391.554L11.107,391.554z M11.107,388.613
		l-2.719-1.133v0.958l2.719,1.133V388.613L11.107,388.613z M19.013,383.695c-0.196-0.132-0.443-0.158-0.661-0.072l-5.402,2.162
		l-5.403-2.162c-0.219-0.086-0.466-0.06-0.66,0.072c-0.195,0.131-0.311,0.351-0.311,0.586v9.065c0,0.289,0.176,0.55,0.445,0.657
		l5.654,2.261c0,0,0.116,0.037,0.137,0.043c0.046,0.007,0.092,0.013,0.138,0.013c0.045,0,0.091-0.006,0.137-0.013
		c0.022-0.006,0.138-0.043,0.138-0.043l5.653-2.261c0.268-0.107,0.445-0.368,0.445-0.657v-9.065
		C19.323,384.045,19.206,383.826,19.013,383.695z M12.042,394.586l-4.561-1.813v-7.653l4.561,1.813V394.586z M18.39,392.746
		l-4.533,1.813v-7.624l4.533-1.813V392.746L18.39,392.746z M17.482,390.42l-2.72,1.134v0.958l2.72-1.134V390.42L17.482,390.42z
		 M17.482,387.421l-2.72,1.191v0.958l2.72-1.19V387.421L17.482,387.421z"/>
</g>
<title>Layer 1</title>
<g>
	<title>Layer 1</title>
	<path id="svg_1_4_" fill="#FFFFFF" d="M13.669,461.042c0-1.085,0.933-1.685,2.231-2.574c1.59-1.088,3.568-1.649,3.568-4.861
		c0-0.289-0.229-0.523-0.512-0.523h-2.486c-0.012-1.237-1.396-2.18-3.521-2.18c-2.124,0-3.42,0.942-3.522,2.18H6.942
		c-0.283,0-0.513,0.234-0.513,0.523c0,3.212,1.979,3.773,3.568,4.861c1.3,0.89,2.232,1.489,2.232,2.574v0.709
		c-1.365,0.157-2.504,0.792-2.504,1.411c0,0.743,1.443,1.505,3.224,1.505c1.78,0,3.224-0.762,3.224-1.505
		c0-0.619-1.14-1.254-2.505-1.411L13.669,461.042L13.669,461.042z M15.816,457.465c0.41-0.898,0.734-1.865,0.787-3.675h2.135
		C18.611,455.878,17.255,456.581,15.816,457.465z M12.949,451.59c1.979-0.001,2.752,0.803,2.752,1.451
		c0.002,0.583-0.771,1.479-2.752,1.48c-1.98-0.002-2.754-0.739-2.751-1.48C10.198,452.415,10.97,451.589,12.949,451.59z
		 M7.205,453.791h2.089c0.053,1.81,0.378,2.755,0.789,3.651C8.599,456.512,7.378,455.81,7.205,453.791z"/>
</g>
<path fill="#FFFFFF" d="M14.425,252.397l3.01,2.795l-7.226,6.708l-3.01-2.794L14.425,252.397z M18.007,254.632l-2.98-2.766
	l1.276-1.186c0.472-0.438,1.233-0.438,1.704,0l1.277,1.186c0.471,0.437,0.471,1.144,0,1.581L18.007,254.632z M6.445,262.877
	l-0.301-0.279l0.791-2.341l2.033,1.886L6.445,262.877z"/>
<path fill-rule="evenodd" clip-rule="evenodd" fill="#434753" d="M12.891,175.216c6.899,0,12.491,5.593,12.491,12.491
	c0,6.899-5.592,12.491-12.491,12.491c-6.899,0-12.491-5.592-12.491-12.491C0.399,180.809,5.992,175.216,12.891,175.216z"/>
<path fill="#434753" d="M26.061,219.562l-0.896,2.89l0.893,2.89l-2.06,2.214l-0.449,2.991l-2.817,1.102l-1.702,2.5l-3.017-0.229
	l-2.618,1.514l-2.617-1.516l-3.017,0.228l-1.7-2.501l-2.816-1.104l-0.447-2.992l-2.059-2.216l0.895-2.889l-0.893-2.891l2.06-2.215
	l0.449-2.99l2.817-1.102l1.703-2.5l3.016,0.229l2.619-1.514l2.618,1.516l3.016-0.228l1.701,2.501l2.816,1.104l0.446,2.992
	L26.061,219.562z"/>
<path fill="#FFFFFF" d="M18.772,8.015H7.009C6.673,8.015,6.4,8.298,6.4,8.648v7.688c0,0.349,0.273,0.633,0.609,0.633h11.763
	c0.336,0,0.609-0.284,0.609-0.633V8.648C19.382,8.298,19.108,8.015,18.772,8.015z M17.39,14.98H8.356v-0.919L9.77,10.67l2.214,2.713
	l2.357-2.454l1.767-1.016l1.282,3.523V14.98z"/>
<path fill="#FFFFFF" d="M17.878,182.983c-0.08,0.026-0.209,0.083-0.389,0.17c-0.18,0.086-0.393,0.179-0.638,0.279
	c-0.246,0.1-0.519,0.186-0.817,0.259s-0.611,0.106-0.938,0.1c-0.325-0.007-0.65-0.07-0.977-0.189
	c-0.325-0.119-0.635-0.326-0.927-0.618s-0.624-0.488-0.997-0.588c-0.372-0.1-0.748-0.136-1.126-0.109s-0.751,0.1-1.116,0.219
	c-0.366,0.12-0.688,0.253-0.967,0.399c-0.279,0.146-0.505,0.289-0.678,0.428c-0.173,0.14-0.259,0.236-0.259,0.289v2.452v2.333v4.285
	c0,0.199,0.073,0.372,0.219,0.519s0.319,0.22,0.518,0.22c0.213,0,0.389-0.073,0.528-0.22c0.14-0.146,0.209-0.319,0.209-0.519v-4.126
	c0.226-0.106,0.485-0.199,0.777-0.279s0.598-0.116,0.917-0.109s0.648,0.073,0.987,0.199c0.339,0.126,0.667,0.349,0.987,0.668
	c0.399,0.398,0.841,0.641,1.325,0.728c0.486,0.086,0.961,0.083,1.426-0.01c0.465-0.094,0.897-0.239,1.296-0.438
	c0.398-0.2,0.718-0.379,0.957-0.539c0.133-0.093,0.22-0.195,0.259-0.309c0.04-0.113,0.061-0.309,0.061-0.588v-4.267
	c0-0.186-0.047-0.355-0.141-0.508C18.284,182.959,18.117,182.917,17.878,182.983z"/>
<path fill-rule="evenodd" clip-rule="evenodd" fill="#434753" d="M13.399,139.961c6.899,0,12.491,5.593,12.491,12.491
	c0,6.899-5.592,12.491-12.491,12.491s-12.491-5.592-12.491-12.491C0.908,145.554,6.5,139.961,13.399,139.961z"/>
<path fill="#FFFFFF" d="M14.407,154.382v-4.979h3.384c0.88,0,1.6,0.7,1.6,1.556v4.854c0,0.855-0.72,1.556-1.6,1.556h-1.394v2.146
	l-2.4-2.146H9.998c-0.881,0-1.602-0.7-1.602-1.556v-1.447c0.053,0.011,0.105,0.016,0.16,0.016H14.407z M13.416,153.387v-4.441
	c0-0.855-0.721-1.556-1.6-1.556H7.99c-0.879,0-1.6,0.7-1.6,1.556v2.886c0,0.855,0.721,1.556,1.6,1.556H13.416z"/>
<path fill-rule="evenodd" clip-rule="evenodd" fill="#434753" d="M12.891,105.553c6.899,0,12.491,5.593,12.491,12.491
	c0,6.899-5.592,12.491-12.491,12.491s-12.491-5.592-12.491-12.491C0.399,111.146,5.991,105.553,12.891,105.553z"/>
<g>
	<g>
		<path fill-rule="evenodd" clip-rule="evenodd" fill="#FFFFFF" d="M16.091,120.055c-0.186-0.194-0.486-0.194-0.672,0l-1.414,1.574
			v-4.486c0-0.366-0.297-0.663-0.664-0.663s-0.664,0.297-0.664,0.663v4.479l-1.46-1.609c-0.186-0.193-0.485-0.193-0.671,0
			l-0.168,0.051c-0.186,0.194-0.186,0.508,0,0.701l2.458,2.689c0.004,0.004,0.006,0.008,0.008,0.011l0.168,0.176
			c0.092,0.097,0.215,0.145,0.338,0.145c0.121,0,0.244-0.048,0.338-0.145l0.168-0.176c0.002-0.003,0.004-0.008,0.006-0.011
			l2.396-2.648c0.186-0.193,0.186-0.507,0-0.701L16.091,120.055z M16.915,114.358c-0.645-2.019-2.172-2.745-4.217-2.745
			c-2.75,0-4.98,2.007-4.98,4.738c0,0.017,0.002,0.033,0.003,0.05c-1.413,0.235-2.451,1.447-2.451,2.918
			c0,1.639,1.296,2.968,2.946,2.968H9.94l-0.934-1.327h-0.79c-0.915,0-1.618-0.736-1.618-1.641c0-0.8,0.54-1.476,1.342-1.609
			l1.153-0.109l-0.045-1.25l-0.001-0.027c0.015-1.982,1.647-3.384,3.651-3.384c1.498,0,2.49,0.38,2.953,1.823l0.289,0.903
			l0.947,0.019c1.396,0.028,3.014,1.208,3.014,2.646c0,2.432-2.373,2.63-2.373,2.63l-1.072,1.327h1.516v-0.035
			c1.992-0.243,3.277-1.905,3.277-3.922C21.249,116.171,19.077,114.402,16.915,114.358z"/>
	</g>
</g>
<text transform="matrix(1 0 0 1 7.3906 227.9321)" fill="#FFFFFF" font-family="'OpenSans-Semibold'" font-size="14">%</text>
<g>
	<path fill-rule="evenodd" clip-rule="evenodd" fill="#434753" d="M12.491,513.79c6.899,0,12.491,5.594,12.491,12.492
		s-5.592,12.49-12.491,12.49S0,533.18,0,526.282S5.592,513.79,12.491,513.79z"/>
	<circle fill-rule="evenodd" clip-rule="evenodd" fill="#FFFFFF" cx="12.491" cy="526.282" r="8.75"/>
	<path fill="#434753" d="M12.741,516.625c-5.333,0-9.655,4.324-9.655,9.657c0,5.332,4.322,9.655,9.655,9.655
		s9.656-4.323,9.656-9.655C22.397,520.95,18.074,516.625,12.741,516.625z M18.051,524.14l-5.854,5.735
		c-0.405,0.402-1.062,0.402-1.467,0l-3.312-3.252c-0.405-0.4-0.371-1.081,0.033-1.481c0.405-0.401,1.149-0.407,1.555-0.007
		l2.457,2.384l5.122-4.83c0.403-0.402,1.061-0.402,1.466,0C18.453,523.088,18.453,523.739,18.051,524.14z"/>
</g>
<g>
	<path fill-rule="evenodd" clip-rule="evenodd" fill="#434753" d="M12.491,550.002c6.899,0,12.491,5.594,12.491,12.492
		s-5.592,12.49-12.491,12.49S0,569.393,0,562.495S5.592,550.002,12.491,550.002z"/>
	<circle fill-rule="evenodd" clip-rule="evenodd" fill="#FFFFFF" cx="12.491" cy="562.495" r="8.75"/>
	<g>
		<title>Layer 1</title>
		<path id="svg_3" fill="#434753" d="M17.012,567.013c-0.316,0.316-0.83,0.316-1.146-0.001l0,0l-3.373-3.373l-3.373,3.373
			c-0.316,0.317-0.83,0.316-1.146,0c-0.316-0.315-0.316-0.828,0-1.146l3.374-3.373l-3.376-3.375c-0.316-0.316-0.316-0.83,0-1.146
			c0.316-0.315,0.828-0.315,1.146,0l3.375,3.376l3.373-3.374c0.316-0.315,0.829-0.315,1.146,0c0.316,0.316,0.316,0.829,0,1.146
			l-3.374,3.374l3.374,3.373C17.328,566.184,17.328,566.697,17.012,567.013 M19.94,569.941c4.111-4.112,4.111-10.781,0-14.895
			c-4.113-4.114-10.783-4.114-14.896,0c-4.113,4.112-4.113,10.781,0,14.896C9.157,574.055,15.827,574.055,19.94,569.941"/>
	</g>
</g>
<path fill-rule="evenodd" clip-rule="evenodd" fill="#ED5665" d="M12.491,342.795c6.899,0,12.491,5.594,12.491,12.492
	s-5.592,12.49-12.491,12.49S0,362.186,0,355.288S5.592,342.795,12.491,342.795z"/>
<circle fill-rule="evenodd" clip-rule="evenodd" fill="#FFFFFF" cx="12.491" cy="355.288" r="8.75"/>
<title>Layer 1</title>
<path id="svg_3_1_" fill="#ED5665" d="M12.367,346.01c-5.123,0.068-9.221,4.277-9.153,9.4c0.069,5.122,4.278,9.221,9.401,9.152
	c5.122-0.067,9.22-4.278,9.153-9.4C21.7,350.04,17.489,345.941,12.367,346.01L12.367,346.01z M13.396,349.102
	c0.943,0,1.222,0.546,1.222,1.173c0,0.781-0.627,1.504-1.694,1.504c-0.893,0-1.317-0.45-1.293-1.192
	C11.63,349.96,12.154,349.102,13.396,349.102z M10.978,361.085c-0.645,0-1.116-0.392-0.666-2.111l0.74-3.051
	c0.128-0.488,0.149-0.684,0-0.684c-0.194,0-1.03,0.337-1.524,0.671l-0.322-0.529c1.568-1.309,3.371-2.077,4.145-2.077
	c0.643,0,0.75,0.763,0.428,1.936l-0.845,3.207c-0.151,0.566-0.088,0.762,0.063,0.762c0.194,0,0.827-0.234,1.45-0.724l0.365,0.489
	C13.285,360.498,11.621,361.085,10.978,361.085z"/>
</svg>
