<svg xmlns="http://www.w3.org/2000/svg" width="221" height="144" viewBox="0 0 221 144">
    <g fill="none" stroke="#00C1F1" opacity=".16">
        <path d="M137.674 142c52.915 0 82.125-53.348 82.125-88.4C219.799 18.548 149.527 6 96.61 6S.8 34.415.8 69.467C.799 104.518 84.758 142 137.674 142z" transform="matrix(-1 0 0 1 221 1)"/>
        <path d="M109.12 139c-52.592 0-96.321-39.411-96.321-74.433C12.799 29.545 77.367 0 129.959 0s84.84 34.478 84.84 69.5S161.71 139 109.119 139z" transform="matrix(-1 0 0 1 221 1)"/>
    </g>
</svg>
