<?xml version="1.0" encoding="UTF-8"?>
<svg width="40px" height="40px" viewBox="0 0 40 40" version="1.1" xmlns="http://www.w3.org/2000/svg" xmlns:xlink="http://www.w3.org/1999/xlink">
    <!-- Generator: Sketch 52.6 (67491) - http://www.bohemiancoding.com/sketch -->
    <title>Group 11</title>
    <desc>Created with Sketch.</desc>
    <g id="Page-1" stroke="none" stroke-width="1" fill="none" fill-rule="evenodd">
        <g id="DC_Designer-user-cabinet---Notifications" transform="translate(-1353.000000, -620.000000)">
            <g id="Group-11" transform="translate(1353.000000, 620.000000)">
                <path d="M20,0 C31.0463534,0 40,8.95364663 40,19.9983988 C40,31.0463534 31.0463534,40 20,40 C8.95364663,40 0,31.0463534 0,19.9983988 C-0.00160115283,8.95364663 8.95204547,0 20,0 Z" id="Path" fill="#6AF0AD"></path>
                <g id="Layer-1" transform="translate(12.000000, 13.000000)" fill="#FFFFFF" fill-rule="nonzero">
                    <path d="M1.35507692,8.08984615 L2.32738462,8.336 L3.05846154,7.168 L1.66769231,6.81723077 C1.32061538,6.72984615 0.968615385,6.944 0.882461538,7.296 C0.796307692,7.64553846 1.008,8.00246154 1.35507692,8.08984615 Z M14.0332308,8.27938462 L10.8516923,11.1913846 L7.11384615,8.24738462 C7.04246154,8.19076923 6.96,8.15015385 6.87261538,8.128 L6.37415385,8.00246154 L5.64307692,9.17046154 L6.42584615,9.36615385 L10.4861538,12.5649231 C10.6043077,12.656 10.7446154,12.7015385 10.8849231,12.7015385 C11.0387692,12.7015385 11.1963077,12.6449231 11.3193846,12.5316923 L14.9021538,9.25169231 C15.168,9.008 15.1864615,8.592 14.9464615,8.32369231 C14.7089231,8.05661538 14.2990769,8.03692308 14.0332308,8.27938462 Z M7.05107692,5.08061538 L10.5329231,7.35015385 C10.8270769,7.53969231 11.2196923,7.46092308 11.4178462,7.17046154 L15.0006154,1.91876923 C15.2024615,1.62215385 15.1286154,1.21353846 14.8344615,1.00676923 C14.5415385,0.8 14.1378462,0.875076923 13.9347692,1.17292308 L10.7076923,5.90276923 L7.20369231,3.62092308 C7.05846154,3.52492308 6.88123077,3.49292308 6.71384615,3.53107692 C6.54523077,3.56923077 6.39876923,3.67261538 6.30646154,3.82030769 L0.964923077,12.352 C0.772923077,12.6584615 0.862769231,13.0646154 1.16430769,13.2590769 C1.27138462,13.3267692 1.392,13.36 1.51015385,13.36 C1.72430769,13.36 1.93476923,13.2529231 2.05784615,13.0547692 L7.05107692,5.08061538 Z" id="svg_1"></path>
                </g>
            </g>
        </g>
    </g>
</svg>