<?xml version="1.0" encoding="utf-8"?>
<!-- Generator: Adobe Illustrator 16.0.0, SVG Export Plug-In . SVG Version: 6.00 Build 0)  -->
<!DOCTYPE svg PUBLIC "-//W3C//DTD SVG 1.1//EN" "http://www.w3.org/Graphics/SVG/1.1/DTD/svg11.dtd">
<svg version="1.1" id="Layer_1" xmlns="http://www.w3.org/2000/svg" xmlns:xlink="http://www.w3.org/1999/xlink" x="0px" y="0px"
	 width="152.001px" height="27.125px" viewBox="0 0 152.001 27.125" enable-background="new 0 0 152.001 27.125"
	 xml:space="preserve">
<g>
	<path fill-rule="evenodd" clip-rule="evenodd" fill="#BDBDBD" d="M1.501,19.124h149c0.828,0,1.499,0.671,1.499,1.5
		s-0.671,1.5-1.499,1.5h-149c-0.829,0-1.5-0.671-1.5-1.5S0.672,19.124,1.501,19.124z"/>
	<path fill-rule="evenodd" clip-rule="evenodd" fill="#BDBDBD" d="M0.001,17.124h2v7h-2V17.124z"/>
	<path fill-rule="evenodd" clip-rule="evenodd" fill="#BDBDBD" d="M150.001,17.124h2v7h-2V17.124z"/>
	<path fill-rule="evenodd" clip-rule="evenodd" fill="#BDBDBD" d="M30.001,17.124h2v7h-2V17.124z"/>
	<path fill-rule="evenodd" clip-rule="evenodd" fill="#BDBDBD" d="M60.001,17.124h2v7h-2V17.124z"/>
	<path fill-rule="evenodd" clip-rule="evenodd" fill="#BDBDBD" d="M90.001,17.124h2v7h-2V17.124z"/>
	<path fill-rule="evenodd" clip-rule="evenodd" fill="#BDBDBD" d="M120.001,17.124h2v7h-2V17.124z"/>
</g>
<g>
	<path fill-rule="evenodd" clip-rule="evenodd" fill="#3291AC" d="M1.501,5.124h149c0.828,0,1.499,0.671,1.499,1.5
		s-0.671,1.5-1.499,1.5h-149c-0.829,0-1.5-0.671-1.5-1.5S0.672,5.124,1.501,5.124z"/>
	<path fill-rule="evenodd" clip-rule="evenodd" fill="#3291AC" d="M0.001,3.124h2v7h-2V3.124z"/>
	<path fill-rule="evenodd" clip-rule="evenodd" fill="#3291AC" d="M150.001,3.124h2v7h-2V3.124z"/>
	<path fill-rule="evenodd" clip-rule="evenodd" fill="#3291AC" d="M30.001,3.124h2v7h-2V3.124z"/>
	<path fill-rule="evenodd" clip-rule="evenodd" fill="#3291AC" d="M60.001,3.124h2v7h-2V3.124z"/>
	<path fill-rule="evenodd" clip-rule="evenodd" fill="#3291AC" d="M90.001,3.124h2v7h-2V3.124z"/>
	<path fill-rule="evenodd" clip-rule="evenodd" fill="#3291AC" d="M120.001,3.124h2v7h-2V3.124z"/>
</g>
<g opacity="0.6">
	<path fill-rule="evenodd" clip-rule="evenodd" fill="#3291AC" d="M0,0.124h152.001v13H0V0.124z"/>
</g>
</svg>
