<?xml version="1.0" encoding="UTF-8"?>
<svg width="40px" height="40px" viewBox="0 0 40 40" version="1.1" xmlns="http://www.w3.org/2000/svg" xmlns:xlink="http://www.w3.org/1999/xlink">
    <!-- Generator: Sketch 52.6 (67491) - http://www.bohemiancoding.com/sketch -->
    <title>Group 6</title>
    <desc>Created with Sketch.</desc>
    <g id="Page-1" stroke="none" stroke-width="1" fill="none" fill-rule="evenodd">
        <g id="DC_Designer-user-cabinet---Notifications" transform="translate(-1394.000000, -458.000000)">
            <g id="Group-6" transform="translate(1394.000000, 458.000000)">
                <path d="M20,0 C31.0463534,0 40,8.95524778 40,20 C40,31.0463534 31.0463534,40 20,40 C8.95364663,40 0,31.0463534 0,20 C-1.95540041e-15,8.95524778 8.95364663,0 20,0 Z" id="Path" fill="#6AF0AD"></path>
                <path d="M21.866318,21.6048765 L21.866318,15.4773479 L26.0309207,15.4773479 C27.1139143,15.4773479 28,16.3388201 28,17.3922775 L28,23.3659718 C28,24.4181986 27.1139143,25.2809015 26.0309207,25.2809015 L24.3153604,25.2809015 L24.3153604,27.9219291 L21.3617414,25.2809015 L16.4402738,25.2809015 C15.3560495,25.2809015 14.4687332,24.4194293 14.4687332,23.3659718 L14.4687332,21.5851858 C14.5339589,21.5987232 14.597954,21.6048765 14.6656411,21.6048765 L21.866318,21.6048765 Z M20.6467195,20.3803554 L20.6467195,14.9149296 C20.6467195,13.8627029 19.7594031,13 18.6776402,13 L13.9690793,13 C12.8873164,13 12,13.8614722 12,14.9149296 L12,18.4666564 C12,19.5188832 12.8873164,20.381586 13.9690793,20.381586 L20.6467195,20.381586 L20.6467195,20.3803554 Z" id="Shape" fill="#FFFFFF" fill-rule="nonzero"></path>
            </g>
        </g>
    </g>
</svg>