<?xml version="1.0" encoding="utf-8"?>
<!-- Generator: Adobe Illustrator 15.0.2, SVG Export Plug-In . SVG Version: 6.00 Build 0)  -->
<!DOCTYPE svg PUBLIC "-//W3C//DTD SVG 1.1//EN" "http://www.w3.org/Graphics/SVG/1.1/DTD/svg11.dtd">
<svg version="1.1" id="Слой_1" xmlns="http://www.w3.org/2000/svg" xmlns:xlink="http://www.w3.org/1999/xlink" x="0px" y="0px"
	 width="637.014px" height="722.63px" viewBox="0 0 637.014 722.63" enable-background="new 0 0 637.014 722.63"
	 xml:space="preserve">
<g>
	<defs>
		<rect id="SVGID_1_" width="637.014" height="722.63"/>
	</defs>
	<clipPath id="SVGID_2_">
		<use xlink:href="#SVGID_1_"  overflow="visible"/>
	</clipPath>
	<path clip-path="url(#SVGID_2_)" fill="#191717" d="M411.563,635.73c0,7.801-6.301,14.121-14.09,14.121H239.539
		c-7.811,0-14.082-6.32-14.082-14.121c0-7.776,6.271-14.117,14.082-14.117h157.934C405.262,621.613,411.563,627.954,411.563,635.73"
		/>
	<path clip-path="url(#SVGID_2_)" fill="#0A0909" d="M341.926,649.647c0,12.992-10.477,23.43-23.424,23.43
		c-12.965,0-23.417-10.438-23.417-23.43V590.65h46.841V649.647z"/>
	<path clip-path="url(#SVGID_2_)" fill="#111010" d="M351.484,599.868c0,7.163-5.791,13.011-12.95,13.011h-40.033
		c-7.162,0-13.014-5.848-13.014-13.011c0-7.161,5.852-12.987,13.014-12.987h40.033C345.693,586.881,351.484,592.707,351.484,599.868
		"/>
	<path clip-path="url(#SVGID_2_)" fill="#191717" d="M365.316,575.637c0,10.2-8.267,18.455-18.441,18.455h-56.739
		c-10.173,0-18.442-8.255-18.442-18.455c0-10.185,8.269-18.449,18.442-18.449h56.739
		C357.05,557.188,365.316,565.452,365.316,575.637"/>
	<path clip-path="url(#SVGID_2_)" fill="#262424" d="M382.676,542.966c0,13.933-11.33,25.289-25.303,25.289h-77.735
		c-13.972,0-25.302-11.356-25.302-25.289c0-13.939,11.33-25.263,25.302-25.263h77.735
		C371.346,517.703,382.676,529.026,382.676,542.966"/>
	<path clip-path="url(#SVGID_2_)" fill="#0B0A0A" d="M524.577,684.868c0,20.881-29.581,37.762-66.033,37.762
		c-36.45,0-66.034-16.881-66.034-37.762v-99.962c0-20.889,29.584-37.729,66.034-37.729c36.452,0,66.033,16.841,66.033,37.729
		V684.868z"/>
	<path clip-path="url(#SVGID_2_)" fill="#0B0A0A" d="M490.877,552.186c-7.335-2.346-15.475-3.906-24.194-4.534
		c3.003,35.274,3.029,139.231,0,174.524c8.729-0.664,16.859-2.21,24.194-4.556C498.314,652.513,498.314,617.305,490.877,552.186"/>
	<path clip-path="url(#SVGID_2_)" fill="#0B0A0A" d="M504.521,557.901c6.577,59.629,6.577,94.308,0,154.014
		c12.332-6.833,20.057-16.406,20.057-27.047v-99.962C524.577,574.294,516.853,564.733,504.521,557.901"/>
	<path clip-path="url(#SVGID_2_)" fill="#0B0A0A" d="M412.57,557.901c-12.345,6.832-20.061,16.393-20.061,27.005v99.962
		c0,10.641,7.716,20.15,20.061,27.047C405.989,652.209,405.989,617.53,412.57,557.901"/>
	<path clip-path="url(#SVGID_2_)" fill="#0B0A0A" d="M450.404,547.651c-8.705,0.628-16.844,2.149-24.179,4.534
		c-7.45,65.119-7.45,100.327,0,165.435c7.335,2.346,15.474,3.892,24.179,4.556C447.418,686.883,447.391,582.926,450.404,547.651"/>
	<path clip-path="url(#SVGID_2_)" fill="#0B0A0A" d="M466.683,547.651c-2.688-0.225-5.354-0.475-8.139-0.475
		c-2.776,0-5.44,0.25-8.14,0.475c-3.014,35.274-2.986,139.231,0,174.524c2.699,0.189,5.363,0.455,8.14,0.455
		c2.785,0,5.45-0.266,8.139-0.455C469.712,686.883,469.686,582.926,466.683,547.651"/>
	<path clip-path="url(#SVGID_2_)" fill="#0B0A0A" d="M504.521,557.901c-4.049-2.26-8.671-4.12-13.644-5.716
		c7.438,65.119,7.438,100.327,0,165.435c4.973-1.596,9.595-3.446,13.644-5.705C511.098,652.209,511.098,617.53,504.521,557.901"/>
	<path clip-path="url(#SVGID_2_)" fill="#0B0A0A" d="M426.226,552.186c-4.976,1.596-9.612,3.456-13.655,5.716
		c-6.581,59.629-6.581,94.308,0,154.014c4.043,2.259,8.68,4.109,13.655,5.705C418.775,652.513,418.775,617.305,426.226,552.186"/>
	<path clip-path="url(#SVGID_2_)" fill="#0B0A0A" d="M244.501,684.868c0,20.881-29.583,37.762-66.034,37.762
		c-36.477,0-66.006-16.881-66.006-37.762v-99.962c0-20.889,29.529-37.729,66.006-37.729c36.451,0,66.034,16.841,66.034,37.729
		V684.868z"/>
	<path clip-path="url(#SVGID_2_)" fill="#0B0A0A" d="M210.801,552.186c-7.336-2.346-15.447-3.906-24.222-4.534
		c3.015,35.274,3.042,139.231,0.054,174.524c8.721-0.664,16.832-2.21,24.168-4.556C218.263,652.513,218.263,617.305,210.801,552.186
		"/>
	<path clip-path="url(#SVGID_2_)" fill="#0B0A0A" d="M224.456,557.901c6.57,59.629,6.57,94.308,0,154.014
		c12.322-6.833,20.045-16.406,20.045-27.047v-99.962C244.501,574.294,236.778,564.733,224.456,557.901"/>
	<path clip-path="url(#SVGID_2_)" fill="#0B0A0A" d="M132.49,557.901c-12.316,6.832-20.029,16.393-20.029,27.005v99.962
		c0,10.641,7.713,20.15,20.029,27.047C125.939,652.209,125.939,617.53,132.49,557.901"/>
	<path clip-path="url(#SVGID_2_)" fill="#0B0A0A" d="M170.328,547.651c-8.715,0.628-16.832,2.149-24.167,4.534
		c-7.462,65.119-7.462,100.327,0,165.435c7.335,2.346,15.452,3.892,24.167,4.556C167.338,686.883,167.299,582.926,170.328,547.651"
		/>
	<path clip-path="url(#SVGID_2_)" fill="#0B0A0A" d="M186.579,547.651c-2.671-0.225-5.32-0.475-8.112-0.475
		c-2.786,0-5.451,0.25-8.139,0.475c-3.029,35.274-2.99,139.231,0,174.524c2.688,0.189,5.353,0.455,8.139,0.455
		c2.792,0,5.441-0.266,8.166-0.455C189.621,686.883,189.594,582.926,186.579,547.651"/>
	<path clip-path="url(#SVGID_2_)" fill="#0B0A0A" d="M224.456,557.901c-4.059-2.26-8.681-4.12-13.655-5.716
		c7.462,65.119,7.462,100.327,0,165.435c4.974-1.596,9.596-3.446,13.655-5.705C231.026,652.209,231.026,617.53,224.456,557.901"/>
	<path clip-path="url(#SVGID_2_)" fill="#0B0A0A" d="M146.161,552.186c-4.975,1.596-9.634,3.456-13.671,5.716
		c-6.551,59.629-6.551,94.308,0,154.014c4.037,2.259,8.696,4.109,13.671,5.705C138.699,652.513,138.699,617.305,146.161,552.186"/>
	<rect x="542.681" y="29.014" clip-path="url(#SVGID_2_)" fill="#2D2D2D" width="9.343" height="87.226"/>
	<path clip-path="url(#SVGID_2_)" fill="#2D2D2D" d="M547.353,70.391c22.836,0,41.337,18.187,41.439,40.609h-82.919
		C505.988,88.578,524.516,70.391,547.353,70.391"/>
	<path clip-path="url(#SVGID_2_)" fill="#727272" d="M520.421,109.521h-11.683c0.076-20.592,17.057-37.221,37.984-37.221
		c5.551,0,10.852,1.23,15.602,3.341c-1.27-0.138-2.612-0.198-3.971-0.198C537.706,75.442,520.898,90.64,520.421,109.521"/>
	<rect x="85.015" y="29.014" clip-path="url(#SVGID_2_)" fill="#2D2D2D" width="9.33" height="87.226"/>
	<path clip-path="url(#SVGID_2_)" fill="#2D2D2D" d="M89.674,70.391c22.848,0,41.352,18.187,41.464,40.609H48.234
		C48.334,88.578,66.85,70.391,89.674,70.391"/>
	<path clip-path="url(#SVGID_2_)" fill="#727272" d="M62.754,109.521H51.071C51.187,88.929,68.141,72.3,89.059,72.3
		c5.562,0,10.854,1.23,15.613,3.341c-1.284-0.138-2.615-0.198-3.968-0.198C80.052,75.442,63.254,90.64,62.754,109.521"/>
</g>
<g>
	<defs>
		<path id="SVGID_3_" d="M89.509,0C78.484,0,69.535,8.904,69.535,19.944c0,11.032,8.949,19.948,19.974,19.948
			c11.018,0,19.95-8.916,19.95-19.948C109.459,8.904,100.527,0,89.509,0z"/>
	</defs>
	<clipPath id="SVGID_4_">
		<use xlink:href="#SVGID_3_"  overflow="visible"/>
	</clipPath>
	
		<linearGradient id="SVGID_5_" gradientUnits="userSpaceOnUse" x1="-4.882813e-004" y1="722.6299" x2="0.9995" y2="722.6299" gradientTransform="matrix(39.9238 0 0 -39.9238 69.5352 28870.0898)">
		<stop  offset="0" style="stop-color:#FFFFFF"/>
		<stop  offset="0.5319" style="stop-color:#E8E8E8"/>
		<stop  offset="1" style="stop-color:#D9D9D9"/>
	</linearGradient>
	<rect x="69.535" clip-path="url(#SVGID_4_)" fill="url(#SVGID_5_)" width="39.924" height="39.892"/>
</g>
<g>
	<defs>
		<path id="SVGID_6_" d="M548.156,0c-11.004,0-19.922,8.904-19.922,19.944c0,11.032,8.918,19.948,19.922,19.948
			c11.007,0,19.957-8.916,19.957-19.948C568.113,8.904,559.163,0,548.156,0z"/>
	</defs>
	<clipPath id="SVGID_7_">
		<use xlink:href="#SVGID_6_"  overflow="visible"/>
	</clipPath>
	
		<linearGradient id="SVGID_8_" gradientUnits="userSpaceOnUse" x1="4.882813e-004" y1="722.6299" x2="1.0005" y2="722.6299" gradientTransform="matrix(39.8789 0 0 -39.8789 528.2266 28837.6289)">
		<stop  offset="0" style="stop-color:#FFFFFF"/>
		<stop  offset="0.5319" style="stop-color:#E8E8E8"/>
		<stop  offset="1" style="stop-color:#D9D9D9"/>
	</linearGradient>
	<rect x="528.234" clip-path="url(#SVGID_7_)" fill="url(#SVGID_8_)" width="39.879" height="39.892"/>
</g>
<g>
	<defs>
		<rect id="SVGID_9_" width="637.014" height="722.63"/>
	</defs>
	<clipPath id="SVGID_10_">
		<use xlink:href="#SVGID_9_"  overflow="visible"/>
	</clipPath>
	<path clip-path="url(#SVGID_10_)" fill="#3A3A3A" d="M530.736,383.528c-1.588-31.63-40.891-55.393-87.794-52.998
		c-46.876,2.378-41.1,116.998,5.778,114.596C495.624,442.781,532.352,415.22,530.736,383.528"/>
	<path clip-path="url(#SVGID_10_)" fill="#2D2D2D" d="M563.631,362.903c-7.213-26.944-44.732-40.357-83.858-29.885
		c-39.103,10.376-13.063,108.013,26.04,97.574C544.938,420.183,570.816,389.856,563.631,362.903"/>
	<path clip-path="url(#SVGID_10_)" fill="#262424" d="M584.798,338.331c-11.798-21.904-46.641-26.062-77.844-9.308
		c-31.198,16.798,11.507,96.157,42.685,79.416C580.861,391.628,596.605,360.266,584.798,338.331"/>
	<path clip-path="url(#SVGID_10_)" fill="#191717" d="M581.681,292.634c-20.16-10.398-49.003,3.316-64.424,30.589
		c-15.378,27.308,57.743,64.977,73.153,37.681C605.786,333.612,601.895,303.05,581.681,292.634"/>
	<path clip-path="url(#SVGID_10_)" fill="#0A0909" d="M560.777,266.95c-18.063,0.987-32.406,19.808-32.082,42.001
		c0.353,22.222,65.734,18.678,65.395-3.556C593.74,283.201,578.828,266.004,560.777,266.95"/>
	<path clip-path="url(#SVGID_10_)" fill="#0A0909" d="M549.624,256.508c-11.619,3.872-18.077,16.506-14.433,28.276
		c3.617,11.696,45.597-2.286,41.994-14.028C573.554,259.023,561.191,252.653,549.624,256.508"/>
</g>
<g>
	<defs>
		<path id="SVGID_11_" d="M545.595,247.305c-6.847,2.299-10.564,10.06-8.315,17.332c2.246,7.261,27.055-1.005,24.816-8.278
			c-1.81-5.905-7.004-9.698-12.57-9.699C548.223,246.66,546.9,246.868,545.595,247.305"/>
	</defs>
	<clipPath id="SVGID_12_">
		<use xlink:href="#SVGID_11_"  overflow="visible"/>
	</clipPath>
	
		<radialGradient id="SVGID_13_" cx="0" cy="722.6299" r="1" gradientTransform="matrix(-3.5381 -11.4177 10.7435 -3.589 -7215.0552 2850.1257)" gradientUnits="userSpaceOnUse">
		<stop  offset="0" style="stop-color:#6B6B6B"/>
		<stop  offset="0.4004" style="stop-color:#434343"/>
		<stop  offset="0.9944" style="stop-color:#000000"/>
		<stop  offset="1" style="stop-color:#000000"/>
	</radialGradient>
	<polygon clip-path="url(#SVGID_12_)" fill="url(#SVGID_13_)" points="571.421,269.53 561.585,237.789 527.943,249.027 
		537.779,280.769 	"/>
</g>
<g>
	<defs>
		<path id="SVGID_14_" d="M451.839,184.396c0,51.159,41.452,92.6,92.612,92.6c51.107,0,92.563-41.441,92.563-92.6
			c0-51.136-41.455-92.566-92.563-92.566C493.291,91.83,451.839,133.26,451.839,184.396"/>
	</defs>
	<clipPath id="SVGID_15_">
		<use xlink:href="#SVGID_14_"  overflow="visible"/>
	</clipPath>
	
		<linearGradient id="SVGID_16_" gradientUnits="userSpaceOnUse" x1="4.882813e-004" y1="722.6299" x2="1.0005" y2="722.6299" gradientTransform="matrix(185.1748 0 0 -185.1748 451.7871 133997.25)">
		<stop  offset="0" style="stop-color:#FFFFFF"/>
		<stop  offset="0.5319" style="stop-color:#E8E8E8"/>
		<stop  offset="1" style="stop-color:#D9D9D9"/>
	</linearGradient>
	<rect x="451.839" y="91.83" clip-path="url(#SVGID_15_)" fill="url(#SVGID_16_)" width="185.175" height="185.166"/>
</g>
<g>
	<defs>
		<rect id="SVGID_17_" width="637.014" height="722.63"/>
	</defs>
	<clipPath id="SVGID_18_">
		<use xlink:href="#SVGID_17_"  overflow="visible"/>
	</clipPath>
	<path clip-path="url(#SVGID_18_)" fill="#C4C4C4" d="M599.492,184.396c0,30.412-24.645,55.069-55.041,55.069
		c-30.439,0-55.105-24.657-55.105-55.069c0-30.421,24.666-55.041,55.105-55.041C574.848,129.354,599.492,153.975,599.492,184.396"/>
</g>
<g>
	<defs>
		<path id="SVGID_19_" d="M499.342,184.396c0,24.924,20.16,45.109,45.109,45.109c24.88,0,45.105-20.185,45.105-45.109
			c0-24.909-20.226-45.081-45.105-45.081C519.502,139.315,499.342,159.487,499.342,184.396"/>
	</defs>
	<clipPath id="SVGID_20_">
		<use xlink:href="#SVGID_19_"  overflow="visible"/>
	</clipPath>
	
		<linearGradient id="SVGID_21_" gradientUnits="userSpaceOnUse" x1="4.882813e-004" y1="722.6299" x2="1.0005" y2="722.6299" gradientTransform="matrix(-3.900000e-006 90.1904 90.1904 3.900000e-006 -64629.8359 139.2913)">
		<stop  offset="0" style="stop-color:#272727"/>
		<stop  offset="0.966" style="stop-color:#010101"/>
		<stop  offset="0.9944" style="stop-color:#000000"/>
		<stop  offset="1" style="stop-color:#000000"/>
	</linearGradient>
	<rect x="499.342" y="139.315" clip-path="url(#SVGID_20_)" fill="url(#SVGID_21_)" width="90.215" height="90.19"/>
</g>
<g>
	<defs>
		<rect id="SVGID_22_" width="637.014" height="722.63"/>
	</defs>
	<clipPath id="SVGID_23_">
		<use xlink:href="#SVGID_22_"  overflow="visible"/>
	</clipPath>
	<path clip-path="url(#SVGID_23_)" fill="#75CAD8" d="M575.713,184.396c0,17.273-13.994,31.302-31.262,31.302
		c-17.311,0-31.316-14.029-31.316-31.302c0-17.246,14.006-31.301,31.316-31.301C561.719,153.095,575.713,167.149,575.713,184.396"/>
	<path clip-path="url(#SVGID_23_)" fill="#3A3A3A" d="M106.256,383.528c1.595-31.63,40.91-55.393,87.825-52.998
		c46.864,2.378,41.09,116.998-5.791,114.596C141.387,442.781,104.672,415.22,106.256,383.528"/>
	<path clip-path="url(#SVGID_23_)" fill="#2D2D2D" d="M73.407,362.903c7.187-26.944,44.705-40.357,83.807-29.885
		c39.127,10.376,13.087,108.013-26.027,97.574C92.072,420.183,66.221,389.856,73.407,362.903"/>
	<path clip-path="url(#SVGID_23_)" fill="#262424" d="M52.216,338.331c11.796-21.904,46.623-26.062,77.841-9.308
		c31.177,16.798-11.506,96.157-42.709,79.416C56.162,391.628,40.418,360.266,52.216,338.331"/>
	<path clip-path="url(#SVGID_23_)" fill="#191717" d="M55.331,292.634c20.187-10.398,49.013,3.316,64.426,30.589
		c15.376,27.308-57.734,64.977-73.154,37.681C31.225,333.612,35.119,303.05,55.331,292.634"/>
	<path clip-path="url(#SVGID_23_)" fill="#0A0909" d="M76.219,266.95c18.077,0.987,32.436,19.808,32.098,42.001
		c-0.343,22.222-65.708,18.678-65.384-3.556C43.258,283.201,58.169,266.004,76.219,266.95"/>
	<path clip-path="url(#SVGID_23_)" fill="#0A0909" d="M87.414,256.508c11.602,3.872,18.035,16.506,14.405,28.276
		c-3.617,11.696-45.635-2.286-41.991-14.028C63.47,259.023,75.819,252.653,87.414,256.508"/>
</g>
<g>
	<defs>
		<path id="SVGID_24_" d="M74.915,256.359c-2.264,7.273,22.56,15.539,24.817,8.278c2.237-7.272-1.454-15.033-8.314-17.332
			c-1.3-0.437-2.619-0.645-3.918-0.645C81.945,246.661,76.746,250.454,74.915,256.359"/>
	</defs>
	<clipPath id="SVGID_25_">
		<use xlink:href="#SVGID_24_"  overflow="visible"/>
	</clipPath>
	
		<radialGradient id="SVGID_26_" cx="0" cy="722.6299" r="1" gradientTransform="matrix(3.5385 -11.419 -10.7447 -3.5894 7852.9458 2850.4226)" gradientUnits="userSpaceOnUse">
		<stop  offset="0" style="stop-color:#6B6B6B"/>
		<stop  offset="0.4004" style="stop-color:#434343"/>
		<stop  offset="0.9944" style="stop-color:#000000"/>
		<stop  offset="1" style="stop-color:#000000"/>
	</radialGradient>
	<polygon clip-path="url(#SVGID_25_)" fill="url(#SVGID_26_)" points="65.564,269.53 75.401,237.785 109.056,249.027 
		99.219,280.773 	"/>
</g>
<g>
	<defs>
		<path id="SVGID_27_" d="M0,184.396c0,51.159,41.464,92.6,92.599,92.6c51.126,0,92.574-41.441,92.574-92.6
			c0-51.136-41.448-92.566-92.574-92.566C41.464,91.83,0,133.26,0,184.396"/>
	</defs>
	<clipPath id="SVGID_28_">
		<use xlink:href="#SVGID_27_"  overflow="visible"/>
	</clipPath>
	
		<linearGradient id="SVGID_29_" gradientUnits="userSpaceOnUse" x1="0" y1="722.6299" x2="1" y2="722.6299" gradientTransform="matrix(-185.1729 0 0 -185.1729 185.2168 133995.7813)">
		<stop  offset="0" style="stop-color:#FFFFFF"/>
		<stop  offset="0.5319" style="stop-color:#E8E8E8"/>
		<stop  offset="1" style="stop-color:#D9D9D9"/>
	</linearGradient>
	<rect y="91.83" clip-path="url(#SVGID_28_)" fill="url(#SVGID_29_)" width="185.173" height="185.166"/>
</g>
<g>
	<defs>
		<rect id="SVGID_30_" width="637.014" height="722.63"/>
	</defs>
	<clipPath id="SVGID_31_">
		<use xlink:href="#SVGID_30_"  overflow="visible"/>
	</clipPath>
	<path clip-path="url(#SVGID_31_)" fill="#C4C4C4" d="M37.506,184.396c0,30.412,24.672,55.069,55.066,55.069
		c30.427,0,55.07-24.657,55.07-55.069c0-30.421-24.643-55.041-55.07-55.041C62.178,129.354,37.506,153.975,37.506,184.396"/>
</g>
<g>
	<defs>
		<path id="SVGID_32_" d="M47.48,184.396c0,24.924,20.2,45.109,45.092,45.109c24.91,0,45.124-20.185,45.124-45.109
			c0-24.909-20.214-45.081-45.124-45.081C67.68,139.315,47.48,159.487,47.48,184.396"/>
	</defs>
	<clipPath id="SVGID_33_">
		<use xlink:href="#SVGID_32_"  overflow="visible"/>
	</clipPath>
	
		<linearGradient id="SVGID_34_" gradientUnits="userSpaceOnUse" x1="4.882813e-004" y1="722.6299" x2="1.0005" y2="722.6299" gradientTransform="matrix(3.900000e-006 90.1904 -90.1904 3.900000e-006 65266.8984 139.2913)">
		<stop  offset="0" style="stop-color:#272727"/>
		<stop  offset="0.966" style="stop-color:#010101"/>
		<stop  offset="0.9944" style="stop-color:#000000"/>
		<stop  offset="1" style="stop-color:#000000"/>
	</linearGradient>
	<rect x="47.48" y="139.315" clip-path="url(#SVGID_33_)" fill="url(#SVGID_34_)" width="90.216" height="90.19"/>
</g>
<g>
	<defs>
		<rect id="SVGID_35_" width="637.014" height="722.63"/>
	</defs>
	<clipPath id="SVGID_36_">
		<use xlink:href="#SVGID_35_"  overflow="visible"/>
	</clipPath>
	<path clip-path="url(#SVGID_36_)" fill="#75CAD8" d="M61.299,184.396c0,17.273,13.993,31.302,31.273,31.302
		c17.313,0,31.292-14.029,31.292-31.302c0-17.246-13.979-31.301-31.292-31.301C75.292,153.095,61.299,167.149,61.299,184.396"/>
</g>
<g>
	<defs>
		<path id="SVGID_37_" d="M179.798,412.705c0,76.614,62.105,138.765,138.704,138.765c76.633,0,138.739-62.15,138.739-138.765
			c0-76.606-62.106-138.711-138.739-138.711C241.903,273.994,179.798,336.099,179.798,412.705"/>
	</defs>
	<clipPath id="SVGID_38_">
		<use xlink:href="#SVGID_37_"  overflow="visible"/>
	</clipPath>
	
		<linearGradient id="SVGID_39_" gradientUnits="userSpaceOnUse" x1="0" y1="722.6299" x2="1" y2="722.6299" gradientTransform="matrix(277.4424 0 0 -277.4424 179.8223 200900.8281)">
		<stop  offset="0" style="stop-color:#FFFFFF"/>
		<stop  offset="0.5319" style="stop-color:#E8E8E8"/>
		<stop  offset="1" style="stop-color:#D9D9D9"/>
	</linearGradient>
	<rect x="179.798" y="273.994" clip-path="url(#SVGID_38_)" fill="url(#SVGID_39_)" width="277.443" height="277.476"/>
</g>
<g>
	<defs>
		<rect id="SVGID_40_" width="637.014" height="722.63"/>
	</defs>
	<clipPath id="SVGID_41_">
		<use xlink:href="#SVGID_40_"  overflow="visible"/>
	</clipPath>
	<path clip-path="url(#SVGID_41_)" fill="#2D2D2D" d="M344.237,455.579c0,14.207-11.53,25.728-25.724,25.728
		c-14.208,0-25.74-11.521-25.74-25.728c0-14.205,11.533-25.724,25.74-25.724C332.707,429.855,344.237,441.374,344.237,455.579"/>
	<path clip-path="url(#SVGID_41_)" fill="#2D2D2D" d="M333.511,524.173c0,8.294-6.708,15.014-14.997,15.014
		c-8.305,0-15.013-6.72-15.013-15.014c0-8.288,6.708-15.008,15.013-15.008C326.803,509.165,333.511,515.885,333.511,524.173"/>
</g>
</svg>
