<?xml version="1.0" encoding="utf-8"?>
<!-- Generator: Adobe Illustrator 15.0.2, SVG Export Plug-In . SVG Version: 6.00 Build 0)  -->
<!DOCTYPE svg PUBLIC "-//W3C//DTD SVG 1.1//EN" "http://www.w3.org/Graphics/SVG/1.1/DTD/svg11.dtd">
<svg version="1.1" id="Слой_1" xmlns="http://www.w3.org/2000/svg" xmlns:xlink="http://www.w3.org/1999/xlink" x="0px" y="0px"
	 width="451.72px" height="829.024px" viewBox="0 0 451.72 829.024" enable-background="new 0 0 451.72 829.024"
	 xml:space="preserve">
<g>
	<defs>
		<rect id="SVGID_1_" width="451.72" height="829.024"/>
	</defs>
	<clipPath id="SVGID_2_">
		<use xlink:href="#SVGID_1_"  overflow="visible"/>
	</clipPath>
	<path clip-path="url(#SVGID_2_)" fill="#191717" d="M315.017,755.842c0,7.447-6.051,13.508-13.502,13.508H150.201
		c-7.473,0-13.52-6.061-13.52-13.508c0-7.451,6.047-13.519,13.52-13.519h151.314C308.966,742.324,315.017,748.391,315.017,755.842"
		/>
	<path clip-path="url(#SVGID_2_)" fill="#0A0909" d="M248.319,769.167c0,12.406-10.068,22.444-22.457,22.444
		c-12.416,0-22.469-10.038-22.469-22.444v-56.544h44.926V769.167z"/>
	<path clip-path="url(#SVGID_2_)" fill="#111010" d="M257.475,721.46c0,6.881-5.561,12.472-12.43,12.472h-38.357
		c-6.869,0-12.455-5.591-12.455-12.472c0-6.877,5.586-12.468,12.455-12.468h38.357C251.914,708.993,257.475,714.583,257.475,721.46"
		/>
	<path clip-path="url(#SVGID_2_)" fill="#191717" d="M270.716,698.234c0,9.747-7.926,17.663-17.689,17.663h-54.348
		c-9.783,0-17.69-7.916-17.69-17.663c0-9.776,7.907-17.673,17.69-17.673h54.348C262.79,680.561,270.716,688.458,270.716,698.234"/>
	<path clip-path="url(#SVGID_2_)" fill="#262424" d="M287.343,666.95c0,13.361-10.862,24.206-24.222,24.206h-74.537
		c-13.374,0-24.184-10.845-24.184-24.206c0-13.364,10.81-24.224,24.184-24.224h74.537
		C276.48,642.726,287.343,653.585,287.343,666.95"/>
	<path clip-path="url(#SVGID_2_)" fill="#2D2D2D" d="M306.292,631.87c0,17.483-14.186,31.684-31.682,31.684h-97.501
		c-17.501,0-31.683-14.2-31.683-31.684c0-17.491,14.182-31.682,31.683-31.682h97.501
		C292.106,600.188,306.292,614.378,306.292,631.87"/>
	<path clip-path="url(#SVGID_2_)" fill="#0B0A0A" d="M131.979,829.024c-15.686,0-28.432-12.743-28.432-28.429v-75.4
		c0-15.685,12.746-28.412,28.432-28.412c15.719,0,28.466,12.728,28.466,28.412v75.4
		C160.444,816.281,147.697,829.024,131.979,829.024"/>
	<path clip-path="url(#SVGID_2_)" fill="#0B0A0A" d="M145.908,825.255c3.228-49.074,3.228-75.606,0-124.681
		c-3.153-1.813-6.661-2.971-10.415-3.443c1.271,26.593,1.299,104.949,0,131.555"/>
	<path clip-path="url(#SVGID_2_)" fill="#0B0A0A" d="M151.785,704.856c2.838,44.965,2.838,71.119,0,116.101
		c5.346-5.146,8.659-12.364,8.659-20.361v-75.4C160.444,717.193,157.131,710.012,151.785,704.856"/>
	<path clip-path="url(#SVGID_2_)" fill="#0B0A0A" d="M112.184,704.856c-5.302,5.176-8.637,12.371-8.637,20.339v75.4
		c0,7.997,3.335,15.181,8.637,20.361C109.363,775.975,109.363,749.821,112.184,704.856"/>
	<path clip-path="url(#SVGID_2_)" fill="#0B0A0A" d="M128.493,828.686c-1.313-26.605-1.313-104.962-0.021-131.555
		c-3.739,0.473-7.243,1.63-10.415,3.443c-3.193,49.074-3.193,75.606,0,124.681"/>
	<path clip-path="url(#SVGID_2_)" fill="#0A0909" d="M319.727,829.024c-15.714,0-28.45-12.743-28.45-28.429v-75.4
		c0-15.685,12.736-28.412,28.45-28.412c15.695,0,28.419,12.728,28.419,28.412v75.4C348.146,816.281,335.422,829.024,319.727,829.024
		"/>
	<path clip-path="url(#SVGID_2_)" fill="#0A0909" d="M333.659,825.255c3.191-49.074,3.191-75.606,0-124.681
		c-3.181-1.813-6.676-2.971-10.447-3.443c1.294,26.593,1.294,104.949,0,131.555"/>
	<path clip-path="url(#SVGID_2_)" fill="#0A0909" d="M339.521,704.856c2.831,44.965,2.831,71.119,0,116.101
		c5.336-5.146,8.624-12.364,8.624-20.361v-75.4C348.146,717.193,344.857,710.012,339.521,704.856"/>
	<path clip-path="url(#SVGID_2_)" fill="#0A0909" d="M299.935,704.856c-5.323,5.176-8.658,12.371-8.658,20.339v75.4
		c0,7.997,3.335,15.181,8.658,20.361C297.089,775.975,297.089,749.821,299.935,704.856"/>
	<path clip-path="url(#SVGID_2_)" fill="#0A0909" d="M316.22,828.686c-1.297-26.605-1.297-104.962-0.021-131.555
		c-3.763,0.473-7.255,1.63-10.411,3.443c-3.208,49.074-3.208,75.606,0,124.681"/>
	<path clip-path="url(#SVGID_2_)" fill="#2D2D2D" d="M34.921,445.601c0,23.839,26.607,43.21,59.401,43.21
		c32.804,0,32.804-86.439,0-86.439C61.528,402.372,34.921,421.718,34.921,445.601"/>
	<path clip-path="url(#SVGID_2_)" fill="#262424" d="M17.135,485.608c12.09,17.927,42.077,19.456,66.992,3.396
		c24.932-16.084-18.863-81.082-43.763-65.012C15.44,440.077,5.029,467.646,17.135,485.608"/>
	<path clip-path="url(#SVGID_2_)" fill="#191717" d="M23.02,516.782c15.396,7.379,35.666-1.969,45.29-20.889
		c9.603-18.912-46.121-45.633-55.738-26.701C2.947,488.095,7.624,509.419,23.02,516.782"/>
	<path clip-path="url(#SVGID_2_)" fill="#0A0909" d="M27.63,530.672c11.344,2.015,22.309-5.757,24.524-17.314
		c2.223-11.563-38.817-18.78-41.041-7.235C8.908,517.691,16.297,528.677,27.63,530.672"/>
	<path clip-path="url(#SVGID_2_)" fill="#0A0909" d="M26.843,540.277c6.69,1.182,13.222-3.676,14.597-10.861
		c1.391-7.16-22.854-11.438-24.261-4.279C15.826,532.322,20.132,539.09,26.843,540.277"/>
</g>
<g>
	<defs>
		<path id="SVGID_3_" d="M35.839,533.143c-0.616,1.701-0.347,3.335,0.571,3.652c0.919,0.299,2.164-0.849,2.778-2.54
			c0.602-1.74,0.34-3.362-0.601-3.675c-0.102-0.034-0.208-0.052-0.316-0.052C37.408,530.529,36.367,531.606,35.839,533.143"/>
	</defs>
	<clipPath id="SVGID_4_">
		<use xlink:href="#SVGID_3_"  overflow="visible"/>
	</clipPath>
	
		<radialGradient id="SVGID_5_" cx="0" cy="829.0239" r="1" gradientTransform="matrix(-2.4469 -0.8121 0.8864 -2.4981 -696.4517 2605.2285)" gradientUnits="userSpaceOnUse">
		<stop  offset="0" style="stop-color:#6B6B6B"/>
		<stop  offset="0.4004" style="stop-color:#434343"/>
		<stop  offset="0.9944" style="stop-color:#000000"/>
		<stop  offset="1" style="stop-color:#000000"/>
	</radialGradient>
	<polygon clip-path="url(#SVGID_4_)" fill="url(#SVGID_5_)" points="41.874,531.22 35.704,529.173 33.139,536.402 39.309,538.45 	
		"/>
</g>
<g>
	<defs>
		<path id="SVGID_6_" d="M19.939,532.163c-0.775,0.594-0.436,2.237,0.725,3.64c1.162,1.401,2.731,2.04,3.486,1.449
			c0.747-0.602,0.454-2.222-0.731-3.626c-0.86-1.061-1.955-1.694-2.767-1.694C20.374,531.931,20.13,532.005,19.939,532.163"/>
	</defs>
	<clipPath id="SVGID_7_">
		<use xlink:href="#SVGID_6_"  overflow="visible"/>
	</clipPath>
	
		<radialGradient id="SVGID_8_" cx="0" cy="829.0239" r="1" gradientTransform="matrix(-2.5588 2.0234 -2.1475 -2.5923 1800.9689 2684.8491)" gradientUnits="userSpaceOnUse">
		<stop  offset="0" style="stop-color:#6B6B6B"/>
		<stop  offset="0.4004" style="stop-color:#434343"/>
		<stop  offset="0.9944" style="stop-color:#000000"/>
		<stop  offset="1" style="stop-color:#000000"/>
	</radialGradient>
	<polygon clip-path="url(#SVGID_7_)" fill="url(#SVGID_8_)" points="22.628,529.192 16.206,534.27 21.433,540.581 27.855,535.502 	
		"/>
</g>
<g>
	<defs>
		<rect id="SVGID_9_" width="451.72" height="829.024"/>
	</defs>
	<clipPath id="SVGID_10_">
		<use xlink:href="#SVGID_9_"  overflow="visible"/>
	</clipPath>
	<path clip-path="url(#SVGID_10_)" fill="#7C7C7C" d="M36.964,533.241c1.042-2.031,2.471-1.828,2.471-1.828
		s17.025,0.62,24.615,10.377c8.471,10.844,3.169,23.77-4.982,24.438c-8.17,0.654-9.987-8.815-6.404-13.729
		c5.027-6.923-4.958-13.092-9.968-14.964c-5.018-1.878-6.117-1.513-6.117-1.513S35.95,535.243,36.964,533.241"/>
	<path clip-path="url(#SVGID_10_)" fill="#7C7C7C" d="M22.453,534.124c1.464,1.195,0.777,2.426,0.777,2.426
		s-11.888,2.012-11.597,13.808c0.277,11.798,7.458,7.017,10.411,12.97c2.953,5.911-4.715,13.278-14.504,8.286
		c-9.781-5.02-9.403-19.15-2.549-28.057c5.924-7.781,14.803-9.931,14.803-9.931S20.997,532.924,22.453,534.124"/>
	<path clip-path="url(#SVGID_10_)" fill="#2D2D2D" d="M416.807,445.601c0,23.839-26.61,43.21-59.411,43.21
		c-32.833,0-32.833-86.439,0-86.439C390.196,402.372,416.807,421.718,416.807,445.601"/>
	<path clip-path="url(#SVGID_10_)" fill="#262424" d="M434.585,485.608c-12.098,17.927-42.109,19.456-67.004,3.396
		c-24.925-16.084,18.9-81.082,43.785-65.012C436.28,440.077,446.665,467.646,434.585,485.608"/>
	<path clip-path="url(#SVGID_10_)" fill="#191717" d="M428.686,516.782c-15.368,7.379-35.687-1.969-45.302-20.889
		c-9.578-18.912,46.147-45.633,55.774-26.701C448.77,488.095,444.116,509.419,428.686,516.782"/>
	<path clip-path="url(#SVGID_10_)" fill="#0A0909" d="M424.086,530.672c-11.354,2.015-22.311-5.757-24.532-17.314
		c-2.226-11.563,38.814-18.78,41.03-7.235C442.808,517.691,435.405,528.677,424.086,530.672"/>
	<path clip-path="url(#SVGID_10_)" fill="#0A0909" d="M424.875,540.277c-6.7,1.182-13.215-3.676-14.634-10.861
		c-1.341-7.16,22.893-11.438,24.28-4.279C435.889,532.322,431.561,539.09,424.875,540.277"/>
</g>
<g>
	<defs>
		<path id="SVGID_11_" d="M413.096,530.581c-0.917,0.313-1.171,1.935-0.569,3.675c0.605,1.691,1.85,2.839,2.784,2.54
			c0.928-0.317,1.183-1.951,0.557-3.652c-0.553-1.537-1.567-2.614-2.446-2.614C413.31,530.529,413.201,530.546,413.096,530.581"/>
	</defs>
	<clipPath id="SVGID_12_">
		<use xlink:href="#SVGID_11_"  overflow="visible"/>
	</clipPath>
	
		<radialGradient id="SVGID_13_" cx="0" cy="829.0239" r="1" gradientTransform="matrix(2.4475 -0.8123 -0.8866 -2.4988 1148.3453 2605.7449)" gradientUnits="userSpaceOnUse">
		<stop  offset="0" style="stop-color:#6B6B6B"/>
		<stop  offset="0.4004" style="stop-color:#434343"/>
		<stop  offset="0.9944" style="stop-color:#000000"/>
		<stop  offset="1" style="stop-color:#000000"/>
	</radialGradient>
	<polygon clip-path="url(#SVGID_12_)" fill="url(#SVGID_13_)" points="409.841,531.22 416.012,529.172 418.577,536.402 
		412.406,538.451 	"/>
</g>
<g>
	<defs>
		<path id="SVGID_14_" d="M428.281,533.625c-1.146,1.404-1.485,3.024-0.698,3.626c0.737,0.591,2.294-0.048,3.473-1.449
			c1.159-1.402,1.485-3.046,0.726-3.64c-0.198-0.157-0.446-0.231-0.728-0.231C430.235,531.931,429.148,532.565,428.281,533.625"/>
	</defs>
	<clipPath id="SVGID_15_">
		<use xlink:href="#SVGID_14_"  overflow="visible"/>
	</clipPath>
	
		<radialGradient id="SVGID_16_" cx="0" cy="829.0239" r="1" gradientTransform="matrix(2.5561 2.0212 2.1452 -2.5895 -1347.3573 2682.5654)" gradientUnits="userSpaceOnUse">
		<stop  offset="0" style="stop-color:#6B6B6B"/>
		<stop  offset="0.4004" style="stop-color:#434343"/>
		<stop  offset="0.9944" style="stop-color:#000000"/>
		<stop  offset="1" style="stop-color:#000000"/>
	</radialGradient>
	<polygon clip-path="url(#SVGID_15_)" fill="url(#SVGID_16_)" points="429.07,529.186 435.5,534.27 430.268,540.586 
		423.837,535.502 	"/>
</g>
<g>
	<defs>
		<rect id="SVGID_17_" width="451.72" height="829.024"/>
	</defs>
	<clipPath id="SVGID_18_">
		<use xlink:href="#SVGID_17_"  overflow="visible"/>
	</clipPath>
	<path clip-path="url(#SVGID_18_)" fill="#7C7C7C" d="M414.753,533.241c-1.044-2.031-2.455-1.828-2.455-1.828
		s-17.053,0.62-24.66,10.377c-8.426,10.844-3.117,23.77,5.036,24.438c8.134,0.654,9.977-8.815,6.37-13.729
		c-5.029-6.923,4.981-13.092,9.989-14.964c5.031-1.878,6.095-1.513,6.095-1.513S415.792,535.243,414.753,533.241"/>
	<path clip-path="url(#SVGID_18_)" fill="#7C7C7C" d="M429.249,534.124c-1.46,1.195-0.747,2.426-0.747,2.426
		s11.862,2.012,11.585,13.808c-0.265,11.798-7.458,7.017-10.426,12.97c-2.943,5.911,4.715,13.278,14.499,8.286
		c9.783-5.02,9.436-19.15,2.591-28.057c-5.981-7.781-14.825-9.931-14.825-9.931S430.718,532.924,429.249,534.124"/>
	<path clip-path="url(#SVGID_18_)" fill="#2D2D2D" d="M302.118,351.607c0,18.064-14.702,32.747-32.779,32.747h-86.983
		c-18.067,0-32.732-14.683-32.732-32.747c0-18.129,14.665-32.794,32.732-32.794h86.983
		C287.416,318.813,302.118,333.478,302.118,351.607"/>
</g>
<g>
	<defs>
		<path id="SVGID_19_" d="M135.307,369.865c-21.417,0-38.821,17.376-38.821,38.794v181.126c0,21.425,17.404,38.806,38.821,38.806
			h181.112c21.434,0,38.797-17.381,38.797-38.806V408.659c0-21.418-17.363-38.794-38.797-38.794H135.307z"/>
	</defs>
	<clipPath id="SVGID_20_">
		<use xlink:href="#SVGID_19_"  overflow="visible"/>
	</clipPath>
	
		<linearGradient id="SVGID_21_" gradientUnits="userSpaceOnUse" x1="0" y1="829.0239" x2="1" y2="829.0239" gradientTransform="matrix(-1.100000e-005 251.1012 251.1012 1.100000e-005 -207943.0938 355.0903)">
		<stop  offset="0" style="stop-color:#FFFFFF"/>
		<stop  offset="0.5319" style="stop-color:#E8E8E8"/>
		<stop  offset="1" style="stop-color:#D9D9D9"/>
	</linearGradient>
	<rect x="96.486" y="369.865" clip-path="url(#SVGID_20_)" fill="url(#SVGID_21_)" width="258.73" height="258.726"/>
</g>
<g>
	<defs>
		<rect id="SVGID_22_" width="451.72" height="829.024"/>
	</defs>
	<clipPath id="SVGID_23_">
		<use xlink:href="#SVGID_22_"  overflow="visible"/>
	</clipPath>
	<rect x="388.209" y="27.767" clip-path="url(#SVGID_23_)" fill="#2D2D2D" width="10.894" height="158.957"/>
	<path clip-path="url(#SVGID_23_)" fill="#2D2D2D" d="M432.465,231.891c0,34.851-27.714,63.11-61.946,63.281V168.595
		C404.751,168.767,432.465,197.012,432.465,231.891"/>
	<path clip-path="url(#SVGID_23_)" fill="#727272" d="M372.791,190.778v-17.832c31.407,0.146,56.774,26.049,56.774,57.951
		c0,8.535-1.828,16.618-5.054,23.904c0.172-2.004,0.301-4.024,0.301-6.094C424.813,217.16,401.656,191.538,372.791,190.778"/>
	<rect x="52.588" y="27.767" clip-path="url(#SVGID_23_)" fill="#2D2D2D" width="10.887" height="158.957"/>
	<path clip-path="url(#SVGID_23_)" fill="#2D2D2D" d="M19.24,231.891c0,34.851,27.701,63.11,61.982,63.281V168.595
		C46.941,168.767,19.24,197.012,19.24,231.891"/>
	<path clip-path="url(#SVGID_23_)" fill="#727272" d="M78.88,190.778v-17.832c-31.372,0.146-56.742,26.049-56.742,57.951
		c0,8.535,1.812,16.618,5.065,23.904c-0.201-2.004-0.311-4.024-0.311-6.094C26.892,217.16,50.057,191.538,78.88,190.778"/>
</g>
<g>
	<defs>
		<path id="SVGID_24_" d="M393.448,0c-10.658,0-19.306,8.636-19.306,19.301c0,10.662,8.647,19.298,19.306,19.298
			c10.661,0,19.286-8.636,19.286-19.298C412.734,8.636,404.109,0,393.448,0z"/>
	</defs>
	<clipPath id="SVGID_25_">
		<use xlink:href="#SVGID_24_"  overflow="visible"/>
	</clipPath>
	
		<linearGradient id="SVGID_26_" gradientUnits="userSpaceOnUse" x1="4.882813e-004" y1="829.0239" x2="1.001" y2="829.0239" gradientTransform="matrix(38.5898 0 0 -38.5898 374.1289 32011.2012)">
		<stop  offset="0" style="stop-color:#FFFFFF"/>
		<stop  offset="0.5319" style="stop-color:#E8E8E8"/>
		<stop  offset="1" style="stop-color:#D9D9D9"/>
	</linearGradient>
	<rect x="374.143" clip-path="url(#SVGID_25_)" fill="url(#SVGID_26_)" width="38.592" height="38.599"/>
</g>
<g>
	<defs>
		<path id="SVGID_27_" d="M58.283,0c-10.65,0-19.309,8.636-19.309,19.301c0,10.662,8.659,19.298,19.309,19.298
			c10.632,0,19.264-8.636,19.264-19.298C77.547,8.636,68.915,0,58.283,0z"/>
	</defs>
	<clipPath id="SVGID_28_">
		<use xlink:href="#SVGID_27_"  overflow="visible"/>
	</clipPath>
	
		<linearGradient id="SVGID_29_" gradientUnits="userSpaceOnUse" x1="4.882813e-004" y1="829.0239" x2="1.0005" y2="829.0239" gradientTransform="matrix(38.5732 0 0 -38.5732 38.958 31997.4355)">
		<stop  offset="0" style="stop-color:#FFFFFF"/>
		<stop  offset="0.5319" style="stop-color:#E8E8E8"/>
		<stop  offset="1" style="stop-color:#D9D9D9"/>
	</linearGradient>
	<rect x="38.974" clip-path="url(#SVGID_28_)" fill="url(#SVGID_29_)" width="38.573" height="38.599"/>
</g>
<g>
	<defs>
		<path id="SVGID_30_" d="M118.178,133.428c-25.491,0-46.167,20.668-46.167,46.147v107.674c0,25.491,20.676,46.168,46.167,46.168
			h215.359c25.496,0,46.16-20.677,46.16-46.168V179.575c0-25.479-20.664-46.147-46.16-46.147H118.178z"/>
	</defs>
	<clipPath id="SVGID_31_">
		<use xlink:href="#SVGID_30_"  overflow="visible"/>
	</clipPath>
	
		<linearGradient id="SVGID_32_" gradientUnits="userSpaceOnUse" x1="0" y1="829.0239" x2="1" y2="829.0239" gradientTransform="matrix(-8.700000e-006 199.9902 199.9902 8.700000e-006 -165570.7969 131.2889)">
		<stop  offset="0" style="stop-color:#FFFFFF"/>
		<stop  offset="0.5319" style="stop-color:#E8E8E8"/>
		<stop  offset="1" style="stop-color:#D9D9D9"/>
	</linearGradient>
	<rect x="72.011" y="133.428" clip-path="url(#SVGID_31_)" fill="url(#SVGID_32_)" width="307.687" height="199.989"/>
</g>
<g>
	<defs>
		<rect id="SVGID_33_" width="451.72" height="829.024"/>
	</defs>
	<clipPath id="SVGID_34_">
		<use xlink:href="#SVGID_33_"  overflow="visible"/>
	</clipPath>
	<path clip-path="url(#SVGID_34_)" fill="#C4C4C4" d="M181.917,253.792c0,23.641-19.167,42.815-42.807,42.815
		c-23.652,0-42.805-19.174-42.805-42.815c0-23.64,19.153-42.798,42.805-42.798C162.75,210.994,181.917,230.151,181.917,253.792"/>
</g>
<g>
	<defs>
		<path id="SVGID_35_" d="M104.04,253.792c0,19.37,15.711,35.065,35.07,35.065c19.351,0,35.036-15.695,35.036-35.065
			c0-19.362-15.685-35.046-35.036-35.046C119.751,218.746,104.04,234.43,104.04,253.792"/>
	</defs>
	<clipPath id="SVGID_36_">
		<use xlink:href="#SVGID_35_"  overflow="visible"/>
	</clipPath>
	
		<linearGradient id="SVGID_37_" gradientUnits="userSpaceOnUse" x1="4.882813e-004" y1="829.0249" x2="1.0005" y2="829.0249" gradientTransform="matrix(-3.100000e-006 70.1113 70.1113 3.100000e-006 -57984.9023 218.7492)">
		<stop  offset="0" style="stop-color:#272727"/>
		<stop  offset="0.966" style="stop-color:#010101"/>
		<stop  offset="0.9944" style="stop-color:#000000"/>
		<stop  offset="1" style="stop-color:#000000"/>
	</linearGradient>
	<rect x="104.04" y="218.746" clip-path="url(#SVGID_36_)" fill="url(#SVGID_37_)" width="70.106" height="70.111"/>
</g>
<g>
	<defs>
		<rect id="SVGID_38_" width="451.72" height="829.024"/>
	</defs>
	<clipPath id="SVGID_39_">
		<use xlink:href="#SVGID_38_"  overflow="visible"/>
	</clipPath>
	<path clip-path="url(#SVGID_39_)" fill="#75CAD8" d="M169.848,253.792c0,16.959-13.773,30.75-30.737,30.75
		c-16.99,0-30.763-13.791-30.763-30.75c0-16.969,13.773-30.742,30.763-30.742C156.075,223.049,169.848,236.823,169.848,253.792"/>
	<path clip-path="url(#SVGID_39_)" fill="#C4C4C4" d="M355.4,248.096c0,35.438-28.698,64.186-64.124,64.186
		c-35.432,0-64.117-28.748-64.117-64.186c0-35.424,28.686-64.145,64.117-64.145C326.702,183.951,355.4,212.672,355.4,248.096"/>
</g>
<g>
	<defs>
		<path id="SVGID_40_" d="M238.743,248.097c0,29.021,23.494,52.553,52.533,52.553c29.023,0,52.518-23.532,52.518-52.553
			c0-29.004-23.494-52.508-52.518-52.508C262.237,195.589,238.743,219.093,238.743,248.097"/>
	</defs>
	<clipPath id="SVGID_41_">
		<use xlink:href="#SVGID_40_"  overflow="visible"/>
	</clipPath>
	
		<linearGradient id="SVGID_42_" gradientUnits="userSpaceOnUse" x1="0" y1="829.0239" x2="1" y2="829.0239" gradientTransform="matrix(-4.600000e-006 105.0615 105.0615 4.600000e-006 -86807.2734 195.592)">
		<stop  offset="0" style="stop-color:#272727"/>
		<stop  offset="0.966" style="stop-color:#010101"/>
		<stop  offset="0.9944" style="stop-color:#000000"/>
		<stop  offset="1" style="stop-color:#000000"/>
	</linearGradient>
	<rect x="238.743" y="195.589" clip-path="url(#SVGID_41_)" fill="url(#SVGID_42_)" width="105.051" height="105.061"/>
</g>
<g>
	<defs>
		<rect id="SVGID_43_" width="451.72" height="829.024"/>
	</defs>
	<clipPath id="SVGID_44_">
		<use xlink:href="#SVGID_43_"  overflow="visible"/>
	</clipPath>
	<path clip-path="url(#SVGID_44_)" fill="#75CAD8" d="M333.716,248.096c0,23.459-19.008,42.439-42.439,42.439
		c-23.447,0-42.47-18.98-42.47-42.439c0-23.43,19.022-42.452,42.47-42.452C314.708,205.644,333.716,224.667,333.716,248.096"/>
	<path clip-path="url(#SVGID_44_)" fill="#2D2D2D" d="M326.269,464.891c0,11.392-9.223,20.628-20.626,20.628
		c-11.379,0-20.621-9.236-20.621-20.628c0-11.379,9.242-20.621,20.621-20.621C317.046,444.27,326.269,453.512,326.269,464.891"/>
	<path clip-path="url(#SVGID_44_)" fill="#2D2D2D" d="M317.683,519.889c0,6.639-5.392,12.019-12.04,12.019
		c-6.642,0-12.026-5.38-12.026-12.019c0-6.649,5.385-12.048,12.026-12.048C312.291,507.841,317.683,513.24,317.683,519.889"/>
</g>
</svg>
