<?xml version="1.0" encoding="utf-8"?>
<!-- Generator: Adobe Illustrator 15.0.2, SVG Export Plug-In . SVG Version: 6.00 Build 0)  -->
<!DOCTYPE svg PUBLIC "-//W3C//DTD SVG 1.1//EN" "http://www.w3.org/Graphics/SVG/1.1/DTD/svg11.dtd">
<svg version="1.1" id="Слой_1" xmlns="http://www.w3.org/2000/svg" xmlns:xlink="http://www.w3.org/1999/xlink" x="0px" y="0px"
	 width="553.673px" height="842.227px" viewBox="0 0 553.673 842.227" enable-background="new 0 0 553.673 842.227"
	 xml:space="preserve">
<g>
	<defs>
		<rect id="SVGID_1_" width="553.673" height="842.227"/>
	</defs>
	<clipPath id="SVGID_2_">
		<use xlink:href="#SVGID_1_"  overflow="visible"/>
	</clipPath>
	<path clip-path="url(#SVGID_2_)" fill="#2D2D2D" d="M85.143,589.345c0,37.523,41.824,67.954,93.426,67.954
		c51.627,0,51.627-135.97,0-135.97C126.967,521.33,85.143,551.777,85.143,589.345"/>
	<path clip-path="url(#SVGID_2_)" fill="#262424" d="M57.154,652.288c19.03,28.225,66.232,30.641,105.391,5.354
		c39.21-25.323-29.697-127.549-68.865-102.277C54.466,580.643,38.138,624.012,57.154,652.288"/>
	<path clip-path="url(#SVGID_2_)" fill="#191717" d="M66.411,701.319c24.206,11.629,56.112-3.121,71.224-32.84
		c15.136-29.779-72.543-71.785-87.666-42.041C34.82,656.182,42.189,689.725,66.411,701.319"/>
</g>
<g>
	<defs>
		<path id="SVGID_3_" d="M47.719,684.556c-3.502,18.194,8.127,35.449,25.926,38.614c17.852,3.146,35.11-9.063,38.605-27.284
			c2.235-11.681-23.68-20.546-43.372-20.547C57.954,675.339,48.947,678.067,47.719,684.556"/>
	</defs>
	<clipPath id="SVGID_4_">
		<use xlink:href="#SVGID_3_"  overflow="visible"/>
	</clipPath>
	
		<radialGradient id="SVGID_5_" cx="0" cy="842.2271" r="1" gradientTransform="matrix(-5.4625 28.5075 -27.9482 -4.9199 23616.9141 4843.563)" gradientUnits="userSpaceOnUse">
		<stop  offset="0" style="stop-color:#6B6B6B"/>
		<stop  offset="0.4004" style="stop-color:#434343"/>
		<stop  offset="0.9944" style="stop-color:#000000"/>
		<stop  offset="1" style="stop-color:#000000"/>
	</radialGradient>
	<polygon clip-path="url(#SVGID_4_)" fill="url(#SVGID_5_)" points="46.51,663.373 34.768,724.653 112.192,738.282 123.934,677.002 
			"/>
</g>
<g>
	<defs>
		<path id="SVGID_6_" d="M57.252,714.458c-2.145,11.277,4.622,21.958,15.176,23.76c10.55,1.89,20.814-5.724,22.963-17.053
			c1.392-7.181-13.616-12.521-25.239-12.521C63.549,708.645,58.039,710.369,57.252,714.458"/>
	</defs>
	<clipPath id="SVGID_7_">
		<use xlink:href="#SVGID_6_"  overflow="visible"/>
	</clipPath>
	
		<radialGradient id="SVGID_8_" cx="0" cy="842.2271" r="1" gradientTransform="matrix(-3.3896 17.6871 -16.5074 -2.9059 13978.166 3171.2122)" gradientUnits="userSpaceOnUse">
		<stop  offset="0" style="stop-color:#6B6B6B"/>
		<stop  offset="0.4004" style="stop-color:#434343"/>
		<stop  offset="0.9944" style="stop-color:#000000"/>
		<stop  offset="1" style="stop-color:#000000"/>
	</radialGradient>
	<polygon clip-path="url(#SVGID_7_)" fill="url(#SVGID_8_)" points="56.467,701.548 49.274,739.082 95.423,747.206 102.616,709.671 
			"/>
</g>
<g>
	<defs>
		<path id="SVGID_9_" d="M86.573,727.045c-0.958,2.681-0.566,5.273,0.902,5.749c1.42,0.475,3.367-1.31,4.373-4.044
			c0.967-2.689,0.553-5.246-0.893-5.756c-0.158-0.051-0.322-0.075-0.49-0.075C89.077,722.919,87.437,724.622,86.573,727.045"/>
	</defs>
	<clipPath id="SVGID_10_">
		<use xlink:href="#SVGID_9_"  overflow="visible"/>
	</clipPath>
	
		<radialGradient id="SVGID_11_" cx="0" cy="842.2271" r="1" gradientTransform="matrix(-3.8542 -1.2791 1.3962 -3.9349 -1085.3264 4042.7979)" gradientUnits="userSpaceOnUse">
		<stop  offset="0" style="stop-color:#6B6B6B"/>
		<stop  offset="0.4004" style="stop-color:#434343"/>
		<stop  offset="0.9944" style="stop-color:#000000"/>
		<stop  offset="1" style="stop-color:#000000"/>
	</radialGradient>
	<polygon clip-path="url(#SVGID_10_)" fill="url(#SVGID_11_)" points="96.101,724.009 86.374,720.781 82.33,732.178 92.057,735.407 
			"/>
</g>
<g>
	<defs>
		<path id="SVGID_12_" d="M61.551,725.507c-1.183,0.958-0.679,3.488,1.127,5.731c1.86,2.205,4.294,3.217,5.518,2.257
			c1.217-0.931,0.688-3.486-1.158-5.729c-1.359-1.625-3.072-2.624-4.354-2.624C62.245,725.142,61.858,725.258,61.551,725.507"/>
	</defs>
	<clipPath id="SVGID_13_">
		<use xlink:href="#SVGID_12_"  overflow="visible"/>
	</clipPath>
	
		<radialGradient id="SVGID_14_" cx="0" cy="842.2271" r="1" gradientTransform="matrix(-4.0252 3.1829 -3.3781 -4.0778 2907.8384 4165.6924)" gradientUnits="userSpaceOnUse">
		<stop  offset="0" style="stop-color:#6B6B6B"/>
		<stop  offset="0.4004" style="stop-color:#434343"/>
		<stop  offset="0.9944" style="stop-color:#000000"/>
		<stop  offset="1" style="stop-color:#000000"/>
	</radialGradient>
	<polygon clip-path="url(#SVGID_13_)" fill="url(#SVGID_14_)" points="65.833,720.821 55.706,728.829 63.948,738.778 74.075,730.77 
			"/>
</g>
<g>
	<defs>
		<rect id="SVGID_15_" width="553.673" height="842.227"/>
	</defs>
	<clipPath id="SVGID_16_">
		<use xlink:href="#SVGID_15_"  overflow="visible"/>
	</clipPath>
	<path clip-path="url(#SVGID_16_)" fill="#0B0A0A" d="M109.797,812.104c0,16.656-13.479,30.123-30.11,30.123
		c-16.656,0-30.118-13.467-30.118-30.123v-79.838c0-16.656,13.462-30.147,30.118-30.147c16.631,0,30.11,13.491,30.11,30.147V812.104
		z"/>
	<path clip-path="url(#SVGID_16_)" fill="#0B0A0A" d="M94.411,706.144c-3.292-1.917-7.01-3.147-11.028-3.648
		c1.382,28.162,1.406,111.19,0.009,139.354c4.009-0.476,7.727-1.731,11.019-3.64C97.824,786.201,97.824,758.17,94.411,706.144"/>
	<path clip-path="url(#SVGID_16_)" fill="#0B0A0A" d="M100.665,710.662c3.015,47.657,3.015,75.364,0,123.049
		c5.642-5.477,9.132-13.169,9.132-21.606v-79.838C109.797,723.776,106.307,716.164,100.665,710.662"/>
	<path clip-path="url(#SVGID_16_)" fill="#0B0A0A" d="M58.711,710.662c-5.664,5.502-9.142,13.142-9.142,21.604v79.838
		c0,8.438,3.478,16.13,9.142,21.606C55.682,786.026,55.682,758.319,58.711,710.662"/>
	<path clip-path="url(#SVGID_16_)" fill="#0B0A0A" d="M75.969,702.496c-4.002,0.501-7.713,1.706-11.026,3.648
		c-3.407,52.026-3.407,80.057,0,132.065c3.313,1.908,7.031,3.164,11.026,3.641C74.589,813.686,74.563,730.658,75.969,702.496"/>
	<path clip-path="url(#SVGID_16_)" fill="#0B0A0A" d="M100.665,710.662c-1.86-1.784-3.97-3.271-6.254-4.518
		c3.413,52.026,3.413,80.057,0,132.065c2.284-1.23,4.394-2.742,6.254-4.499C103.68,786.026,103.68,758.319,100.665,710.662"/>
	<path clip-path="url(#SVGID_16_)" fill="#0B0A0A" d="M64.942,706.144c-2.286,1.247-4.394,2.733-6.231,4.518
		c-3.03,47.657-3.03,75.364,0,123.049c1.837,1.757,3.945,3.269,6.231,4.499C61.537,786.201,61.537,758.17,64.942,706.144"/>
	<path clip-path="url(#SVGID_16_)" fill="#2D2D2D" d="M470.416,589.345c0,37.523-41.854,67.954-93.446,67.954
		c-51.599,0-51.599-135.97,0-135.97C428.563,521.33,470.416,551.777,470.416,589.345"/>
	<path clip-path="url(#SVGID_16_)" fill="#262424" d="M498.376,652.288c-19.003,28.225-66.197,30.641-105.39,5.354
		c-39.188-25.323,29.723-127.549,68.876-102.277C501.08,580.643,517.419,624.012,498.376,652.288"/>
	<path clip-path="url(#SVGID_16_)" fill="#191717" d="M489.13,701.319c-24.189,11.629-56.099-3.121-71.241-32.84
		c-15.103-29.779,72.55-71.785,87.7-42.041C520.71,656.182,513.328,689.725,489.13,701.319"/>
</g>
<g>
	<defs>
		<path id="SVGID_17_" d="M443.308,695.886c3.468,18.222,20.753,30.43,38.561,27.284c17.816-3.165,29.472-20.42,25.978-38.614
			c-1.245-6.489-10.261-9.217-21.187-9.217C466.963,675.34,441.063,684.206,443.308,695.886"/>
	</defs>
	<clipPath id="SVGID_18_">
		<use xlink:href="#SVGID_17_"  overflow="visible"/>
	</clipPath>
	
		<radialGradient id="SVGID_19_" cx="0" cy="842.2271" r="1" gradientTransform="matrix(5.4627 28.5086 27.9494 -4.9201 -23062.291 4843.7246)" gradientUnits="userSpaceOnUse">
		<stop  offset="0" style="stop-color:#6B6B6B"/>
		<stop  offset="0.4004" style="stop-color:#434343"/>
		<stop  offset="0.9944" style="stop-color:#000000"/>
		<stop  offset="1" style="stop-color:#000000"/>
	</radialGradient>
	<polygon clip-path="url(#SVGID_18_)" fill="url(#SVGID_19_)" points="509.047,663.372 520.789,724.653 443.356,738.284 
		431.613,677.002 	"/>
</g>
<g>
	<defs>
		<path id="SVGID_20_" d="M460.115,721.166c2.188,11.329,12.462,18.942,23.01,17.053c10.553-1.802,17.324-12.482,15.154-23.76
			c-0.784-4.09-6.289-5.813-12.892-5.813C473.768,708.645,458.752,713.985,460.115,721.166"/>
	</defs>
	<clipPath id="SVGID_21_">
		<use xlink:href="#SVGID_20_"  overflow="visible"/>
	</clipPath>
	
		<radialGradient id="SVGID_22_" cx="0" cy="842.2271" r="1" gradientTransform="matrix(3.3911 17.6952 16.515 -2.9072 -13428.998 3172.3389)" gradientUnits="userSpaceOnUse">
		<stop  offset="0" style="stop-color:#6B6B6B"/>
		<stop  offset="0.4004" style="stop-color:#434343"/>
		<stop  offset="0.9944" style="stop-color:#000000"/>
		<stop  offset="1" style="stop-color:#000000"/>
	</radialGradient>
	<polygon clip-path="url(#SVGID_21_)" fill="url(#SVGID_22_)" points="499.088,701.544 506.282,739.082 460.112,747.208 
		452.919,709.671 	"/>
</g>
<g>
	<defs>
		<path id="SVGID_23_" d="M464.614,722.995c-1.473,0.51-1.872,3.066-0.931,5.756c0.953,2.734,2.96,4.519,4.394,4.044
			c1.447-0.476,1.836-3.068,0.897-5.749c-0.867-2.424-2.501-4.126-3.876-4.126C464.933,722.919,464.771,722.944,464.614,722.995"/>
	</defs>
	<clipPath id="SVGID_24_">
		<use xlink:href="#SVGID_23_"  overflow="visible"/>
	</clipPath>
	
		<radialGradient id="SVGID_25_" cx="0" cy="842.2271" r="1" gradientTransform="matrix(3.8589 -1.2807 -1.3979 -3.9397 1642.3035 4046.8621)" gradientUnits="userSpaceOnUse">
		<stop  offset="0" style="stop-color:#6B6B6B"/>
		<stop  offset="0.4004" style="stop-color:#434343"/>
		<stop  offset="0.9944" style="stop-color:#000000"/>
		<stop  offset="1" style="stop-color:#000000"/>
	</radialGradient>
	<polygon clip-path="url(#SVGID_24_)" fill="url(#SVGID_25_)" points="459.456,724.009 469.157,720.79 473.198,732.178 
		463.497,735.398 	"/>
</g>
<g>
	<defs>
		<path id="SVGID_26_" d="M488.505,727.766c-1.839,2.243-2.372,4.799-1.158,5.729c1.206,0.96,3.672-0.052,5.491-2.257
			c1.845-2.243,2.32-4.773,1.141-5.731c-0.3-0.249-0.685-0.365-1.121-0.365C491.58,725.142,489.86,726.141,488.505,727.766"/>
	</defs>
	<clipPath id="SVGID_27_">
		<use xlink:href="#SVGID_26_"  overflow="visible"/>
	</clipPath>
	
		<radialGradient id="SVGID_28_" cx="0" cy="842.2271" r="1" gradientTransform="matrix(4.0221 3.1805 3.3755 -4.0747 -2350.1169 4163.0352)" gradientUnits="userSpaceOnUse">
		<stop  offset="0" style="stop-color:#6B6B6B"/>
		<stop  offset="0.4004" style="stop-color:#434343"/>
		<stop  offset="0.9944" style="stop-color:#000000"/>
		<stop  offset="1" style="stop-color:#000000"/>
	</radialGradient>
	<polygon clip-path="url(#SVGID_27_)" fill="url(#SVGID_28_)" points="489.705,720.831 499.82,728.829 491.586,738.768 
		481.471,730.77 	"/>
</g>
<g>
	<defs>
		<rect id="SVGID_29_" width="553.673" height="842.227"/>
	</defs>
	<clipPath id="SVGID_30_">
		<use xlink:href="#SVGID_29_"  overflow="visible"/>
	</clipPath>
	<path clip-path="url(#SVGID_30_)" fill="#0B0A0A" d="M445.722,812.104c0,16.656,13.486,30.123,30.146,30.123
		c16.627,0,30.121-13.467,30.121-30.123v-79.838c0-16.656-13.494-30.147-30.121-30.147c-16.659,0-30.146,13.491-30.146,30.147
		V812.104z"/>
	<path clip-path="url(#SVGID_30_)" fill="#0B0A0A" d="M461.08,706.144c3.367-1.917,7.086-3.147,11.065-3.648
		c-1.38,28.162-1.38,111.19,0,139.354c-3.979-0.476-7.698-1.731-11.065-3.64C457.732,786.201,457.732,758.17,461.08,706.144"/>
	<path clip-path="url(#SVGID_30_)" fill="#0B0A0A" d="M454.865,710.662c-2.987,47.657-2.987,75.364,0,123.049
		c-5.604-5.477-9.145-13.169-9.145-21.606v-79.838C445.721,723.776,449.262,716.164,454.865,710.662"/>
	<path clip-path="url(#SVGID_30_)" fill="#0B0A0A" d="M496.832,710.662c5.627,5.502,9.156,13.142,9.156,21.604v79.838
		c0,8.438-3.529,16.13-9.156,21.606C499.822,786.026,499.822,758.319,496.832,710.662"/>
	<path clip-path="url(#SVGID_30_)" fill="#0B0A0A" d="M479.584,702.496c3.973,0.501,7.663,1.706,11.031,3.648
		c3.392,52.026,3.392,80.057,0,132.065c-3.368,1.908-7.059,3.164-11.031,3.641C480.941,813.686,480.941,730.658,479.584,702.496"/>
</g>
<g>
	<defs>
		<path id="SVGID_31_" d="M23.74,714.458c0,30.343,24.581,54.909,54.92,54.909c30.318,0,54.892-24.566,54.892-54.909
			c0-30.325-24.574-54.893-54.892-54.893C48.321,659.566,23.74,684.133,23.74,714.458"/>
	</defs>
	<clipPath id="SVGID_32_">
		<use xlink:href="#SVGID_31_"  overflow="visible"/>
	</clipPath>
	
		<linearGradient id="SVGID_33_" gradientUnits="userSpaceOnUse" x1="0" y1="842.228" x2="1" y2="842.228" gradientTransform="matrix(109.8115 0 0 -109.8115 23.7695 93200.6875)">
		<stop  offset="0" style="stop-color:#FFFFFF"/>
		<stop  offset="0.5319" style="stop-color:#E8E8E8"/>
		<stop  offset="1" style="stop-color:#D9D9D9"/>
	</linearGradient>
	<rect x="23.74" y="659.566" clip-path="url(#SVGID_32_)" fill="url(#SVGID_33_)" width="109.812" height="109.802"/>
</g>
<g>
	<defs>
		<path id="SVGID_34_" d="M420.121,714.458c0,30.343,24.583,54.909,54.904,54.909c30.338,0,54.904-24.566,54.904-54.909
			c0-30.325-24.566-54.893-54.904-54.893C444.704,659.566,420.121,684.133,420.121,714.458"/>
	</defs>
	<clipPath id="SVGID_35_">
		<use xlink:href="#SVGID_34_"  overflow="visible"/>
	</clipPath>
	
		<linearGradient id="SVGID_36_" gradientUnits="userSpaceOnUse" x1="-4.882813e-004" y1="842.2271" x2="0.9995" y2="842.2271" gradientTransform="matrix(109.8086 0 0 -109.8086 420.1406 93198.2656)">
		<stop  offset="0" style="stop-color:#FFFFFF"/>
		<stop  offset="0.5319" style="stop-color:#E8E8E8"/>
		<stop  offset="1" style="stop-color:#D9D9D9"/>
	</linearGradient>
	<rect x="420.121" y="659.566" clip-path="url(#SVGID_35_)" fill="url(#SVGID_36_)" width="109.809" height="109.802"/>
</g>
<g>
	<defs>
		<rect id="SVGID_37_" width="553.673" height="842.227"/>
	</defs>
	<clipPath id="SVGID_38_">
		<use xlink:href="#SVGID_37_"  overflow="visible"/>
	</clipPath>
	<path clip-path="url(#SVGID_38_)" fill="#2D2D2D" d="M358.92,370.831c0,19.469-15.813,35.273-35.259,35.273h-93.614
		c-19.496,0-35.274-15.804-35.274-35.273c0-19.505,15.778-35.295,35.274-35.295h93.614
		C343.106,335.536,358.92,351.326,358.92,370.831"/>
	<path clip-path="url(#SVGID_38_)" fill="#262424" d="M358.92,421.354c0,19.437-15.813,35.23-35.259,35.23h-93.614
		c-19.496,0-35.274-15.794-35.274-35.23c0-19.531,15.778-35.308,35.274-35.308h93.614
		C343.106,386.046,358.92,401.823,358.92,421.354"/>
	<path clip-path="url(#SVGID_38_)" fill="#191717" d="M356.797,480.658c0,19.443-15.813,35.248-35.259,35.248h-93.614
		c-19.496,0-35.274-15.805-35.274-35.248c0-19.521,15.778-35.299,35.274-35.299h93.614
		C340.984,445.359,356.797,461.136,356.797,480.658"/>
</g>
<g>
	<defs>
		<path id="SVGID_39_" d="M197.123,480.502c-18.866,0-34.179,15.274-34.179,34.155v72.059c0,18.872,6.327,57.935,22.721,77.755
			c47.444,55.313,134.871,55.357,182.328,0.018c16.392-19.838,22.708-58.9,22.708-77.772v-72.059
			c0-18.881-15.272-34.155-34.166-34.155H197.123z"/>
	</defs>
	<clipPath id="SVGID_40_">
		<use xlink:href="#SVGID_39_"  overflow="visible"/>
	</clipPath>
	
		<linearGradient id="SVGID_41_" gradientUnits="userSpaceOnUse" x1="0" y1="842.2271" x2="1" y2="842.2271" gradientTransform="matrix(-9.400000e-006 215.2141 215.2141 9.400000e-006 -180982.3438 485.7012)">
		<stop  offset="0" style="stop-color:#FFFFFF"/>
		<stop  offset="0.5319" style="stop-color:#E8E8E8"/>
		<stop  offset="1" style="stop-color:#D9D9D9"/>
	</linearGradient>
	<rect x="162.944" y="480.502" clip-path="url(#SVGID_40_)" fill="url(#SVGID_41_)" width="227.757" height="239.326"/>
</g>
<g>
	<defs>
		<rect id="SVGID_42_" width="553.673" height="842.227"/>
	</defs>
	<clipPath id="SVGID_43_">
		<use xlink:href="#SVGID_42_"  overflow="visible"/>
	</clipPath>
	<rect x="45.574" y="252.092" clip-path="url(#SVGID_43_)" fill="#2D2D2D" width="139.726" height="14.973"/>
	<path clip-path="url(#SVGID_43_)" fill="#2D2D2D" d="M79.871,259.571c0,36.578,29.078,66.249,65.029,66.426V193.148
		C108.949,193.323,79.871,222.994,79.871,259.571"/>
	<path clip-path="url(#SVGID_43_)" fill="#727272" d="M139.216,216.429v-18.702c-32.909,0.149-59.576,27.345-59.576,60.845
		c0,8.932,1.919,17.41,5.336,25.049c-0.211-2.113-0.314-4.235-0.314-6.382C84.662,244.128,108.944,217.233,139.216,216.429"/>
	<rect x="362.354" y="252.092" clip-path="url(#SVGID_43_)" fill="#2D2D2D" width="139.715" height="14.973"/>
	<path clip-path="url(#SVGID_43_)" fill="#2D2D2D" d="M471.019,259.578c0,36.578-29.063,66.249-65.007,66.426V193.155
		C441.955,193.33,471.019,223,471.019,259.578"/>
	<path clip-path="url(#SVGID_43_)" fill="#727272" d="M408.438,216.429v-18.702c32.937,0.149,59.591,27.345,59.591,60.845
		c0,8.932-1.934,17.41-5.348,25.049c0.196-2.113,0.323-4.235,0.323-6.382C463.004,244.128,438.697,217.233,408.438,216.429"/>
	<rect x="267.827" y="45.209" clip-path="url(#SVGID_43_)" fill="#2D2D2D" width="13.793" height="128.94"/>
	<path clip-path="url(#SVGID_43_)" fill="#2D2D2D" d="M276.865,107.434c33.739,0,61.098,26.854,61.301,60.018H215.544
		C215.76,134.288,243.125,107.434,276.865,107.434"/>
	<path clip-path="url(#SVGID_43_)" fill="#727272" d="M234.918,164.163H217.66c0.127-30.373,25.223-54.992,56.123-54.992
		c8.266,0,16.064,1.77,23.125,4.91c-1.919-0.187-3.906-0.263-5.901-0.263C260.492,113.817,235.676,136.251,234.918,164.163"/>
</g>
<g>
	<defs>
		<path id="SVGID_44_" d="M498.804,259.578c0,15.148,12.311,27.435,27.457,27.435c15.163,0,27.412-12.287,27.412-27.435
			c0-15.149-12.249-27.447-27.412-27.447C511.114,232.131,498.804,244.429,498.804,259.578"/>
	</defs>
	<clipPath id="SVGID_45_">
		<use xlink:href="#SVGID_44_"  overflow="visible"/>
	</clipPath>
	
		<linearGradient id="SVGID_46_" gradientUnits="userSpaceOnUse" x1="9.765625e-004" y1="842.2271" x2="1.001" y2="842.2271" gradientTransform="matrix(54.8682 0 0 -54.8682 498.793 46471.0234)">
		<stop  offset="0" style="stop-color:#FFFFFF"/>
		<stop  offset="0.5319" style="stop-color:#E8E8E8"/>
		<stop  offset="1" style="stop-color:#D9D9D9"/>
	</linearGradient>
	<rect x="498.804" y="232.131" clip-path="url(#SVGID_45_)" fill="url(#SVGID_46_)" width="54.869" height="54.882"/>
</g>
<g>
	<defs>
		<path id="SVGID_47_" d="M274.737,0.001c-15.161,0-27.459,12.272-27.459,27.432c0,15.163,12.298,27.446,27.459,27.446
			c15.128,0,27.433-12.283,27.433-27.446C302.17,12.273,289.865,0.001,274.737,0.001z"/>
	</defs>
	<clipPath id="SVGID_48_">
		<use xlink:href="#SVGID_47_"  overflow="visible"/>
	</clipPath>
	
		<linearGradient id="SVGID_49_" gradientUnits="userSpaceOnUse" x1="4.882813e-004" y1="842.2271" x2="1.0005" y2="842.2271" gradientTransform="matrix(54.8926 0 0 -54.8926 247.2734 46259.4648)">
		<stop  offset="0" style="stop-color:#FFFFFF"/>
		<stop  offset="0.5319" style="stop-color:#E8E8E8"/>
		<stop  offset="1" style="stop-color:#D9D9D9"/>
	</linearGradient>
	<rect x="247.278" y="0.001" clip-path="url(#SVGID_48_)" fill="url(#SVGID_49_)" width="54.892" height="54.878"/>
</g>
<g>
	<defs>
		<path id="SVGID_50_" d="M0,259.578c0,15.148,12.261,27.435,27.406,27.435c15.176,0,27.436-12.287,27.436-27.435
			c0-15.149-12.26-27.447-27.436-27.447C12.261,232.131,0,244.429,0,259.578"/>
	</defs>
	<clipPath id="SVGID_51_">
		<use xlink:href="#SVGID_50_"  overflow="visible"/>
	</clipPath>
	
		<linearGradient id="SVGID_52_" gradientUnits="userSpaceOnUse" x1="4.882813e-004" y1="842.228" x2="1.0005" y2="842.228" gradientTransform="matrix(54.8428 0 0 -54.8428 -0.0117 46449.6406)">
		<stop  offset="0" style="stop-color:#FFFFFF"/>
		<stop  offset="0.5319" style="stop-color:#E8E8E8"/>
		<stop  offset="1" style="stop-color:#D9D9D9"/>
	</linearGradient>
	<rect y="232.131" clip-path="url(#SVGID_51_)" fill="url(#SVGID_52_)" width="54.842" height="54.882"/>
</g>
<g>
	<defs>
		<path id="SVGID_53_" d="M165.505,149.491c-26.341,0-47.709,21.368-47.709,47.709v111.341c0,26.353,21.368,47.708,47.709,47.708
			h222.633c26.366,0,47.734-21.355,47.734-47.708V197.2c0-26.341-21.368-47.709-47.734-47.709H165.505z"/>
	</defs>
	<clipPath id="SVGID_54_">
		<use xlink:href="#SVGID_53_"  overflow="visible"/>
	</clipPath>
	
		<linearGradient id="SVGID_55_" gradientUnits="userSpaceOnUse" x1="0" y1="842.2271" x2="1" y2="842.2271" gradientTransform="matrix(-9.000000e-006 206.7578 206.7578 9.000000e-006 -173860.1875 147.2657)">
		<stop  offset="0" style="stop-color:#FFFFFF"/>
		<stop  offset="0.5319" style="stop-color:#E8E8E8"/>
		<stop  offset="1" style="stop-color:#D9D9D9"/>
	</linearGradient>
	<rect x="117.796" y="149.491" clip-path="url(#SVGID_54_)" fill="url(#SVGID_55_)" width="318.076" height="206.758"/>
</g>
<g>
	<defs>
		<rect id="SVGID_56_" width="553.673" height="842.227"/>
	</defs>
	<clipPath id="SVGID_57_">
		<use xlink:href="#SVGID_56_"  overflow="visible"/>
	</clipPath>
	<path clip-path="url(#SVGID_57_)" fill="#C4C4C4" d="M350.531,250.973c0,40.686-32.987,73.672-73.687,73.672
		c-40.682,0-73.667-32.986-73.667-73.672s32.985-73.672,73.667-73.672C317.544,177.301,350.531,210.287,350.531,250.973"/>
</g>
<g>
	<defs>
		<path id="SVGID_58_" d="M216.53,250.973c0,33.3,27.003,60.333,60.315,60.333c33.343,0,60.322-27.033,60.322-60.333
			c0-33.324-26.979-60.317-60.322-60.317C243.533,190.656,216.53,217.649,216.53,250.973"/>
	</defs>
	<clipPath id="SVGID_59_">
		<use xlink:href="#SVGID_58_"  overflow="visible"/>
	</clipPath>
	
		<linearGradient id="SVGID_60_" gradientUnits="userSpaceOnUse" x1="0" y1="842.2261" x2="1" y2="842.2261" gradientTransform="matrix(-5.300000e-006 120.6504 120.6504 5.300000e-006 -101338.1875 190.6354)">
		<stop  offset="0" style="stop-color:#272727"/>
		<stop  offset="0.966" style="stop-color:#010101"/>
		<stop  offset="0.9944" style="stop-color:#000000"/>
		<stop  offset="1" style="stop-color:#000000"/>
	</linearGradient>
	<rect x="216.53" y="190.656" clip-path="url(#SVGID_59_)" fill="url(#SVGID_60_)" width="120.637" height="120.65"/>
</g>
<g>
	<defs>
		<rect id="SVGID_61_" width="553.673" height="842.227"/>
	</defs>
	<clipPath id="SVGID_62_">
		<use xlink:href="#SVGID_61_"  overflow="visible"/>
	</clipPath>
	<path clip-path="url(#SVGID_62_)" fill="#75CAD8" d="M320.813,250.973c0,24.307-19.684,43.988-43.967,43.988
		c-24.294,0-43.949-19.681-43.949-43.988c0-24.279,19.655-43.964,43.949-43.964C301.129,207.009,320.813,226.694,320.813,250.973"/>
	<path clip-path="url(#SVGID_62_)" fill="#2D2D2D" d="M302.563,573.207c0,14.196-11.521,25.72-25.724,25.72
		c-14.21,0-25.729-11.523-25.729-25.72c0-14.222,11.518-25.727,25.729-25.727C291.041,547.48,302.563,558.985,302.563,573.207"/>
	<path clip-path="url(#SVGID_62_)" fill="#2D2D2D" d="M292.913,641.802c0,8.877-7.197,16.076-16.074,16.076
		c-8.884,0-16.082-7.199-16.082-16.076c0-8.878,7.198-16.077,16.082-16.077C285.716,625.725,292.913,632.924,292.913,641.802"/>
</g>
</svg>
