<svg xmlns="http://www.w3.org/2000/svg" width="169" height="132" viewBox="0 0 169 132">
    <g fill="none" stroke="#00C1F1" opacity=".16">
        <path d="M83.395 129.459c20.975 0 44.38-4.261 57.637-16.022 20.188-17.91 24.88-48.138 24.88-67.273 0-31.701-32.805-45.536-85.72-45.536C27.274.628.483 30.138.483 61.84c0 31.701 29.996 67.619 82.911 67.619z" transform="scale(-1 1) rotate(8 -8.189 -1144.652)"/>
        <path d="M79.228 127.377c-52.591 0-73.36-38.839-73.36-70.333 0-31.495 41.608-54.667 94.2-54.667 52.591 0 61.278 30.101 61.278 61.596 0 31.494-29.526 63.404-82.118 63.404z" transform="scale(-1 1) rotate(8 -8.189 -1144.652)"/>
    </g>
</svg>
