<svg xmlns="http://www.w3.org/2000/svg" width="12" height="13" viewBox="0 0 12 13">
    <path fill="#67717C" fill-rule="evenodd" d="M11.93 11.492c.047.047.07.11.07.188s-.023.148-.07.21l-.54.516c-.062.063-.132.094-.21.094-.078 0-.141-.031-.188-.094L8.132 9.57c-.046-.062-.07-.125-.07-.187v-.328c-.437.375-.93.668-1.476.879-.547.21-1.117.316-1.711.316-.89 0-1.707-.219-2.45-.656-.741-.438-1.331-1.028-1.769-1.77C.22 7.082 0 6.266 0 5.375c0-.89.219-1.707.656-2.45.438-.741 1.028-1.331 1.77-1.769C3.168.72 3.984.5 4.875.5c.89 0 1.707.219 2.45.656.741.438 1.331 1.028 1.769 1.77.437.742.656 1.558.656 2.449 0 .594-.105 1.164-.316 1.71-.211.548-.504 1.04-.88 1.478h.329c.078 0 .14.023.187.07l2.86 2.86zM4.875 9.125c.672 0 1.297-.168 1.875-.504.578-.336 1.035-.793 1.371-1.371.336-.578.504-1.203.504-1.875 0-.672-.168-1.297-.504-1.875-.336-.578-.793-1.035-1.371-1.371-.578-.336-1.203-.504-1.875-.504-.672 0-1.297.168-1.875.504-.578.336-1.035.793-1.371 1.371-.336.578-.504 1.203-.504 1.875 0 .672.168 1.297.504 1.875.336.578.793 1.035 1.371 1.371.578.336 1.203.504 1.875.504z"/>
</svg>
