<?xml version="1.0" encoding="utf-8"?>
<!-- Generator: Adobe Illustrator 16.0.0, SVG Export Plug-In . SVG Version: 6.00 Build 0)  -->
<!DOCTYPE svg PUBLIC "-//W3C//DTD SVG 1.1//EN" "http://www.w3.org/Graphics/SVG/1.1/DTD/svg11.dtd">
<svg version="1.1" id="Layer_1" xmlns="http://www.w3.org/2000/svg" xmlns:xlink="http://www.w3.org/1999/xlink" x="0px" y="0px"
	 width="144.165px" height="227.764px" viewBox="0 0 144.165 227.764" enable-background="new 0 0 144.165 227.764"
	 xml:space="preserve">
<g>
	<path opacity="0.2" fill-rule="evenodd" clip-rule="evenodd" fill="#5D6161" d="M38.073,0.694l89,0.205v224.559l-40.709-40.199
		L38.532,225L38.073,0.694z"/>
	<path fill-rule="evenodd" clip-rule="evenodd" fill="#33ABC9" d="M24.082,1l96,0.205v226.559l-47.707-40.199l-47.833,39.741
		L24.082,1z"/>
	<g>
		<g>
			<line fill="none" stroke="#1C535C" stroke-width="2" stroke-miterlimit="10" x1="38.073" y1="0.694" x2="38.073" y2="3.694"/>
			
				<line fill="none" stroke="#1C535C" stroke-width="2" stroke-miterlimit="10" stroke-dasharray="5.9691,5.9691" x1="38.073" y1="9.663" x2="38.073" y2="209.627"/>
			
				<line fill="none" stroke="#1C535C" stroke-width="2" stroke-miterlimit="10" x1="38.073" y1="212.612" x2="38.073" y2="215.612"/>
		</g>
	</g>
	<g>
		<g>
			<line fill="none" stroke="#1C535C" stroke-width="2" stroke-miterlimit="10" x1="103.763" y1="0" x2="103.763" y2="3"/>
			
				<line fill="none" stroke="#1C535C" stroke-width="2" stroke-miterlimit="10" stroke-dasharray="5.9691,5.9691" x1="103.763" y1="8.969" x2="103.763" y2="208.934"/>
			
				<line fill="none" stroke="#1C535C" stroke-width="2" stroke-miterlimit="10" x1="103.763" y1="211.918" x2="103.763" y2="214.918"/>
		</g>
	</g>
	
		<linearGradient id="SVGID_1_" gradientUnits="userSpaceOnUse" x1="200.3457" y1="159.6294" x2="200.3457" y2="318.6816" gradientTransform="matrix(0.7071 0.7071 -0.7071 0.7071 105.3799 -227.163)">
		<stop  offset="0" style="stop-color:#9A9A9A"/>
		<stop  offset="0.1895" style="stop-color:#FFFFFF"/>
		<stop  offset="0.2682" style="stop-color:#FBFBFB"/>
		<stop  offset="0.3445" style="stop-color:#EFEFEF"/>
		<stop  offset="0.4196" style="stop-color:#DCDCDC"/>
		<stop  offset="0.4526" style="stop-color:#D1D1D1"/>
		<stop  offset="0.52" style="stop-color:#DADADA"/>
		<stop  offset="0.6316" style="stop-color:#F4F4F4"/>
		<stop  offset="0.6737" style="stop-color:#FFFFFF"/>
		<stop  offset="0.7129" style="stop-color:#F9F9F9"/>
		<stop  offset="0.7657" style="stop-color:#E8E8E8"/>
		<stop  offset="0.8258" style="stop-color:#CCCCCC"/>
		<stop  offset="0.8579" style="stop-color:#BABABA"/>
	</linearGradient>
	<circle fill="url(#SVGID_1_)" cx="72.082" cy="89.463" r="72.082"/>
	<g>
		<g>
			<linearGradient id="SVGID_2_" gradientUnits="userSpaceOnUse" x1="30.9141" y1="91.147" x2="107.8701" y2="91.147">
				<stop  offset="0" style="stop-color:#FFFFFF"/>
				<stop  offset="0.0681" style="stop-color:#FBFBFB"/>
				<stop  offset="0.1341" style="stop-color:#EFEFEF"/>
				<stop  offset="0.1993" style="stop-color:#DCDCDC"/>
				<stop  offset="0.2636" style="stop-color:#C1C1C1"/>
				<stop  offset="0.2772" style="stop-color:#BABABA"/>
				<stop  offset="0.6882" style="stop-color:#D5D6D8"/>
				<stop  offset="0.7447" style="stop-color:#D0D1D2"/>
				<stop  offset="0.8187" style="stop-color:#C1C1C2"/>
				<stop  offset="0.9022" style="stop-color:#AAA9AA"/>
				<stop  offset="0.9516" style="stop-color:#9A9A9A"/>
			</linearGradient>
			<path fill-rule="evenodd" clip-rule="evenodd" fill="url(#SVGID_2_)" d="M62.998,75.926l20.605,20.605l20.607-20.605
				c4.881-4.881,4.881-12.788,0-17.665c-4.873-4.877-12.783-4.877-17.666,0l-2.941,2.941l-2.939-2.941
				c-11.384-11.384-29.837-11.384-41.21,0c-11.385,11.383-11.385,29.832,0,41.211L68.89,128.91c4.871,4.882,12.783,4.882,17.654,0
				c4.883-4.872,4.883-12.783,0-17.66l-8.822-8.832L57.107,81.812c-1.621-1.625-1.621-4.265,0-5.886
				C58.738,74.295,61.369,74.295,62.998,75.926z M51.199,85.972l29.464,29.46c1.621,1.629,1.621,4.26,0,5.891
				c-1.631,1.621-4.262,1.621-5.893,0L45.333,91.885c-8.123-8.132-8.123-21.314,0-29.442c8.133-8.128,21.314-8.128,29.437,0
				l11.773,11.778c1.631,1.621,1.631,4.261,0,5.886c-1.621,1.626-4.26,1.626-5.881,0l-11.8-11.795
				c-4.881-4.881-12.783-4.881-17.664,0C46.326,73.184,46.326,81.095,51.199,85.972z"/>
		</g>
	</g>
	<g>
		<g>
			<linearGradient id="SVGID_3_" gradientUnits="userSpaceOnUse" x1="9.2202" y1="89.4624" x2="135.0518" y2="89.4624">
				<stop  offset="0.1368" style="stop-color:#818181"/>
				<stop  offset="0.3316" style="stop-color:#ABABAB"/>
				<stop  offset="0.7" style="stop-color:#606060"/>
			</linearGradient>
			<path fill="url(#SVGID_3_)" d="M11.873,74.127c-0.33,0.783-0.57,1.721-0.704,2.81c-0.181,1.488-0.136,2.889,0.115,4.155
				c0.256,1.271,0.706,2.234,1.316,2.879c0.617,0.645,1.313,0.965,2.087,0.979c0.798,0.019,1.504-0.301,2.129-0.909
				c0.629-0.612,1.14-1.465,1.552-2.531c0.413-1.065,0.693-2.216,0.85-3.468c0.241-1.92,0.126-3.39-0.437-4.535
				c0.319,0.074,0.636,0.148,0.957,0.223c0.155-0.779,0.327-1.549,0.513-2.309c-3.453-0.993-6.909-1.986-10.357-2.977
				c-0.24,0.981-0.464,1.975-0.658,2.986c1.247,0.296,2.503,0.592,3.754,0.89C12.582,72.745,12.208,73.34,11.873,74.127z
				 M16.069,72.806c0.947,0.228,1.558,0.802,1.873,1.712c0.316,0.908,0.39,1.928,0.237,3.105c-0.154,1.169-0.496,2.171-1.057,3.023
				c-0.562,0.854-1.327,1.266-2.32,1.192c-1.021-0.079-1.747-0.59-2.154-1.554c-0.403-0.955-0.535-2.134-0.363-3.469
				c0.172-1.363,0.604-2.448,1.248-3.23C14.182,72.802,15.035,72.556,16.069,72.806z M17.445,67.159
				c1.202,0.423,2.32,0.106,3.386-0.816c1.067-0.927,1.966-2.318,2.811-4.158c0.672-1.461,1.084-2.709,1.199-3.83
				c0.121-1.123-0.037-2.055-0.513-2.824c-0.479,0.662-0.942,1.35-1.396,2.045c0.31,0.607,0.429,1.242,0.375,1.909
				c-0.062,0.678-0.273,1.401-0.64,2.198c-0.491,1.071-1.08,1.893-1.8,2.467c-0.714,0.58-1.479,0.775-2.314,0.538
				c1.29-3.56,2.899-6.862,4.777-9.886c-0.13-0.092-0.228-0.162-0.292-0.203c-1.091-0.709-2.271-0.742-3.534,0.009
				c-1.256,0.755-2.388,2.096-3.278,4.043c-0.918,2.008-1.232,3.886-1.015,5.476C15.43,65.725,16.204,66.727,17.445,67.159z
				 M17.219,59.104c0.56-1.224,1.283-2.078,2.113-2.545c0.543-0.311,1.128-0.338,1.753-0.102c-1.336,2.406-2.503,4.966-3.495,7.683
				c-0.604-0.335-0.951-0.979-1.021-1.929C16.5,61.27,16.709,60.217,17.219,59.104z M22.857,51.529
				c0.315,0.222,0.705,0.272,1.173,0.167c0.465-0.104,0.969-0.381,1.522-0.813c0.552-0.43,1.454-1.266,2.771-2.406
				c0.979-0.839,1.638-1.304,1.938-1.451c0.44-0.208,0.769-0.199,0.987,0.009c0.246,0.237,0.273,0.617,0.111,1.149
				c-0.163,0.535-0.589,1.174-1.266,1.953c-0.672,0.77-1.279,1.307-1.859,1.586c-0.579,0.283-1.111,0.324-1.614,0.102
				c-0.407,0.664-0.8,1.336-1.177,2.013c0.829,0.269,1.68,0.14,2.554-0.334c0.876-0.483,1.833-1.382,2.936-2.652
				c0.667-0.77,1.206-1.512,1.614-2.235c0.408-0.728,0.639-1.373,0.676-1.955c0.043-0.576-0.088-1.03-0.393-1.355
				c-0.313-0.334-0.71-0.481-1.193-0.454c-0.48,0.037-1.021,0.222-1.599,0.579c-0.58,0.357-1.549,1.044-2.856,2.166
				c-0.902,0.771-1.442,1.262-1.631,1.419c-0.34,0.273-0.624,0.445-0.857,0.52c-0.233,0.075-0.414,0.056-0.554-0.047
				c-0.212-0.167-0.258-0.511-0.115-1.021c0.144-0.514,0.574-1.225,1.321-2.096c0.635-0.741,1.228-1.215,1.753-1.446
				c0.528-0.222,0.979-0.231,1.345-0.028c0.505-0.613,1.024-1.206,1.557-1.79c-0.462-0.26-0.954-0.361-1.464-0.288
				c-0.506,0.07-1.143,0.353-1.878,0.863c-0.737,0.514-1.498,1.215-2.264,2.11c-0.51,0.593-0.932,1.2-1.27,1.803
				c-0.345,0.607-0.562,1.123-0.677,1.529c-0.154,0.548-0.196,1.03-0.126,1.457C22.389,51.008,22.569,51.325,22.857,51.529z
				 M32.273,36.612c-0.318-0.404-0.639-0.802-0.954-1.201c-0.689,0.519-1.372,1.062-2.044,1.618
				c0.334,0.385,0.672,0.774,1.005,1.164C30.934,37.651,31.599,37.125,32.273,36.612z M36.382,45.274
				c0.556-0.464,1.121-0.914,1.701-1.351c-1.637-2.054-3.269-4.107-4.9-6.166c-0.664,0.501-1.313,1.012-1.948,1.543
				C32.951,41.29,34.667,43.284,36.382,45.274z M40.625,40.725c1.265,0.116,2.625-0.264,4.164-1.084
				c1.236-0.668,2.133-1.47,2.707-2.477c0.392,0.771,0.589,1.299,0.613,1.586c0.022,0.479-0.148,0.937-0.511,1.382
				c-0.361,0.445-0.965,0.881-1.808,1.335c-0.788,0.417-1.457,0.663-2.037,0.719c-0.431,0.041-0.792-0.079-1.085-0.367
				c-0.621,0.306-1.238,0.625-1.85,0.956c0.468,0.714,1.196,0.982,2.184,0.853c0.994-0.126,2.087-0.542,3.348-1.215
				c1.057-0.566,1.896-1.141,2.523-1.749c0.62-0.612,1.016-1.209,1.164-1.826c0.151-0.612-0.009-1.475-0.501-2.592
				c-0.914-2.058-1.826-4.117-2.736-6.175c-0.705,0.282-1.404,0.583-2.101,0.89c0.141,0.289,0.277,0.565,0.411,0.848
				c-1.328-0.222-2.8,0.061-4.319,0.872c-1.145,0.607-2.031,1.332-2.653,2.11c-0.624,0.788-0.949,1.585-0.997,2.374
				c-0.041,0.793,0.173,1.489,0.608,2.096C38.395,40.15,39.359,40.613,40.625,40.725z M39.475,35.513
				c0.385-0.788,1.065-1.455,2.022-1.962c0.973-0.514,1.934-0.717,2.855-0.611c0.917,0.106,1.582,0.602,1.998,1.461
				c0.44,0.903,0.436,1.706,0.024,2.419c-0.413,0.714-1.063,1.289-1.953,1.763c-0.898,0.482-1.757,0.695-2.6,0.648
				c-0.841-0.051-1.556-0.491-2.124-1.354C39.174,37.089,39.089,36.301,39.475,35.513z M60.967,34.039
				c0.71-0.13,1.419-0.242,2.138-0.348c-0.26-1.571-0.511-3.144-0.766-4.715c-0.097-0.604-0.215-1.017-0.34-1.243
				c-0.203-0.353-0.504-0.63-0.914-0.843c-0.406-0.214-0.99-0.343-1.75-0.372c-0.762-0.028-1.582,0.046-2.444,0.241
				c-1.989,0.441-3.376,1.279-4.113,2.394c-0.115-0.354-0.232-0.706-0.347-1.054c-0.715,0.209-1.42,0.436-2.125,0.672
				c0.904,2.439,1.813,4.878,2.718,7.316c0.681-0.232,1.367-0.444,2.058-0.648c-0.436-1.35-0.876-2.699-1.316-4.048
				c-0.31-0.951-0.17-1.702,0.447-2.239c0.615-0.539,1.442-0.938,2.45-1.174c0.636-0.144,1.212-0.19,1.716-0.125
				c0.511,0.056,0.883,0.203,1.123,0.427c0.235,0.227,0.408,0.602,0.515,1.13C60.332,30.951,60.646,32.5,60.967,34.039z
				 M84.257,31.698c-0.715-0.209-1.438-0.404-2.164-0.581c-0.283,0.622-0.742,1.039-1.375,1.261
				c-0.629,0.223-1.367,0.283-2.229,0.185c-1.066-0.12-1.91-0.431-2.557-0.951c-0.635-0.514-0.939-1.288-0.875-2.332
				c0.061-1.021,0.477-1.753,1.275-2.175c0.797-0.422,1.822-0.57,3.051-0.431c0.811,0.093,1.479,0.32,2.004,0.664
				c0.521,0.346,0.844,0.793,0.963,1.344c0.775,0.06,1.549,0.139,2.318,0.227c-0.092-0.816-0.578-1.539-1.488-2.133
				c-0.91-0.583-2.164-1.001-3.756-1.187c-1.256-0.139-2.443-0.083-3.529,0.164c-1.09,0.245-1.895,0.69-2.428,1.303
				c-0.531,0.611-0.789,1.343-0.803,2.178c-0.021,1.298,0.52,2.296,1.566,3.033c1.049,0.742,2.412,1.173,4.146,1.372
				c1.381,0.158,2.578,0.088,3.629-0.24C83.062,33.074,83.817,32.518,84.257,31.698z M97.778,34.79
				c0.566-1.104,0.463-2.235-0.391-3.375c-0.848-1.131-2.244-2.077-4.148-2.727c-1.717-0.583-3.293-0.741-4.656-0.5
				c-1.637,0.288-2.605,1.178-2.953,2.569c-0.322,1.278,0,2.373,0.891,3.323c0.893,0.951,2.164,1.67,3.842,2.241
				c1.055,0.361,2.064,0.569,3.07,0.629c1.002,0.066,1.859-0.046,2.578-0.355C96.726,36.283,97.317,35.689,97.778,34.79z
				 M95.569,33.891c-0.426,0.927-1.088,1.473-1.969,1.665c-0.881,0.19-1.822,0.097-2.852-0.255
				c-1.039-0.353-1.826-0.849-2.385-1.526c-0.551-0.676-0.705-1.488-0.422-2.444c0.283-0.954,0.871-1.572,1.791-1.826
				c0.908-0.251,1.965-0.187,3.119,0.204c1.137,0.389,1.984,0.978,2.527,1.729S95.974,33.009,95.569,33.891z M102.372,36.913
				c0.535-0.853,1.211-1.252,2.045-1.164c0.836,0.088,1.697,0.417,2.561,0.997c0.537,0.367,0.953,0.756,1.248,1.169
				c0.291,0.407,0.428,0.778,0.41,1.103c-0.018,0.325-0.193,0.696-0.533,1.123c-0.992,1.252-1.984,2.504-2.975,3.756
				c0.574,0.436,1.139,0.881,1.695,1.346c1.057-1.225,2.111-2.448,3.166-3.673c0.406-0.473,0.65-0.826,0.742-1.072
				c0.141-0.385,0.154-0.792,0.049-1.233c-0.104-0.44-0.396-0.955-0.877-1.534c-0.488-0.575-1.094-1.124-1.824-1.624
				c-1.678-1.159-3.258-1.596-4.623-1.391c0.201-0.314,0.396-0.63,0.59-0.946c-0.641-0.37-1.287-0.732-1.947-1.075
				c-1.293,2.272-2.588,4.544-3.885,6.816c0.635,0.334,1.264,0.681,1.887,1.043C100.856,39.343,101.616,38.128,102.372,36.913z
				 M110.321,47.407c-0.049,0.301,0.031,0.662,0.225,1.08c0.201,0.421,0.57,0.918,1.109,1.506c0.328,0.367,0.723,0.752,1.188,1.174
				c0.23-0.334,0.459-0.673,0.689-1.011c-0.295-0.288-0.523-0.524-0.689-0.714c-0.223-0.246-0.371-0.455-0.443-0.631
				c-0.082-0.177-0.104-0.329-0.076-0.464c0.023-0.13,0.176-0.323,0.453-0.585c1.127-1.051,2.25-2.099,3.377-3.152
				c0.57,0.604,1.127,1.225,1.674,1.855c0.26-0.223,0.523-0.45,0.789-0.678c-0.559-0.641-1.123-1.27-1.697-1.887
				c0.67-0.626,1.346-1.257,2.016-1.878c-0.797-0.454-1.594-0.881-2.396-1.289c-0.459,0.464-0.918,0.927-1.379,1.391
				c-0.439-0.426-0.883-0.844-1.338-1.251c-0.238,0.25-0.475,0.504-0.707,0.759c0.443,0.399,0.883,0.812,1.313,1.23
				c-1.059,1.079-2.127,2.155-3.193,3.231C110.673,46.665,110.366,47.104,110.321,47.407z M116.548,49.581
				c-0.996,0.815-1.393,1.901-1.266,3.246c0.117,1.354,0.717,2.8,1.734,4.474c0.811,1.332,1.607,2.366,2.465,3.084
				c0.854,0.714,1.711,1.099,2.602,1.113c-0.297-0.799-0.611-1.586-0.941-2.366c-0.664-0.055-1.246-0.295-1.762-0.704
				c-0.518-0.407-0.988-0.973-1.428-1.706c-0.594-0.974-0.922-1.887-0.984-2.782c-0.059-0.899,0.219-1.642,0.863-2.23
				c2.064,2.833,3.877,5.94,5.383,9.315c0.145-0.064,0.256-0.111,0.326-0.148c1.164-0.561,1.816-1.596,1.873-3.125
				c0.051-1.511-0.439-3.227-1.518-4.994c-1.113-1.822-2.408-3.018-3.764-3.603C118.772,48.565,117.577,48.747,116.548,49.581z
				 M120.874,51.241c0.777,0.412,1.496,1.122,2.109,2.133c0.682,1.113,0.982,2.193,0.922,3.172c-0.037,0.639-0.328,1.164-0.857,1.58
				c-1.262-2.479-2.686-4.799-4.256-6.968C119.394,50.815,120.085,50.833,120.874,51.241z M125.312,65.309
				c0.072,0.765,0.301,2.096,0.574,4.057c0.199,1.456,0.246,2.397,0.209,2.787c-0.051,0.561-0.232,0.881-0.52,0.945
				c-0.326,0.084-0.666-0.148-1.025-0.649c-0.365-0.509-0.682-1.335-0.982-2.466c-0.301-1.122-0.438-2.018-0.367-2.722
				c0.07-0.706,0.316-1.22,0.76-1.544c-0.338-0.77-0.693-1.521-1.064-2.258c-0.658,0.598-0.998,1.428-1.057,2.508
				c-0.066,1.086,0.193,2.504,0.689,4.35c0.301,1.116,0.639,2.113,1.039,2.985c0.398,0.881,0.82,1.539,1.289,1.976
				c0.469,0.436,0.914,0.626,1.344,0.543c0.441-0.08,0.779-0.372,1.006-0.867c0.223-0.502,0.344-1.16,0.348-1.957
				c0-0.803-0.068-2.199-0.33-4.141c-0.178-1.341-0.313-2.134-0.346-2.406c-0.055-0.482-0.053-0.849,0.014-1.108
				c0.059-0.255,0.166-0.413,0.33-0.478c0.25-0.098,0.559,0.069,0.916,0.514c0.354,0.451,0.729,1.285,1.072,2.532
				c0.287,1.063,0.381,1.935,0.297,2.583c-0.078,0.658-0.305,1.095-0.672,1.316c0.25,0.891,0.482,1.799,0.689,2.723
				c0.463-0.279,0.803-0.691,1.01-1.238c0.205-0.552,0.299-1.354,0.252-2.401c-0.051-1.048-0.242-2.227-0.594-3.511
				c-0.234-0.848-0.523-1.619-0.857-2.305c-0.328-0.682-0.643-1.191-0.926-1.539c-0.377-0.473-0.762-0.798-1.152-0.982
				c-0.395-0.191-0.746-0.21-1.07-0.07c-0.354,0.153-0.602,0.474-0.76,0.955C125.274,63.922,125.237,64.538,125.312,65.309z
				 M126.669,79.636c-0.783,0.092-1.287,0.265-1.512,0.521c-0.227,0.248-0.389,0.656-0.5,1.223c-0.111,0.57-0.141,1.354-0.104,2.373
				c0.025,0.632,0.074,1.346,0.158,2.156c0.385-0.139,0.775-0.281,1.16-0.431c-0.043-0.528-0.068-0.954-0.08-1.279
				c-0.008-0.427,0.012-0.761,0.064-0.993c0.053-0.23,0.131-0.397,0.232-0.51c0.104-0.106,0.34-0.176,0.717-0.198
				c1.504-0.098,3.016-0.2,4.523-0.302c0.057,1.057,0.086,2.128,0.096,3.218c0.344-0.009,0.684-0.009,1.025-0.019
				c-0.014-1.104-0.045-2.189-0.102-3.265c0.904-0.061,1.803-0.12,2.703-0.176c-0.316-1.095-0.658-2.16-1.021-3.19
				c-0.633,0.074-1.273,0.149-1.91,0.223c-0.066-0.76-0.15-1.512-0.248-2.257c-0.334,0.05-0.674,0.106-1.012,0.156
				c0.094,0.733,0.176,1.471,0.246,2.222C129.628,79.284,128.147,79.459,126.669,79.636z M132.399,104.795
				c0.328-0.779,0.572-1.717,0.705-2.81c0.186-1.485,0.141-2.885-0.115-4.155c-0.256-1.27-0.705-2.235-1.318-2.875
				c-0.611-0.648-1.311-0.964-2.086-0.982c-0.793-0.015-1.498,0.307-2.127,0.914c-0.633,0.611-1.137,1.46-1.555,2.525
				c-0.414,1.071-0.689,2.217-0.842,3.469c-0.242,1.92-0.127,3.395,0.436,4.54c-0.322-0.079-0.641-0.153-0.961-0.228
				c-0.158,0.779-0.33,1.554-0.514,2.314c3.453,0.991,6.908,1.979,10.361,2.972c0.244-0.979,0.459-1.976,0.658-2.987
				c-1.252-0.295-2.502-0.588-3.756-0.884C131.696,106.18,132.071,105.583,132.399,104.795z M128.204,106.117
				c-0.939-0.228-1.557-0.802-1.873-1.71c-0.316-0.904-0.387-1.926-0.234-3.107c0.15-1.17,0.494-2.17,1.061-3.023
				c0.555-0.849,1.32-1.262,2.313-1.187c1.023,0.073,1.752,0.584,2.156,1.548c0.402,0.96,0.533,2.134,0.365,3.469
				c-0.178,1.367-0.602,2.448-1.252,3.236C130.091,106.125,129.243,106.368,128.204,106.117z M126.831,111.769
				c-1.205-0.422-2.322-0.112-3.385,0.815c-1.072,0.928-1.967,2.318-2.811,4.154c-0.672,1.467-1.084,2.713-1.205,3.836
				c-0.115,1.117,0.041,2.054,0.514,2.823c0.479-0.668,0.947-1.351,1.396-2.049c-0.305-0.604-0.432-1.239-0.371-1.911
				c0.055-0.672,0.273-1.4,0.641-2.198c0.494-1.065,1.076-1.892,1.795-2.467c0.719-0.574,1.482-0.77,2.313-0.537
				c-1.283,3.565-2.893,6.861-4.775,9.885c0.129,0.093,0.229,0.167,0.297,0.205c1.086,0.714,2.271,0.741,3.533-0.01
				c1.258-0.751,2.389-2.096,3.277-4.038c0.916-2.009,1.234-3.892,1.016-5.477C128.843,113.202,128.069,112.195,126.831,111.769z
				 M127.054,119.819c-0.561,1.224-1.279,2.077-2.115,2.549c-0.537,0.307-1.121,0.335-1.746,0.098
				c1.33-2.406,2.504-4.965,3.492-7.683c0.602,0.339,0.953,0.983,1.023,1.929C127.772,117.657,127.563,118.706,127.054,119.819z
				 M121.417,127.399c-0.316-0.223-0.705-0.273-1.17-0.172c-0.465,0.103-0.969,0.381-1.521,0.816
				c-0.557,0.427-1.455,1.267-2.771,2.402c-0.979,0.843-1.637,1.307-1.945,1.455c-0.439,0.204-0.768,0.2-0.986-0.009
				c-0.24-0.236-0.271-0.622-0.111-1.149c0.162-0.538,0.594-1.178,1.271-1.957c0.666-0.77,1.279-1.308,1.854-1.586
				c0.58-0.278,1.119-0.319,1.619-0.103c0.402-0.657,0.799-1.33,1.178-2.012c-0.834-0.265-1.684-0.14-2.559,0.339
				c-0.877,0.478-1.828,1.376-2.936,2.652c-0.67,0.769-1.207,1.507-1.615,2.234c-0.406,0.728-0.633,1.368-0.676,1.952
				c-0.037,0.58,0.088,1.033,0.395,1.358c0.316,0.329,0.713,0.481,1.197,0.45c0.482-0.038,1.014-0.224,1.594-0.576
				c0.584-0.361,1.553-1.048,2.861-2.159c0.904-0.78,1.438-1.271,1.629-1.428c0.336-0.271,0.619-0.446,0.855-0.517
				c0.232-0.073,0.418-0.06,0.553,0.047c0.217,0.167,0.26,0.506,0.115,1.02c-0.145,0.516-0.574,1.226-1.32,2.096
				c-0.635,0.738-1.225,1.212-1.752,1.443c-0.525,0.228-0.977,0.231-1.346,0.033c-0.506,0.606-1.025,1.199-1.559,1.784
				c0.467,0.264,0.955,0.361,1.465,0.293c0.51-0.07,1.141-0.353,1.879-0.868c0.736-0.511,1.502-1.209,2.268-2.105
				c0.504-0.593,0.926-1.2,1.27-1.808c0.34-0.603,0.561-1.117,0.672-1.53c0.158-0.542,0.195-1.029,0.129-1.456
				C121.884,127.914,121.702,127.603,121.417,127.399z M107.892,133.654c-0.559,0.464-1.125,0.908-1.697,1.346
				c1.631,2.059,3.264,4.112,4.9,6.171c0.658-0.501,1.307-1.016,1.945-1.545C111.327,137.632,109.604,135.643,107.892,133.654z
				 M112.001,142.316c0.316,0.398,0.639,0.797,0.957,1.2c0.691-0.523,1.373-1.062,2.041-1.617c-0.334-0.39-0.668-0.779-1.002-1.168
				C113.343,141.277,112.677,141.8,112.001,142.316z M103.651,138.198c-1.27-0.111-2.625,0.265-4.162,1.09
				c-1.244,0.663-2.135,1.471-2.709,2.477c-0.389-0.774-0.594-1.304-0.613-1.591c-0.021-0.473,0.148-0.932,0.508-1.377
				c0.361-0.45,0.963-0.882,1.813-1.331c0.783-0.426,1.455-0.668,2.035-0.723c0.426-0.047,0.787,0.073,1.082,0.361
				c0.625-0.307,1.242-0.622,1.852-0.955c-0.467-0.715-1.199-0.979-2.186-0.854c-0.988,0.13-2.088,0.548-3.344,1.22
				c-1.061,0.565-1.902,1.136-2.521,1.748c-0.623,0.607-1.018,1.21-1.17,1.822c-0.148,0.616,0.012,1.479,0.504,2.592
				c0.91,2.06,1.822,4.117,2.736,6.182c0.705-0.284,1.404-0.585,2.098-0.896c-0.135-0.278-0.273-0.565-0.414-0.845
				c1.33,0.223,2.801-0.06,4.324-0.871c1.143-0.612,2.029-1.331,2.652-2.115c0.629-0.787,0.951-1.585,0.994-2.373
				c0.041-0.788-0.168-1.483-0.607-2.096C105.884,138.778,104.915,138.314,103.651,138.198z M104.796,143.415
				c-0.383,0.788-1.059,1.451-2.016,1.96c-0.973,0.517-1.938,0.716-2.855,0.613c-0.924-0.106-1.58-0.604-2.002-1.465
				c-0.438-0.9-0.438-1.706-0.025-2.421c0.414-0.714,1.063-1.289,1.957-1.762c0.898-0.479,1.752-0.695,2.598-0.646
				c0.844,0.052,1.553,0.488,2.123,1.351C105.099,141.833,105.187,142.622,104.796,143.415z M89.19,143.489
				c0.441,1.349,0.881,2.694,1.32,4.049c0.311,0.944,0.168,1.696-0.447,2.234c-0.617,0.542-1.438,0.939-2.455,1.173
				c-0.635,0.147-1.203,0.189-1.713,0.13c-0.508-0.062-0.881-0.205-1.119-0.432c-0.242-0.224-0.412-0.603-0.52-1.127
				c-0.314-1.544-0.631-3.088-0.947-4.632c-0.707,0.13-1.42,0.25-2.135,0.353c0.252,1.567,0.51,3.144,0.764,4.711
				c0.1,0.603,0.207,1.02,0.34,1.242c0.199,0.353,0.504,0.631,0.91,0.844c0.404,0.215,0.99,0.344,1.756,0.371
				c0.76,0.032,1.576-0.047,2.438-0.235c1.988-0.44,3.375-1.284,4.113-2.394c0.119,0.348,0.236,0.7,0.348,1.053
				c0.713-0.214,1.424-0.436,2.127-0.676c-0.906-2.439-1.813-4.878-2.717-7.313C90.567,143.067,89.88,143.285,89.19,143.489z
				 M70.04,146.656c-1.047-0.742-2.408-1.169-4.146-1.368c-1.38-0.161-2.576-0.089-3.629,0.236
				c-1.053,0.324-1.803,0.881-2.249,1.707c0.718,0.203,1.442,0.397,2.169,0.574c0.279-0.616,0.738-1.033,1.369-1.262
				c0.63-0.222,1.367-0.277,2.229-0.18c1.072,0.126,1.916,0.431,2.555,0.945c0.641,0.52,0.942,1.294,0.881,2.333
				c-0.06,1.024-0.478,1.757-1.279,2.179c-0.792,0.417-1.821,0.57-3.046,0.428c-0.811-0.095-1.485-0.316-2.008-0.665
				c-0.52-0.342-0.844-0.793-0.965-1.34c-0.774-0.064-1.543-0.139-2.318-0.23c0.092,0.82,0.584,1.539,1.494,2.132
				c0.902,0.59,2.166,1.002,3.751,1.188c1.256,0.144,2.443,0.083,3.533-0.157c1.085-0.251,1.896-0.696,2.424-1.308
				c0.528-0.612,0.789-1.345,0.808-2.18C71.63,148.39,71.087,147.398,70.04,146.656z M53.911,142.603
				c-1.05-0.357-2.064-0.566-3.066-0.631c-1.006-0.064-1.863,0.047-2.579,0.356c-0.717,0.313-1.31,0.904-1.769,1.804
				c-0.567,1.104-0.465,2.24,0.39,3.376c0.847,1.132,2.242,2.077,4.154,2.731c1.715,0.584,3.287,0.737,4.653,0.496
				c1.638-0.288,2.606-1.178,2.955-2.569c0.32-1.279-0.005-2.373-0.896-3.319C56.864,143.892,55.592,143.178,53.911,142.603z
				 M56.33,147.592c-0.282,0.955-0.872,1.576-1.784,1.827c-0.913,0.25-1.967,0.185-3.121-0.205
				c-1.136-0.389-1.985-0.973-2.528-1.725c-0.546-0.751-0.598-1.576-0.193-2.452c0.426-0.933,1.094-1.479,1.971-1.664
				c0.885-0.191,1.821-0.104,2.852,0.249c1.043,0.353,1.826,0.854,2.383,1.53C56.465,145.826,56.618,146.637,56.33,147.592z
				 M41.901,142.009c-0.528,0.854-1.211,1.252-2.045,1.164s-1.697-0.413-2.556-0.997c-0.537-0.361-0.955-0.75-1.252-1.163
				c-0.291-0.413-0.425-0.78-0.413-1.104c0.019-0.324,0.2-0.701,0.539-1.128c0.992-1.252,1.984-2.504,2.976-3.756
				c-0.574-0.435-1.145-0.88-1.701-1.345c-1.054,1.225-2.11,2.448-3.162,3.678c-0.404,0.469-0.653,0.825-0.747,1.071
				c-0.134,0.381-0.152,0.788-0.046,1.233c0.107,0.436,0.396,0.955,0.881,1.529c0.483,0.58,1.091,1.127,1.819,1.628
				c1.677,1.154,3.259,1.595,4.62,1.387c-0.193,0.315-0.393,0.63-0.588,0.95c0.646,0.372,1.293,0.728,1.948,1.076
				c1.298-2.271,2.592-4.544,3.885-6.815c-0.634-0.335-1.266-0.683-1.887-1.045C43.417,139.585,42.66,140.794,41.901,142.009z
				 M33.953,131.521c0.052-0.307-0.027-0.668-0.227-1.085c-0.195-0.418-0.565-0.918-1.104-1.502c-0.33-0.362-0.729-0.751-1.19-1.178
				c-0.228,0.333-0.46,0.677-0.686,1.011c0.291,0.291,0.521,0.528,0.688,0.714c0.223,0.251,0.371,0.459,0.446,0.631
				c0.074,0.176,0.098,0.334,0.074,0.463c-0.028,0.13-0.181,0.33-0.459,0.59c-1.123,1.052-2.248,2.101-3.375,3.147
				c-0.57-0.602-1.127-1.224-1.67-1.854c-0.265,0.223-0.528,0.455-0.793,0.677c0.557,0.646,1.121,1.275,1.701,1.888
				c-0.672,0.626-1.344,1.256-2.017,1.882c0.792,0.45,1.591,0.881,2.397,1.284c0.459-0.463,0.913-0.927,1.371-1.391
				c0.443,0.427,0.887,0.844,1.342,1.257c0.234-0.255,0.472-0.505,0.708-0.76c-0.443-0.403-0.884-0.813-1.317-1.233
				c1.068-1.076,2.13-2.152,3.195-3.232C33.605,132.263,33.908,131.823,33.953,131.521z M27.725,129.342
				c0.997-0.815,1.393-1.901,1.271-3.245c-0.125-1.355-0.72-2.802-1.737-4.472c-0.808-1.334-1.609-2.363-2.464-3.082
				c-0.857-0.719-1.716-1.1-2.6-1.119c0.297,0.803,0.607,1.592,0.94,2.367c0.664,0.059,1.246,0.295,1.763,0.704
				c0.514,0.407,0.987,0.979,1.428,1.705c0.589,0.979,0.924,1.893,0.978,2.787c0.062,0.896-0.218,1.637-0.858,2.23
				c-2.065-2.833-3.876-5.936-5.386-9.315c-0.146,0.06-0.252,0.107-0.321,0.145c-1.168,0.565-1.82,1.6-1.872,3.125
				c-0.058,1.517,0.436,3.227,1.51,4.997c1.117,1.823,2.418,3.015,3.771,3.599C25.505,130.362,26.703,130.176,27.725,129.342z
				 M23.404,127.682c-0.783-0.408-1.497-1.122-2.114-2.133c-0.681-1.113-0.981-2.189-0.918-3.172
				c0.037-0.635,0.325-1.159,0.857-1.576c1.258,2.477,2.679,4.794,4.253,6.964C24.883,128.109,24.188,128.095,23.404,127.682z
				 M18.962,113.619c-0.07-0.766-0.303-2.101-0.57-4.058c-0.2-1.455-0.246-2.4-0.213-2.791c0.055-0.557,0.231-0.875,0.523-0.945
				c0.321-0.075,0.662,0.148,1.025,0.658c0.365,0.501,0.676,1.335,0.982,2.462c0.302,1.122,0.431,2.017,0.36,2.722
				c-0.063,0.705-0.315,1.215-0.755,1.539c0.339,0.77,0.696,1.521,1.062,2.264c0.659-0.599,1.002-1.428,1.063-2.514
				c0.058-1.085-0.201-2.499-0.696-4.349c-0.297-1.114-0.641-2.11-1.038-2.987c-0.398-0.876-0.82-1.538-1.29-1.975
				c-0.463-0.436-0.914-0.62-1.345-0.538c-0.438,0.085-0.778,0.37-1.001,0.868c-0.222,0.496-0.35,1.154-0.35,1.956
				c-0.003,0.802,0.07,2.198,0.331,4.14c0.176,1.336,0.315,2.133,0.348,2.408c0.05,0.477,0.045,0.848-0.014,1.106
				c-0.06,0.255-0.173,0.413-0.334,0.474c-0.251,0.103-0.558-0.064-0.913-0.51c-0.357-0.449-0.728-1.285-1.072-2.531
				c-0.292-1.066-0.38-1.938-0.302-2.588c0.085-0.654,0.313-1.094,0.672-1.311c-0.244-0.896-0.477-1.805-0.689-2.724
				c-0.463,0.278-0.802,0.691-1.006,1.237c-0.209,0.547-0.301,1.355-0.25,2.403c0.047,1.043,0.235,2.226,0.593,3.509
				c0.236,0.85,0.523,1.614,0.854,2.301c0.329,0.687,0.644,1.195,0.933,1.544c0.37,0.468,0.759,0.793,1.149,0.983
				c0.389,0.189,0.747,0.209,1.065,0.068c0.352-0.156,0.604-0.472,0.762-0.955C19.005,115.004,19.037,114.384,18.962,113.619z
				 M17.609,99.292c0.783-0.094,1.283-0.264,1.512-0.52c0.223-0.255,0.389-0.664,0.501-1.229c0.11-0.565,0.134-1.349,0.102-2.373
				c-0.024-0.631-0.08-1.345-0.158-2.151c-0.389,0.139-0.774,0.277-1.158,0.426c0.037,0.533,0.063,0.961,0.073,1.279
				c0.009,0.432-0.01,0.762-0.061,0.994c-0.056,0.23-0.131,0.402-0.23,0.51c-0.104,0.111-0.344,0.176-0.715,0.203
				c-1.512,0.098-3.018,0.195-4.53,0.297c-0.051-1.057-0.084-2.128-0.099-3.213c-0.337,0.004-0.681,0.01-1.019,0.014
				c0.01,1.104,0.041,2.193,0.098,3.264c-0.9,0.066-1.806,0.121-2.704,0.182c0.321,1.094,0.663,2.156,1.02,3.189
				c0.641-0.074,1.276-0.152,1.91-0.227c0.076,0.761,0.158,1.516,0.252,2.263c0.338-0.056,0.676-0.106,1.009-0.157
				c-0.092-0.732-0.17-1.475-0.24-2.227C14.65,99.638,16.129,99.467,17.609,99.292z"/>
		</g>
	</g>
</g>
</svg>
