<?xml version="1.0" encoding="UTF-8" standalone="no"?>
<!-- Generator: Adobe Illustrator 16.0.0, SVG Export Plug-In . SVG Version: 6.00 Build 0)  -->

<svg
   xmlns:dc="http://purl.org/dc/elements/1.1/"
   xmlns:cc="http://creativecommons.org/ns#"
   xmlns:rdf="http://www.w3.org/1999/02/22-rdf-syntax-ns#"
   xmlns:svg="http://www.w3.org/2000/svg"
   xmlns="http://www.w3.org/2000/svg"
   xmlns:sodipodi="http://sodipodi.sourceforge.net/DTD/sodipodi-0.dtd"
   xmlns:inkscape="http://www.inkscape.org/namespaces/inkscape"
   version="1.1"
   id="Layer_1"
   x="0px"
   y="0px"
   width="159.74039"
   height="9.8954086"
   viewBox="0 0 159.74039 9.8954086"
   enable-background="new 0 0 113 6.999"
   xml:space="preserve"
   inkscape:version="0.91 r13725"
   sodipodi:docname="slider-rating-blue-mobile.svg"><metadata
     id="metadata13"><rdf:RDF><cc:Work
         rdf:about=""><dc:format>image/svg+xml</dc:format><dc:type
           rdf:resource="http://purl.org/dc/dcmitype/StillImage" /><dc:title></dc:title></cc:Work></rdf:RDF></metadata><defs
     id="defs11" /><sodipodi:namedview
     pagecolor="#ffffff"
     bordercolor="#666666"
     borderopacity="1"
     objecttolerance="10"
     gridtolerance="10"
     guidetolerance="10"
     inkscape:pageopacity="0"
     inkscape:pageshadow="2"
     inkscape:window-width="1920"
     inkscape:window-height="1016"
     id="namedview9"
     showgrid="false"
     fit-margin-top="0"
     fit-margin-left="0"
     fit-margin-right="0"
     fit-margin-bottom="0"
     inkscape:zoom="6.4070796"
     inkscape:cx="70.102003"
     inkscape:cy="0.18897651"
     inkscape:window-x="-8"
     inkscape:window-y="-8"
     inkscape:window-maximized="1"
     inkscape:current-layer="g5" /><g
     id="g3"
     transform="matrix(1.4138318,0,0,1.4138318,-0.01979365,0)"><g
       id="g5"><path
         d="m 109.504,0 c -1.394,0 -2.588,0.821 -3.15,2 L 91.657,2 C 91.094,0.821 89.9,0 88.507,0 87.112,0 85.918,0.821 85.356,2 L 70.659,2 C 70.096,0.821 68.901,0 67.508,0 66.112,0 64.919,0.821 64.357,2 L 50.66,2 C 50.097,0.821 48.903,0 47.509,0 46.114,0 44.921,0.821 44.359,2 L 28.662,2 C 28.099,0.821 26.905,0 25.511,0 24.118,0 22.924,0.821 22.361,2 L 6.664,2 C 6.101,0.821 4.907,0 3.514,0 c -1.933,0 -3.5,1.567 -3.5,3.499 0,1.934 1.567,3.5 3.5,3.5 1.393,0 2.587,-0.821 3.15,-2 l 15.696,0 c 0.563,1.179 1.757,2 3.15,2 1.394,0 2.587,-0.821 3.151,-2 l 15.697,0 c 0.563,1.179 1.755,2 3.15,2 1.394,0 2.587,-0.821 3.15,-2 l 13.698,0 c 0.562,1.179 1.755,2 3.15,2 1.394,0 2.588,-0.821 3.151,-2 l 14.696,0 c 0.563,1.179 1.757,2 3.151,2 1.394,0 2.587,-0.821 3.15,-2 l 14.696,0 c 0.563,1.179 1.757,2 3.15,2 1.934,0 3.498,-1.566 3.498,-3.5 C 113.002,1.567 111.438,0 109.504,0 Z"
         id="path7"
         inkscape:connector-curvature="0"
         style="clip-rule:evenodd;fill:#2d859f;fill-rule:evenodd;fill-opacity:1" /></g></g></svg>