<?xml version="1.0" encoding="utf-8"?>
<!-- Generator: Adobe Illustrator 16.0.0, SVG Export Plug-In . SVG Version: 6.00 Build 0)  -->
<!DOCTYPE svg PUBLIC "-//W3C//DTD SVG 1.1//EN" "http://www.w3.org/Graphics/SVG/1.1/DTD/svg11.dtd">
<svg version="1.1" id="Layer_1" xmlns="http://www.w3.org/2000/svg" xmlns:xlink="http://www.w3.org/1999/xlink" x="0px" y="0px"
	 width="113px" height="6.999px" viewBox="0 0 113 6.999" enable-background="new 0 0 113 6.999" xml:space="preserve">
<g>
	<g>
		<path fill-rule="evenodd" clip-rule="evenodd" fill="#BBBBBB" d="M109.504,0c-1.394,0-2.588,0.821-3.15,2H91.657
			c-0.563-1.179-1.757-2-3.15-2c-1.395,0-2.589,0.821-3.151,2H70.659c-0.563-1.179-1.758-2-3.151-2c-1.396,0-2.589,0.821-3.151,2
			H50.66c-0.563-1.179-1.757-2-3.151-2c-1.395,0-2.588,0.821-3.15,2H28.662c-0.563-1.179-1.757-2-3.151-2
			c-1.393,0-2.587,0.821-3.15,2H6.664c-0.563-1.179-1.757-2-3.15-2c-1.933,0-3.5,1.567-3.5,3.499c0,1.934,1.567,3.5,3.5,3.5
			c1.393,0,2.587-0.821,3.15-2H22.36c0.563,1.179,1.757,2,3.15,2c1.394,0,2.587-0.821,3.151-2h15.697c0.563,1.179,1.755,2,3.15,2
			c1.394,0,2.587-0.821,3.15-2h13.698c0.562,1.179,1.755,2,3.15,2c1.394,0,2.588-0.821,3.151-2h14.696c0.563,1.179,1.757,2,3.151,2
			c1.394,0,2.587-0.821,3.15-2h14.696c0.563,1.179,1.757,2,3.15,2c1.934,0,3.498-1.566,3.498-3.5C113.002,1.567,111.438,0,109.504,0
			z"/>
	</g>
</g>
</svg>
