<?xml version="1.0" encoding="utf-8"?>
<!-- Generator: Adobe Illustrator 16.0.0, SVG Export Plug-In . SVG Version: 6.00 Build 0)  -->
<!DOCTYPE svg PUBLIC "-//W3C//DTD SVG 1.1//EN" "http://www.w3.org/Graphics/SVG/1.1/DTD/svg11.dtd">
<svg version="1.1" id="Layer_1" xmlns="http://www.w3.org/2000/svg" xmlns:xlink="http://www.w3.org/1999/xlink" x="0px" y="0px"
	 width="97px" height="35px" viewBox="0 0 97 35" enable-background="new 0 0 97 35" xml:space="preserve">
<path fill="#1342bf" d="M3.787,15.281c-0.105,0-0.21-0.033-0.3-0.097c-0.157-0.116-0.235-0.307-0.203-0.5l0.825-4.795L0.626,6.494
	c-0.141-0.136-0.189-0.337-0.13-0.521c0.061-0.185,0.221-0.318,0.413-0.347l4.813-0.701l2.155-4.358
	C7.963,0.392,8.14,0.282,8.333,0.282l0,0c0.195,0,0.371,0.11,0.458,0.284l2.151,4.358l4.813,0.701
	c0.191,0.029,0.351,0.162,0.41,0.347c0.061,0.185,0.011,0.386-0.128,0.521l-3.485,3.394l0.826,4.797
	c0.032,0.191-0.047,0.383-0.203,0.499c-0.157,0.113-0.366,0.128-0.538,0.039l-4.304-2.264l-4.31,2.264
	C3.951,15.262,3.869,15.281,3.787,15.281z"/>
<path fill="#1342bf" d="M3.657,34.719c-0.106,0-0.215-0.032-0.304-0.099c-0.16-0.117-0.24-0.312-0.208-0.509l0.841-4.887
	l-3.55-3.459c-0.143-0.139-0.192-0.347-0.132-0.534c0.062-0.187,0.225-0.323,0.42-0.352l4.906-0.715l2.196-4.441
	c0.089-0.177,0.268-0.291,0.466-0.291l0,0c0.198,0,0.377,0.114,0.466,0.291l2.191,4.441l4.906,0.715
	c0.196,0.028,0.359,0.165,0.419,0.352c0.061,0.188,0.01,0.396-0.131,0.534l-3.553,3.457l0.842,4.889
	c0.031,0.195-0.048,0.392-0.207,0.509c-0.16,0.115-0.373,0.131-0.547,0.04l-4.387-2.31L3.9,34.66
	C3.825,34.702,3.742,34.719,3.657,34.719z M1.915,25.756l2.992,2.914c0.122,0.121,0.178,0.292,0.148,0.462l-0.707,4.119l3.701-1.944
	c0.15-0.079,0.33-0.079,0.483,0l3.696,1.944l-0.707-4.119c-0.029-0.168,0.026-0.341,0.15-0.462l2.993-2.914l-4.135-0.602
	c-0.168-0.024-0.314-0.133-0.391-0.285l-1.848-3.743l-1.85,3.743c-0.075,0.152-0.223,0.261-0.39,0.285L1.915,25.756z"/>
<path fill="#1342bf" d="M24.114,15.281c-0.105,0-0.21-0.033-0.3-0.097c-0.156-0.116-0.235-0.307-0.202-0.5l0.824-4.795l-3.483-3.396
	c-0.14-0.136-0.188-0.337-0.129-0.521c0.061-0.185,0.221-0.318,0.412-0.347l4.813-0.701l2.155-4.358
	c0.087-0.174,0.264-0.284,0.457-0.284l0,0c0.194,0,0.371,0.11,0.458,0.284l2.151,4.358l4.814,0.701
	c0.19,0.029,0.35,0.162,0.409,0.347c0.06,0.185,0.012,0.386-0.127,0.521l-3.485,3.394l0.825,4.797
	c0.033,0.191-0.046,0.383-0.202,0.499c-0.156,0.113-0.365,0.128-0.538,0.039l-4.304-2.264l-4.309,2.264
	C24.277,15.262,24.196,15.281,24.114,15.281z"/>
<path fill="#1342bf" d="M23.69,34.719c-0.107,0-0.216-0.032-0.305-0.099c-0.16-0.117-0.239-0.312-0.207-0.509l0.84-4.887
	l-3.551-3.459c-0.142-0.139-0.191-0.347-0.131-0.534c0.062-0.187,0.225-0.323,0.42-0.352l4.905-0.715l2.196-4.441
	c0.089-0.177,0.268-0.291,0.466-0.291l0,0c0.197,0,0.377,0.114,0.465,0.291l2.192,4.441l4.906,0.715
	c0.197,0.028,0.359,0.165,0.419,0.352c0.061,0.188,0.011,0.396-0.131,0.534l-3.552,3.457l0.842,4.889
	c0.031,0.195-0.048,0.392-0.208,0.509c-0.159,0.115-0.373,0.131-0.547,0.04l-4.387-2.31l-4.391,2.31
	C23.856,34.702,23.774,34.719,23.69,34.719z M21.947,25.756l2.992,2.914c0.122,0.121,0.178,0.292,0.149,0.462l-0.707,4.119
	l3.701-1.944c0.151-0.079,0.33-0.079,0.484,0l3.695,1.944l-0.707-4.119c-0.029-0.168,0.026-0.341,0.15-0.462l2.993-2.914
	l-4.134-0.602c-0.169-0.024-0.315-0.133-0.391-0.285l-1.848-3.743l-1.85,3.743c-0.074,0.152-0.222,0.261-0.39,0.285L21.947,25.756z"
	/>
<path fill="#1342bf" d="M43.723,34.719c-0.107,0-0.216-0.032-0.305-0.099c-0.16-0.117-0.24-0.312-0.208-0.509l0.841-4.887
	L40.5,25.766c-0.142-0.139-0.191-0.347-0.132-0.534c0.063-0.187,0.225-0.323,0.42-0.352l4.906-0.715l2.196-4.442
	c0.089-0.176,0.267-0.29,0.465-0.29l0,0c0.196,0,0.376,0.114,0.465,0.29l2.192,4.442l4.906,0.715
	c0.194,0.028,0.357,0.165,0.418,0.352c0.061,0.188,0.011,0.396-0.133,0.534l-3.55,3.457l0.842,4.889
	c0.03,0.195-0.05,0.392-0.208,0.509c-0.159,0.115-0.373,0.131-0.547,0.04l-4.388-2.31l-4.391,2.31
	C43.889,34.702,43.806,34.719,43.723,34.719z M41.979,25.756l2.992,2.914c0.122,0.121,0.179,0.292,0.149,0.462l-0.707,4.119
	l3.701-1.944c0.151-0.079,0.331-0.079,0.484,0l3.695,1.944l-0.707-4.119c-0.028-0.168,0.026-0.341,0.149-0.462l2.992-2.914
	l-4.135-0.602c-0.168-0.024-0.314-0.133-0.39-0.285l-1.85-3.743l-1.849,3.743c-0.075,0.152-0.222,0.261-0.39,0.285L41.979,25.756z"
	/>
<path fill="#1342bf" d="M64.048,34.719c-0.106,0-0.216-0.032-0.305-0.099c-0.159-0.117-0.24-0.312-0.206-0.509l0.84-4.887
	l-3.552-3.459c-0.141-0.139-0.191-0.347-0.131-0.534c0.063-0.187,0.225-0.323,0.42-0.352l4.906-0.715l2.195-4.442
	c0.089-0.176,0.267-0.29,0.466-0.29l0,0c0.196,0,0.378,0.114,0.465,0.29l2.192,4.442l4.906,0.715
	c0.194,0.028,0.357,0.165,0.418,0.352c0.061,0.188,0.011,0.396-0.131,0.534l-3.552,3.457l0.842,4.889
	c0.032,0.195-0.048,0.392-0.208,0.509c-0.159,0.115-0.371,0.131-0.545,0.04l-4.388-2.31l-4.392,2.31
	C64.214,34.702,64.131,34.719,64.048,34.719z M62.304,25.756l2.994,2.914c0.121,0.121,0.178,0.292,0.147,0.462l-0.707,4.119
	l3.701-1.944c0.151-0.079,0.331-0.079,0.484,0l3.695,1.944l-0.707-4.119c-0.028-0.168,0.026-0.341,0.149-0.462l2.994-2.914
	l-4.135-0.602c-0.17-0.024-0.316-0.133-0.392-0.285l-1.848-3.743l-1.85,3.743c-0.076,0.152-0.224,0.261-0.392,0.285L62.304,25.756z"
	/>
<path fill="#1342bf" d="M84.081,34.719c-0.108,0-0.216-0.032-0.305-0.099c-0.161-0.117-0.24-0.312-0.208-0.509l0.84-4.887
	l-3.551-3.459c-0.142-0.139-0.19-0.347-0.132-0.534c0.063-0.187,0.225-0.323,0.422-0.352l4.904-0.715l2.195-4.442
	c0.089-0.176,0.269-0.29,0.466-0.29l0,0c0.198,0,0.378,0.114,0.465,0.29l2.192,4.442l4.906,0.715
	c0.196,0.028,0.359,0.165,0.42,0.352c0.061,0.188,0.009,0.396-0.131,0.534l-3.552,3.457l0.84,4.889
	c0.032,0.195-0.048,0.392-0.206,0.509c-0.159,0.115-0.373,0.131-0.547,0.04l-4.388-2.31l-4.392,2.31
	C84.247,34.702,84.164,34.719,84.081,34.719z M82.337,25.756l2.992,2.914c0.121,0.121,0.178,0.292,0.147,0.462l-0.705,4.119
	l3.701-1.944c0.149-0.079,0.329-0.079,0.482,0l3.695,1.944l-0.705-4.119c-0.03-0.168,0.024-0.341,0.149-0.462l2.992-2.914
	l-4.135-0.602c-0.169-0.024-0.316-0.133-0.39-0.285l-1.85-3.743l-1.85,3.743c-0.074,0.152-0.222,0.261-0.39,0.285L82.337,25.756z"/>
<path fill="#1342bf" d="M43.851,15.281c-0.105,0-0.209-0.033-0.3-0.097c-0.157-0.116-0.235-0.307-0.203-0.5l0.823-4.795
	l-3.482-3.395c-0.139-0.136-0.188-0.337-0.129-0.521c0.061-0.186,0.22-0.318,0.413-0.347l4.813-0.701l2.154-4.358
	c0.089-0.174,0.265-0.285,0.458-0.285l0,0c0.195,0,0.371,0.11,0.458,0.284l2.15,4.358l4.813,0.701
	c0.191,0.029,0.352,0.162,0.41,0.347c0.061,0.185,0.012,0.386-0.128,0.521l-3.484,3.394l0.825,4.797
	c0.032,0.191-0.048,0.383-0.203,0.499c-0.156,0.113-0.364,0.128-0.537,0.039l-4.305-2.264l-4.309,2.264
	C44.015,15.262,43.933,15.281,43.851,15.281z"/>
<path fill="#1342bf" d="M63.883,15.281c-0.105,0-0.21-0.033-0.301-0.097c-0.154-0.116-0.234-0.307-0.202-0.5l0.825-4.795
	l-3.484-3.395c-0.14-0.136-0.189-0.337-0.129-0.521c0.061-0.186,0.222-0.318,0.413-0.347l4.813-0.701l2.154-4.358
	c0.087-0.174,0.263-0.285,0.455-0.285l0,0c0.195,0,0.373,0.11,0.458,0.284l2.152,4.358l4.812,0.701
	c0.193,0.029,0.352,0.162,0.412,0.347c0.059,0.185,0.01,0.386-0.128,0.521l-3.486,3.394l0.825,4.797
	c0.031,0.191-0.046,0.383-0.203,0.499c-0.154,0.113-0.364,0.128-0.537,0.039l-4.305-2.264l-4.309,2.264
	C64.046,15.262,63.965,15.281,63.883,15.281z"/>
<path fill="#1342bf" d="M83.914,15.281c-0.105,0-0.21-0.033-0.299-0.097c-0.156-0.116-0.236-0.307-0.204-0.5l0.824-4.795
	l-3.483-3.395c-0.138-0.136-0.188-0.337-0.129-0.521c0.061-0.186,0.222-0.318,0.413-0.347l4.813-0.701l2.153-4.358
	c0.088-0.174,0.264-0.285,0.458-0.285l0,0c0.193,0,0.371,0.11,0.456,0.284l2.152,4.358l4.813,0.701
	c0.19,0.029,0.352,0.162,0.41,0.347c0.061,0.185,0.012,0.386-0.129,0.521l-3.483,3.394l0.822,4.797
	c0.034,0.191-0.045,0.383-0.2,0.499c-0.157,0.113-0.367,0.128-0.537,0.039l-4.305-2.264l-4.311,2.264
	C84.077,15.262,83.997,15.281,83.914,15.281z"/>
</svg>
