<svg xmlns="http://www.w3.org/2000/svg" width="40" height="31" viewBox="0 0 31 31">
    <g fill="none" fill-rule="evenodd">
        <path fill="#00C2F2" d="M14.422 31.437L32.63 11.112c.17-.146.329-.305.474-.475.089-.088.155-.176.232-.265.95-1.251 1.106-2.934.403-4.339-.702-1.405-2.142-2.29-3.713-2.281-1.254.001-2.442.559-3.244 1.522L13.727 19.763 9.467 16c-1.72-1.516-4.343-1.359-5.87.353-.732.819-1.106 1.896-1.04 2.992.066 1.097.568 2.12 1.393 2.845l10.472 9.247z" transform="translate(0 -1)"/>
        <path fill="#00C2F2" d="M20.292 4.16C15.277-.313 7.585.127 3.112 5.142c-4.473 5.016-4.034 12.708.982 17.18.831.724 1.912 1.096 3.012 1.038 1.669-.103 3.112-1.198 3.662-2.777.55-1.579.098-3.333-1.146-4.45-1.482-1.375-1.658-3.657-.405-5.243 1.253-1.585 3.515-1.94 5.194-.816l.143.1c.287.21.96.695 1.27.86 1.66.736 3.604.322 4.822-1.026.732-.82 1.107-1.9 1.04-2.997-.065-1.098-.567-2.125-1.394-2.851" transform="translate(0 -1)"/>
      
    </g>
</svg>
