<svg xmlns="http://www.w3.org/2000/svg" width="16" height="16" viewBox="0 0 16 16">
    <path fill="#1342BF" fill-rule="evenodd" d="M7.133.538C7.253.3 7.427.14 7.656.06c.23-.08.459-.08.688 0 .23.08.404.239.523.478l1.944 3.947 4.366.628c.259.04.463.16.613.36.15.199.219.418.21.657-.01.24-.106.449-.285.628l-3.17 3.08.748 4.366c.04.24-.005.463-.135.673-.13.21-.314.344-.553.403-.24.06-.468.03-.688-.09L8 13.158l-3.917 2.034c-.22.12-.449.15-.688.09-.24-.06-.424-.195-.553-.404-.13-.21-.175-.434-.135-.673l.748-4.366-3.17-3.08c-.18-.18-.274-.389-.284-.628-.01-.24.06-.458.21-.658.149-.2.353-.319.612-.359l4.366-.628L7.133.538z"/>
</svg>
