<?xml version="1.0" encoding="utf-8"?>
<!-- Generator: Adobe Illustrator 16.0.0, SVG Export Plug-In . SVG Version: 6.00 Build 0)  -->
<!DOCTYPE svg PUBLIC "-//W3C//DTD SVG 1.1//EN" "http://www.w3.org/Graphics/SVG/1.1/DTD/svg11.dtd">
<svg version="1.1" id="Layer_1" xmlns="http://www.w3.org/2000/svg" xmlns:xlink="http://www.w3.org/1999/xlink" x="0px" y="0px"
	 width="121.701px" height="38.973px" viewBox="0 0 121.701 38.973" enable-background="new 0 0 121.701 38.973"
	 xml:space="preserve">
<path fill="#ffe841" d="M5.129,38.973c-0.133,0-0.265-0.041-0.378-0.118c-0.198-0.143-0.295-0.376-0.256-0.611l1.04-5.86
	l-4.388-4.146C0.97,28.07,0.909,27.824,0.983,27.6c0.077-0.227,0.279-0.388,0.521-0.424l6.064-0.857l2.714-5.324
	c0.109-0.214,0.332-0.349,0.574-0.349l0,0c0.246,0,0.468,0.134,0.578,0.347l2.709,5.325l6.063,0.857
	c0.242,0.034,0.443,0.197,0.517,0.425c0.078,0.225,0.015,0.471-0.161,0.635l-4.39,4.148l1.041,5.86
	c0.041,0.234-0.058,0.468-0.255,0.609c-0.2,0.139-0.462,0.156-0.679,0.047l-5.424-2.766l-5.429,2.766
	C5.335,38.949,5.232,38.973,5.129,38.973z"/>
<path fill="#ffe841" d="M4.256,18.678c-0.135,0-0.272-0.038-0.385-0.121c-0.2-0.144-0.302-0.382-0.261-0.623l1.059-5.97L0.198,7.738
	c-0.18-0.169-0.242-0.425-0.167-0.652c0.079-0.228,0.282-0.394,0.529-0.43l6.18-0.874l2.766-5.427C9.62,0.139,9.846,0,10.095,0l0,0
	c0.249,0,0.475,0.139,0.587,0.355l2.761,5.426l6.18,0.874c0.247,0.035,0.452,0.202,0.527,0.431c0.078,0.229,0.014,0.484-0.164,0.653
	l-4.477,4.224l1.062,5.973c0.039,0.239-0.062,0.479-0.261,0.621c-0.202,0.14-0.47,0.16-0.688,0.049l-5.528-2.822l-5.532,2.822
	C4.467,18.66,4.362,18.678,4.256,18.678z M2.06,7.728l3.771,3.561c0.152,0.148,0.224,0.356,0.186,0.564l-0.89,5.033l4.662-2.376
	c0.188-0.096,0.416-0.096,0.609,0l4.656,2.376l-0.892-5.033c-0.037-0.205,0.033-0.416,0.189-0.564l3.771-3.561l-5.211-0.736
	c-0.211-0.03-0.395-0.161-0.491-0.349L10.092,2.07L7.761,6.643C7.667,6.83,7.48,6.962,7.269,6.992L2.06,7.728z"/>
<path fill="#ffe841" d="M30.737,38.973c-0.131,0-0.264-0.041-0.376-0.118c-0.197-0.143-0.298-0.376-0.256-0.611l1.039-5.86
	l-4.388-4.148c-0.176-0.166-0.237-0.411-0.162-0.635c0.077-0.228,0.278-0.391,0.519-0.425l6.063-0.857l2.715-5.325
	c0.11-0.212,0.333-0.347,0.577-0.347l0,0c0.244,0,0.467,0.134,0.578,0.347l2.709,5.325l6.064,0.857
	c0.24,0.034,0.441,0.197,0.516,0.425c0.076,0.225,0.015,0.471-0.16,0.635l-4.391,4.148l1.039,5.86
	c0.042,0.234-0.059,0.468-0.254,0.609c-0.197,0.139-0.46,0.156-0.679,0.047l-5.422-2.766l-5.429,2.766
	C30.943,38.949,30.84,38.973,30.737,38.973z"/>
<path fill="#ffe841" d="M29.493,18.678c-0.135,0-0.273-0.038-0.384-0.121c-0.202-0.144-0.301-0.382-0.261-0.623l1.059-5.97
	l-4.474-4.227c-0.179-0.169-0.24-0.425-0.166-0.652c0.078-0.228,0.285-0.394,0.53-0.43l6.18-0.874l2.765-5.427
	C34.855,0.139,35.081,0,35.331,0l0,0c0.247,0,0.475,0.139,0.585,0.355l2.761,5.426l6.182,0.874c0.248,0.035,0.451,0.202,0.528,0.431
	c0.076,0.229,0.013,0.484-0.166,0.653l-4.476,4.224l1.061,5.973c0.04,0.239-0.061,0.479-0.261,0.621
	c-0.201,0.14-0.47,0.16-0.689,0.049l-5.527-2.822l-5.532,2.822C29.703,18.66,29.599,18.678,29.493,18.678z M27.297,7.728
	l3.769,3.561c0.154,0.148,0.226,0.356,0.188,0.564l-0.89,5.033l4.663-2.376c0.19-0.096,0.416-0.096,0.61,0l4.656,2.376l-0.891-5.033
	c-0.038-0.205,0.033-0.416,0.188-0.564l3.771-3.561l-5.208-0.736c-0.213-0.03-0.397-0.161-0.493-0.349L35.332,2.07L33,6.643
	c-0.093,0.187-0.28,0.319-0.492,0.349L27.297,7.728z"/>
<path fill="#ffe841" d="M54.732,18.678c-0.133,0-0.272-0.038-0.385-0.121c-0.2-0.144-0.301-0.382-0.262-0.623l1.06-5.97
	l-4.474-4.227c-0.179-0.169-0.239-0.424-0.165-0.649c0.079-0.23,0.282-0.396,0.528-0.432l6.18-0.874l2.768-5.428
	c0.112-0.214,0.337-0.352,0.587-0.352l0,0c0.245,0,0.473,0.138,0.584,0.352l2.763,5.428l6.181,0.874
	c0.243,0.035,0.449,0.202,0.526,0.432c0.075,0.228,0.015,0.482-0.168,0.649l-4.473,4.225l1.061,5.972
	c0.04,0.241-0.063,0.481-0.263,0.625c-0.198,0.141-0.469,0.16-0.687,0.049l-5.529-2.822l-5.533,2.822
	C54.941,18.66,54.837,18.678,54.732,18.678z M52.535,7.728l3.77,3.561c0.154,0.148,0.226,0.356,0.189,0.564l-0.892,5.033
	l4.663-2.376c0.191-0.096,0.418-0.096,0.61,0l4.655,2.376l-0.891-5.033c-0.035-0.205,0.032-0.416,0.188-0.564l3.768-3.561
	l-5.21-0.736c-0.211-0.03-0.395-0.161-0.49-0.349l-2.33-4.572l-2.33,4.572c-0.094,0.187-0.279,0.319-0.491,0.349L52.535,7.728z"/>
<path fill="#ffe841" d="M80.338,18.678c-0.136,0-0.274-0.038-0.385-0.121c-0.199-0.144-0.304-0.382-0.259-0.623l1.057-5.97
	l-4.475-4.227c-0.177-0.169-0.24-0.425-0.166-0.652c0.082-0.228,0.285-0.394,0.531-0.43l6.181-0.874l2.765-5.427
	C85.701,0.139,85.924,0,86.176,0l0,0c0.245,0,0.476,0.139,0.587,0.355l2.759,5.426l6.182,0.874c0.243,0.035,0.451,0.202,0.525,0.431
	c0.077,0.229,0.015,0.484-0.163,0.653l-4.477,4.224l1.062,5.973c0.042,0.239-0.059,0.479-0.261,0.621
	c-0.2,0.14-0.468,0.16-0.687,0.049l-5.528-2.822l-5.533,2.822C80.546,18.66,80.443,18.678,80.338,18.678z M78.142,7.728l3.771,3.561
	c0.152,0.148,0.225,0.356,0.187,0.564l-0.892,5.033l4.663-2.376c0.19-0.096,0.416-0.096,0.609,0l4.656,2.376l-0.891-5.033
	c-0.036-0.205,0.033-0.416,0.188-0.564l3.772-3.561l-5.211-0.736c-0.216-0.03-0.396-0.161-0.493-0.349L86.175,2.07l-2.332,4.572
	c-0.096,0.187-0.281,0.319-0.493,0.349L78.142,7.728z"/>
<path fill="#ffe841" d="M105.576,18.678c-0.137,0-0.271-0.038-0.385-0.121c-0.201-0.144-0.303-0.382-0.26-0.623l1.058-5.97
	l-4.474-4.227c-0.179-0.169-0.24-0.425-0.166-0.652c0.078-0.228,0.283-0.394,0.53-0.43l6.179-0.874l2.767-5.427
	C110.937,0.139,111.164,0,111.411,0l0,0c0.25,0,0.477,0.139,0.587,0.355l2.761,5.426l6.182,0.874c0.246,0.035,0.45,0.202,0.53,0.431
	c0.075,0.229,0.01,0.484-0.166,0.653l-4.477,4.224l1.059,5.973c0.042,0.239-0.06,0.479-0.257,0.621
	c-0.202,0.14-0.471,0.16-0.689,0.049l-5.529-2.822l-5.534,2.822C105.787,18.66,105.683,18.678,105.576,18.678z M103.379,7.728
	l3.771,3.561c0.151,0.148,0.224,0.356,0.186,0.564l-0.888,5.033l4.662-2.376c0.188-0.096,0.414-0.096,0.606,0l4.655,2.376
	l-0.888-5.033c-0.038-0.205,0.03-0.416,0.188-0.564l3.77-3.561l-5.209-0.736c-0.213-0.03-0.398-0.161-0.491-0.349l-2.332-4.572
	l-2.33,4.572c-0.094,0.187-0.277,0.319-0.489,0.349L103.379,7.728z"/>
<path fill="#ffe841" d="M55.603,38.973c-0.133,0-0.263-0.041-0.378-0.118c-0.198-0.143-0.295-0.376-0.258-0.611l1.039-5.86
	l-4.387-4.146c-0.174-0.166-0.237-0.412-0.163-0.637c0.077-0.228,0.278-0.388,0.52-0.424l6.064-0.857l2.714-5.324
	c0.113-0.212,0.335-0.349,0.577-0.349l0,0c0.245,0,0.469,0.134,0.577,0.347l2.71,5.325l6.062,0.857
	c0.241,0.034,0.443,0.197,0.517,0.425c0.077,0.225,0.015,0.471-0.16,0.635l-4.39,4.148l1.038,5.86
	c0.041,0.234-0.061,0.468-0.257,0.609c-0.195,0.139-0.457,0.156-0.676,0.047l-5.422-2.766l-5.43,2.766
	C55.809,38.949,55.706,38.973,55.603,38.973z"/>
<path fill="#ffe841" d="M80.84,38.973c-0.133,0-0.265-0.041-0.38-0.118c-0.194-0.143-0.295-0.376-0.254-0.611l1.039-5.86
	l-4.391-4.146c-0.175-0.166-0.236-0.412-0.162-0.637c0.077-0.228,0.281-0.388,0.521-0.424l6.063-0.857l2.715-5.324
	c0.107-0.212,0.331-0.349,0.572-0.349l0,0c0.245,0,0.469,0.134,0.577,0.347l2.71,5.325l6.064,0.857
	c0.242,0.034,0.442,0.197,0.518,0.425c0.074,0.225,0.013,0.471-0.161,0.635l-4.393,4.148l1.041,5.86
	c0.039,0.234-0.06,0.468-0.256,0.609c-0.194,0.139-0.46,0.156-0.676,0.047l-5.425-2.766l-5.43,2.766
	C81.044,38.949,80.944,38.973,80.84,38.973z"/>
<path fill="#ffe841" d="M106.077,38.973c-0.133,0-0.266-0.041-0.377-0.118c-0.197-0.143-0.298-0.376-0.258-0.611l1.037-5.86
	l-4.387-4.146c-0.175-0.166-0.236-0.412-0.163-0.637c0.077-0.228,0.281-0.388,0.521-0.424l6.063-0.857l2.714-5.324
	c0.109-0.212,0.332-0.349,0.576-0.349l0,0c0.243,0,0.468,0.134,0.574,0.347l2.711,5.325l6.063,0.857
	c0.238,0.034,0.443,0.197,0.517,0.425c0.076,0.225,0.016,0.471-0.163,0.635l-4.388,4.148l1.037,5.86
	c0.043,0.234-0.059,0.468-0.253,0.609c-0.196,0.139-0.464,0.156-0.677,0.047l-5.424-2.766l-5.431,2.766
	C106.282,38.949,106.181,38.973,106.077,38.973z"/>
</svg>
