<?xml version="1.0" encoding="utf-8"?>
<!-- Generator: Adobe Illustrator 16.0.0, SVG Export Plug-In . SVG Version: 6.00 Build 0)  -->
<!DOCTYPE svg PUBLIC "-//W3C//DTD SVG 1.1//EN" "http://www.w3.org/Graphics/SVG/1.1/DTD/svg11.dtd">
<svg version="1.1" id="Layer_1" xmlns="http://www.w3.org/2000/svg" xmlns:xlink="http://www.w3.org/1999/xlink" x="0px" y="0px"
	 width="174.435px" height="57.596px" viewBox="0 0 174.435 57.596" enable-background="new 0 0 174.435 57.596"
	 xml:space="preserve">
<path fill="#FBAF40" d="M7.352,57.596c-0.189,0-0.379-0.06-0.542-0.175c-0.283-0.21-0.424-0.555-0.366-0.903l1.489-8.659
	l-6.289-6.13c-0.254-0.246-0.341-0.608-0.234-0.941c0.11-0.334,0.399-0.573,0.746-0.626l8.691-1.266l3.891-7.869
	c0.156-0.316,0.476-0.515,0.823-0.515l0,0c0.353,0,0.67,0.198,0.828,0.513l3.884,7.869l8.691,1.266
	c0.345,0.052,0.634,0.292,0.74,0.627c0.111,0.334,0.02,0.696-0.231,0.94l-6.293,6.129l1.492,8.662
	c0.058,0.346-0.084,0.691-0.367,0.901c-0.284,0.204-0.661,0.23-0.971,0.069L15.56,53.4l-7.782,4.088
	C7.647,57.562,7.5,57.596,7.352,57.596z"/>
<path fill="#FBAF40" d="M6.1,27.604c-0.192,0-0.389-0.056-0.55-0.178c-0.289-0.212-0.434-0.563-0.375-0.919l1.519-8.823l-6.41-6.247
	c-0.258-0.251-0.346-0.628-0.238-0.966c0.112-0.337,0.405-0.581,0.758-0.635l8.858-1.292l3.965-8.019
	C13.788,0.207,14.112,0,14.469,0l0,0c0.358,0,0.681,0.207,0.842,0.526l3.957,8.019l8.858,1.292c0.353,0.051,0.647,0.298,0.756,0.635
	c0.111,0.34,0.019,0.717-0.236,0.966l-6.416,6.243l1.521,8.827c0.056,0.353-0.087,0.707-0.374,0.919
	c-0.289,0.207-0.673,0.236-0.987,0.072l-7.922-4.172l-7.93,4.172C6.403,27.576,6.253,27.604,6.1,27.604z M2.954,11.421l5.404,5.262
	c0.219,0.22,0.32,0.527,0.267,0.834l-1.276,7.438l6.682-3.511c0.271-0.143,0.596-0.143,0.873,0l6.674,3.511L20.3,17.517
	c-0.052-0.303,0.047-0.614,0.271-0.834l5.405-5.262l-7.468-1.087c-0.303-0.045-0.566-0.239-0.705-0.516l-3.337-6.758l-3.341,6.758
	c-0.134,0.276-0.403,0.471-0.705,0.516L2.954,11.421z"/>
<path fill="#FBAF40" d="M44.056,57.596c-0.189,0-0.379-0.06-0.541-0.175c-0.282-0.21-0.425-0.555-0.366-0.903l1.489-8.659
	l-6.289-6.132c-0.253-0.246-0.339-0.607-0.232-0.94c0.109-0.335,0.398-0.575,0.743-0.627l8.691-1.266l3.892-7.869
	c0.157-0.314,0.476-0.513,0.826-0.513l0,0c0.35,0,0.67,0.198,0.827,0.513l3.884,7.869l8.692,1.266
	c0.344,0.052,0.632,0.292,0.74,0.627c0.108,0.334,0.021,0.696-0.23,0.94l-6.293,6.129l1.49,8.662
	c0.059,0.346-0.083,0.691-0.365,0.901c-0.282,0.204-0.659,0.23-0.972,0.069L52.269,53.4l-7.781,4.088
	C44.35,57.562,44.204,57.596,44.056,57.596z"/>
<path fill="#FBAF40" d="M42.273,27.604c-0.193,0-0.39-0.056-0.551-0.178c-0.288-0.212-0.431-0.563-0.373-0.919l1.517-8.823
	l-6.413-6.247c-0.256-0.251-0.345-0.628-0.236-0.966c0.111-0.337,0.407-0.581,0.758-0.635l8.857-1.292l3.965-8.019
	C49.958,0.207,50.282,0,50.64,0l0,0c0.355,0,0.681,0.207,0.839,0.526l3.958,8.019l8.859,1.292c0.355,0.051,0.648,0.298,0.757,0.635
	c0.11,0.34,0.02,0.717-0.237,0.966l-6.414,6.243l1.521,8.827c0.056,0.353-0.087,0.707-0.376,0.919
	c-0.287,0.207-0.674,0.236-0.987,0.072l-7.922-4.172l-7.928,4.172C42.573,27.576,42.425,27.604,42.273,27.604z M39.125,11.421
	l5.403,5.262c0.22,0.22,0.322,0.527,0.269,0.834l-1.277,7.438l6.684-3.511c0.272-0.143,0.596-0.143,0.874,0l6.673,3.511
	l-1.277-7.438c-0.053-0.303,0.047-0.614,0.27-0.834l5.404-5.262l-7.464-1.087c-0.305-0.045-0.569-0.239-0.706-0.516l-3.337-6.758
	l-3.341,6.758c-0.133,0.276-0.401,0.471-0.705,0.516L39.125,11.421z"/>
<path fill="#FBAF40" d="M78.448,27.604c-0.192,0-0.39-0.056-0.551-0.178c-0.289-0.212-0.433-0.563-0.376-0.919l1.519-8.823
	l-6.412-6.247c-0.257-0.249-0.344-0.626-0.238-0.961c0.114-0.34,0.406-0.585,0.758-0.638l8.858-1.292l3.966-8.021
	c0.16-0.317,0.482-0.522,0.84-0.522l0,0c0.353,0,0.679,0.205,0.839,0.522l3.958,8.021l8.859,1.292
	c0.349,0.052,0.646,0.298,0.755,0.638c0.108,0.337,0.021,0.713-0.24,0.961l-6.412,6.243l1.522,8.827
	c0.055,0.353-0.09,0.71-0.376,0.921c-0.287,0.209-0.674,0.236-0.987,0.072l-7.924-4.171l-7.929,4.171
	C78.748,27.576,78.598,27.604,78.448,27.604z M75.298,11.421l5.404,5.262c0.22,0.22,0.323,0.527,0.269,0.834l-1.276,7.438
	l6.683-3.511c0.272-0.143,0.598-0.143,0.874,0l6.672,3.511l-1.276-7.438c-0.05-0.303,0.045-0.614,0.269-0.834l5.401-5.262
	l-7.466-1.087c-0.303-0.045-0.567-0.239-0.703-0.516l-3.341-6.758l-3.339,6.758c-0.134,0.276-0.401,0.471-0.705,0.516L75.298,11.421
	z"/>
<path fill="#FBAF40" d="M115.149,27.604c-0.193,0-0.391-0.056-0.551-0.178c-0.287-0.212-0.434-0.563-0.372-0.919l1.517-8.823
	l-6.414-6.247c-0.255-0.251-0.346-0.628-0.238-0.966c0.116-0.337,0.408-0.581,0.759-0.635l8.86-1.292l3.964-8.019
	C122.837,0.207,123.156,0,123.516,0l0,0c0.354,0,0.682,0.207,0.841,0.526l3.956,8.019l8.859,1.292
	c0.35,0.051,0.646,0.298,0.755,0.635c0.109,0.34,0.02,0.717-0.236,0.966l-6.416,6.243l1.521,8.827
	c0.061,0.353-0.084,0.707-0.373,0.919c-0.287,0.207-0.671,0.236-0.984,0.072l-7.925-4.172l-7.93,4.172
	C115.449,27.576,115.299,27.604,115.149,27.604z M112.001,11.421l5.405,5.262c0.218,0.22,0.322,0.527,0.267,0.834l-1.277,7.438
	l6.684-3.511c0.271-0.143,0.596-0.143,0.873,0l6.673,3.511l-1.277-7.438c-0.052-0.303,0.048-0.614,0.27-0.834l5.407-5.262
	l-7.469-1.087c-0.307-0.045-0.568-0.239-0.707-0.516l-3.336-6.758l-3.341,6.758c-0.138,0.276-0.404,0.471-0.707,0.516
	L112.001,11.421z"/>
<path fill="#FBAF40" d="M151.323,27.604c-0.195,0-0.39-0.056-0.553-0.178c-0.288-0.212-0.432-0.563-0.373-0.919l1.518-8.823
	l-6.413-6.247c-0.257-0.251-0.344-0.628-0.239-0.966c0.115-0.337,0.407-0.581,0.762-0.635l8.856-1.292l3.964-8.019
	C159.006,0.207,159.331,0,159.686,0l0,0c0.357,0,0.683,0.207,0.84,0.526l3.958,8.019l8.86,1.292
	c0.352,0.051,0.646,0.298,0.758,0.635c0.109,0.34,0.016,0.717-0.237,0.966l-6.415,6.243l1.517,8.827
	c0.059,0.353-0.084,0.707-0.37,0.919c-0.288,0.207-0.674,0.236-0.987,0.072l-7.925-4.172l-7.932,4.172
	C151.623,27.576,151.474,27.604,151.323,27.604z M148.174,11.421l5.403,5.262c0.219,0.22,0.32,0.527,0.267,0.834l-1.273,7.438
	l6.684-3.511c0.268-0.143,0.592-0.143,0.869,0l6.671,3.511l-1.273-7.438c-0.054-0.303,0.044-0.614,0.27-0.834l5.403-5.262
	l-7.467-1.087c-0.305-0.045-0.57-0.239-0.703-0.516l-3.342-6.758l-3.341,6.758c-0.133,0.276-0.398,0.471-0.701,0.516L148.174,11.421
	z"/>
<path fill="#FBAF40" d="M79.696,57.596c-0.189,0-0.377-0.06-0.542-0.175c-0.283-0.21-0.424-0.555-0.367-0.903l1.486-8.659
	l-6.288-6.13c-0.25-0.246-0.339-0.608-0.233-0.941c0.11-0.336,0.397-0.573,0.746-0.626l8.691-1.266l3.89-7.869
	c0.16-0.314,0.479-0.515,0.826-0.515l0,0c0.352,0,0.67,0.198,0.827,0.513l3.883,7.869l8.689,1.266
	c0.346,0.052,0.637,0.292,0.74,0.627c0.111,0.334,0.023,0.696-0.229,0.94l-6.292,6.129l1.488,8.662
	c0.061,0.346-0.085,0.691-0.367,0.901c-0.28,0.204-0.656,0.23-0.968,0.069L87.904,53.4l-7.781,4.088
	C79.992,57.562,79.844,57.596,79.696,57.596z"/>
<path fill="#FBAF40" d="M115.868,57.596c-0.19,0-0.379-0.06-0.543-0.175c-0.279-0.21-0.423-0.555-0.365-0.903l1.489-8.659
	l-6.292-6.13c-0.251-0.246-0.34-0.608-0.232-0.941c0.109-0.336,0.402-0.573,0.746-0.626l8.692-1.266l3.891-7.869
	c0.154-0.314,0.473-0.515,0.819-0.515l0,0c0.353,0,0.673,0.198,0.827,0.513l3.887,7.869l8.69,1.266
	c0.347,0.052,0.634,0.292,0.743,0.627c0.105,0.334,0.018,0.696-0.232,0.94l-6.296,6.129l1.492,8.662
	c0.056,0.346-0.085,0.691-0.366,0.901c-0.279,0.204-0.66,0.23-0.97,0.069l-7.775-4.088l-7.781,4.088
	C116.162,57.562,116.016,57.596,115.868,57.596z"/>
<path fill="#FBAF40" d="M152.039,57.596c-0.19,0-0.379-0.06-0.539-0.175c-0.282-0.21-0.428-0.555-0.369-0.903l1.486-8.659
	l-6.288-6.13c-0.251-0.246-0.339-0.608-0.233-0.941c0.109-0.336,0.402-0.573,0.746-0.626l8.692-1.266l3.887-7.869
	c0.158-0.314,0.477-0.515,0.827-0.515l0,0c0.348,0,0.67,0.198,0.823,0.513l3.887,7.869l8.689,1.266
	c0.342,0.052,0.635,0.292,0.741,0.627c0.109,0.334,0.021,0.696-0.233,0.94l-6.289,6.129l1.484,8.662
	c0.063,0.346-0.082,0.691-0.361,0.901c-0.282,0.204-0.664,0.23-0.97,0.069l-7.773-4.088l-7.784,4.088
	C152.334,57.562,152.189,57.596,152.039,57.596z"/>
</svg>
