<?xml version="1.0" encoding="utf-8"?>
<!-- Generator: Adobe Illustrator 16.0.0, SVG Export Plug-In . SVG Version: 6.00 Build 0)  -->
<!DOCTYPE svg PUBLIC "-//W3C//DTD SVG 1.1//EN" "http://www.w3.org/Graphics/SVG/1.1/DTD/svg11.dtd">
<svg version="1.1" id="Layer_1" xmlns="http://www.w3.org/2000/svg" xmlns:xlink="http://www.w3.org/1999/xlink" x="0px" y="0px"
	 width="612px" height="408px" viewBox="0 0 612 408" enable-background="new 0 0 612 408" xml:space="preserve">
<g>
	<title>Layer 1</title>
	<g id="svg_2370">
		<g id="svg_2371">
			<g>
				<defs>
					<rect id="SVGID_1_" x="0" y="0" width="612" height="408"/>
				</defs>
				<clipPath id="SVGID_2_">
					<use xlink:href="#SVGID_1_"  overflow="visible"/>
				</clipPath>
				<rect id="svg_2373" x="0" y="0" clip-path="url(#SVGID_2_)" fill="#FFFFFF" width="612" height="408"/>
			</g>
			<g>
				<defs>
					<rect id="SVGID_3_" x="0" y="0" width="612" height="408"/>
				</defs>
				<clipPath id="SVGID_4_">
					<use xlink:href="#SVGID_3_"  overflow="visible"/>
				</clipPath>
				<polygon id="svg_2374" clip-path="url(#SVGID_4_)" fill="#BD0034" points="409.8,147.5 612,18.2 612,0 598,0 367.5,147.5 				
					"/>
			</g>
			<g>
				<defs>
					<rect id="SVGID_5_" x="0" y="0" width="612" height="408"/>
				</defs>
				<clipPath id="SVGID_6_">
					<use xlink:href="#SVGID_5_"  overflow="visible"/>
				</clipPath>
				<polygon id="svg_2375" clip-path="url(#SVGID_6_)" fill="#BD0034" points="400.2,268.7 612,404.1 612,377 442.5,268.7 				"/>
			</g>
			<g>
				<defs>
					<rect id="SVGID_7_" x="0" y="0" width="612" height="408"/>
				</defs>
				<clipPath id="SVGID_8_">
					<use xlink:href="#SVGID_7_"  overflow="visible"/>
				</clipPath>
				<polygon id="svg_2376" clip-path="url(#SVGID_8_)" fill="#BD0034" points="0,31.1 181.1,147.5 223.5,147.5 0,4 				"/>
			</g>
			<g>
				<defs>
					<rect id="SVGID_9_" x="0" y="0" width="612" height="408"/>
				</defs>
				<clipPath id="SVGID_10_">
					<use xlink:href="#SVGID_9_"  overflow="visible"/>
				</clipPath>
				<polygon id="svg_2377" clip-path="url(#SVGID_10_)" fill="#BD0034" points="213.9,268.7 0,405.6 0,408 38.6,408 256.2,268.7 
									"/>
			</g>
			<g>
				<defs>
					<rect id="SVGID_11_" x="0" y="0" width="612" height="408"/>
				</defs>
				<clipPath id="SVGID_12_">
					<use xlink:href="#SVGID_11_"  overflow="visible"/>
				</clipPath>
				<polygon id="svg_2378" clip-path="url(#SVGID_12_)" fill="#1A237B" points="570.1,0 355.9,0 355.9,137.2 				"/>
			</g>
			<g>
				<defs>
					<rect id="SVGID_13_" x="0" y="0" width="612" height="408"/>
				</defs>
				<clipPath id="SVGID_14_">
					<use xlink:href="#SVGID_13_"  overflow="visible"/>
				</clipPath>
				<polygon id="svg_2379" clip-path="url(#SVGID_14_)" fill="#1A237B" points="261.2,0 47.8,0 261.2,137.2 				"/>
			</g>
			<g>
				<defs>
					<rect id="SVGID_15_" x="0" y="0" width="612" height="408"/>
				</defs>
				<clipPath id="SVGID_16_">
					<use xlink:href="#SVGID_15_"  overflow="visible"/>
				</clipPath>
				<polygon id="svg_2380" clip-path="url(#SVGID_16_)" fill="#1A237B" points="612,147.5 612,53.9 466.6,147.5 				"/>
			</g>
			<g>
				<defs>
					<rect id="SVGID_17_" x="0" y="0" width="612" height="408"/>
				</defs>
				<clipPath id="SVGID_18_">
					<use xlink:href="#SVGID_17_"  overflow="visible"/>
				</clipPath>
				<polygon id="svg_2381" clip-path="url(#SVGID_18_)" fill="#1A237B" points="612,361.301 612,268.7 466.6,268.7 				"/>
			</g>
			<g>
				<defs>
					<rect id="SVGID_19_" x="0" y="0" width="612" height="408"/>
				</defs>
				<clipPath id="SVGID_20_">
					<use xlink:href="#SVGID_19_"  overflow="visible"/>
				</clipPath>
				<polygon id="svg_2382" clip-path="url(#SVGID_20_)" fill="#1A237B" points="59.9,408 261.2,408 261.2,279.1 				"/>
			</g>
			<g>
				<defs>
					<rect id="SVGID_21_" x="0" y="0" width="612" height="408"/>
				</defs>
				<clipPath id="SVGID_22_">
					<use xlink:href="#SVGID_21_"  overflow="visible"/>
				</clipPath>
				<polygon id="svg_2383" clip-path="url(#SVGID_22_)" fill="#1A237B" points="355.9,408 557.801,408 355.9,279.1 				"/>
			</g>
			<g>
				<defs>
					<rect id="SVGID_23_" x="0" y="0" width="612" height="408"/>
				</defs>
				<clipPath id="SVGID_24_">
					<use xlink:href="#SVGID_23_"  overflow="visible"/>
				</clipPath>
				<polygon id="svg_2384" clip-path="url(#SVGID_24_)" fill="#1A237B" points="0,268.7 0,365.4 150.4,268.7 				"/>
			</g>
			<g>
				<defs>
					<rect id="SVGID_25_" x="0" y="0" width="612" height="408"/>
				</defs>
				<clipPath id="SVGID_26_">
					<use xlink:href="#SVGID_25_"  overflow="visible"/>
				</clipPath>
				<polygon id="svg_2385" clip-path="url(#SVGID_26_)" fill="#1A237B" points="0,147.5 150.4,147.5 0,50.6 				"/>
			</g>
			<g>
				<defs>
					<rect id="SVGID_27_" x="0" y="0" width="612" height="408"/>
				</defs>
				<clipPath id="SVGID_28_">
					<use xlink:href="#SVGID_27_"  overflow="visible"/>
				</clipPath>
				<polygon id="svg_2386" clip-path="url(#SVGID_28_)" fill="#BD0034" points="280.1,0 280.1,171.8 0,171.8 0,244.5 280.1,244.5 
					280.1,408 336.9,408 336.9,244.5 612,244.5 612,171.8 336.9,171.8 336.9,0 				"/>
			</g>
		</g>
	</g>
</g>
</svg>
