<?xml version="1.0" encoding="utf-8"?>
<!-- Generator: Adobe Illustrator 16.0.0, SVG Export Plug-In . SVG Version: 6.00 Build 0)  -->
<!DOCTYPE svg PUBLIC "-//W3C//DTD SVG 1.1//EN" "http://www.w3.org/Graphics/SVG/1.1/DTD/svg11.dtd">
<svg version="1.1" id="Layer_1" xmlns="http://www.w3.org/2000/svg" xmlns:xlink="http://www.w3.org/1999/xlink" x="0px" y="0px"
	 width="612.5px" height="408.3px" viewBox="-0.5 0 612.5 408.3" enable-background="new -0.5 0 612.5 408.3" xml:space="preserve">
<g>
	<title>Layer 1</title>
	<g id="svg_2386">
		<g id="svg_2387">
			<g>
				<defs>
					<rect id="SVGID_1_" x="-0.5" width="612.5" height="408.3"/>
				</defs>
				<clipPath id="SVGID_2_">
					<use xlink:href="#SVGID_1_"  overflow="visible"/>
				</clipPath>
				<rect id="svg_2389" x="-0.5" y="376.9" clip-path="url(#SVGID_2_)" fill="#CB001C" width="612.5" height="31.399"/>
			</g>
			<g>
				<defs>
					<rect id="SVGID_3_" x="-0.5" width="612.5" height="408.3"/>
				</defs>
				<clipPath id="SVGID_4_">
					<use xlink:href="#SVGID_3_"  overflow="visible"/>
				</clipPath>
				<rect id="svg_2390" x="-0.5" y="345.5" clip-path="url(#SVGID_4_)" fill="#FFFFFF" width="612.5" height="31.4"/>
			</g>
			<g>
				<defs>
					<rect id="SVGID_5_" x="-0.5" width="612.5" height="408.3"/>
				</defs>
				<clipPath id="SVGID_6_">
					<use xlink:href="#SVGID_5_"  overflow="visible"/>
				</clipPath>
				<rect id="svg_2391" x="-0.5" y="314.1" clip-path="url(#SVGID_6_)" fill="#CB001C" width="612.5" height="31.4"/>
			</g>
			<g>
				<defs>
					<rect id="SVGID_7_" x="-0.5" width="612.5" height="408.3"/>
				</defs>
				<clipPath id="SVGID_8_">
					<use xlink:href="#SVGID_7_"  overflow="visible"/>
				</clipPath>
				<rect id="svg_2392" x="-0.5" y="282.7" clip-path="url(#SVGID_8_)" fill="#FFFFFF" width="612.5" height="31.399"/>
			</g>
			<g>
				<defs>
					<rect id="SVGID_9_" x="-0.5" width="612.5" height="408.3"/>
				</defs>
				<clipPath id="SVGID_10_">
					<use xlink:href="#SVGID_9_"  overflow="visible"/>
				</clipPath>
				<rect id="svg_2393" x="-0.5" y="251.3" clip-path="url(#SVGID_10_)" fill="#CB001C" width="612.5" height="31.4"/>
			</g>
			<g>
				<defs>
					<rect id="SVGID_11_" x="-0.5" width="612.5" height="408.3"/>
				</defs>
				<clipPath id="SVGID_12_">
					<use xlink:href="#SVGID_11_"  overflow="visible"/>
				</clipPath>
				<rect id="svg_2394" x="-0.5" y="219.9" clip-path="url(#SVGID_12_)" fill="#FFFFFF" width="612.5" height="31.399"/>
			</g>
			<g>
				<defs>
					<rect id="SVGID_13_" x="-0.5" width="612.5" height="408.3"/>
				</defs>
				<clipPath id="SVGID_14_">
					<use xlink:href="#SVGID_13_"  overflow="visible"/>
				</clipPath>
				<rect id="svg_2395" x="-0.5" y="188.5" clip-path="url(#SVGID_14_)" fill="#CB001C" width="612.5" height="31.4"/>
			</g>
			<g>
				<defs>
					<rect id="SVGID_15_" x="-0.5" width="612.5" height="408.3"/>
				</defs>
				<clipPath id="SVGID_16_">
					<use xlink:href="#SVGID_15_"  overflow="visible"/>
				</clipPath>
				<rect id="svg_2396" x="-0.5" y="157" clip-path="url(#SVGID_16_)" fill="#FFFFFF" width="612.5" height="31.4"/>
			</g>
			<g>
				<defs>
					<rect id="SVGID_17_" x="-0.5" width="612.5" height="408.3"/>
				</defs>
				<clipPath id="SVGID_18_">
					<use xlink:href="#SVGID_17_"  overflow="visible"/>
				</clipPath>
				<rect id="svg_2397" x="-0.5" y="125.6" clip-path="url(#SVGID_18_)" fill="#CB001C" width="612.5" height="31.4"/>
			</g>
			<g>
				<defs>
					<rect id="SVGID_19_" x="-0.5" width="612.5" height="408.3"/>
				</defs>
				<clipPath id="SVGID_20_">
					<use xlink:href="#SVGID_19_"  overflow="visible"/>
				</clipPath>
				<rect id="svg_2398" x="-0.5" y="94.2" clip-path="url(#SVGID_20_)" fill="#FFFFFF" width="612.5" height="31.4"/>
			</g>
			<g>
				<defs>
					<rect id="SVGID_21_" x="-0.5" width="612.5" height="408.3"/>
				</defs>
				<clipPath id="SVGID_22_">
					<use xlink:href="#SVGID_21_"  overflow="visible"/>
				</clipPath>
				<rect id="svg_2399" x="-0.5" y="62.8" clip-path="url(#SVGID_22_)" fill="#CB001C" width="612.5" height="31.4"/>
			</g>
			<g>
				<defs>
					<rect id="SVGID_23_" x="-0.5" width="612.5" height="408.3"/>
				</defs>
				<clipPath id="SVGID_24_">
					<use xlink:href="#SVGID_23_"  overflow="visible"/>
				</clipPath>
				<rect id="svg_2400" x="-0.5" y="31.4" clip-path="url(#SVGID_24_)" fill="#FFFFFF" width="612.5" height="31.4"/>
			</g>
			<g>
				<defs>
					<rect id="SVGID_25_" x="-0.5" width="612.5" height="408.3"/>
				</defs>
				<clipPath id="SVGID_26_">
					<use xlink:href="#SVGID_25_"  overflow="visible"/>
				</clipPath>
				<rect id="svg_2401" x="-0.5" clip-path="url(#SVGID_26_)" fill="#CB001C" width="612.5" height="31.4"/>
			</g>
			<g>
				<defs>
					<rect id="SVGID_27_" x="-0.5" width="612.5" height="408.3"/>
				</defs>
				<clipPath id="SVGID_28_">
					<use xlink:href="#SVGID_27_"  overflow="visible"/>
				</clipPath>
				<rect id="svg_2402" x="-0.5" clip-path="url(#SVGID_28_)" fill="#2A3560" width="303.399" height="219.9"/>
			</g>
			<g>
				<defs>
					<rect id="SVGID_29_" x="-0.5" width="612.5" height="408.3"/>
				</defs>
				<clipPath id="SVGID_30_">
					<use xlink:href="#SVGID_29_"  overflow="visible"/>
				</clipPath>
				<polygon id="svg_2403" clip-path="url(#SVGID_30_)" fill="#FFFFFF" points="26.8,24.2 29.4,32.6 37.7,32.6 31,37.7 33.5,46 
					26.8,40.8 20.1,46 22.7,37.7 16,32.6 24.3,32.6 				"/>
			</g>
			<g>
				<defs>
					<rect id="SVGID_31_" x="-0.5" width="612.5" height="408.3"/>
				</defs>
				<clipPath id="SVGID_32_">
					<use xlink:href="#SVGID_31_"  overflow="visible"/>
				</clipPath>
				<polygon id="svg_2404" clip-path="url(#SVGID_32_)" fill="#FFFFFF" points="26.8,60.9 29.4,69.2 37.7,69.2 31,74.4 33.5,82.7 
					26.8,77.5 20.1,82.7 22.7,74.4 16,69.2 24.3,69.2 				"/>
			</g>
			<g>
				<defs>
					<rect id="SVGID_33_" x="-0.5" width="612.5" height="408.3"/>
				</defs>
				<clipPath id="SVGID_34_">
					<use xlink:href="#SVGID_33_"  overflow="visible"/>
				</clipPath>
				<polygon id="svg_2405" clip-path="url(#SVGID_34_)" fill="#FFFFFF" points="26.8,97.6 29.4,105.9 37.7,105.9 31,111.1 
					33.5,119.4 26.8,114.2 20.1,119.4 22.7,111.1 16,105.9 24.3,105.9 				"/>
			</g>
			<g>
				<defs>
					<rect id="SVGID_35_" x="-0.5" width="612.5" height="408.3"/>
				</defs>
				<clipPath id="SVGID_36_">
					<use xlink:href="#SVGID_35_"  overflow="visible"/>
				</clipPath>
				<polygon id="svg_2406" clip-path="url(#SVGID_36_)" fill="#FFFFFF" points="26.8,134.3 29.4,142.6 37.7,142.6 31,147.8 
					33.5,156.1 26.8,150.9 20.1,156.1 22.7,147.8 16,142.6 24.3,142.6 				"/>
			</g>
			<g>
				<defs>
					<rect id="SVGID_37_" x="-0.5" width="612.5" height="408.3"/>
				</defs>
				<clipPath id="SVGID_38_">
					<use xlink:href="#SVGID_37_"  overflow="visible"/>
				</clipPath>
				<polygon id="svg_2407" clip-path="url(#SVGID_38_)" fill="#FFFFFF" points="26.8,171 29.4,179.3 37.7,179.3 31,184.5 
					33.5,192.8 26.8,187.7 20.1,192.8 22.7,184.5 16,179.3 24.3,179.3 				"/>
			</g>
			<g>
				<defs>
					<rect id="SVGID_39_" x="-0.5" width="612.5" height="408.3"/>
				</defs>
				<clipPath id="SVGID_40_">
					<use xlink:href="#SVGID_39_"  overflow="visible"/>
				</clipPath>
				<polygon id="svg_2408" clip-path="url(#SVGID_40_)" fill="#FFFFFF" points="51.1,43.6 53.7,51.9 62,51.9 55.2,57 57.8,65.3 
					51.1,60.2 44.4,65.3 46.9,57 40.2,51.9 48.5,51.9 				"/>
			</g>
			<g>
				<defs>
					<rect id="SVGID_41_" x="-0.5" width="612.5" height="408.3"/>
				</defs>
				<clipPath id="SVGID_42_">
					<use xlink:href="#SVGID_41_"  overflow="visible"/>
				</clipPath>
				<polygon id="svg_2409" clip-path="url(#SVGID_42_)" fill="#FFFFFF" points="51.1,80.3 53.7,88.6 62,88.6 55.2,93.7 57.8,102 
					51.1,96.9 44.4,102 46.9,93.7 40.2,88.6 48.5,88.6 				"/>
			</g>
			<g>
				<defs>
					<rect id="SVGID_43_" x="-0.5" width="612.5" height="408.3"/>
				</defs>
				<clipPath id="SVGID_44_">
					<use xlink:href="#SVGID_43_"  overflow="visible"/>
				</clipPath>
				<polygon id="svg_2410" clip-path="url(#SVGID_44_)" fill="#FFFFFF" points="51.1,117 53.7,125.3 62,125.3 55.2,130.4 
					57.8,138.7 51.1,133.6 44.4,138.7 46.9,130.4 40.2,125.3 48.5,125.3 				"/>
			</g>
			<g>
				<defs>
					<rect id="SVGID_45_" x="-0.5" width="612.5" height="408.3"/>
				</defs>
				<clipPath id="SVGID_46_">
					<use xlink:href="#SVGID_45_"  overflow="visible"/>
				</clipPath>
				<polygon id="svg_2411" clip-path="url(#SVGID_46_)" fill="#FFFFFF" points="51.1,153.7 53.7,162 62,162 55.2,167.1 57.8,175.4 
					51.1,170.3 44.4,175.4 46.9,167.1 40.2,162 48.5,162 				"/>
			</g>
			<g>
				<defs>
					<rect id="SVGID_47_" x="-0.5" width="612.5" height="408.3"/>
				</defs>
				<clipPath id="SVGID_48_">
					<use xlink:href="#SVGID_47_"  overflow="visible"/>
				</clipPath>
				<polygon id="svg_2412" clip-path="url(#SVGID_48_)" fill="#FFFFFF" points="75.7,24.2 78.2,32.6 86.5,32.6 79.8,37.7 82.4,46 
					75.7,40.8 69,46 71.5,37.7 64.8,32.6 73.1,32.6 				"/>
			</g>
			<g>
				<defs>
					<rect id="SVGID_49_" x="-0.5" width="612.5" height="408.3"/>
				</defs>
				<clipPath id="SVGID_50_">
					<use xlink:href="#SVGID_49_"  overflow="visible"/>
				</clipPath>
				<polygon id="svg_2413" clip-path="url(#SVGID_50_)" fill="#FFFFFF" points="75.7,60.9 78.2,69.2 86.5,69.2 79.8,74.4 82.4,82.7 
					75.7,77.5 69,82.7 71.5,74.4 64.8,69.2 73.1,69.2 				"/>
			</g>
			<g>
				<defs>
					<rect id="SVGID_51_" x="-0.5" width="612.5" height="408.3"/>
				</defs>
				<clipPath id="SVGID_52_">
					<use xlink:href="#SVGID_51_"  overflow="visible"/>
				</clipPath>
				<polygon id="svg_2414" clip-path="url(#SVGID_52_)" fill="#FFFFFF" points="75.7,97.6 78.2,105.9 86.5,105.9 79.8,111.1 
					82.4,119.4 75.7,114.2 69,119.4 71.5,111.1 64.8,105.9 73.1,105.9 				"/>
			</g>
			<g>
				<defs>
					<rect id="SVGID_53_" x="-0.5" width="612.5" height="408.3"/>
				</defs>
				<clipPath id="SVGID_54_">
					<use xlink:href="#SVGID_53_"  overflow="visible"/>
				</clipPath>
				<polygon id="svg_2415" clip-path="url(#SVGID_54_)" fill="#FFFFFF" points="75.7,134.3 78.2,142.6 86.5,142.6 79.8,147.8 
					82.4,156.1 75.7,150.9 69,156.1 71.5,147.8 64.8,142.6 73.1,142.6 				"/>
			</g>
			<g>
				<defs>
					<rect id="SVGID_55_" x="-0.5" width="612.5" height="408.3"/>
				</defs>
				<clipPath id="SVGID_56_">
					<use xlink:href="#SVGID_55_"  overflow="visible"/>
				</clipPath>
				<polygon id="svg_2416" clip-path="url(#SVGID_56_)" fill="#FFFFFF" points="75.7,171 78.2,179.3 86.5,179.3 79.8,184.5 
					82.4,192.8 75.7,187.7 69,192.8 71.5,184.5 64.8,179.3 73.1,179.3 				"/>
			</g>
			<g>
				<defs>
					<rect id="SVGID_57_" x="-0.5" width="612.5" height="408.3"/>
				</defs>
				<clipPath id="SVGID_58_">
					<use xlink:href="#SVGID_57_"  overflow="visible"/>
				</clipPath>
				<polygon id="svg_2417" clip-path="url(#SVGID_58_)" fill="#FFFFFF" points="99.9,43.6 102.5,51.9 110.8,51.9 104.1,57 
					106.6,65.3 99.9,60.2 93.2,65.3 95.8,57 89.1,51.9 97.4,51.9 				"/>
			</g>
			<g>
				<defs>
					<rect id="SVGID_59_" x="-0.5" width="612.5" height="408.3"/>
				</defs>
				<clipPath id="SVGID_60_">
					<use xlink:href="#SVGID_59_"  overflow="visible"/>
				</clipPath>
				<polygon id="svg_2418" clip-path="url(#SVGID_60_)" fill="#FFFFFF" points="99.9,80.3 102.5,88.6 110.8,88.6 104.1,93.7 
					106.6,102 99.9,96.9 93.2,102 95.8,93.7 89.1,88.6 97.4,88.6 				"/>
			</g>
			<g>
				<defs>
					<rect id="SVGID_61_" x="-0.5" width="612.5" height="408.3"/>
				</defs>
				<clipPath id="SVGID_62_">
					<use xlink:href="#SVGID_61_"  overflow="visible"/>
				</clipPath>
				<polygon id="svg_2419" clip-path="url(#SVGID_62_)" fill="#FFFFFF" points="99.9,117 102.5,125.3 110.8,125.3 104.1,130.4 
					106.6,138.7 99.9,133.6 93.2,138.7 95.8,130.4 89.1,125.3 97.4,125.3 				"/>
			</g>
			<g>
				<defs>
					<rect id="SVGID_63_" x="-0.5" width="612.5" height="408.3"/>
				</defs>
				<clipPath id="SVGID_64_">
					<use xlink:href="#SVGID_63_"  overflow="visible"/>
				</clipPath>
				<polygon id="svg_2420" clip-path="url(#SVGID_64_)" fill="#FFFFFF" points="99.9,153.7 102.5,162 110.8,162 104.1,167.1 
					106.6,175.4 99.9,170.3 93.2,175.4 95.8,167.1 89.1,162 97.4,162 				"/>
			</g>
			<g>
				<defs>
					<rect id="SVGID_65_" x="-0.5" width="612.5" height="408.3"/>
				</defs>
				<clipPath id="SVGID_66_">
					<use xlink:href="#SVGID_65_"  overflow="visible"/>
				</clipPath>
				<polygon id="svg_2421" clip-path="url(#SVGID_66_)" fill="#FFFFFF" points="124.5,24.2 127.1,32.6 135.4,32.6 128.7,37.7 
					131.2,46 124.5,40.8 117.8,46 120.4,37.7 113.7,32.6 122,32.6 				"/>
			</g>
			<g>
				<defs>
					<rect id="SVGID_67_" x="-0.5" width="612.5" height="408.3"/>
				</defs>
				<clipPath id="SVGID_68_">
					<use xlink:href="#SVGID_67_"  overflow="visible"/>
				</clipPath>
				<polygon id="svg_2422" clip-path="url(#SVGID_68_)" fill="#FFFFFF" points="124.5,60.9 127.1,69.2 135.4,69.2 128.7,74.4 
					131.2,82.7 124.5,77.5 117.8,82.7 120.4,74.4 113.7,69.2 122,69.2 				"/>
			</g>
			<g>
				<defs>
					<rect id="SVGID_69_" x="-0.5" width="612.5" height="408.3"/>
				</defs>
				<clipPath id="SVGID_70_">
					<use xlink:href="#SVGID_69_"  overflow="visible"/>
				</clipPath>
				<polygon id="svg_2423" clip-path="url(#SVGID_70_)" fill="#FFFFFF" points="124.5,97.6 127.1,105.9 135.4,105.9 128.7,111.1 
					131.2,119.4 124.5,114.2 117.8,119.4 120.4,111.1 113.7,105.9 122,105.9 				"/>
			</g>
			<g>
				<defs>
					<rect id="SVGID_71_" x="-0.5" width="612.5" height="408.3"/>
				</defs>
				<clipPath id="SVGID_72_">
					<use xlink:href="#SVGID_71_"  overflow="visible"/>
				</clipPath>
				<polygon id="svg_2424" clip-path="url(#SVGID_72_)" fill="#FFFFFF" points="124.5,134.3 127.1,142.6 135.4,142.6 128.7,147.8 
					131.2,156.1 124.5,150.9 117.8,156.1 120.4,147.8 113.7,142.6 122,142.6 				"/>
			</g>
			<g>
				<defs>
					<rect id="SVGID_73_" x="-0.5" width="612.5" height="408.3"/>
				</defs>
				<clipPath id="SVGID_74_">
					<use xlink:href="#SVGID_73_"  overflow="visible"/>
				</clipPath>
				<polygon id="svg_2425" clip-path="url(#SVGID_74_)" fill="#FFFFFF" points="124.5,171 127.1,179.3 135.4,179.3 128.7,184.5 
					131.2,192.8 124.5,187.7 117.8,192.8 120.4,184.5 113.7,179.3 122,179.3 				"/>
			</g>
			<g>
				<defs>
					<rect id="SVGID_75_" x="-0.5" width="612.5" height="408.3"/>
				</defs>
				<clipPath id="SVGID_76_">
					<use xlink:href="#SVGID_75_"  overflow="visible"/>
				</clipPath>
				<polygon id="svg_2426" clip-path="url(#SVGID_76_)" fill="#FFFFFF" points="148.8,43.6 151.4,51.9 159.6,51.9 152.9,57 
					155.5,65.3 148.8,60.2 142.1,65.3 144.6,57 137.9,51.9 146.2,51.9 				"/>
			</g>
			<g>
				<defs>
					<rect id="SVGID_77_" x="-0.5" width="612.5" height="408.3"/>
				</defs>
				<clipPath id="SVGID_78_">
					<use xlink:href="#SVGID_77_"  overflow="visible"/>
				</clipPath>
				<polygon id="svg_2427" clip-path="url(#SVGID_78_)" fill="#FFFFFF" points="148.8,80.3 151.4,88.6 159.6,88.6 152.9,93.7 
					155.5,102 148.8,96.9 142.1,102 144.6,93.7 137.9,88.6 146.2,88.6 				"/>
			</g>
			<g>
				<defs>
					<rect id="SVGID_79_" x="-0.5" width="612.5" height="408.3"/>
				</defs>
				<clipPath id="SVGID_80_">
					<use xlink:href="#SVGID_79_"  overflow="visible"/>
				</clipPath>
				<polygon id="svg_2428" clip-path="url(#SVGID_80_)" fill="#FFFFFF" points="148.8,117 151.4,125.3 159.6,125.3 152.9,130.4 
					155.5,138.7 148.8,133.6 142.1,138.7 144.6,130.4 137.9,125.3 146.2,125.3 				"/>
			</g>
			<g>
				<defs>
					<rect id="SVGID_81_" x="-0.5" width="612.5" height="408.3"/>
				</defs>
				<clipPath id="SVGID_82_">
					<use xlink:href="#SVGID_81_"  overflow="visible"/>
				</clipPath>
				<polygon id="svg_2429" clip-path="url(#SVGID_82_)" fill="#FFFFFF" points="148.8,153.7 151.4,162 159.6,162 152.9,167.1 
					155.5,175.4 148.8,170.3 142.1,175.4 144.6,167.1 137.9,162 146.2,162 				"/>
			</g>
			<g>
				<defs>
					<rect id="SVGID_83_" x="-0.5" width="612.5" height="408.3"/>
				</defs>
				<clipPath id="SVGID_84_">
					<use xlink:href="#SVGID_83_"  overflow="visible"/>
				</clipPath>
				<polygon id="svg_2430" clip-path="url(#SVGID_84_)" fill="#FFFFFF" points="173.4,24.2 175.9,32.6 184.2,32.6 177.5,37.7 
					180.1,46 173.4,40.8 166.6,46 169.2,37.7 162.5,32.6 170.8,32.6 				"/>
			</g>
			<g>
				<defs>
					<rect id="SVGID_85_" x="-0.5" width="612.5" height="408.3"/>
				</defs>
				<clipPath id="SVGID_86_">
					<use xlink:href="#SVGID_85_"  overflow="visible"/>
				</clipPath>
				<polygon id="svg_2431" clip-path="url(#SVGID_86_)" fill="#FFFFFF" points="173.4,60.9 175.9,69.2 184.2,69.2 177.5,74.4 
					180.1,82.7 173.4,77.5 166.6,82.7 169.2,74.4 162.5,69.2 170.8,69.2 				"/>
			</g>
			<g>
				<defs>
					<rect id="SVGID_87_" x="-0.5" width="612.5" height="408.3"/>
				</defs>
				<clipPath id="SVGID_88_">
					<use xlink:href="#SVGID_87_"  overflow="visible"/>
				</clipPath>
				<polygon id="svg_2432" clip-path="url(#SVGID_88_)" fill="#FFFFFF" points="173.4,97.6 175.9,105.9 184.2,105.9 177.5,111.1 
					180.1,119.4 173.4,114.2 166.6,119.4 169.2,111.1 162.5,105.9 170.8,105.9 				"/>
			</g>
			<g>
				<defs>
					<rect id="SVGID_89_" x="-0.5" width="612.5" height="408.3"/>
				</defs>
				<clipPath id="SVGID_90_">
					<use xlink:href="#SVGID_89_"  overflow="visible"/>
				</clipPath>
				<polygon id="svg_2433" clip-path="url(#SVGID_90_)" fill="#FFFFFF" points="173.4,134.3 175.9,142.6 184.2,142.6 177.5,147.8 
					180.1,156.1 173.4,150.9 166.6,156.1 169.2,147.8 162.5,142.6 170.8,142.6 				"/>
			</g>
			<g>
				<defs>
					<rect id="SVGID_91_" x="-0.5" width="612.5" height="408.3"/>
				</defs>
				<clipPath id="SVGID_92_">
					<use xlink:href="#SVGID_91_"  overflow="visible"/>
				</clipPath>
				<polygon id="svg_2434" clip-path="url(#SVGID_92_)" fill="#FFFFFF" points="173.4,171 175.9,179.3 184.2,179.3 177.5,184.5 
					180.1,192.8 173.4,187.7 166.6,192.8 169.2,184.5 162.5,179.3 170.8,179.3 				"/>
			</g>
			<g>
				<defs>
					<rect id="SVGID_93_" x="-0.5" width="612.5" height="408.3"/>
				</defs>
				<clipPath id="SVGID_94_">
					<use xlink:href="#SVGID_93_"  overflow="visible"/>
				</clipPath>
				<polygon id="svg_2435" clip-path="url(#SVGID_94_)" fill="#FFFFFF" points="197.6,43.6 200.2,51.9 208.5,51.9 201.8,57 
					204.3,65.3 197.6,60.2 190.9,65.3 193.5,57 186.8,51.9 195.1,51.9 				"/>
			</g>
			<g>
				<defs>
					<rect id="SVGID_95_" x="-0.5" width="612.5" height="408.3"/>
				</defs>
				<clipPath id="SVGID_96_">
					<use xlink:href="#SVGID_95_"  overflow="visible"/>
				</clipPath>
				<polygon id="svg_2436" clip-path="url(#SVGID_96_)" fill="#FFFFFF" points="197.6,80.3 200.2,88.6 208.5,88.6 201.8,93.7 
					204.3,102 197.6,96.9 190.9,102 193.5,93.7 186.8,88.6 195.1,88.6 				"/>
			</g>
			<g>
				<defs>
					<rect id="SVGID_97_" x="-0.5" width="612.5" height="408.3"/>
				</defs>
				<clipPath id="SVGID_98_">
					<use xlink:href="#SVGID_97_"  overflow="visible"/>
				</clipPath>
				<polygon id="svg_2437" clip-path="url(#SVGID_98_)" fill="#FFFFFF" points="197.6,117 200.2,125.3 208.5,125.3 201.8,130.4 
					204.3,138.7 197.6,133.6 190.9,138.7 193.5,130.4 186.8,125.3 195.1,125.3 				"/>
			</g>
			<g>
				<defs>
					<rect id="SVGID_99_" x="-0.5" width="612.5" height="408.3"/>
				</defs>
				<clipPath id="SVGID_100_">
					<use xlink:href="#SVGID_99_"  overflow="visible"/>
				</clipPath>
				<polygon id="svg_2438" clip-path="url(#SVGID_100_)" fill="#FFFFFF" points="197.6,153.7 200.2,162 208.5,162 201.8,167.1 
					204.3,175.4 197.6,170.3 190.9,175.4 193.5,167.1 186.8,162 195.1,162 				"/>
			</g>
			<g>
				<defs>
					<rect id="SVGID_101_" x="-0.5" width="612.5" height="408.3"/>
				</defs>
				<clipPath id="SVGID_102_">
					<use xlink:href="#SVGID_101_"  overflow="visible"/>
				</clipPath>
				<polygon id="svg_2439" clip-path="url(#SVGID_102_)" fill="#FFFFFF" points="222.2,24.2 224.8,32.6 233.1,32.6 226.4,37.7 
					228.9,46 222.2,40.8 215.5,46 218.1,37.7 211.3,32.6 219.6,32.6 				"/>
			</g>
			<g>
				<defs>
					<rect id="SVGID_103_" x="-0.5" width="612.5" height="408.3"/>
				</defs>
				<clipPath id="SVGID_104_">
					<use xlink:href="#SVGID_103_"  overflow="visible"/>
				</clipPath>
				<polygon id="svg_2440" clip-path="url(#SVGID_104_)" fill="#FFFFFF" points="222.2,60.9 224.8,69.2 233.1,69.2 226.4,74.4 
					228.9,82.7 222.2,77.5 215.5,82.7 218.1,74.4 211.3,69.2 219.6,69.2 				"/>
			</g>
			<g>
				<defs>
					<rect id="SVGID_105_" x="-0.5" width="612.5" height="408.3"/>
				</defs>
				<clipPath id="SVGID_106_">
					<use xlink:href="#SVGID_105_"  overflow="visible"/>
				</clipPath>
				<polygon id="svg_2441" clip-path="url(#SVGID_106_)" fill="#FFFFFF" points="222.2,97.6 224.8,105.9 233.1,105.9 226.4,111.1 
					228.9,119.4 222.2,114.2 215.5,119.4 218.1,111.1 211.3,105.9 219.6,105.9 				"/>
			</g>
			<g>
				<defs>
					<rect id="SVGID_107_" x="-0.5" width="612.5" height="408.3"/>
				</defs>
				<clipPath id="SVGID_108_">
					<use xlink:href="#SVGID_107_"  overflow="visible"/>
				</clipPath>
				<polygon id="svg_2442" clip-path="url(#SVGID_108_)" fill="#FFFFFF" points="222.2,134.3 224.8,142.6 233.1,142.6 226.4,147.8 
					228.9,156.1 222.2,150.9 215.5,156.1 218.1,147.8 211.3,142.6 219.6,142.6 				"/>
			</g>
			<g>
				<defs>
					<rect id="SVGID_109_" x="-0.5" width="612.5" height="408.3"/>
				</defs>
				<clipPath id="SVGID_110_">
					<use xlink:href="#SVGID_109_"  overflow="visible"/>
				</clipPath>
				<polygon id="svg_2443" clip-path="url(#SVGID_110_)" fill="#FFFFFF" points="222.2,171 224.8,179.3 233.1,179.3 226.4,184.5 
					228.9,192.8 222.2,187.7 215.5,192.8 218.1,184.5 211.3,179.3 219.6,179.3 				"/>
			</g>
			<g>
				<defs>
					<rect id="SVGID_111_" x="-0.5" width="612.5" height="408.3"/>
				</defs>
				<clipPath id="SVGID_112_">
					<use xlink:href="#SVGID_111_"  overflow="visible"/>
				</clipPath>
				<polygon id="svg_2444" clip-path="url(#SVGID_112_)" fill="#FFFFFF" points="246.5,43.6 249,51.9 257.3,51.9 250.6,57 
					253.2,65.3 246.5,60.2 239.8,65.3 242.3,57 235.6,51.9 243.9,51.9 				"/>
			</g>
			<g>
				<defs>
					<rect id="SVGID_113_" x="-0.5" width="612.5" height="408.3"/>
				</defs>
				<clipPath id="SVGID_114_">
					<use xlink:href="#SVGID_113_"  overflow="visible"/>
				</clipPath>
				<polygon id="svg_2445" clip-path="url(#SVGID_114_)" fill="#FFFFFF" points="246.5,80.3 249,88.6 257.3,88.6 250.6,93.7 
					253.2,102 246.5,96.9 239.8,102 242.3,93.7 235.6,88.6 243.9,88.6 				"/>
			</g>
			<g>
				<defs>
					<rect id="SVGID_115_" x="-0.5" width="612.5" height="408.3"/>
				</defs>
				<clipPath id="SVGID_116_">
					<use xlink:href="#SVGID_115_"  overflow="visible"/>
				</clipPath>
				<polygon id="svg_2446" clip-path="url(#SVGID_116_)" fill="#FFFFFF" points="246.5,117 249,125.3 257.3,125.3 250.6,130.4 
					253.2,138.7 246.5,133.6 239.8,138.7 242.3,130.4 235.6,125.3 243.9,125.3 				"/>
			</g>
			<g>
				<defs>
					<rect id="SVGID_117_" x="-0.5" width="612.5" height="408.3"/>
				</defs>
				<clipPath id="SVGID_118_">
					<use xlink:href="#SVGID_117_"  overflow="visible"/>
				</clipPath>
				<polygon id="svg_2447" clip-path="url(#SVGID_118_)" fill="#FFFFFF" points="246.5,153.7 249,162 257.3,162 250.6,167.1 
					253.2,175.4 246.5,170.3 239.8,175.4 242.3,167.1 235.6,162 243.9,162 				"/>
			</g>
			<g>
				<defs>
					<rect id="SVGID_119_" x="-0.5" width="612.5" height="408.3"/>
				</defs>
				<clipPath id="SVGID_120_">
					<use xlink:href="#SVGID_119_"  overflow="visible"/>
				</clipPath>
				<polygon id="svg_2448" clip-path="url(#SVGID_120_)" fill="#FFFFFF" points="271,24.2 273.6,32.6 281.9,32.6 275.2,37.7 
					277.8,46 271,40.8 264.3,46 266.9,37.7 260.2,32.6 268.5,32.6 				"/>
			</g>
			<g>
				<defs>
					<rect id="SVGID_121_" x="-0.5" width="612.5" height="408.3"/>
				</defs>
				<clipPath id="SVGID_122_">
					<use xlink:href="#SVGID_121_"  overflow="visible"/>
				</clipPath>
				<polygon id="svg_2449" clip-path="url(#SVGID_122_)" fill="#FFFFFF" points="271,60.9 273.6,69.2 281.9,69.2 275.2,74.4 
					277.8,82.7 271,77.5 264.3,82.7 266.9,74.4 260.2,69.2 268.5,69.2 				"/>
			</g>
			<g>
				<defs>
					<rect id="SVGID_123_" x="-0.5" width="612.5" height="408.3"/>
				</defs>
				<clipPath id="SVGID_124_">
					<use xlink:href="#SVGID_123_"  overflow="visible"/>
				</clipPath>
				<polygon id="svg_2450" clip-path="url(#SVGID_124_)" fill="#FFFFFF" points="271,97.6 273.6,105.9 281.9,105.9 275.2,111.1 
					277.8,119.4 271,114.2 264.3,119.4 266.9,111.1 260.2,105.9 268.5,105.9 				"/>
			</g>
			<g>
				<defs>
					<rect id="SVGID_125_" x="-0.5" width="612.5" height="408.3"/>
				</defs>
				<clipPath id="SVGID_126_">
					<use xlink:href="#SVGID_125_"  overflow="visible"/>
				</clipPath>
				<polygon id="svg_2451" clip-path="url(#SVGID_126_)" fill="#FFFFFF" points="271,134.3 273.6,142.6 281.9,142.6 275.2,147.8 
					277.8,156.1 271,150.9 264.3,156.1 266.9,147.8 260.2,142.6 268.5,142.6 				"/>
			</g>
			<g>
				<defs>
					<rect id="SVGID_127_" x="-0.5" width="612.5" height="408.3"/>
				</defs>
				<clipPath id="SVGID_128_">
					<use xlink:href="#SVGID_127_"  overflow="visible"/>
				</clipPath>
				<polygon id="svg_2452" clip-path="url(#SVGID_128_)" fill="#FFFFFF" points="271,171 273.6,179.3 281.9,179.3 275.2,184.5 
					277.8,192.8 271,187.7 264.3,192.8 266.9,184.5 260.2,179.3 268.5,179.3 				"/>
			</g>
		</g>
	</g>
</g>
</svg>
