<?xml version="1.0" encoding="UTF-8"?>
<svg width="40px" height="40px" viewBox="0 0 40 40" version="1.1" xmlns="http://www.w3.org/2000/svg" xmlns:xlink="http://www.w3.org/1999/xlink">
    <!-- Generator: Sketch 52.6 (67491) - http://www.bohemiancoding.com/sketch -->
    <title>Group 5</title>
    <desc>Created with Sketch.</desc>
    <g id="Page-1" stroke="none" stroke-width="1" fill="none" fill-rule="evenodd">
        <g id="DC_Designer-user-cabinet---Notifications" transform="translate(-1354.000000, -422.000000)">
            <g id="Group-5" transform="translate(1354.000000, 422.000000)">
                <path d="M20,0 C31.0463534,0 40,8.95524778 40,20 C40,31.0463534 31.0463534,40 20,40 C8.95364663,40 0,31.0463534 0,20 C-0.00160115283,8.95524778 8.95204547,0 20,0 Z" id="Path" fill="#6AF0AD"></path>
                <path d="M23.1896239,22.5097315 C22.9800989,22.2911947 22.6421553,22.2911947 22.4326303,22.5097315 L20.8397897,24.2828087 L20.8397897,19.2294261 C20.8397897,18.817135 20.5052256,18.4825709 20.091808,18.4825709 C19.6783904,18.4825709 19.3438263,18.817135 19.3438263,19.2294261 L19.3438263,24.2749233 L17.6991677,22.4624194 C17.4896427,22.2450091 17.1528256,22.2450091 16.9433006,22.4624194 L16.7540522,22.5198698 C16.5445272,22.7384067 16.5445272,23.0921209 16.7540522,23.3095313 L19.5229364,26.338632 C19.5274423,26.3431379 19.5296952,26.3476438 19.5319482,26.3510232 L19.7211966,26.5492834 C19.8248326,26.6585518 19.9633894,26.7126228 20.1019463,26.7126228 C20.2382502,26.7126228 20.3768071,26.6585518 20.482696,26.5492834 L20.6719444,26.3510232 C20.6741974,26.3476438 20.6764503,26.3420114 20.6787033,26.338632 L23.3777458,23.3557169 C23.5872708,23.1383065 23.5872708,22.7845923 23.3777458,22.5660554 L23.1896239,22.5097315 Z M24.1178422,16.0921835 C23.3912635,13.8178234 21.6711309,13 19.3674823,13 C16.2696664,13 13.7576194,15.2608424 13.7576194,18.3372551 C13.7576194,18.3564053 13.7598723,18.3744289 13.7609988,18.3935791 C12.1692847,18.6583015 11,20.0235935 11,21.6806433 C11,23.5269416 12.4599161,25.0240315 14.3186057,25.0240315 L16.2606546,25.0240315 L15.2085237,23.5291946 L14.3186057,23.5291946 C13.2878778,23.5291946 12.4959635,22.7001064 12.4959635,21.6806433 C12.4959635,20.7794605 13.1042618,20.0179611 14.0076976,19.8681394 L15.3065273,19.7453533 L15.2558358,18.3372551 L15.2547093,18.3068402 C15.2716065,16.0741598 17.1100194,14.494837 19.3674823,14.494837 C21.0549471,14.494837 22.1724138,14.9228988 22.6939733,16.5484073 L23.0195256,17.5656174 L24.0863008,17.5870205 C25.6588648,17.6185619 27.481507,18.9478065 27.481507,20.5676826 C27.481507,23.3072783 24.8083735,23.530321 24.8083735,23.530321 L23.6007885,25.025158 L25.3085299,25.025158 L25.3085299,24.9857313 C27.5524751,24.711997 29,22.8397897 29,20.5676826 C29,18.134489 26.5532887,16.1417485 24.1178422,16.0921835 Z" id="Shape" fill="#FFFFFF"></path>
            </g>
        </g>
    </g>
</svg>