<?xml version="1.0" encoding="UTF-8"?>
<svg width="40px" height="40px" viewBox="0 0 40 40" version="1.1" xmlns="http://www.w3.org/2000/svg" xmlns:xlink="http://www.w3.org/1999/xlink">
    <!-- Generator: Sketch 52.6 (67491) - http://www.bohemiancoding.com/sketch -->
    <title>Group 15</title>
    <desc>Created with Sketch.</desc>
    <g id="Page-1" stroke="none" stroke-width="1" fill="none" fill-rule="evenodd">
        <g id="DC_Designer-user-cabinet---Notifications" transform="translate(-1353.000000, -738.000000)">
            <g id="Group-15" transform="translate(1353.000000, 738.000000)">
                <path d="M20,0 C31.0463534,0 40,8.95684893 40,20.0016012 C40,31.0463534 31.0463534,40 20,40 C8.95364663,40 0,31.0479545 0,20.0016012 C0,8.95524778 8.95364663,0 20,0 Z" id="Path" fill="#6AF0AD"></path>
                <g id="Layer-1" transform="translate(11.000000, 11.000000)" fill="#FFFFFF" fill-rule="nonzero">
                    <path d="M9.8544,12.7752 C9.8544,11.4732 10.9728,10.7532 12.5316,9.6864 C14.4384,8.3808 16.812,7.7076 16.812,3.8532 C16.812,3.5064 16.5372,3.2256 16.1976,3.2256 L13.2156,3.2256 C13.2012,1.7412 11.5392,0.6096 8.9892,0.6096 C6.4404,0.6096 4.8864,1.74 4.7628,3.2256 L1.7808,3.2256 C1.4412,3.2256 1.1652,3.5064 1.1652,3.8532 C1.1652,7.7076 3.54,8.3808 5.4468,9.6864 C7.0068,10.7544 8.1252,11.4732 8.1252,12.7752 L8.1252,13.626 C6.4872,13.8144 5.1204,14.5764 5.1204,15.3192 C5.1204,16.2108 6.852,17.1252 8.988,17.1252 C11.1252,17.1252 12.858,16.2108 12.858,15.3192 C12.858,14.5764 11.49,13.8144 9.8508,13.626 L9.8508,12.7752 L9.8544,12.7752 Z M12.4296,8.4828 C12.9228,7.4052 13.3116,6.2448 13.3752,4.0728 L15.9372,4.0728 C15.7848,6.5784 14.1576,7.4208 12.4296,8.4828 Z M8.9892,1.4328 C11.364,1.4316 12.2916,2.3964 12.2916,3.174 C12.294,3.8736 11.3664,4.9488 8.9892,4.95 C6.6144,4.9476 5.6844,4.0632 5.688,3.174 C5.688,2.4216 6.6144,1.4316 8.9892,1.4328 Z M2.0964,4.0728 L4.6032,4.0728 C4.6668,6.2448 5.0568,7.3788 5.55,8.454 C3.7692,7.3392 2.304,6.4968 2.0964,4.0728 Z" id="svg_1_2_"></path>
                </g>
            </g>
        </g>
    </g>
</svg>