<?xml version="1.0" encoding="utf-8"?>
<!-- Generator: Adobe Illustrator 16.0.0, SVG Export Plug-In . SVG Version: 6.00 Build 0)  -->
<!DOCTYPE svg PUBLIC "-//W3C//DTD SVG 1.1//EN" "http://www.w3.org/Graphics/SVG/1.1/DTD/svg11.dtd">
<svg version="1.1" id="Layer_1" xmlns="http://www.w3.org/2000/svg" xmlns:xlink="http://www.w3.org/1999/xlink" x="0px" y="0px"
	 width="122px" height="14px" viewBox="0 0 122 14" enable-background="new 0 0 122 14" xml:space="preserve">
<g>
	<path fill-rule="evenodd" clip-rule="evenodd" fill="#2E5767" d="M6.5,1h109C119.09,1,122,3.91,122,7.5
		c0,3.591-2.909,6.5-6.499,6.5H6.5C2.91,14,0,11.091,0,7.5C0,3.91,2.91,1,6.5,1z"/>
</g>
<g>
	<linearGradient id="SVGID_1_" gradientUnits="userSpaceOnUse" x1="60.999" y1="0" x2="60.999" y2="13.0005">
		<stop  offset="0" style="stop-color:#7CB9CA"/>
		<stop  offset="1" style="stop-color:#318CA6"/>
	</linearGradient>
	<path fill-rule="evenodd" clip-rule="evenodd" fill="url(#SVGID_1_)" d="M6.5,0h109C119.09,0,122,2.91,122,6.5
		c0,3.589-2.909,6.5-6.499,6.5H6.5C2.91,13,0,10.089,0,6.5C0,2.91,2.91,0,6.5,0z"/>
</g>
<rect x="25" opacity="0.5" fill="#2E5767" width="1" height="13"/>
<rect x="26" opacity="0.4" fill="#FFFFFF" width="1" height="13"/>
<rect x="48" opacity="0.5" fill="#2E5767" width="1" height="13"/>
<rect x="49" opacity="0.4" fill="#FFFFFF" width="1" height="13"/>
<rect x="71.999" opacity="0.5" fill="#2E5767" width="1" height="13"/>
<rect x="72.999" opacity="0.4" fill="#FFFFFF" width="1" height="13"/>
<rect x="94.999" opacity="0.5" fill="#2E5767" width="1" height="13"/>
<rect x="95.999" opacity="0.4" fill="#FFFFFF" width="1" height="13"/>
</svg>
