<?xml version="1.0" standalone="no"?>
<!DOCTYPE svg PUBLIC "-//W3C//DTD SVG 20010904//EN"
 "http://www.w3.org/TR/2001/REC-SVG-20010904/DTD/svg10.dtd">
<svg version="1.0" xmlns="http://www.w3.org/2000/svg"
 width="431.000000pt" height="431.000000pt" viewBox="0 0 431.000000 431.000000"
 preserveAspectRatio="xMidYMid meet">
<metadata>
Created by potrace 1.14, written by Peter Selinger 2001-2017
</metadata>
<g transform="translate(0.000000,431.000000) scale(0.100000,-0.100000)"
fill="#000000" stroke="none">
<path d="M1970 4219 c-102 -8 -149 -17 -330 -58 -193 -44 -479 -177 -670 -313
-131 -92 -341 -296 -437 -423 -209 -277 -332 -563 -395 -915 -29 -164 -31
-479 -5 -640 114 -686 526 -1241 1142 -1540 268 -130 518 -189 830 -197 170
-4 207 -2 357 21 175 28 270 53 428 113 671 255 1156 848 1286 1573 21 120 29
421 15 550 -92 804 -600 1448 -1361 1725 -242 88 -578 129 -860 104z m850
-430 c28 -6 64 -22 81 -36 32 -27 70 -94 87 -153 5 -19 31 -93 57 -165 70
-195 76 -220 64 -279 -11 -57 -42 -96 -104 -129 -39 -22 -51 -22 -501 -25
l-462 -3 -7 -205 c-4 -113 -5 -208 -1 -211 3 -3 99 -7 213 -8 178 -1 213 -4
246 -20 69 -33 95 -85 214 -435 56 -168 36 -247 -80 -305 l-51 -25 -554 0
c-362 0 -560 -4 -573 -10 -18 -10 -19 -23 -19 -214 0 -226 -3 -216 70 -216 67
0 70 -4 70 -87 l0 -76 -78 5 c-95 5 -130 27 -167 103 -23 46 -26 66 -31 225
-4 108 -2 200 5 239 13 78 53 147 101 176 34 19 53 20 615 25 l580 5 -3 39
c-2 22 -18 78 -37 125 -19 47 -37 100 -41 116 -4 17 -19 58 -35 93 l-28 62
-483 0 c-266 0 -501 5 -522 10 -53 12 -85 37 -121 95 l-30 48 -5 401 c-3 221
-3 469 0 552 5 146 6 152 35 199 20 32 45 56 74 72 l44 23 663 0 c440 0 680
-4 714 -11z m-794 -2396 c4 -15 4 -158 0 -318 -6 -301 -2 -349 32 -352 60 -7
915 -7 919 0 2 4 0 7 -4 7 -5 0 -7 15 -5 33 2 22 -18 89 -63 212 -36 99 -71
185 -77 192 -8 10 -64 13 -227 13 -119 0 -226 3 -239 6 -22 6 -23 11 -20 83
l3 76 110 5 c61 3 171 3 246 0 114 -5 141 -9 170 -27 48 -30 91 -108 137 -248
22 -66 51 -148 66 -183 35 -82 44 -168 22 -209 -24 -47 -84 -91 -140 -103 -34
-8 -195 -10 -486 -8 -492 3 -469 0 -530 84 l-34 48 -8 300 c-7 270 -5 386 9
409 2 4 29 7 58 7 51 0 55 -2 61 -27z"/>
<path d="M1446 3598 c-9 -28 -14 -996 -5 -1009 7 -11 45 -13 216 -11 115 2
212 8 218 13 6 6 12 121 15 284 3 150 7 275 10 278 28 25 74 27 543 27 442 0
496 2 508 16 11 14 5 39 -39 173 -29 86 -63 174 -75 196 l-23 40 -682 3 c-541
2 -683 0 -686 -10z"/>
<path d="M2002 950 c0 -19 2 -27 5 -17 2 9 2 25 0 35 -3 9 -5 1 -5 -18z"/>
<path d="M2989 823 c0 -4 -2 -16 -4 -27 -4 -22 4 -46 16 -46 12 0 11 67 -1 75
-5 3 -10 3 -11 -2z"/>
<path d="M1910 800 c0 -13 5 -20 13 -17 6 2 12 10 12 17 0 7 -6 15 -12 18 -8
2 -13 -5 -13 -18z"/>
<path d="M1994 809 c-3 -6 -1 -16 5 -22 8 -8 11 -5 11 11 0 24 -5 28 -16 11z"/>
<path d="M3065 777 c-4 -10 -5 -21 -1 -24 10 -10 18 4 13 24 -4 17 -4 17 -12
0z"/>
<path d="M1940 684 c0 -3 5 -14 10 -25 11 -20 50 -27 50 -9 0 6 -7 10 -15 10
-9 0 -18 7 -21 15 -6 14 -24 21 -24 9z"/>
<path d="M3046 654 c-22 -21 -20 -27 4 -14 11 6 20 15 20 20 0 14 -6 12 -24
-6z"/>
<path d="M2012 614 c10 -10 20 -15 24 -12 3 4 -5 12 -18 18 -22 12 -22 12 -6
-6z"/>
<path d="M2978 623 c6 -2 18 -2 25 0 6 3 1 5 -13 5 -14 0 -19 -2 -12 -5z"/>
<path d="M2428 583 c34 -2 88 -2 120 0 31 2 3 3 -63 3 -66 0 -92 -1 -57 -3z"/>
<path d="M2698 583 c17 -2 47 -2 65 0 17 2 3 4 -33 4 -36 0 -50 -2 -32 -4z"/>
<path d="M2848 583 c7 -3 16 -2 19 1 4 3 -2 6 -13 5 -11 0 -14 -3 -6 -6z"/>
<path d="M590 676 c0 -2 8 -10 18 -17 15 -13 16 -12 3 4 -13 16 -21 21 -21 13z"/>
<path d="M650 616 c0 -2 8 -10 18 -17 15 -13 16 -12 3 4 -13 16 -21 21 -21 13z"/>
<path d="M1070 296 c0 -2 7 -7 16 -10 8 -3 12 -2 9 4 -6 10 -25 14 -25 6z"/>
<path d="M2955 165 c-25 -12 -26 -14 -5 -9 28 7 60 23 45 23 -5 0 -23 -6 -40
-14z"/>
<path d="M1660 60 c34 -11 60 -11 35 0 -11 5 -29 8 -40 8 -16 0 -15 -2 5 -8z"/>
<path d="M2648 63 c7 -3 16 -2 19 1 4 3 -2 6 -13 5 -11 0 -14 -3 -6 -6z"/>
<path d="M2608 53 c7 -3 16 -2 19 1 4 3 -2 6 -13 5 -11 0 -14 -3 -6 -6z"/>
<path d="M1738 43 c7 -3 16 -2 19 1 4 3 -2 6 -13 5 -11 0 -14 -3 -6 -6z"/>
<path d="M2558 43 c7 -3 16 -2 19 1 4 3 -2 6 -13 5 -11 0 -14 -3 -6 -6z"/>
<path d="M1793 33 c9 -2 23 -2 30 0 6 3 -1 5 -18 5 -16 0 -22 -2 -12 -5z"/>
<path d="M2493 33 c9 -2 23 -2 30 0 6 3 -1 5 -18 5 -16 0 -22 -2 -12 -5z"/>
<path d="M1858 23 c6 -2 18 -2 25 0 6 3 1 5 -13 5 -14 0 -19 -2 -12 -5z"/>
<path d="M2438 23 c6 -2 18 -2 25 0 6 3 1 5 -13 5 -14 0 -19 -2 -12 -5z"/>
<path d="M1948 13 c12 -2 32 -2 45 0 12 2 2 4 -23 4 -25 0 -35 -2 -22 -4z"/>
<path d="M2308 13 c18 -2 45 -2 60 0 15 2 0 4 -33 4 -33 0 -45 -2 -27 -4z"/>
<path d="M2098 3 c34 -2 88 -2 120 0 31 2 3 3 -63 3 -66 0 -92 -1 -57 -3z"/>
</g>
</svg>
